G04 #@! TF.GenerationSoftware,KiCad,Pcbnew,(5.1.0-0)*
G04 #@! TF.CreationDate,2019-05-12T00:03:29+09:00*
G04 #@! TF.ProjectId,split_EC_right,73706c69-745f-4454-935f-72696768742e,rev?*
G04 #@! TF.SameCoordinates,Original*
G04 #@! TF.FileFunction,Profile,NP*
%FSLAX46Y46*%
G04 Gerber Fmt 4.6, Leading zero omitted, Abs format (unit mm)*
G04 Created by KiCad (PCBNEW (5.1.0-0)) date 2019-05-12 00:03:29*
%MOMM*%
%LPD*%
G04 APERTURE LIST*
%ADD10C,0.150000*%
G04 APERTURE END LIST*
D10*
X88925000Y-40000000D02*
X98725000Y-40000000D01*
X72250000Y-40000000D02*
X80225000Y-40000000D01*
X71250000Y-109000000D02*
G75*
G03X72250000Y-110000000I1000000J0D01*
G01*
X72250000Y-40000000D02*
G75*
G03X71250000Y-41000000I0J-1000000D01*
G01*
X156250000Y-41000000D02*
G75*
G03X155250000Y-40000000I-1000000J0D01*
G01*
X155250000Y-110000000D02*
G75*
G03X156250000Y-109000000I0J1000000D01*
G01*
X71250000Y-109000000D02*
X71250000Y-41000000D01*
X118425000Y-40000000D02*
X155250000Y-40000000D01*
X156250000Y-109000000D02*
X156250000Y-41000000D01*
X72250000Y-110000000D02*
X155250000Y-110000000D01*
X111250000Y-75550000D02*
X117250000Y-75550000D01*
X111250000Y-62550000D02*
X111250000Y-75550000D01*
X98250000Y-62550000D02*
X111250000Y-62550000D01*
X98250000Y-75550000D02*
X98250000Y-62550000D01*
X92250000Y-75550000D02*
X98250000Y-75550000D01*
X92250000Y-97550000D02*
X92250000Y-75550000D01*
X117250000Y-97550000D02*
X92250000Y-97550000D01*
X117250000Y-97550000D02*
X117250000Y-75550000D01*
X87875000Y-40000000D02*
X88925000Y-40000000D01*
X81275000Y-40000000D02*
X80225000Y-40000000D01*
X87875000Y-40000000D02*
X87875000Y-46870000D01*
X81275000Y-40000000D02*
X81275000Y-46870000D01*
X82275000Y-52500000D02*
X86875000Y-52500000D01*
X81275000Y-52500000D02*
G75*
G03X82275000Y-52500000I500000J0D01*
G01*
X86875000Y-52500000D02*
G75*
G03X87875000Y-52500000I500000J0D01*
G01*
X88175000Y-48170000D02*
G75*
G03X88175000Y-46870000I0J650000D01*
G01*
X87875000Y-46870000D02*
X88175000Y-46870000D01*
X87875000Y-48170000D02*
X88175000Y-48170000D01*
X87875000Y-48170000D02*
X87875000Y-52500000D01*
X80975000Y-46870000D02*
X81275000Y-46870000D01*
X81275000Y-48170000D02*
X81275000Y-52500000D01*
X80975000Y-48170000D02*
X81275000Y-48170000D01*
X80975000Y-48170000D02*
G75*
G02X80975000Y-46870000I0J650000D01*
G01*
X104075000Y-47150000D02*
X113075000Y-47150000D01*
X113075000Y-47150000D02*
X113075000Y-40000000D01*
X104075000Y-47150000D02*
X104075000Y-40000000D01*
X104075000Y-40000000D02*
X98725000Y-40000000D01*
X113075000Y-40000000D02*
X118425000Y-40000000D01*
M02*
