G04 #@! TF.GenerationSoftware,KiCad,Pcbnew,(5.1.0-0)*
G04 #@! TF.CreationDate,2019-05-12T00:03:29+09:00*
G04 #@! TF.ProjectId,split_EC_right,73706c69-745f-4454-935f-72696768742e,rev?*
G04 #@! TF.SameCoordinates,Original*
G04 #@! TF.FileFunction,Copper,L2,Bot*
G04 #@! TF.FilePolarity,Positive*
%FSLAX46Y46*%
G04 Gerber Fmt 4.6, Leading zero omitted, Abs format (unit mm)*
G04 Created by KiCad (PCBNEW (5.1.0-0)) date 2019-05-12 00:03:29*
%MOMM*%
%LPD*%
G04 APERTURE LIST*
%ADD10C,1.600000*%
%ADD11R,0.950000X1.050000*%
%ADD12C,0.700000*%
%ADD13C,0.100000*%
%ADD14R,0.700000X1.200000*%
%ADD15O,1.700000X1.700000*%
%ADD16R,1.700000X1.700000*%
%ADD17C,0.800000*%
%ADD18C,0.250000*%
G04 APERTURE END LIST*
D10*
X108560000Y-61050000D03*
X106020000Y-61050000D03*
X103480000Y-61050000D03*
X100940000Y-61050000D03*
D11*
X117700000Y-59375000D03*
X117700000Y-57625000D03*
X115550000Y-57625000D03*
X115550000Y-59375000D03*
D12*
X125925000Y-41875000D03*
D13*
G36*
X126475000Y-42825000D02*
G01*
X125875000Y-42825000D01*
X125875000Y-42225000D01*
X125375000Y-42225000D01*
X125375000Y-41525000D01*
X126475000Y-41525000D01*
X126475000Y-42825000D01*
X126475000Y-42825000D01*
G37*
D14*
X125525000Y-44125000D03*
X122125000Y-44125000D03*
D12*
X121725000Y-41875000D03*
D13*
G36*
X122275000Y-42225000D02*
G01*
X121775000Y-42225000D01*
X121775000Y-42825000D01*
X121175000Y-42825000D01*
X121175000Y-41525000D01*
X122275000Y-41525000D01*
X122275000Y-42225000D01*
X122275000Y-42225000D01*
G37*
D10*
X100955000Y-45480000D03*
X100955000Y-42940000D03*
X116195000Y-45480000D03*
X116195000Y-42940000D03*
X100955000Y-45480000D03*
X100955000Y-42940000D03*
X116195000Y-45480000D03*
X116195000Y-42940000D03*
D15*
X139950000Y-43100000D03*
X142490000Y-43100000D03*
X145030000Y-43100000D03*
X147570000Y-43100000D03*
X150110000Y-43100000D03*
D16*
X152650000Y-43100000D03*
D17*
X145950000Y-67400000D03*
X79825000Y-45450000D03*
X76375000Y-48250000D03*
X76375000Y-55400000D03*
X84700000Y-53975000D03*
X126500000Y-58300000D03*
X121375000Y-70650000D03*
X127550000Y-89100000D03*
X131625000Y-84975000D03*
X129025000Y-82325000D03*
X122100000Y-89075000D03*
X125650000Y-85550000D03*
X130750000Y-80575000D03*
X129025000Y-78800000D03*
X112375000Y-74425000D03*
X97100000Y-74450000D03*
X90650000Y-75850000D03*
X90025000Y-64225000D03*
X97750000Y-53425000D03*
X96900000Y-49775000D03*
X144875000Y-46525000D03*
X154775000Y-41475000D03*
X154775000Y-46625000D03*
X154775000Y-51775000D03*
X154775000Y-56925000D03*
X154775000Y-62075000D03*
X154775000Y-67225000D03*
X154775000Y-72375000D03*
X154775000Y-77525000D03*
X154775000Y-82675000D03*
X154775000Y-87825000D03*
X154775000Y-92975000D03*
X154775000Y-98125000D03*
X154775000Y-103275000D03*
X154775000Y-108425000D03*
X142575000Y-46700000D03*
X141750000Y-49200000D03*
X137650000Y-54275000D03*
X136875000Y-46875000D03*
X137900000Y-41550000D03*
X127625000Y-44600000D03*
X127625000Y-41525000D03*
X137900000Y-44575000D03*
X132475000Y-44600000D03*
X132475000Y-41525000D03*
X107300000Y-53650000D03*
X106175000Y-56975000D03*
X103375000Y-56925000D03*
X84750000Y-56950000D03*
X72700000Y-41500000D03*
X72700000Y-46650000D03*
X72700000Y-51800000D03*
X72700000Y-56950000D03*
X72700000Y-62100000D03*
X72700000Y-67250000D03*
X72700000Y-72400000D03*
X72700000Y-77550000D03*
X72700000Y-82700000D03*
X72700000Y-87850000D03*
X72700000Y-93000000D03*
X72700000Y-98150000D03*
X72700000Y-103300000D03*
X72700000Y-108450000D03*
X77830000Y-108450000D03*
X82960000Y-108450000D03*
X88090000Y-108450000D03*
X93220000Y-108450000D03*
X98350000Y-108450000D03*
X103480000Y-108450000D03*
X108610000Y-108450000D03*
X113740000Y-108450000D03*
X118870000Y-108450000D03*
X124000000Y-108450000D03*
X129130000Y-108450000D03*
X134260000Y-108450000D03*
X139390000Y-108450000D03*
X144520000Y-108450000D03*
X149650000Y-108450000D03*
X77830000Y-103300000D03*
X82960000Y-103300000D03*
X88090000Y-103300000D03*
X93220000Y-103300000D03*
X98350000Y-103300000D03*
X103480000Y-103300000D03*
X113725000Y-103500000D03*
X118875000Y-103475000D03*
X124000000Y-103300000D03*
X129130000Y-103300000D03*
X134260000Y-103300000D03*
X139390000Y-103300000D03*
X144520000Y-103300000D03*
X149650000Y-103300000D03*
X143350000Y-95775000D03*
X148350000Y-92525000D03*
X135825000Y-98725000D03*
X147150000Y-56550000D03*
X149525000Y-59925000D03*
X140250000Y-62375000D03*
X151000000Y-62000000D03*
X151000000Y-66125000D03*
X148475000Y-69000000D03*
X77830000Y-93000000D03*
X82960000Y-93000000D03*
X88090000Y-93000000D03*
X77830000Y-98150000D03*
X82960000Y-98150000D03*
X88090000Y-98150000D03*
X77830000Y-87850000D03*
X82960000Y-87850000D03*
X88090000Y-87850000D03*
X77830000Y-77550000D03*
X82960000Y-77550000D03*
X77830000Y-72400000D03*
X77830000Y-82700000D03*
X82960000Y-82700000D03*
X77830000Y-67250000D03*
X77830000Y-62100000D03*
X86575000Y-74900000D03*
X86600000Y-79950000D03*
X86600000Y-85075000D03*
X91175000Y-91925000D03*
X91300000Y-98400000D03*
X96750000Y-98650000D03*
X140025000Y-99050000D03*
X141875000Y-92650000D03*
X138775000Y-95650000D03*
X129175000Y-98750000D03*
X124025000Y-98775000D03*
X118550000Y-92100000D03*
X118375000Y-97675000D03*
X122150000Y-83950000D03*
X122450000Y-81750000D03*
X124025000Y-79150000D03*
X118600000Y-75650000D03*
X126200000Y-71275000D03*
X126475000Y-65475000D03*
X102250000Y-53650000D03*
X100525000Y-58200000D03*
X97150000Y-70225000D03*
X97175000Y-65150000D03*
X121625000Y-95100000D03*
X121625000Y-98750000D03*
X125150000Y-91575000D03*
X128525000Y-91500000D03*
X126600000Y-95075000D03*
X132825000Y-95050000D03*
X135150000Y-91525000D03*
X146850000Y-79300000D03*
X146850000Y-81950000D03*
X133450000Y-86750000D03*
X133625000Y-83250000D03*
X141800000Y-81775000D03*
X137225000Y-79600000D03*
X137875000Y-82225000D03*
X136075000Y-75075000D03*
X137500000Y-73800000D03*
X137950000Y-67775000D03*
X125925000Y-75625000D03*
X129025000Y-68575000D03*
X129000000Y-63075000D03*
X138050000Y-49225000D03*
X129000000Y-58275000D03*
X127725000Y-56000000D03*
X144800000Y-49325000D03*
X117900000Y-49750000D03*
X119125000Y-47400000D03*
X122075000Y-45975000D03*
X120100000Y-41500000D03*
X120400000Y-43900000D03*
X114200000Y-41575000D03*
X114225000Y-47200000D03*
X102975000Y-47225000D03*
X102925000Y-41500000D03*
X90925000Y-41550000D03*
X91000000Y-44025000D03*
X90525000Y-47900000D03*
X95825000Y-47350000D03*
X92975000Y-50175000D03*
X88775000Y-53950000D03*
X90775000Y-55950000D03*
X90750000Y-59925000D03*
X93000000Y-57875000D03*
X90700000Y-71125000D03*
X78225000Y-41500000D03*
X78225000Y-43125000D03*
X96550000Y-41500000D03*
X112375000Y-69275000D03*
X112375000Y-64125000D03*
X119050000Y-69275000D03*
X119075000Y-64100000D03*
X119000000Y-55825000D03*
X121375000Y-53200000D03*
X121375000Y-58275000D03*
X121375000Y-64075000D03*
X121425000Y-49350000D03*
X124725000Y-52775000D03*
X132175000Y-51400000D03*
X128925000Y-46800000D03*
X133925000Y-53400000D03*
X133075000Y-58950000D03*
X133175000Y-64525000D03*
X136825000Y-60725000D03*
X128175000Y-50225000D03*
X80625000Y-53950000D03*
X82950000Y-72425000D03*
X86275000Y-67825000D03*
X150950000Y-70175000D03*
X140550000Y-54325000D03*
X143800000Y-69525000D03*
X129075000Y-73900000D03*
X133175000Y-71075000D03*
X149600000Y-86975000D03*
X149725000Y-91150000D03*
X149650000Y-79150000D03*
X149675000Y-82025000D03*
X152925000Y-79875000D03*
X149675000Y-95700000D03*
X152875000Y-92375000D03*
X152900000Y-85375000D03*
X140300000Y-57600000D03*
X150275000Y-53325000D03*
X150175000Y-47200000D03*
X147325000Y-47575000D03*
X112025000Y-58650000D03*
X114950000Y-53600000D03*
X119275000Y-99125000D03*
X137525002Y-75325000D03*
X152075000Y-61025000D03*
X150850480Y-78400480D03*
X107300000Y-102400000D03*
X137525000Y-77574998D03*
X151309072Y-75305477D03*
X151300000Y-73500000D03*
X137499367Y-76475317D03*
X101950000Y-101525000D03*
X144500000Y-56600000D03*
X121950000Y-80175000D03*
X139600000Y-56200002D03*
X122675000Y-77625000D03*
X121225000Y-82725000D03*
X139075000Y-54525000D03*
X140659220Y-80440850D03*
X139375030Y-69125000D03*
X142000000Y-68350000D03*
X150875001Y-77224999D03*
X140125000Y-68250000D03*
X138650000Y-80075000D03*
X140900000Y-67100000D03*
X150887653Y-76212345D03*
X111100000Y-56250000D03*
X113650000Y-56250000D03*
X121225000Y-85250000D03*
X79650000Y-65800000D03*
X89475000Y-66675000D03*
X86425000Y-65800000D03*
X88600000Y-65800000D03*
X90350000Y-62025000D03*
X91849996Y-45475000D03*
D18*
X137525000Y-75325000D02*
X137525002Y-75325000D01*
X119575000Y-93275000D02*
X137525000Y-75325000D01*
X119575000Y-98825000D02*
X119575000Y-93275000D01*
X119275000Y-99125000D02*
X119575000Y-98825000D01*
X152075000Y-77175960D02*
X150850480Y-78400480D01*
X152075000Y-61025000D02*
X152075000Y-77175960D01*
X120500000Y-94600000D02*
X137525000Y-77575000D01*
X120500000Y-100300000D02*
X120500000Y-94600000D01*
X137525000Y-77575000D02*
X137525000Y-77574998D01*
X118400000Y-102400000D02*
X120500000Y-100300000D01*
X107300000Y-102400000D02*
X118400000Y-102400000D01*
X151309072Y-73509072D02*
X151300000Y-73500000D01*
X151309072Y-75305477D02*
X151309072Y-73509072D01*
X118600000Y-101525000D02*
X102515685Y-101525000D01*
X120025000Y-100100000D02*
X118600000Y-101525000D01*
X137499367Y-76475317D02*
X120025000Y-93949684D01*
X120025000Y-93949684D02*
X120025000Y-100100000D01*
X102515685Y-101525000D02*
X101950000Y-101525000D01*
X139250002Y-55449998D02*
X121950000Y-72750000D01*
X141099998Y-55449998D02*
X139250002Y-55449998D01*
X142250000Y-56600000D02*
X141099998Y-55449998D01*
X121950000Y-72750000D02*
X121950000Y-80175000D01*
X144500000Y-56600000D02*
X142250000Y-56600000D01*
X144500000Y-56575000D02*
X144500000Y-56600000D01*
X148500000Y-46700000D02*
X148500000Y-52575000D01*
X148500000Y-52575000D02*
X144500000Y-56575000D01*
X145025000Y-43225000D02*
X148500000Y-46700000D01*
X145025000Y-43100000D02*
X145025000Y-43225000D01*
X122675000Y-76425000D02*
X122675000Y-77625000D01*
X122675000Y-73125002D02*
X122675000Y-76425000D01*
X139600000Y-56200002D02*
X122675000Y-73125002D01*
X152650000Y-43125000D02*
X152650000Y-43100000D01*
X139600000Y-56200002D02*
X140900002Y-56200002D01*
X149075000Y-53075000D02*
X149075000Y-46700000D01*
X144800001Y-57349999D02*
X149075000Y-53075000D01*
X142049999Y-57349999D02*
X144800001Y-57349999D01*
X149075000Y-46700000D02*
X152650000Y-43125000D01*
X140900002Y-56200002D02*
X142049999Y-57349999D01*
X144325000Y-41700000D02*
X143750000Y-42275000D01*
X147575000Y-43100000D02*
X146175000Y-41700000D01*
X143750000Y-42275000D02*
X143750000Y-48834315D01*
X143750000Y-48834315D02*
X139075000Y-53509315D01*
X146175000Y-41700000D02*
X144325000Y-41700000D01*
X121225000Y-72375000D02*
X138675001Y-54924999D01*
X139075000Y-53509315D02*
X139075000Y-53959315D01*
X139075000Y-53959315D02*
X139075000Y-54525000D01*
X121225000Y-82725000D02*
X121225000Y-72375000D01*
X138675001Y-54924999D02*
X139075000Y-54525000D01*
X139375030Y-69690685D02*
X139375030Y-69125000D01*
X139375030Y-79156660D02*
X139375030Y-69690685D01*
X140659220Y-80440850D02*
X139375030Y-79156660D01*
X150199999Y-77224999D02*
X150875001Y-77224999D01*
X149800000Y-76825000D02*
X150199999Y-77224999D01*
X149800000Y-73725000D02*
X149800000Y-76825000D01*
X144425000Y-68350000D02*
X149800000Y-73725000D01*
X142000000Y-68350000D02*
X144425000Y-68350000D01*
X139176992Y-68250000D02*
X138649991Y-68776999D01*
X140125000Y-68250000D02*
X139176992Y-68250000D01*
X138649991Y-79509306D02*
X138649991Y-68776999D01*
X138650000Y-79509315D02*
X138649991Y-79509306D01*
X138650000Y-80075000D02*
X138650000Y-79509315D01*
X150250000Y-75574692D02*
X150887653Y-76212345D01*
X150250000Y-73525000D02*
X150250000Y-75574692D01*
X143825000Y-67100000D02*
X150250000Y-73525000D01*
X140900000Y-67100000D02*
X143825000Y-67100000D01*
X112475000Y-57625000D02*
X111100000Y-56250000D01*
X115550000Y-57625000D02*
X112475000Y-57625000D01*
X116375000Y-56250000D02*
X117700000Y-57575000D01*
X113650000Y-56250000D02*
X116375000Y-56250000D01*
X117700000Y-57575000D02*
X117700000Y-57625000D01*
X122125000Y-44375000D02*
X122125000Y-44125000D01*
X120200000Y-46300000D02*
X122125000Y-44375000D01*
X120200000Y-84225000D02*
X120200000Y-46300000D01*
X121225000Y-85250000D02*
X120200000Y-84225000D01*
X142500000Y-44625000D02*
X142500000Y-43100000D01*
X141425000Y-45700000D02*
X142500000Y-44625000D01*
X123450000Y-45700000D02*
X141425000Y-45700000D01*
X122125000Y-44375000D02*
X123450000Y-45700000D01*
X80525000Y-66675000D02*
X79650000Y-65800000D01*
X89475000Y-66675000D02*
X80525000Y-66675000D01*
X86425000Y-65800000D02*
X88600000Y-65800000D01*
X90350000Y-62025000D02*
X91849996Y-60525004D01*
X91849996Y-46040685D02*
X91849996Y-45475000D01*
X91849996Y-60525004D02*
X91849996Y-46040685D01*
G36*
X80575001Y-46233846D02*
G01*
X80507278Y-46255329D01*
X80448978Y-46280317D01*
X80390310Y-46304497D01*
X80381713Y-46309146D01*
X80270546Y-46370260D01*
X80218210Y-46406095D01*
X80165347Y-46441217D01*
X80157816Y-46447448D01*
X80060639Y-46528991D01*
X80016270Y-46574299D01*
X79971235Y-46619020D01*
X79965058Y-46626594D01*
X79965054Y-46626599D01*
X79965051Y-46626604D01*
X79885568Y-46725460D01*
X79850824Y-46778553D01*
X79815349Y-46831146D01*
X79810764Y-46839771D01*
X79810761Y-46839775D01*
X79810761Y-46839776D01*
X79751988Y-46952198D01*
X79728210Y-47011050D01*
X79703635Y-47069511D01*
X79700812Y-47078860D01*
X79700810Y-47078866D01*
X79700810Y-47078868D01*
X79664993Y-47200563D01*
X79653103Y-47262892D01*
X79640347Y-47325034D01*
X79639394Y-47334762D01*
X79627897Y-47461098D01*
X79628340Y-47524539D01*
X79627897Y-47587979D01*
X79628851Y-47597706D01*
X79642111Y-47723870D01*
X79654865Y-47786007D01*
X79666756Y-47848341D01*
X79669578Y-47857684D01*
X79669580Y-47857695D01*
X79669584Y-47857705D01*
X79707094Y-47978882D01*
X79731691Y-48037396D01*
X79755447Y-48096194D01*
X79760036Y-48104824D01*
X79820373Y-48216414D01*
X79855869Y-48269038D01*
X79890588Y-48322096D01*
X79896765Y-48329670D01*
X79977627Y-48427416D01*
X80022676Y-48472152D01*
X80067034Y-48517450D01*
X80074559Y-48523675D01*
X80074565Y-48523681D01*
X80074570Y-48523684D01*
X80172872Y-48603858D01*
X80225737Y-48638982D01*
X80278068Y-48674814D01*
X80286655Y-48679457D01*
X80286661Y-48679461D01*
X80286666Y-48679463D01*
X80398675Y-48739019D01*
X80457313Y-48763188D01*
X80515645Y-48788189D01*
X80524982Y-48791079D01*
X80575000Y-48806180D01*
X80575001Y-52534390D01*
X80578389Y-52568790D01*
X80578389Y-52575285D01*
X80579411Y-52585006D01*
X80584128Y-52627064D01*
X80585129Y-52637224D01*
X80585349Y-52637951D01*
X80590288Y-52681981D01*
X80603485Y-52744071D01*
X80615802Y-52806277D01*
X80618692Y-52815614D01*
X80648198Y-52908630D01*
X80673199Y-52966962D01*
X80697368Y-53025600D01*
X80702017Y-53034198D01*
X80749028Y-53119710D01*
X80784874Y-53172062D01*
X80819984Y-53224907D01*
X80826214Y-53232438D01*
X80888939Y-53307190D01*
X80934287Y-53351597D01*
X80978970Y-53396594D01*
X80986544Y-53402772D01*
X81062594Y-53463918D01*
X81115701Y-53498670D01*
X81168281Y-53534136D01*
X81176904Y-53538721D01*
X81176909Y-53538724D01*
X81176914Y-53538726D01*
X81263391Y-53583935D01*
X81322239Y-53607712D01*
X81380698Y-53632286D01*
X81390051Y-53635110D01*
X81390059Y-53635113D01*
X81390067Y-53635115D01*
X81483666Y-53662663D01*
X81546001Y-53674554D01*
X81608140Y-53687310D01*
X81617856Y-53688262D01*
X81617862Y-53688263D01*
X81617868Y-53688263D01*
X81715050Y-53697107D01*
X81778524Y-53696664D01*
X81841932Y-53697107D01*
X81851649Y-53696154D01*
X81851663Y-53696154D01*
X81851676Y-53696151D01*
X81948708Y-53685953D01*
X82010878Y-53673192D01*
X82073177Y-53661308D01*
X82082524Y-53658486D01*
X82082534Y-53658484D01*
X82082543Y-53658480D01*
X82175753Y-53629627D01*
X82234283Y-53605024D01*
X82293068Y-53581273D01*
X82301686Y-53576690D01*
X82301694Y-53576687D01*
X82301700Y-53576683D01*
X82387536Y-53530272D01*
X82440156Y-53494779D01*
X82493220Y-53460055D01*
X82500792Y-53453879D01*
X82500795Y-53453877D01*
X82500800Y-53453872D01*
X82575983Y-53391675D01*
X82620698Y-53346647D01*
X82666012Y-53302273D01*
X82672243Y-53294742D01*
X82733918Y-53219121D01*
X82746622Y-53200000D01*
X86403436Y-53200000D01*
X86419984Y-53224907D01*
X86426214Y-53232438D01*
X86488939Y-53307190D01*
X86534287Y-53351597D01*
X86578970Y-53396594D01*
X86586544Y-53402772D01*
X86662594Y-53463918D01*
X86715701Y-53498670D01*
X86768281Y-53534136D01*
X86776904Y-53538721D01*
X86776909Y-53538724D01*
X86776914Y-53538726D01*
X86863391Y-53583935D01*
X86922239Y-53607712D01*
X86980698Y-53632286D01*
X86990051Y-53635110D01*
X86990059Y-53635113D01*
X86990067Y-53635115D01*
X87083666Y-53662663D01*
X87146001Y-53674554D01*
X87208140Y-53687310D01*
X87217856Y-53688262D01*
X87217862Y-53688263D01*
X87217868Y-53688263D01*
X87315050Y-53697107D01*
X87378524Y-53696664D01*
X87441932Y-53697107D01*
X87451649Y-53696154D01*
X87451663Y-53696154D01*
X87451676Y-53696151D01*
X87548708Y-53685953D01*
X87610878Y-53673192D01*
X87673177Y-53661308D01*
X87682524Y-53658486D01*
X87682534Y-53658484D01*
X87682543Y-53658480D01*
X87775753Y-53629627D01*
X87834283Y-53605024D01*
X87893068Y-53581273D01*
X87901686Y-53576690D01*
X87901694Y-53576687D01*
X87901700Y-53576683D01*
X87987536Y-53530272D01*
X88040156Y-53494779D01*
X88093220Y-53460055D01*
X88100792Y-53453879D01*
X88100795Y-53453877D01*
X88100800Y-53453872D01*
X88175983Y-53391675D01*
X88220698Y-53346647D01*
X88266012Y-53302273D01*
X88272243Y-53294742D01*
X88333918Y-53219121D01*
X88369022Y-53166287D01*
X88404878Y-53113921D01*
X88409526Y-53105323D01*
X88455338Y-53019162D01*
X88479515Y-52960504D01*
X88504506Y-52902197D01*
X88507396Y-52892860D01*
X88535601Y-52799442D01*
X88547927Y-52737190D01*
X88561116Y-52675143D01*
X88562136Y-52665435D01*
X88562137Y-52665428D01*
X88562137Y-52665422D01*
X88571492Y-52570005D01*
X88575000Y-52534390D01*
X88575000Y-48806154D01*
X88642722Y-48784671D01*
X88701064Y-48759666D01*
X88759689Y-48735503D01*
X88768281Y-48730857D01*
X88768291Y-48730853D01*
X88768300Y-48730847D01*
X88879454Y-48669740D01*
X88931807Y-48633893D01*
X88984652Y-48598783D01*
X88992172Y-48592561D01*
X88992178Y-48592557D01*
X88992182Y-48592552D01*
X89089361Y-48511010D01*
X89133749Y-48465682D01*
X89178765Y-48420980D01*
X89184942Y-48413405D01*
X89184946Y-48413401D01*
X89184949Y-48413396D01*
X89264432Y-48314540D01*
X89299176Y-48261447D01*
X89334651Y-48208854D01*
X89339236Y-48200229D01*
X89339239Y-48200225D01*
X89339241Y-48200221D01*
X89398012Y-48087802D01*
X89421784Y-48028964D01*
X89446365Y-47970490D01*
X89449190Y-47961133D01*
X89485007Y-47839437D01*
X89496897Y-47777108D01*
X89509653Y-47714966D01*
X89510606Y-47705238D01*
X89522103Y-47578902D01*
X89521660Y-47515500D01*
X89522104Y-47452021D01*
X89521149Y-47442294D01*
X89507889Y-47316131D01*
X89495131Y-47253975D01*
X89483244Y-47191659D01*
X89480422Y-47182316D01*
X89480420Y-47182305D01*
X89480416Y-47182295D01*
X89442905Y-47061118D01*
X89418322Y-47002636D01*
X89394553Y-46943806D01*
X89389964Y-46935176D01*
X89329627Y-46823586D01*
X89294131Y-46770962D01*
X89259412Y-46717904D01*
X89253235Y-46710330D01*
X89172373Y-46612584D01*
X89127324Y-46567848D01*
X89082966Y-46522550D01*
X89075441Y-46516325D01*
X89075435Y-46516319D01*
X89075428Y-46516315D01*
X88977128Y-46436142D01*
X88924278Y-46401028D01*
X88871932Y-46365186D01*
X88863334Y-46360537D01*
X88751325Y-46300981D01*
X88692674Y-46276807D01*
X88634355Y-46251811D01*
X88625017Y-46248921D01*
X88575000Y-46233820D01*
X88575000Y-42799650D01*
X99530000Y-42799650D01*
X99530000Y-43080350D01*
X99584762Y-43355657D01*
X99692181Y-43614991D01*
X99848130Y-43848385D01*
X100046615Y-44046870D01*
X100280009Y-44202819D01*
X100297346Y-44210000D01*
X100280009Y-44217181D01*
X100046615Y-44373130D01*
X99848130Y-44571615D01*
X99692181Y-44805009D01*
X99584762Y-45064343D01*
X99530000Y-45339650D01*
X99530000Y-45620350D01*
X99584762Y-45895657D01*
X99692181Y-46154991D01*
X99848130Y-46388385D01*
X100046615Y-46586870D01*
X100280009Y-46742819D01*
X100539343Y-46850238D01*
X100814650Y-46905000D01*
X101095350Y-46905000D01*
X101370657Y-46850238D01*
X101629991Y-46742819D01*
X101863385Y-46586870D01*
X102061870Y-46388385D01*
X102217819Y-46154991D01*
X102325238Y-45895657D01*
X102380000Y-45620350D01*
X102380000Y-45339650D01*
X102325238Y-45064343D01*
X102217819Y-44805009D01*
X102061870Y-44571615D01*
X101863385Y-44373130D01*
X101629991Y-44217181D01*
X101612654Y-44210000D01*
X101629991Y-44202819D01*
X101863385Y-44046870D01*
X102061870Y-43848385D01*
X102217819Y-43614991D01*
X102325238Y-43355657D01*
X102380000Y-43080350D01*
X102380000Y-42799650D01*
X102325238Y-42524343D01*
X102217819Y-42265009D01*
X102061870Y-42031615D01*
X101863385Y-41833130D01*
X101629991Y-41677181D01*
X101370657Y-41569762D01*
X101095350Y-41515000D01*
X100814650Y-41515000D01*
X100539343Y-41569762D01*
X100280009Y-41677181D01*
X100046615Y-41833130D01*
X99848130Y-42031615D01*
X99692181Y-42265009D01*
X99584762Y-42524343D01*
X99530000Y-42799650D01*
X88575000Y-42799650D01*
X88575000Y-41125000D01*
X103375001Y-41125000D01*
X103375000Y-47115610D01*
X103371613Y-47150000D01*
X103385128Y-47287224D01*
X103425155Y-47419175D01*
X103490155Y-47540781D01*
X103577630Y-47647370D01*
X103684219Y-47734845D01*
X103805825Y-47799845D01*
X103937776Y-47839872D01*
X104033818Y-47849331D01*
X104075000Y-47853387D01*
X104109390Y-47850000D01*
X113040610Y-47850000D01*
X113075000Y-47853387D01*
X113109390Y-47850000D01*
X113212224Y-47839872D01*
X113344175Y-47799845D01*
X113465781Y-47734845D01*
X113572370Y-47647370D01*
X113659845Y-47540781D01*
X113724845Y-47419175D01*
X113764872Y-47287224D01*
X113778387Y-47150000D01*
X113775000Y-47115610D01*
X113775000Y-42799650D01*
X114770000Y-42799650D01*
X114770000Y-43080350D01*
X114824762Y-43355657D01*
X114932181Y-43614991D01*
X115088130Y-43848385D01*
X115286615Y-44046870D01*
X115520009Y-44202819D01*
X115537346Y-44210000D01*
X115520009Y-44217181D01*
X115286615Y-44373130D01*
X115088130Y-44571615D01*
X114932181Y-44805009D01*
X114824762Y-45064343D01*
X114770000Y-45339650D01*
X114770000Y-45620350D01*
X114824762Y-45895657D01*
X114932181Y-46154991D01*
X115088130Y-46388385D01*
X115286615Y-46586870D01*
X115520009Y-46742819D01*
X115779343Y-46850238D01*
X116054650Y-46905000D01*
X116335350Y-46905000D01*
X116610657Y-46850238D01*
X116869991Y-46742819D01*
X117103385Y-46586870D01*
X117301870Y-46388385D01*
X117457819Y-46154991D01*
X117565238Y-45895657D01*
X117620000Y-45620350D01*
X117620000Y-45339650D01*
X117565238Y-45064343D01*
X117457819Y-44805009D01*
X117301870Y-44571615D01*
X117103385Y-44373130D01*
X116869991Y-44217181D01*
X116852654Y-44210000D01*
X116869991Y-44202819D01*
X117103385Y-44046870D01*
X117301870Y-43848385D01*
X117457819Y-43614991D01*
X117565238Y-43355657D01*
X117620000Y-43080350D01*
X117620000Y-42799650D01*
X117565238Y-42524343D01*
X117457819Y-42265009D01*
X117301870Y-42031615D01*
X117103385Y-41833130D01*
X116869991Y-41677181D01*
X116610657Y-41569762D01*
X116335350Y-41515000D01*
X116054650Y-41515000D01*
X115779343Y-41569762D01*
X115520009Y-41677181D01*
X115286615Y-41833130D01*
X115088130Y-42031615D01*
X114932181Y-42265009D01*
X114824762Y-42524343D01*
X114770000Y-42799650D01*
X113775000Y-42799650D01*
X113775000Y-41125000D01*
X120694745Y-41125000D01*
X120652817Y-41176089D01*
X120594781Y-41284666D01*
X120559043Y-41402479D01*
X120546976Y-41525000D01*
X120546976Y-42825000D01*
X120559043Y-42947521D01*
X120594781Y-43065334D01*
X120652817Y-43173911D01*
X120730920Y-43269080D01*
X120826089Y-43347183D01*
X120934666Y-43405219D01*
X121052479Y-43440957D01*
X121154266Y-43450982D01*
X121146976Y-43525000D01*
X121146976Y-44292364D01*
X119695715Y-45743626D01*
X119667106Y-45767105D01*
X119643627Y-45795714D01*
X119643624Y-45795717D01*
X119616131Y-45829218D01*
X119573382Y-45881307D01*
X119566780Y-45893659D01*
X119503739Y-46011600D01*
X119460853Y-46152975D01*
X119446373Y-46300000D01*
X119450001Y-46336837D01*
X119450000Y-84188173D01*
X119446373Y-84225000D01*
X119450000Y-84261827D01*
X119450000Y-84261834D01*
X119460853Y-84372025D01*
X119503739Y-84513400D01*
X119573381Y-84643692D01*
X119667105Y-84757895D01*
X119695719Y-84781378D01*
X120200000Y-85285660D01*
X120200000Y-85350954D01*
X120239390Y-85548982D01*
X120316656Y-85735520D01*
X120428830Y-85903400D01*
X120571600Y-86046170D01*
X120739480Y-86158344D01*
X120926018Y-86235610D01*
X121124046Y-86275000D01*
X121325954Y-86275000D01*
X121523982Y-86235610D01*
X121710520Y-86158344D01*
X121878400Y-86046170D01*
X122021170Y-85903400D01*
X122133344Y-85735520D01*
X122210610Y-85548982D01*
X122250000Y-85350954D01*
X122250000Y-85149046D01*
X122210610Y-84951018D01*
X122133344Y-84764480D01*
X122021170Y-84596600D01*
X121878400Y-84453830D01*
X121710520Y-84341656D01*
X121523982Y-84264390D01*
X121325954Y-84225000D01*
X121260660Y-84225000D01*
X120950000Y-83914341D01*
X120950000Y-83715380D01*
X121124046Y-83750000D01*
X121325954Y-83750000D01*
X121523982Y-83710610D01*
X121710520Y-83633344D01*
X121878400Y-83521170D01*
X122021170Y-83378400D01*
X122133344Y-83210520D01*
X122210610Y-83023982D01*
X122250000Y-82825954D01*
X122250000Y-82624046D01*
X122210610Y-82426018D01*
X122133344Y-82239480D01*
X122021170Y-82071600D01*
X121975000Y-82025430D01*
X121975000Y-81200000D01*
X122050954Y-81200000D01*
X122248982Y-81160610D01*
X122435520Y-81083344D01*
X122603400Y-80971170D01*
X122746170Y-80828400D01*
X122858344Y-80660520D01*
X122935610Y-80473982D01*
X122975000Y-80275954D01*
X122975000Y-80074046D01*
X122935610Y-79876018D01*
X122858344Y-79689480D01*
X122746170Y-79521600D01*
X122700000Y-79475430D01*
X122700000Y-78650000D01*
X122775954Y-78650000D01*
X122973982Y-78610610D01*
X123160520Y-78533344D01*
X123328400Y-78421170D01*
X123471170Y-78278400D01*
X123583344Y-78110520D01*
X123660610Y-77923982D01*
X123700000Y-77725954D01*
X123700000Y-77524046D01*
X123660610Y-77326018D01*
X123583344Y-77139480D01*
X123471170Y-76971600D01*
X123425000Y-76925430D01*
X123425000Y-73435661D01*
X139635660Y-57225002D01*
X139700954Y-57225002D01*
X139898982Y-57185612D01*
X140085520Y-57108346D01*
X140253400Y-56996172D01*
X140299570Y-56950002D01*
X140589343Y-56950002D01*
X141493629Y-57854290D01*
X141517104Y-57882894D01*
X141545707Y-57906368D01*
X141545714Y-57906375D01*
X141619924Y-57967277D01*
X141631306Y-57976618D01*
X141761598Y-58046260D01*
X141902973Y-58089146D01*
X142013164Y-58099999D01*
X142013173Y-58099999D01*
X142049998Y-58103626D01*
X142086823Y-58099999D01*
X144763174Y-58099999D01*
X144800001Y-58103626D01*
X144836828Y-58099999D01*
X144836836Y-58099999D01*
X144947027Y-58089146D01*
X145088402Y-58046260D01*
X145218694Y-57976618D01*
X145332896Y-57882894D01*
X145356380Y-57854279D01*
X149579287Y-53631373D01*
X149607895Y-53607895D01*
X149633510Y-53576684D01*
X149701619Y-53493693D01*
X149771261Y-53363401D01*
X149814147Y-53222026D01*
X149816942Y-53193644D01*
X149825000Y-53111835D01*
X149825000Y-53111828D01*
X149828627Y-53075000D01*
X149825000Y-53038172D01*
X149825000Y-47010659D01*
X152257636Y-44578024D01*
X153500000Y-44578024D01*
X153622521Y-44565957D01*
X153740334Y-44530219D01*
X153848911Y-44472183D01*
X153944080Y-44394080D01*
X154022183Y-44298911D01*
X154080219Y-44190334D01*
X154115957Y-44072521D01*
X154128024Y-43950000D01*
X154128024Y-42250000D01*
X154115957Y-42127479D01*
X154080219Y-42009666D01*
X154022183Y-41901089D01*
X153944080Y-41805920D01*
X153848911Y-41727817D01*
X153740334Y-41669781D01*
X153622521Y-41634043D01*
X153500000Y-41621976D01*
X151800000Y-41621976D01*
X151677479Y-41634043D01*
X151559666Y-41669781D01*
X151451089Y-41727817D01*
X151355920Y-41805920D01*
X151277817Y-41901089D01*
X151219781Y-42009666D01*
X151193746Y-42095494D01*
X151158028Y-42051972D01*
X150933431Y-41867649D01*
X150677189Y-41730685D01*
X150399150Y-41646343D01*
X150182452Y-41625000D01*
X150037548Y-41625000D01*
X149820850Y-41646343D01*
X149542811Y-41730685D01*
X149286569Y-41867649D01*
X149061972Y-42051972D01*
X148877649Y-42276569D01*
X148840000Y-42347005D01*
X148802351Y-42276569D01*
X148618028Y-42051972D01*
X148393431Y-41867649D01*
X148137189Y-41730685D01*
X147859150Y-41646343D01*
X147642452Y-41625000D01*
X147497548Y-41625000D01*
X147280850Y-41646343D01*
X147205009Y-41669349D01*
X146731378Y-41195719D01*
X146707895Y-41167105D01*
X146656590Y-41125000D01*
X155125000Y-41125000D01*
X155125000Y-108875000D01*
X72375000Y-108875000D01*
X72375000Y-101424046D01*
X100925000Y-101424046D01*
X100925000Y-101625954D01*
X100964390Y-101823982D01*
X101041656Y-102010520D01*
X101153830Y-102178400D01*
X101296600Y-102321170D01*
X101464480Y-102433344D01*
X101651018Y-102510610D01*
X101849046Y-102550000D01*
X102050954Y-102550000D01*
X102248982Y-102510610D01*
X102435520Y-102433344D01*
X102603400Y-102321170D01*
X102649570Y-102275000D01*
X106279783Y-102275000D01*
X106275000Y-102299046D01*
X106275000Y-102500954D01*
X106314390Y-102698982D01*
X106391656Y-102885520D01*
X106503830Y-103053400D01*
X106646600Y-103196170D01*
X106814480Y-103308344D01*
X107001018Y-103385610D01*
X107199046Y-103425000D01*
X107400954Y-103425000D01*
X107598982Y-103385610D01*
X107785520Y-103308344D01*
X107953400Y-103196170D01*
X107999570Y-103150000D01*
X118363173Y-103150000D01*
X118400000Y-103153627D01*
X118436827Y-103150000D01*
X118436835Y-103150000D01*
X118547026Y-103139147D01*
X118688401Y-103096261D01*
X118818693Y-103026619D01*
X118932895Y-102932895D01*
X118956378Y-102904281D01*
X121004292Y-100856369D01*
X121032895Y-100832895D01*
X121056369Y-100804292D01*
X121056376Y-100804285D01*
X121126618Y-100718694D01*
X121126619Y-100718693D01*
X121196261Y-100588401D01*
X121239147Y-100447026D01*
X121250000Y-100336835D01*
X121250000Y-100336818D01*
X121253626Y-100300001D01*
X121250000Y-100263184D01*
X121250000Y-97520102D01*
X142725000Y-97520102D01*
X142725000Y-97859898D01*
X142791290Y-98193164D01*
X142921324Y-98507094D01*
X143110105Y-98789624D01*
X143350376Y-99029895D01*
X143632906Y-99218676D01*
X143946836Y-99348710D01*
X144280102Y-99415000D01*
X144619898Y-99415000D01*
X144953164Y-99348710D01*
X145267094Y-99218676D01*
X145549624Y-99029895D01*
X145789895Y-98789624D01*
X145978676Y-98507094D01*
X146108710Y-98193164D01*
X146175000Y-97859898D01*
X146175000Y-97520102D01*
X146108710Y-97186836D01*
X145978676Y-96872906D01*
X145789895Y-96590376D01*
X145549624Y-96350105D01*
X145267094Y-96161324D01*
X144953164Y-96031290D01*
X144619898Y-95965000D01*
X144280102Y-95965000D01*
X143946836Y-96031290D01*
X143632906Y-96161324D01*
X143350376Y-96350105D01*
X143110105Y-96590376D01*
X142921324Y-96872906D01*
X142791290Y-97186836D01*
X142725000Y-97520102D01*
X121250000Y-97520102D01*
X121250000Y-94910659D01*
X137560662Y-78599998D01*
X137625954Y-78599998D01*
X137823982Y-78560608D01*
X137899991Y-78529124D01*
X137899991Y-79375439D01*
X137853830Y-79421600D01*
X137741656Y-79589480D01*
X137664390Y-79776018D01*
X137625000Y-79974046D01*
X137625000Y-80175954D01*
X137664390Y-80373982D01*
X137741656Y-80560520D01*
X137853830Y-80728400D01*
X137996600Y-80871170D01*
X138164480Y-80983344D01*
X138351018Y-81060610D01*
X138549046Y-81100000D01*
X138750954Y-81100000D01*
X138948982Y-81060610D01*
X139135520Y-80983344D01*
X139303400Y-80871170D01*
X139446170Y-80728400D01*
X139558344Y-80560520D01*
X139605173Y-80447463D01*
X139634220Y-80476510D01*
X139634220Y-80541804D01*
X139673610Y-80739832D01*
X139750876Y-80926370D01*
X139863050Y-81094250D01*
X140005820Y-81237020D01*
X140173700Y-81349194D01*
X140360238Y-81426460D01*
X140558266Y-81465850D01*
X140760174Y-81465850D01*
X140958202Y-81426460D01*
X141144740Y-81349194D01*
X141312620Y-81237020D01*
X141455390Y-81094250D01*
X141567564Y-80926370D01*
X141644830Y-80739832D01*
X141684220Y-80541804D01*
X141684220Y-80339896D01*
X141644830Y-80141868D01*
X141567564Y-79955330D01*
X141455390Y-79787450D01*
X141312620Y-79644680D01*
X141144740Y-79532506D01*
X140958202Y-79455240D01*
X140760174Y-79415850D01*
X140694880Y-79415850D01*
X140508001Y-79228971D01*
X141775000Y-79228971D01*
X141775000Y-79421029D01*
X141812468Y-79609397D01*
X141885966Y-79786836D01*
X141992668Y-79946527D01*
X142128473Y-80082332D01*
X142288164Y-80189034D01*
X142465603Y-80262532D01*
X142653971Y-80300000D01*
X142846029Y-80300000D01*
X143034397Y-80262532D01*
X143211836Y-80189034D01*
X143371527Y-80082332D01*
X143507332Y-79946527D01*
X143614034Y-79786836D01*
X143687532Y-79609397D01*
X143725000Y-79421029D01*
X143725000Y-79228971D01*
X143687532Y-79040603D01*
X143614034Y-78863164D01*
X143507332Y-78703473D01*
X143371527Y-78567668D01*
X143211836Y-78460966D01*
X143034397Y-78387468D01*
X142846029Y-78350000D01*
X142653971Y-78350000D01*
X142465603Y-78387468D01*
X142288164Y-78460966D01*
X142128473Y-78567668D01*
X141992668Y-78703473D01*
X141885966Y-78863164D01*
X141812468Y-79040603D01*
X141775000Y-79228971D01*
X140508001Y-79228971D01*
X140125030Y-78846001D01*
X140125030Y-70578971D01*
X141775000Y-70578971D01*
X141775000Y-70771029D01*
X141812468Y-70959397D01*
X141885966Y-71136836D01*
X141992668Y-71296527D01*
X142128473Y-71432332D01*
X142288164Y-71539034D01*
X142465603Y-71612532D01*
X142653971Y-71650000D01*
X142846029Y-71650000D01*
X143034397Y-71612532D01*
X143211836Y-71539034D01*
X143371527Y-71432332D01*
X143507332Y-71296527D01*
X143614034Y-71136836D01*
X143687532Y-70959397D01*
X143725000Y-70771029D01*
X143725000Y-70578971D01*
X143687532Y-70390603D01*
X143614034Y-70213164D01*
X143507332Y-70053473D01*
X143371527Y-69917668D01*
X143211836Y-69810966D01*
X143034397Y-69737468D01*
X142846029Y-69700000D01*
X142653971Y-69700000D01*
X142465603Y-69737468D01*
X142288164Y-69810966D01*
X142128473Y-69917668D01*
X141992668Y-70053473D01*
X141885966Y-70213164D01*
X141812468Y-70390603D01*
X141775000Y-70578971D01*
X140125030Y-70578971D01*
X140125030Y-69824570D01*
X140171200Y-69778400D01*
X140283374Y-69610520D01*
X140360640Y-69423982D01*
X140397043Y-69240968D01*
X140423982Y-69235610D01*
X140610520Y-69158344D01*
X140778400Y-69046170D01*
X140921170Y-68903400D01*
X141033344Y-68735520D01*
X141041789Y-68715131D01*
X141091656Y-68835520D01*
X141203830Y-69003400D01*
X141346600Y-69146170D01*
X141514480Y-69258344D01*
X141701018Y-69335610D01*
X141899046Y-69375000D01*
X142100954Y-69375000D01*
X142298982Y-69335610D01*
X142485520Y-69258344D01*
X142653400Y-69146170D01*
X142699570Y-69100000D01*
X144114341Y-69100000D01*
X149050000Y-74035660D01*
X149050001Y-76788163D01*
X149046373Y-76825000D01*
X149060853Y-76972025D01*
X149103739Y-77113400D01*
X149117679Y-77139480D01*
X149173382Y-77243693D01*
X149199909Y-77276016D01*
X149243624Y-77329283D01*
X149243627Y-77329286D01*
X149267106Y-77357895D01*
X149295715Y-77381374D01*
X149643620Y-77729279D01*
X149667104Y-77757894D01*
X149781306Y-77851618D01*
X149911598Y-77921260D01*
X149936409Y-77928786D01*
X149864870Y-78101498D01*
X149825480Y-78299526D01*
X149825480Y-78501434D01*
X149864870Y-78699462D01*
X149942136Y-78886000D01*
X150054310Y-79053880D01*
X150197080Y-79196650D01*
X150364960Y-79308824D01*
X150551498Y-79386090D01*
X150749526Y-79425480D01*
X150951434Y-79425480D01*
X151149462Y-79386090D01*
X151336000Y-79308824D01*
X151503880Y-79196650D01*
X151646650Y-79053880D01*
X151758824Y-78886000D01*
X151836090Y-78699462D01*
X151875480Y-78501434D01*
X151875480Y-78436139D01*
X152579286Y-77732334D01*
X152607895Y-77708855D01*
X152661374Y-77643692D01*
X152701619Y-77594653D01*
X152771261Y-77464361D01*
X152814147Y-77322986D01*
X152819219Y-77271487D01*
X152825000Y-77212795D01*
X152825000Y-77212788D01*
X152828627Y-77175960D01*
X152825000Y-77139132D01*
X152825000Y-61724570D01*
X152871170Y-61678400D01*
X152983344Y-61510520D01*
X153060610Y-61323982D01*
X153100000Y-61125954D01*
X153100000Y-60924046D01*
X153060610Y-60726018D01*
X152983344Y-60539480D01*
X152871170Y-60371600D01*
X152728400Y-60228830D01*
X152560520Y-60116656D01*
X152373982Y-60039390D01*
X152175954Y-60000000D01*
X151974046Y-60000000D01*
X151776018Y-60039390D01*
X151589480Y-60116656D01*
X151421600Y-60228830D01*
X151278830Y-60371600D01*
X151166656Y-60539480D01*
X151089390Y-60726018D01*
X151050000Y-60924046D01*
X151050000Y-61125954D01*
X151089390Y-61323982D01*
X151166656Y-61510520D01*
X151278830Y-61678400D01*
X151325000Y-61724570D01*
X151325001Y-72475000D01*
X151199046Y-72475000D01*
X151001018Y-72514390D01*
X150814480Y-72591656D01*
X150646600Y-72703830D01*
X150568045Y-72782385D01*
X144381379Y-66595720D01*
X144357895Y-66567105D01*
X144243693Y-66473381D01*
X144113401Y-66403739D01*
X143972026Y-66360853D01*
X143861835Y-66350000D01*
X143861827Y-66350000D01*
X143825000Y-66346373D01*
X143788173Y-66350000D01*
X141599570Y-66350000D01*
X141553400Y-66303830D01*
X141385520Y-66191656D01*
X141198982Y-66114390D01*
X141000954Y-66075000D01*
X140799046Y-66075000D01*
X140601018Y-66114390D01*
X140414480Y-66191656D01*
X140246600Y-66303830D01*
X140103830Y-66446600D01*
X139991656Y-66614480D01*
X139914390Y-66801018D01*
X139875000Y-66999046D01*
X139875000Y-67200954D01*
X139885274Y-67252603D01*
X139826018Y-67264390D01*
X139639480Y-67341656D01*
X139471600Y-67453830D01*
X139425430Y-67500000D01*
X139213821Y-67500000D01*
X139176993Y-67496373D01*
X139140165Y-67500000D01*
X139140157Y-67500000D01*
X139029966Y-67510853D01*
X138968407Y-67529527D01*
X138888593Y-67553738D01*
X138758300Y-67623380D01*
X138672709Y-67693623D01*
X138672706Y-67693626D01*
X138644097Y-67717105D01*
X138620618Y-67745714D01*
X138145707Y-68220625D01*
X138117097Y-68244104D01*
X138093618Y-68272713D01*
X138093616Y-68272715D01*
X138023373Y-68358306D01*
X137953731Y-68488598D01*
X137910845Y-68629972D01*
X137896364Y-68776998D01*
X137899992Y-68813835D01*
X137899991Y-74370873D01*
X137823984Y-74339390D01*
X137625956Y-74300000D01*
X137424048Y-74300000D01*
X137226020Y-74339390D01*
X137039482Y-74416656D01*
X136871602Y-74528830D01*
X136728832Y-74671600D01*
X136616658Y-74839480D01*
X136539392Y-75026018D01*
X136500002Y-75224046D01*
X136500002Y-75289337D01*
X119070715Y-92718626D01*
X119042106Y-92742105D01*
X119018627Y-92770714D01*
X119018624Y-92770717D01*
X118991131Y-92804218D01*
X118948382Y-92856307D01*
X118911157Y-92925950D01*
X118878739Y-92986600D01*
X118835853Y-93127975D01*
X118821373Y-93275000D01*
X118825001Y-93311837D01*
X118825000Y-98201943D01*
X118789480Y-98216656D01*
X118621600Y-98328830D01*
X118478830Y-98471600D01*
X118366656Y-98639480D01*
X118289390Y-98826018D01*
X118250000Y-99024046D01*
X118250000Y-99225954D01*
X118289390Y-99423982D01*
X118366656Y-99610520D01*
X118478830Y-99778400D01*
X118621600Y-99921170D01*
X118789480Y-100033344D01*
X118960258Y-100104082D01*
X118289341Y-100775000D01*
X102649570Y-100775000D01*
X102603400Y-100728830D01*
X102435520Y-100616656D01*
X102248982Y-100539390D01*
X102050954Y-100500000D01*
X101849046Y-100500000D01*
X101651018Y-100539390D01*
X101464480Y-100616656D01*
X101296600Y-100728830D01*
X101153830Y-100871600D01*
X101041656Y-101039480D01*
X100964390Y-101226018D01*
X100925000Y-101424046D01*
X72375000Y-101424046D01*
X72375000Y-75550000D01*
X91546613Y-75550000D01*
X91550001Y-75584400D01*
X91550000Y-97515610D01*
X91546613Y-97550000D01*
X91560128Y-97687224D01*
X91600155Y-97819175D01*
X91665155Y-97940781D01*
X91752630Y-98047370D01*
X91851779Y-98128739D01*
X91859219Y-98134845D01*
X91980825Y-98199845D01*
X92112776Y-98239872D01*
X92250000Y-98253387D01*
X92284390Y-98250000D01*
X117215610Y-98250000D01*
X117250000Y-98253387D01*
X117284390Y-98250000D01*
X117387224Y-98239872D01*
X117519175Y-98199845D01*
X117640781Y-98134845D01*
X117747370Y-98047370D01*
X117834845Y-97940781D01*
X117899845Y-97819175D01*
X117939872Y-97687224D01*
X117953387Y-97550000D01*
X117950000Y-97515610D01*
X117950000Y-75584389D01*
X117953387Y-75550000D01*
X117939872Y-75412776D01*
X117899845Y-75280825D01*
X117834845Y-75159219D01*
X117747370Y-75052630D01*
X117640781Y-74965155D01*
X117519175Y-74900155D01*
X117387224Y-74860128D01*
X117284390Y-74850000D01*
X117250000Y-74846613D01*
X117215610Y-74850000D01*
X111950000Y-74850000D01*
X111950000Y-62584390D01*
X111953387Y-62550000D01*
X111939872Y-62412776D01*
X111899845Y-62280825D01*
X111834845Y-62159219D01*
X111747370Y-62052630D01*
X111640781Y-61965155D01*
X111519175Y-61900155D01*
X111387224Y-61860128D01*
X111284390Y-61850000D01*
X111250000Y-61846613D01*
X111215610Y-61850000D01*
X109577216Y-61850000D01*
X109787479Y-61787307D01*
X109907735Y-61533670D01*
X109976198Y-61261447D01*
X109990237Y-60981097D01*
X109949314Y-60703396D01*
X109855000Y-60439014D01*
X109787479Y-60312693D01*
X109546065Y-60240712D01*
X108736777Y-61050000D01*
X108750919Y-61064142D01*
X108574142Y-61240919D01*
X108560000Y-61226777D01*
X108545858Y-61240919D01*
X108369081Y-61064142D01*
X108383223Y-61050000D01*
X107573935Y-60240712D01*
X107332521Y-60312693D01*
X107292217Y-60397699D01*
X107282819Y-60375009D01*
X107126870Y-60141615D01*
X107049190Y-60063935D01*
X107750712Y-60063935D01*
X108560000Y-60873223D01*
X109369288Y-60063935D01*
X109320409Y-59900000D01*
X114446976Y-59900000D01*
X114459043Y-60022521D01*
X114494781Y-60140334D01*
X114552817Y-60248911D01*
X114630920Y-60344080D01*
X114726089Y-60422183D01*
X114834666Y-60480219D01*
X114952479Y-60515957D01*
X115075000Y-60528024D01*
X115268750Y-60525000D01*
X115425000Y-60368750D01*
X115425000Y-59500000D01*
X115675000Y-59500000D01*
X115675000Y-60368750D01*
X115831250Y-60525000D01*
X116025000Y-60528024D01*
X116147521Y-60515957D01*
X116265334Y-60480219D01*
X116373911Y-60422183D01*
X116469080Y-60344080D01*
X116547183Y-60248911D01*
X116605219Y-60140334D01*
X116625000Y-60075124D01*
X116644781Y-60140334D01*
X116702817Y-60248911D01*
X116780920Y-60344080D01*
X116876089Y-60422183D01*
X116984666Y-60480219D01*
X117102479Y-60515957D01*
X117225000Y-60528024D01*
X117418750Y-60525000D01*
X117575000Y-60368750D01*
X117575000Y-59500000D01*
X117825000Y-59500000D01*
X117825000Y-60368750D01*
X117981250Y-60525000D01*
X118175000Y-60528024D01*
X118297521Y-60515957D01*
X118415334Y-60480219D01*
X118523911Y-60422183D01*
X118619080Y-60344080D01*
X118697183Y-60248911D01*
X118755219Y-60140334D01*
X118790957Y-60022521D01*
X118803024Y-59900000D01*
X118800000Y-59656250D01*
X118643750Y-59500000D01*
X117825000Y-59500000D01*
X117575000Y-59500000D01*
X116756250Y-59500000D01*
X116625000Y-59631250D01*
X116493750Y-59500000D01*
X115675000Y-59500000D01*
X115425000Y-59500000D01*
X114606250Y-59500000D01*
X114450000Y-59656250D01*
X114446976Y-59900000D01*
X109320409Y-59900000D01*
X109297307Y-59822521D01*
X109043670Y-59702265D01*
X108771447Y-59633802D01*
X108491097Y-59619763D01*
X108213396Y-59660686D01*
X107949014Y-59755000D01*
X107822693Y-59822521D01*
X107750712Y-60063935D01*
X107049190Y-60063935D01*
X106928385Y-59943130D01*
X106694991Y-59787181D01*
X106435657Y-59679762D01*
X106160350Y-59625000D01*
X105879650Y-59625000D01*
X105604343Y-59679762D01*
X105345009Y-59787181D01*
X105111615Y-59943130D01*
X104913130Y-60141615D01*
X104757181Y-60375009D01*
X104750000Y-60392346D01*
X104742819Y-60375009D01*
X104586870Y-60141615D01*
X104388385Y-59943130D01*
X104154991Y-59787181D01*
X103895657Y-59679762D01*
X103620350Y-59625000D01*
X103339650Y-59625000D01*
X103064343Y-59679762D01*
X102805009Y-59787181D01*
X102571615Y-59943130D01*
X102373130Y-60141615D01*
X102217181Y-60375009D01*
X102210000Y-60392346D01*
X102202819Y-60375009D01*
X102046870Y-60141615D01*
X101848385Y-59943130D01*
X101614991Y-59787181D01*
X101355657Y-59679762D01*
X101080350Y-59625000D01*
X100799650Y-59625000D01*
X100524343Y-59679762D01*
X100265009Y-59787181D01*
X100031615Y-59943130D01*
X99833130Y-60141615D01*
X99677181Y-60375009D01*
X99569762Y-60634343D01*
X99515000Y-60909650D01*
X99515000Y-61190350D01*
X99569762Y-61465657D01*
X99677181Y-61724991D01*
X99760709Y-61850000D01*
X98284390Y-61850000D01*
X98250000Y-61846613D01*
X98215610Y-61850000D01*
X98112776Y-61860128D01*
X97980825Y-61900155D01*
X97859219Y-61965155D01*
X97752630Y-62052630D01*
X97665155Y-62159219D01*
X97600155Y-62280825D01*
X97560128Y-62412776D01*
X97546613Y-62550000D01*
X97550001Y-62584400D01*
X97550000Y-74850000D01*
X92284390Y-74850000D01*
X92250000Y-74846613D01*
X92215610Y-74850000D01*
X92112776Y-74860128D01*
X91980825Y-74900155D01*
X91859219Y-74965155D01*
X91752630Y-75052630D01*
X91665155Y-75159219D01*
X91600155Y-75280825D01*
X91560128Y-75412776D01*
X91546613Y-75550000D01*
X72375000Y-75550000D01*
X72375000Y-65699046D01*
X78625000Y-65699046D01*
X78625000Y-65900954D01*
X78664390Y-66098982D01*
X78741656Y-66285520D01*
X78853830Y-66453400D01*
X78996600Y-66596170D01*
X79164480Y-66708344D01*
X79351018Y-66785610D01*
X79549046Y-66825000D01*
X79614340Y-66825000D01*
X79968626Y-67179286D01*
X79992105Y-67207895D01*
X80020714Y-67231374D01*
X80020716Y-67231376D01*
X80039786Y-67247026D01*
X80106307Y-67301619D01*
X80236599Y-67371261D01*
X80377974Y-67414147D01*
X80488165Y-67425000D01*
X80488172Y-67425000D01*
X80525000Y-67428627D01*
X80561827Y-67425000D01*
X88775430Y-67425000D01*
X88821600Y-67471170D01*
X88989480Y-67583344D01*
X89176018Y-67660610D01*
X89374046Y-67700000D01*
X89575954Y-67700000D01*
X89773982Y-67660610D01*
X89960520Y-67583344D01*
X90128400Y-67471170D01*
X90271170Y-67328400D01*
X90383344Y-67160520D01*
X90460610Y-66973982D01*
X90500000Y-66775954D01*
X90500000Y-66574046D01*
X90460610Y-66376018D01*
X90383344Y-66189480D01*
X90271170Y-66021600D01*
X90128400Y-65878830D01*
X89960520Y-65766656D01*
X89773982Y-65689390D01*
X89616863Y-65658137D01*
X89585610Y-65501018D01*
X89508344Y-65314480D01*
X89396170Y-65146600D01*
X89253400Y-65003830D01*
X89085520Y-64891656D01*
X88898982Y-64814390D01*
X88700954Y-64775000D01*
X88499046Y-64775000D01*
X88301018Y-64814390D01*
X88114480Y-64891656D01*
X87946600Y-65003830D01*
X87900430Y-65050000D01*
X87124570Y-65050000D01*
X87078400Y-65003830D01*
X86910520Y-64891656D01*
X86723982Y-64814390D01*
X86525954Y-64775000D01*
X86324046Y-64775000D01*
X86126018Y-64814390D01*
X85939480Y-64891656D01*
X85771600Y-65003830D01*
X85628830Y-65146600D01*
X85516656Y-65314480D01*
X85439390Y-65501018D01*
X85400000Y-65699046D01*
X85400000Y-65900954D01*
X85404783Y-65925000D01*
X80835660Y-65925000D01*
X80675000Y-65764340D01*
X80675000Y-65699046D01*
X80635610Y-65501018D01*
X80558344Y-65314480D01*
X80446170Y-65146600D01*
X80303400Y-65003830D01*
X80135520Y-64891656D01*
X79948982Y-64814390D01*
X79750954Y-64775000D01*
X79549046Y-64775000D01*
X79351018Y-64814390D01*
X79164480Y-64891656D01*
X78996600Y-65003830D01*
X78853830Y-65146600D01*
X78741656Y-65314480D01*
X78664390Y-65501018D01*
X78625000Y-65699046D01*
X72375000Y-65699046D01*
X72375000Y-61924046D01*
X89325000Y-61924046D01*
X89325000Y-62125954D01*
X89364390Y-62323982D01*
X89441656Y-62510520D01*
X89553830Y-62678400D01*
X89696600Y-62821170D01*
X89864480Y-62933344D01*
X90051018Y-63010610D01*
X90249046Y-63050000D01*
X90450954Y-63050000D01*
X90648982Y-63010610D01*
X90835520Y-62933344D01*
X91003400Y-62821170D01*
X91146170Y-62678400D01*
X91258344Y-62510520D01*
X91335610Y-62323982D01*
X91375000Y-62125954D01*
X91375000Y-62060659D01*
X92354283Y-61081377D01*
X92382891Y-61057899D01*
X92476615Y-60943697D01*
X92546257Y-60813405D01*
X92589143Y-60672030D01*
X92599996Y-60561839D01*
X92599996Y-60561832D01*
X92603623Y-60525004D01*
X92599996Y-60488176D01*
X92599996Y-56149046D01*
X110075000Y-56149046D01*
X110075000Y-56350954D01*
X110114390Y-56548982D01*
X110191656Y-56735520D01*
X110303830Y-56903400D01*
X110446600Y-57046170D01*
X110614480Y-57158344D01*
X110801018Y-57235610D01*
X110999046Y-57275000D01*
X111064341Y-57275000D01*
X111918626Y-58129286D01*
X111942105Y-58157895D01*
X112056307Y-58251619D01*
X112186599Y-58321261D01*
X112327974Y-58364147D01*
X112438165Y-58375000D01*
X112438172Y-58375000D01*
X112475000Y-58378627D01*
X112511828Y-58375000D01*
X114490130Y-58375000D01*
X114494781Y-58390334D01*
X114552817Y-58498911D01*
X114553711Y-58500000D01*
X114552817Y-58501089D01*
X114494781Y-58609666D01*
X114459043Y-58727479D01*
X114446976Y-58850000D01*
X114450000Y-59093750D01*
X114606250Y-59250000D01*
X115425000Y-59250000D01*
X115425000Y-59230000D01*
X115675000Y-59230000D01*
X115675000Y-59250000D01*
X116493750Y-59250000D01*
X116625000Y-59118750D01*
X116756250Y-59250000D01*
X117575000Y-59250000D01*
X117575000Y-59230000D01*
X117825000Y-59230000D01*
X117825000Y-59250000D01*
X118643750Y-59250000D01*
X118800000Y-59093750D01*
X118803024Y-58850000D01*
X118790957Y-58727479D01*
X118755219Y-58609666D01*
X118697183Y-58501089D01*
X118696289Y-58500000D01*
X118697183Y-58498911D01*
X118755219Y-58390334D01*
X118790957Y-58272521D01*
X118803024Y-58150000D01*
X118803024Y-57100000D01*
X118790957Y-56977479D01*
X118755219Y-56859666D01*
X118697183Y-56751089D01*
X118619080Y-56655920D01*
X118523911Y-56577817D01*
X118415334Y-56519781D01*
X118297521Y-56484043D01*
X118175000Y-56471976D01*
X117657636Y-56471976D01*
X116931378Y-55745719D01*
X116907895Y-55717105D01*
X116793693Y-55623381D01*
X116663401Y-55553739D01*
X116522026Y-55510853D01*
X116411835Y-55500000D01*
X116411827Y-55500000D01*
X116375000Y-55496373D01*
X116338173Y-55500000D01*
X114349570Y-55500000D01*
X114303400Y-55453830D01*
X114135520Y-55341656D01*
X113948982Y-55264390D01*
X113750954Y-55225000D01*
X113549046Y-55225000D01*
X113351018Y-55264390D01*
X113164480Y-55341656D01*
X112996600Y-55453830D01*
X112853830Y-55596600D01*
X112741656Y-55764480D01*
X112664390Y-55951018D01*
X112625000Y-56149046D01*
X112625000Y-56350954D01*
X112664390Y-56548982D01*
X112741656Y-56735520D01*
X112834854Y-56875000D01*
X112785660Y-56875000D01*
X112125000Y-56214341D01*
X112125000Y-56149046D01*
X112085610Y-55951018D01*
X112008344Y-55764480D01*
X111896170Y-55596600D01*
X111753400Y-55453830D01*
X111585520Y-55341656D01*
X111398982Y-55264390D01*
X111200954Y-55225000D01*
X110999046Y-55225000D01*
X110801018Y-55264390D01*
X110614480Y-55341656D01*
X110446600Y-55453830D01*
X110303830Y-55596600D01*
X110191656Y-55764480D01*
X110114390Y-55951018D01*
X110075000Y-56149046D01*
X92599996Y-56149046D01*
X92599996Y-46174570D01*
X92646166Y-46128400D01*
X92758340Y-45960520D01*
X92835606Y-45773982D01*
X92874996Y-45575954D01*
X92874996Y-45374046D01*
X92835606Y-45176018D01*
X92758340Y-44989480D01*
X92646166Y-44821600D01*
X92503396Y-44678830D01*
X92335516Y-44566656D01*
X92148978Y-44489390D01*
X91950950Y-44450000D01*
X91749042Y-44450000D01*
X91551014Y-44489390D01*
X91364476Y-44566656D01*
X91196596Y-44678830D01*
X91053826Y-44821600D01*
X90941652Y-44989480D01*
X90864386Y-45176018D01*
X90824996Y-45374046D01*
X90824996Y-45575954D01*
X90864386Y-45773982D01*
X90941652Y-45960520D01*
X91053826Y-46128400D01*
X91099997Y-46174571D01*
X91099996Y-60214344D01*
X90314341Y-61000000D01*
X90249046Y-61000000D01*
X90051018Y-61039390D01*
X89864480Y-61116656D01*
X89696600Y-61228830D01*
X89553830Y-61371600D01*
X89441656Y-61539480D01*
X89364390Y-61726018D01*
X89325000Y-61924046D01*
X72375000Y-61924046D01*
X72375000Y-41125000D01*
X80575000Y-41125000D01*
X80575001Y-46233846D01*
X80575001Y-46233846D01*
G37*
X80575001Y-46233846D02*
X80507278Y-46255329D01*
X80448978Y-46280317D01*
X80390310Y-46304497D01*
X80381713Y-46309146D01*
X80270546Y-46370260D01*
X80218210Y-46406095D01*
X80165347Y-46441217D01*
X80157816Y-46447448D01*
X80060639Y-46528991D01*
X80016270Y-46574299D01*
X79971235Y-46619020D01*
X79965058Y-46626594D01*
X79965054Y-46626599D01*
X79965051Y-46626604D01*
X79885568Y-46725460D01*
X79850824Y-46778553D01*
X79815349Y-46831146D01*
X79810764Y-46839771D01*
X79810761Y-46839775D01*
X79810761Y-46839776D01*
X79751988Y-46952198D01*
X79728210Y-47011050D01*
X79703635Y-47069511D01*
X79700812Y-47078860D01*
X79700810Y-47078866D01*
X79700810Y-47078868D01*
X79664993Y-47200563D01*
X79653103Y-47262892D01*
X79640347Y-47325034D01*
X79639394Y-47334762D01*
X79627897Y-47461098D01*
X79628340Y-47524539D01*
X79627897Y-47587979D01*
X79628851Y-47597706D01*
X79642111Y-47723870D01*
X79654865Y-47786007D01*
X79666756Y-47848341D01*
X79669578Y-47857684D01*
X79669580Y-47857695D01*
X79669584Y-47857705D01*
X79707094Y-47978882D01*
X79731691Y-48037396D01*
X79755447Y-48096194D01*
X79760036Y-48104824D01*
X79820373Y-48216414D01*
X79855869Y-48269038D01*
X79890588Y-48322096D01*
X79896765Y-48329670D01*
X79977627Y-48427416D01*
X80022676Y-48472152D01*
X80067034Y-48517450D01*
X80074559Y-48523675D01*
X80074565Y-48523681D01*
X80074570Y-48523684D01*
X80172872Y-48603858D01*
X80225737Y-48638982D01*
X80278068Y-48674814D01*
X80286655Y-48679457D01*
X80286661Y-48679461D01*
X80286666Y-48679463D01*
X80398675Y-48739019D01*
X80457313Y-48763188D01*
X80515645Y-48788189D01*
X80524982Y-48791079D01*
X80575000Y-48806180D01*
X80575001Y-52534390D01*
X80578389Y-52568790D01*
X80578389Y-52575285D01*
X80579411Y-52585006D01*
X80584128Y-52627064D01*
X80585129Y-52637224D01*
X80585349Y-52637951D01*
X80590288Y-52681981D01*
X80603485Y-52744071D01*
X80615802Y-52806277D01*
X80618692Y-52815614D01*
X80648198Y-52908630D01*
X80673199Y-52966962D01*
X80697368Y-53025600D01*
X80702017Y-53034198D01*
X80749028Y-53119710D01*
X80784874Y-53172062D01*
X80819984Y-53224907D01*
X80826214Y-53232438D01*
X80888939Y-53307190D01*
X80934287Y-53351597D01*
X80978970Y-53396594D01*
X80986544Y-53402772D01*
X81062594Y-53463918D01*
X81115701Y-53498670D01*
X81168281Y-53534136D01*
X81176904Y-53538721D01*
X81176909Y-53538724D01*
X81176914Y-53538726D01*
X81263391Y-53583935D01*
X81322239Y-53607712D01*
X81380698Y-53632286D01*
X81390051Y-53635110D01*
X81390059Y-53635113D01*
X81390067Y-53635115D01*
X81483666Y-53662663D01*
X81546001Y-53674554D01*
X81608140Y-53687310D01*
X81617856Y-53688262D01*
X81617862Y-53688263D01*
X81617868Y-53688263D01*
X81715050Y-53697107D01*
X81778524Y-53696664D01*
X81841932Y-53697107D01*
X81851649Y-53696154D01*
X81851663Y-53696154D01*
X81851676Y-53696151D01*
X81948708Y-53685953D01*
X82010878Y-53673192D01*
X82073177Y-53661308D01*
X82082524Y-53658486D01*
X82082534Y-53658484D01*
X82082543Y-53658480D01*
X82175753Y-53629627D01*
X82234283Y-53605024D01*
X82293068Y-53581273D01*
X82301686Y-53576690D01*
X82301694Y-53576687D01*
X82301700Y-53576683D01*
X82387536Y-53530272D01*
X82440156Y-53494779D01*
X82493220Y-53460055D01*
X82500792Y-53453879D01*
X82500795Y-53453877D01*
X82500800Y-53453872D01*
X82575983Y-53391675D01*
X82620698Y-53346647D01*
X82666012Y-53302273D01*
X82672243Y-53294742D01*
X82733918Y-53219121D01*
X82746622Y-53200000D01*
X86403436Y-53200000D01*
X86419984Y-53224907D01*
X86426214Y-53232438D01*
X86488939Y-53307190D01*
X86534287Y-53351597D01*
X86578970Y-53396594D01*
X86586544Y-53402772D01*
X86662594Y-53463918D01*
X86715701Y-53498670D01*
X86768281Y-53534136D01*
X86776904Y-53538721D01*
X86776909Y-53538724D01*
X86776914Y-53538726D01*
X86863391Y-53583935D01*
X86922239Y-53607712D01*
X86980698Y-53632286D01*
X86990051Y-53635110D01*
X86990059Y-53635113D01*
X86990067Y-53635115D01*
X87083666Y-53662663D01*
X87146001Y-53674554D01*
X87208140Y-53687310D01*
X87217856Y-53688262D01*
X87217862Y-53688263D01*
X87217868Y-53688263D01*
X87315050Y-53697107D01*
X87378524Y-53696664D01*
X87441932Y-53697107D01*
X87451649Y-53696154D01*
X87451663Y-53696154D01*
X87451676Y-53696151D01*
X87548708Y-53685953D01*
X87610878Y-53673192D01*
X87673177Y-53661308D01*
X87682524Y-53658486D01*
X87682534Y-53658484D01*
X87682543Y-53658480D01*
X87775753Y-53629627D01*
X87834283Y-53605024D01*
X87893068Y-53581273D01*
X87901686Y-53576690D01*
X87901694Y-53576687D01*
X87901700Y-53576683D01*
X87987536Y-53530272D01*
X88040156Y-53494779D01*
X88093220Y-53460055D01*
X88100792Y-53453879D01*
X88100795Y-53453877D01*
X88100800Y-53453872D01*
X88175983Y-53391675D01*
X88220698Y-53346647D01*
X88266012Y-53302273D01*
X88272243Y-53294742D01*
X88333918Y-53219121D01*
X88369022Y-53166287D01*
X88404878Y-53113921D01*
X88409526Y-53105323D01*
X88455338Y-53019162D01*
X88479515Y-52960504D01*
X88504506Y-52902197D01*
X88507396Y-52892860D01*
X88535601Y-52799442D01*
X88547927Y-52737190D01*
X88561116Y-52675143D01*
X88562136Y-52665435D01*
X88562137Y-52665428D01*
X88562137Y-52665422D01*
X88571492Y-52570005D01*
X88575000Y-52534390D01*
X88575000Y-48806154D01*
X88642722Y-48784671D01*
X88701064Y-48759666D01*
X88759689Y-48735503D01*
X88768281Y-48730857D01*
X88768291Y-48730853D01*
X88768300Y-48730847D01*
X88879454Y-48669740D01*
X88931807Y-48633893D01*
X88984652Y-48598783D01*
X88992172Y-48592561D01*
X88992178Y-48592557D01*
X88992182Y-48592552D01*
X89089361Y-48511010D01*
X89133749Y-48465682D01*
X89178765Y-48420980D01*
X89184942Y-48413405D01*
X89184946Y-48413401D01*
X89184949Y-48413396D01*
X89264432Y-48314540D01*
X89299176Y-48261447D01*
X89334651Y-48208854D01*
X89339236Y-48200229D01*
X89339239Y-48200225D01*
X89339241Y-48200221D01*
X89398012Y-48087802D01*
X89421784Y-48028964D01*
X89446365Y-47970490D01*
X89449190Y-47961133D01*
X89485007Y-47839437D01*
X89496897Y-47777108D01*
X89509653Y-47714966D01*
X89510606Y-47705238D01*
X89522103Y-47578902D01*
X89521660Y-47515500D01*
X89522104Y-47452021D01*
X89521149Y-47442294D01*
X89507889Y-47316131D01*
X89495131Y-47253975D01*
X89483244Y-47191659D01*
X89480422Y-47182316D01*
X89480420Y-47182305D01*
X89480416Y-47182295D01*
X89442905Y-47061118D01*
X89418322Y-47002636D01*
X89394553Y-46943806D01*
X89389964Y-46935176D01*
X89329627Y-46823586D01*
X89294131Y-46770962D01*
X89259412Y-46717904D01*
X89253235Y-46710330D01*
X89172373Y-46612584D01*
X89127324Y-46567848D01*
X89082966Y-46522550D01*
X89075441Y-46516325D01*
X89075435Y-46516319D01*
X89075428Y-46516315D01*
X88977128Y-46436142D01*
X88924278Y-46401028D01*
X88871932Y-46365186D01*
X88863334Y-46360537D01*
X88751325Y-46300981D01*
X88692674Y-46276807D01*
X88634355Y-46251811D01*
X88625017Y-46248921D01*
X88575000Y-46233820D01*
X88575000Y-42799650D01*
X99530000Y-42799650D01*
X99530000Y-43080350D01*
X99584762Y-43355657D01*
X99692181Y-43614991D01*
X99848130Y-43848385D01*
X100046615Y-44046870D01*
X100280009Y-44202819D01*
X100297346Y-44210000D01*
X100280009Y-44217181D01*
X100046615Y-44373130D01*
X99848130Y-44571615D01*
X99692181Y-44805009D01*
X99584762Y-45064343D01*
X99530000Y-45339650D01*
X99530000Y-45620350D01*
X99584762Y-45895657D01*
X99692181Y-46154991D01*
X99848130Y-46388385D01*
X100046615Y-46586870D01*
X100280009Y-46742819D01*
X100539343Y-46850238D01*
X100814650Y-46905000D01*
X101095350Y-46905000D01*
X101370657Y-46850238D01*
X101629991Y-46742819D01*
X101863385Y-46586870D01*
X102061870Y-46388385D01*
X102217819Y-46154991D01*
X102325238Y-45895657D01*
X102380000Y-45620350D01*
X102380000Y-45339650D01*
X102325238Y-45064343D01*
X102217819Y-44805009D01*
X102061870Y-44571615D01*
X101863385Y-44373130D01*
X101629991Y-44217181D01*
X101612654Y-44210000D01*
X101629991Y-44202819D01*
X101863385Y-44046870D01*
X102061870Y-43848385D01*
X102217819Y-43614991D01*
X102325238Y-43355657D01*
X102380000Y-43080350D01*
X102380000Y-42799650D01*
X102325238Y-42524343D01*
X102217819Y-42265009D01*
X102061870Y-42031615D01*
X101863385Y-41833130D01*
X101629991Y-41677181D01*
X101370657Y-41569762D01*
X101095350Y-41515000D01*
X100814650Y-41515000D01*
X100539343Y-41569762D01*
X100280009Y-41677181D01*
X100046615Y-41833130D01*
X99848130Y-42031615D01*
X99692181Y-42265009D01*
X99584762Y-42524343D01*
X99530000Y-42799650D01*
X88575000Y-42799650D01*
X88575000Y-41125000D01*
X103375001Y-41125000D01*
X103375000Y-47115610D01*
X103371613Y-47150000D01*
X103385128Y-47287224D01*
X103425155Y-47419175D01*
X103490155Y-47540781D01*
X103577630Y-47647370D01*
X103684219Y-47734845D01*
X103805825Y-47799845D01*
X103937776Y-47839872D01*
X104033818Y-47849331D01*
X104075000Y-47853387D01*
X104109390Y-47850000D01*
X113040610Y-47850000D01*
X113075000Y-47853387D01*
X113109390Y-47850000D01*
X113212224Y-47839872D01*
X113344175Y-47799845D01*
X113465781Y-47734845D01*
X113572370Y-47647370D01*
X113659845Y-47540781D01*
X113724845Y-47419175D01*
X113764872Y-47287224D01*
X113778387Y-47150000D01*
X113775000Y-47115610D01*
X113775000Y-42799650D01*
X114770000Y-42799650D01*
X114770000Y-43080350D01*
X114824762Y-43355657D01*
X114932181Y-43614991D01*
X115088130Y-43848385D01*
X115286615Y-44046870D01*
X115520009Y-44202819D01*
X115537346Y-44210000D01*
X115520009Y-44217181D01*
X115286615Y-44373130D01*
X115088130Y-44571615D01*
X114932181Y-44805009D01*
X114824762Y-45064343D01*
X114770000Y-45339650D01*
X114770000Y-45620350D01*
X114824762Y-45895657D01*
X114932181Y-46154991D01*
X115088130Y-46388385D01*
X115286615Y-46586870D01*
X115520009Y-46742819D01*
X115779343Y-46850238D01*
X116054650Y-46905000D01*
X116335350Y-46905000D01*
X116610657Y-46850238D01*
X116869991Y-46742819D01*
X117103385Y-46586870D01*
X117301870Y-46388385D01*
X117457819Y-46154991D01*
X117565238Y-45895657D01*
X117620000Y-45620350D01*
X117620000Y-45339650D01*
X117565238Y-45064343D01*
X117457819Y-44805009D01*
X117301870Y-44571615D01*
X117103385Y-44373130D01*
X116869991Y-44217181D01*
X116852654Y-44210000D01*
X116869991Y-44202819D01*
X117103385Y-44046870D01*
X117301870Y-43848385D01*
X117457819Y-43614991D01*
X117565238Y-43355657D01*
X117620000Y-43080350D01*
X117620000Y-42799650D01*
X117565238Y-42524343D01*
X117457819Y-42265009D01*
X117301870Y-42031615D01*
X117103385Y-41833130D01*
X116869991Y-41677181D01*
X116610657Y-41569762D01*
X116335350Y-41515000D01*
X116054650Y-41515000D01*
X115779343Y-41569762D01*
X115520009Y-41677181D01*
X115286615Y-41833130D01*
X115088130Y-42031615D01*
X114932181Y-42265009D01*
X114824762Y-42524343D01*
X114770000Y-42799650D01*
X113775000Y-42799650D01*
X113775000Y-41125000D01*
X120694745Y-41125000D01*
X120652817Y-41176089D01*
X120594781Y-41284666D01*
X120559043Y-41402479D01*
X120546976Y-41525000D01*
X120546976Y-42825000D01*
X120559043Y-42947521D01*
X120594781Y-43065334D01*
X120652817Y-43173911D01*
X120730920Y-43269080D01*
X120826089Y-43347183D01*
X120934666Y-43405219D01*
X121052479Y-43440957D01*
X121154266Y-43450982D01*
X121146976Y-43525000D01*
X121146976Y-44292364D01*
X119695715Y-45743626D01*
X119667106Y-45767105D01*
X119643627Y-45795714D01*
X119643624Y-45795717D01*
X119616131Y-45829218D01*
X119573382Y-45881307D01*
X119566780Y-45893659D01*
X119503739Y-46011600D01*
X119460853Y-46152975D01*
X119446373Y-46300000D01*
X119450001Y-46336837D01*
X119450000Y-84188173D01*
X119446373Y-84225000D01*
X119450000Y-84261827D01*
X119450000Y-84261834D01*
X119460853Y-84372025D01*
X119503739Y-84513400D01*
X119573381Y-84643692D01*
X119667105Y-84757895D01*
X119695719Y-84781378D01*
X120200000Y-85285660D01*
X120200000Y-85350954D01*
X120239390Y-85548982D01*
X120316656Y-85735520D01*
X120428830Y-85903400D01*
X120571600Y-86046170D01*
X120739480Y-86158344D01*
X120926018Y-86235610D01*
X121124046Y-86275000D01*
X121325954Y-86275000D01*
X121523982Y-86235610D01*
X121710520Y-86158344D01*
X121878400Y-86046170D01*
X122021170Y-85903400D01*
X122133344Y-85735520D01*
X122210610Y-85548982D01*
X122250000Y-85350954D01*
X122250000Y-85149046D01*
X122210610Y-84951018D01*
X122133344Y-84764480D01*
X122021170Y-84596600D01*
X121878400Y-84453830D01*
X121710520Y-84341656D01*
X121523982Y-84264390D01*
X121325954Y-84225000D01*
X121260660Y-84225000D01*
X120950000Y-83914341D01*
X120950000Y-83715380D01*
X121124046Y-83750000D01*
X121325954Y-83750000D01*
X121523982Y-83710610D01*
X121710520Y-83633344D01*
X121878400Y-83521170D01*
X122021170Y-83378400D01*
X122133344Y-83210520D01*
X122210610Y-83023982D01*
X122250000Y-82825954D01*
X122250000Y-82624046D01*
X122210610Y-82426018D01*
X122133344Y-82239480D01*
X122021170Y-82071600D01*
X121975000Y-82025430D01*
X121975000Y-81200000D01*
X122050954Y-81200000D01*
X122248982Y-81160610D01*
X122435520Y-81083344D01*
X122603400Y-80971170D01*
X122746170Y-80828400D01*
X122858344Y-80660520D01*
X122935610Y-80473982D01*
X122975000Y-80275954D01*
X122975000Y-80074046D01*
X122935610Y-79876018D01*
X122858344Y-79689480D01*
X122746170Y-79521600D01*
X122700000Y-79475430D01*
X122700000Y-78650000D01*
X122775954Y-78650000D01*
X122973982Y-78610610D01*
X123160520Y-78533344D01*
X123328400Y-78421170D01*
X123471170Y-78278400D01*
X123583344Y-78110520D01*
X123660610Y-77923982D01*
X123700000Y-77725954D01*
X123700000Y-77524046D01*
X123660610Y-77326018D01*
X123583344Y-77139480D01*
X123471170Y-76971600D01*
X123425000Y-76925430D01*
X123425000Y-73435661D01*
X139635660Y-57225002D01*
X139700954Y-57225002D01*
X139898982Y-57185612D01*
X140085520Y-57108346D01*
X140253400Y-56996172D01*
X140299570Y-56950002D01*
X140589343Y-56950002D01*
X141493629Y-57854290D01*
X141517104Y-57882894D01*
X141545707Y-57906368D01*
X141545714Y-57906375D01*
X141619924Y-57967277D01*
X141631306Y-57976618D01*
X141761598Y-58046260D01*
X141902973Y-58089146D01*
X142013164Y-58099999D01*
X142013173Y-58099999D01*
X142049998Y-58103626D01*
X142086823Y-58099999D01*
X144763174Y-58099999D01*
X144800001Y-58103626D01*
X144836828Y-58099999D01*
X144836836Y-58099999D01*
X144947027Y-58089146D01*
X145088402Y-58046260D01*
X145218694Y-57976618D01*
X145332896Y-57882894D01*
X145356380Y-57854279D01*
X149579287Y-53631373D01*
X149607895Y-53607895D01*
X149633510Y-53576684D01*
X149701619Y-53493693D01*
X149771261Y-53363401D01*
X149814147Y-53222026D01*
X149816942Y-53193644D01*
X149825000Y-53111835D01*
X149825000Y-53111828D01*
X149828627Y-53075000D01*
X149825000Y-53038172D01*
X149825000Y-47010659D01*
X152257636Y-44578024D01*
X153500000Y-44578024D01*
X153622521Y-44565957D01*
X153740334Y-44530219D01*
X153848911Y-44472183D01*
X153944080Y-44394080D01*
X154022183Y-44298911D01*
X154080219Y-44190334D01*
X154115957Y-44072521D01*
X154128024Y-43950000D01*
X154128024Y-42250000D01*
X154115957Y-42127479D01*
X154080219Y-42009666D01*
X154022183Y-41901089D01*
X153944080Y-41805920D01*
X153848911Y-41727817D01*
X153740334Y-41669781D01*
X153622521Y-41634043D01*
X153500000Y-41621976D01*
X151800000Y-41621976D01*
X151677479Y-41634043D01*
X151559666Y-41669781D01*
X151451089Y-41727817D01*
X151355920Y-41805920D01*
X151277817Y-41901089D01*
X151219781Y-42009666D01*
X151193746Y-42095494D01*
X151158028Y-42051972D01*
X150933431Y-41867649D01*
X150677189Y-41730685D01*
X150399150Y-41646343D01*
X150182452Y-41625000D01*
X150037548Y-41625000D01*
X149820850Y-41646343D01*
X149542811Y-41730685D01*
X149286569Y-41867649D01*
X149061972Y-42051972D01*
X148877649Y-42276569D01*
X148840000Y-42347005D01*
X148802351Y-42276569D01*
X148618028Y-42051972D01*
X148393431Y-41867649D01*
X148137189Y-41730685D01*
X147859150Y-41646343D01*
X147642452Y-41625000D01*
X147497548Y-41625000D01*
X147280850Y-41646343D01*
X147205009Y-41669349D01*
X146731378Y-41195719D01*
X146707895Y-41167105D01*
X146656590Y-41125000D01*
X155125000Y-41125000D01*
X155125000Y-108875000D01*
X72375000Y-108875000D01*
X72375000Y-101424046D01*
X100925000Y-101424046D01*
X100925000Y-101625954D01*
X100964390Y-101823982D01*
X101041656Y-102010520D01*
X101153830Y-102178400D01*
X101296600Y-102321170D01*
X101464480Y-102433344D01*
X101651018Y-102510610D01*
X101849046Y-102550000D01*
X102050954Y-102550000D01*
X102248982Y-102510610D01*
X102435520Y-102433344D01*
X102603400Y-102321170D01*
X102649570Y-102275000D01*
X106279783Y-102275000D01*
X106275000Y-102299046D01*
X106275000Y-102500954D01*
X106314390Y-102698982D01*
X106391656Y-102885520D01*
X106503830Y-103053400D01*
X106646600Y-103196170D01*
X106814480Y-103308344D01*
X107001018Y-103385610D01*
X107199046Y-103425000D01*
X107400954Y-103425000D01*
X107598982Y-103385610D01*
X107785520Y-103308344D01*
X107953400Y-103196170D01*
X107999570Y-103150000D01*
X118363173Y-103150000D01*
X118400000Y-103153627D01*
X118436827Y-103150000D01*
X118436835Y-103150000D01*
X118547026Y-103139147D01*
X118688401Y-103096261D01*
X118818693Y-103026619D01*
X118932895Y-102932895D01*
X118956378Y-102904281D01*
X121004292Y-100856369D01*
X121032895Y-100832895D01*
X121056369Y-100804292D01*
X121056376Y-100804285D01*
X121126618Y-100718694D01*
X121126619Y-100718693D01*
X121196261Y-100588401D01*
X121239147Y-100447026D01*
X121250000Y-100336835D01*
X121250000Y-100336818D01*
X121253626Y-100300001D01*
X121250000Y-100263184D01*
X121250000Y-97520102D01*
X142725000Y-97520102D01*
X142725000Y-97859898D01*
X142791290Y-98193164D01*
X142921324Y-98507094D01*
X143110105Y-98789624D01*
X143350376Y-99029895D01*
X143632906Y-99218676D01*
X143946836Y-99348710D01*
X144280102Y-99415000D01*
X144619898Y-99415000D01*
X144953164Y-99348710D01*
X145267094Y-99218676D01*
X145549624Y-99029895D01*
X145789895Y-98789624D01*
X145978676Y-98507094D01*
X146108710Y-98193164D01*
X146175000Y-97859898D01*
X146175000Y-97520102D01*
X146108710Y-97186836D01*
X145978676Y-96872906D01*
X145789895Y-96590376D01*
X145549624Y-96350105D01*
X145267094Y-96161324D01*
X144953164Y-96031290D01*
X144619898Y-95965000D01*
X144280102Y-95965000D01*
X143946836Y-96031290D01*
X143632906Y-96161324D01*
X143350376Y-96350105D01*
X143110105Y-96590376D01*
X142921324Y-96872906D01*
X142791290Y-97186836D01*
X142725000Y-97520102D01*
X121250000Y-97520102D01*
X121250000Y-94910659D01*
X137560662Y-78599998D01*
X137625954Y-78599998D01*
X137823982Y-78560608D01*
X137899991Y-78529124D01*
X137899991Y-79375439D01*
X137853830Y-79421600D01*
X137741656Y-79589480D01*
X137664390Y-79776018D01*
X137625000Y-79974046D01*
X137625000Y-80175954D01*
X137664390Y-80373982D01*
X137741656Y-80560520D01*
X137853830Y-80728400D01*
X137996600Y-80871170D01*
X138164480Y-80983344D01*
X138351018Y-81060610D01*
X138549046Y-81100000D01*
X138750954Y-81100000D01*
X138948982Y-81060610D01*
X139135520Y-80983344D01*
X139303400Y-80871170D01*
X139446170Y-80728400D01*
X139558344Y-80560520D01*
X139605173Y-80447463D01*
X139634220Y-80476510D01*
X139634220Y-80541804D01*
X139673610Y-80739832D01*
X139750876Y-80926370D01*
X139863050Y-81094250D01*
X140005820Y-81237020D01*
X140173700Y-81349194D01*
X140360238Y-81426460D01*
X140558266Y-81465850D01*
X140760174Y-81465850D01*
X140958202Y-81426460D01*
X141144740Y-81349194D01*
X141312620Y-81237020D01*
X141455390Y-81094250D01*
X141567564Y-80926370D01*
X141644830Y-80739832D01*
X141684220Y-80541804D01*
X141684220Y-80339896D01*
X141644830Y-80141868D01*
X141567564Y-79955330D01*
X141455390Y-79787450D01*
X141312620Y-79644680D01*
X141144740Y-79532506D01*
X140958202Y-79455240D01*
X140760174Y-79415850D01*
X140694880Y-79415850D01*
X140508001Y-79228971D01*
X141775000Y-79228971D01*
X141775000Y-79421029D01*
X141812468Y-79609397D01*
X141885966Y-79786836D01*
X141992668Y-79946527D01*
X142128473Y-80082332D01*
X142288164Y-80189034D01*
X142465603Y-80262532D01*
X142653971Y-80300000D01*
X142846029Y-80300000D01*
X143034397Y-80262532D01*
X143211836Y-80189034D01*
X143371527Y-80082332D01*
X143507332Y-79946527D01*
X143614034Y-79786836D01*
X143687532Y-79609397D01*
X143725000Y-79421029D01*
X143725000Y-79228971D01*
X143687532Y-79040603D01*
X143614034Y-78863164D01*
X143507332Y-78703473D01*
X143371527Y-78567668D01*
X143211836Y-78460966D01*
X143034397Y-78387468D01*
X142846029Y-78350000D01*
X142653971Y-78350000D01*
X142465603Y-78387468D01*
X142288164Y-78460966D01*
X142128473Y-78567668D01*
X141992668Y-78703473D01*
X141885966Y-78863164D01*
X141812468Y-79040603D01*
X141775000Y-79228971D01*
X140508001Y-79228971D01*
X140125030Y-78846001D01*
X140125030Y-70578971D01*
X141775000Y-70578971D01*
X141775000Y-70771029D01*
X141812468Y-70959397D01*
X141885966Y-71136836D01*
X141992668Y-71296527D01*
X142128473Y-71432332D01*
X142288164Y-71539034D01*
X142465603Y-71612532D01*
X142653971Y-71650000D01*
X142846029Y-71650000D01*
X143034397Y-71612532D01*
X143211836Y-71539034D01*
X143371527Y-71432332D01*
X143507332Y-71296527D01*
X143614034Y-71136836D01*
X143687532Y-70959397D01*
X143725000Y-70771029D01*
X143725000Y-70578971D01*
X143687532Y-70390603D01*
X143614034Y-70213164D01*
X143507332Y-70053473D01*
X143371527Y-69917668D01*
X143211836Y-69810966D01*
X143034397Y-69737468D01*
X142846029Y-69700000D01*
X142653971Y-69700000D01*
X142465603Y-69737468D01*
X142288164Y-69810966D01*
X142128473Y-69917668D01*
X141992668Y-70053473D01*
X141885966Y-70213164D01*
X141812468Y-70390603D01*
X141775000Y-70578971D01*
X140125030Y-70578971D01*
X140125030Y-69824570D01*
X140171200Y-69778400D01*
X140283374Y-69610520D01*
X140360640Y-69423982D01*
X140397043Y-69240968D01*
X140423982Y-69235610D01*
X140610520Y-69158344D01*
X140778400Y-69046170D01*
X140921170Y-68903400D01*
X141033344Y-68735520D01*
X141041789Y-68715131D01*
X141091656Y-68835520D01*
X141203830Y-69003400D01*
X141346600Y-69146170D01*
X141514480Y-69258344D01*
X141701018Y-69335610D01*
X141899046Y-69375000D01*
X142100954Y-69375000D01*
X142298982Y-69335610D01*
X142485520Y-69258344D01*
X142653400Y-69146170D01*
X142699570Y-69100000D01*
X144114341Y-69100000D01*
X149050000Y-74035660D01*
X149050001Y-76788163D01*
X149046373Y-76825000D01*
X149060853Y-76972025D01*
X149103739Y-77113400D01*
X149117679Y-77139480D01*
X149173382Y-77243693D01*
X149199909Y-77276016D01*
X149243624Y-77329283D01*
X149243627Y-77329286D01*
X149267106Y-77357895D01*
X149295715Y-77381374D01*
X149643620Y-77729279D01*
X149667104Y-77757894D01*
X149781306Y-77851618D01*
X149911598Y-77921260D01*
X149936409Y-77928786D01*
X149864870Y-78101498D01*
X149825480Y-78299526D01*
X149825480Y-78501434D01*
X149864870Y-78699462D01*
X149942136Y-78886000D01*
X150054310Y-79053880D01*
X150197080Y-79196650D01*
X150364960Y-79308824D01*
X150551498Y-79386090D01*
X150749526Y-79425480D01*
X150951434Y-79425480D01*
X151149462Y-79386090D01*
X151336000Y-79308824D01*
X151503880Y-79196650D01*
X151646650Y-79053880D01*
X151758824Y-78886000D01*
X151836090Y-78699462D01*
X151875480Y-78501434D01*
X151875480Y-78436139D01*
X152579286Y-77732334D01*
X152607895Y-77708855D01*
X152661374Y-77643692D01*
X152701619Y-77594653D01*
X152771261Y-77464361D01*
X152814147Y-77322986D01*
X152819219Y-77271487D01*
X152825000Y-77212795D01*
X152825000Y-77212788D01*
X152828627Y-77175960D01*
X152825000Y-77139132D01*
X152825000Y-61724570D01*
X152871170Y-61678400D01*
X152983344Y-61510520D01*
X153060610Y-61323982D01*
X153100000Y-61125954D01*
X153100000Y-60924046D01*
X153060610Y-60726018D01*
X152983344Y-60539480D01*
X152871170Y-60371600D01*
X152728400Y-60228830D01*
X152560520Y-60116656D01*
X152373982Y-60039390D01*
X152175954Y-60000000D01*
X151974046Y-60000000D01*
X151776018Y-60039390D01*
X151589480Y-60116656D01*
X151421600Y-60228830D01*
X151278830Y-60371600D01*
X151166656Y-60539480D01*
X151089390Y-60726018D01*
X151050000Y-60924046D01*
X151050000Y-61125954D01*
X151089390Y-61323982D01*
X151166656Y-61510520D01*
X151278830Y-61678400D01*
X151325000Y-61724570D01*
X151325001Y-72475000D01*
X151199046Y-72475000D01*
X151001018Y-72514390D01*
X150814480Y-72591656D01*
X150646600Y-72703830D01*
X150568045Y-72782385D01*
X144381379Y-66595720D01*
X144357895Y-66567105D01*
X144243693Y-66473381D01*
X144113401Y-66403739D01*
X143972026Y-66360853D01*
X143861835Y-66350000D01*
X143861827Y-66350000D01*
X143825000Y-66346373D01*
X143788173Y-66350000D01*
X141599570Y-66350000D01*
X141553400Y-66303830D01*
X141385520Y-66191656D01*
X141198982Y-66114390D01*
X141000954Y-66075000D01*
X140799046Y-66075000D01*
X140601018Y-66114390D01*
X140414480Y-66191656D01*
X140246600Y-66303830D01*
X140103830Y-66446600D01*
X139991656Y-66614480D01*
X139914390Y-66801018D01*
X139875000Y-66999046D01*
X139875000Y-67200954D01*
X139885274Y-67252603D01*
X139826018Y-67264390D01*
X139639480Y-67341656D01*
X139471600Y-67453830D01*
X139425430Y-67500000D01*
X139213821Y-67500000D01*
X139176993Y-67496373D01*
X139140165Y-67500000D01*
X139140157Y-67500000D01*
X139029966Y-67510853D01*
X138968407Y-67529527D01*
X138888593Y-67553738D01*
X138758300Y-67623380D01*
X138672709Y-67693623D01*
X138672706Y-67693626D01*
X138644097Y-67717105D01*
X138620618Y-67745714D01*
X138145707Y-68220625D01*
X138117097Y-68244104D01*
X138093618Y-68272713D01*
X138093616Y-68272715D01*
X138023373Y-68358306D01*
X137953731Y-68488598D01*
X137910845Y-68629972D01*
X137896364Y-68776998D01*
X137899992Y-68813835D01*
X137899991Y-74370873D01*
X137823984Y-74339390D01*
X137625956Y-74300000D01*
X137424048Y-74300000D01*
X137226020Y-74339390D01*
X137039482Y-74416656D01*
X136871602Y-74528830D01*
X136728832Y-74671600D01*
X136616658Y-74839480D01*
X136539392Y-75026018D01*
X136500002Y-75224046D01*
X136500002Y-75289337D01*
X119070715Y-92718626D01*
X119042106Y-92742105D01*
X119018627Y-92770714D01*
X119018624Y-92770717D01*
X118991131Y-92804218D01*
X118948382Y-92856307D01*
X118911157Y-92925950D01*
X118878739Y-92986600D01*
X118835853Y-93127975D01*
X118821373Y-93275000D01*
X118825001Y-93311837D01*
X118825000Y-98201943D01*
X118789480Y-98216656D01*
X118621600Y-98328830D01*
X118478830Y-98471600D01*
X118366656Y-98639480D01*
X118289390Y-98826018D01*
X118250000Y-99024046D01*
X118250000Y-99225954D01*
X118289390Y-99423982D01*
X118366656Y-99610520D01*
X118478830Y-99778400D01*
X118621600Y-99921170D01*
X118789480Y-100033344D01*
X118960258Y-100104082D01*
X118289341Y-100775000D01*
X102649570Y-100775000D01*
X102603400Y-100728830D01*
X102435520Y-100616656D01*
X102248982Y-100539390D01*
X102050954Y-100500000D01*
X101849046Y-100500000D01*
X101651018Y-100539390D01*
X101464480Y-100616656D01*
X101296600Y-100728830D01*
X101153830Y-100871600D01*
X101041656Y-101039480D01*
X100964390Y-101226018D01*
X100925000Y-101424046D01*
X72375000Y-101424046D01*
X72375000Y-75550000D01*
X91546613Y-75550000D01*
X91550001Y-75584400D01*
X91550000Y-97515610D01*
X91546613Y-97550000D01*
X91560128Y-97687224D01*
X91600155Y-97819175D01*
X91665155Y-97940781D01*
X91752630Y-98047370D01*
X91851779Y-98128739D01*
X91859219Y-98134845D01*
X91980825Y-98199845D01*
X92112776Y-98239872D01*
X92250000Y-98253387D01*
X92284390Y-98250000D01*
X117215610Y-98250000D01*
X117250000Y-98253387D01*
X117284390Y-98250000D01*
X117387224Y-98239872D01*
X117519175Y-98199845D01*
X117640781Y-98134845D01*
X117747370Y-98047370D01*
X117834845Y-97940781D01*
X117899845Y-97819175D01*
X117939872Y-97687224D01*
X117953387Y-97550000D01*
X117950000Y-97515610D01*
X117950000Y-75584389D01*
X117953387Y-75550000D01*
X117939872Y-75412776D01*
X117899845Y-75280825D01*
X117834845Y-75159219D01*
X117747370Y-75052630D01*
X117640781Y-74965155D01*
X117519175Y-74900155D01*
X117387224Y-74860128D01*
X117284390Y-74850000D01*
X117250000Y-74846613D01*
X117215610Y-74850000D01*
X111950000Y-74850000D01*
X111950000Y-62584390D01*
X111953387Y-62550000D01*
X111939872Y-62412776D01*
X111899845Y-62280825D01*
X111834845Y-62159219D01*
X111747370Y-62052630D01*
X111640781Y-61965155D01*
X111519175Y-61900155D01*
X111387224Y-61860128D01*
X111284390Y-61850000D01*
X111250000Y-61846613D01*
X111215610Y-61850000D01*
X109577216Y-61850000D01*
X109787479Y-61787307D01*
X109907735Y-61533670D01*
X109976198Y-61261447D01*
X109990237Y-60981097D01*
X109949314Y-60703396D01*
X109855000Y-60439014D01*
X109787479Y-60312693D01*
X109546065Y-60240712D01*
X108736777Y-61050000D01*
X108750919Y-61064142D01*
X108574142Y-61240919D01*
X108560000Y-61226777D01*
X108545858Y-61240919D01*
X108369081Y-61064142D01*
X108383223Y-61050000D01*
X107573935Y-60240712D01*
X107332521Y-60312693D01*
X107292217Y-60397699D01*
X107282819Y-60375009D01*
X107126870Y-60141615D01*
X107049190Y-60063935D01*
X107750712Y-60063935D01*
X108560000Y-60873223D01*
X109369288Y-60063935D01*
X109320409Y-59900000D01*
X114446976Y-59900000D01*
X114459043Y-60022521D01*
X114494781Y-60140334D01*
X114552817Y-60248911D01*
X114630920Y-60344080D01*
X114726089Y-60422183D01*
X114834666Y-60480219D01*
X114952479Y-60515957D01*
X115075000Y-60528024D01*
X115268750Y-60525000D01*
X115425000Y-60368750D01*
X115425000Y-59500000D01*
X115675000Y-59500000D01*
X115675000Y-60368750D01*
X115831250Y-60525000D01*
X116025000Y-60528024D01*
X116147521Y-60515957D01*
X116265334Y-60480219D01*
X116373911Y-60422183D01*
X116469080Y-60344080D01*
X116547183Y-60248911D01*
X116605219Y-60140334D01*
X116625000Y-60075124D01*
X116644781Y-60140334D01*
X116702817Y-60248911D01*
X116780920Y-60344080D01*
X116876089Y-60422183D01*
X116984666Y-60480219D01*
X117102479Y-60515957D01*
X117225000Y-60528024D01*
X117418750Y-60525000D01*
X117575000Y-60368750D01*
X117575000Y-59500000D01*
X117825000Y-59500000D01*
X117825000Y-60368750D01*
X117981250Y-60525000D01*
X118175000Y-60528024D01*
X118297521Y-60515957D01*
X118415334Y-60480219D01*
X118523911Y-60422183D01*
X118619080Y-60344080D01*
X118697183Y-60248911D01*
X118755219Y-60140334D01*
X118790957Y-60022521D01*
X118803024Y-59900000D01*
X118800000Y-59656250D01*
X118643750Y-59500000D01*
X117825000Y-59500000D01*
X117575000Y-59500000D01*
X116756250Y-59500000D01*
X116625000Y-59631250D01*
X116493750Y-59500000D01*
X115675000Y-59500000D01*
X115425000Y-59500000D01*
X114606250Y-59500000D01*
X114450000Y-59656250D01*
X114446976Y-59900000D01*
X109320409Y-59900000D01*
X109297307Y-59822521D01*
X109043670Y-59702265D01*
X108771447Y-59633802D01*
X108491097Y-59619763D01*
X108213396Y-59660686D01*
X107949014Y-59755000D01*
X107822693Y-59822521D01*
X107750712Y-60063935D01*
X107049190Y-60063935D01*
X106928385Y-59943130D01*
X106694991Y-59787181D01*
X106435657Y-59679762D01*
X106160350Y-59625000D01*
X105879650Y-59625000D01*
X105604343Y-59679762D01*
X105345009Y-59787181D01*
X105111615Y-59943130D01*
X104913130Y-60141615D01*
X104757181Y-60375009D01*
X104750000Y-60392346D01*
X104742819Y-60375009D01*
X104586870Y-60141615D01*
X104388385Y-59943130D01*
X104154991Y-59787181D01*
X103895657Y-59679762D01*
X103620350Y-59625000D01*
X103339650Y-59625000D01*
X103064343Y-59679762D01*
X102805009Y-59787181D01*
X102571615Y-59943130D01*
X102373130Y-60141615D01*
X102217181Y-60375009D01*
X102210000Y-60392346D01*
X102202819Y-60375009D01*
X102046870Y-60141615D01*
X101848385Y-59943130D01*
X101614991Y-59787181D01*
X101355657Y-59679762D01*
X101080350Y-59625000D01*
X100799650Y-59625000D01*
X100524343Y-59679762D01*
X100265009Y-59787181D01*
X100031615Y-59943130D01*
X99833130Y-60141615D01*
X99677181Y-60375009D01*
X99569762Y-60634343D01*
X99515000Y-60909650D01*
X99515000Y-61190350D01*
X99569762Y-61465657D01*
X99677181Y-61724991D01*
X99760709Y-61850000D01*
X98284390Y-61850000D01*
X98250000Y-61846613D01*
X98215610Y-61850000D01*
X98112776Y-61860128D01*
X97980825Y-61900155D01*
X97859219Y-61965155D01*
X97752630Y-62052630D01*
X97665155Y-62159219D01*
X97600155Y-62280825D01*
X97560128Y-62412776D01*
X97546613Y-62550000D01*
X97550001Y-62584400D01*
X97550000Y-74850000D01*
X92284390Y-74850000D01*
X92250000Y-74846613D01*
X92215610Y-74850000D01*
X92112776Y-74860128D01*
X91980825Y-74900155D01*
X91859219Y-74965155D01*
X91752630Y-75052630D01*
X91665155Y-75159219D01*
X91600155Y-75280825D01*
X91560128Y-75412776D01*
X91546613Y-75550000D01*
X72375000Y-75550000D01*
X72375000Y-65699046D01*
X78625000Y-65699046D01*
X78625000Y-65900954D01*
X78664390Y-66098982D01*
X78741656Y-66285520D01*
X78853830Y-66453400D01*
X78996600Y-66596170D01*
X79164480Y-66708344D01*
X79351018Y-66785610D01*
X79549046Y-66825000D01*
X79614340Y-66825000D01*
X79968626Y-67179286D01*
X79992105Y-67207895D01*
X80020714Y-67231374D01*
X80020716Y-67231376D01*
X80039786Y-67247026D01*
X80106307Y-67301619D01*
X80236599Y-67371261D01*
X80377974Y-67414147D01*
X80488165Y-67425000D01*
X80488172Y-67425000D01*
X80525000Y-67428627D01*
X80561827Y-67425000D01*
X88775430Y-67425000D01*
X88821600Y-67471170D01*
X88989480Y-67583344D01*
X89176018Y-67660610D01*
X89374046Y-67700000D01*
X89575954Y-67700000D01*
X89773982Y-67660610D01*
X89960520Y-67583344D01*
X90128400Y-67471170D01*
X90271170Y-67328400D01*
X90383344Y-67160520D01*
X90460610Y-66973982D01*
X90500000Y-66775954D01*
X90500000Y-66574046D01*
X90460610Y-66376018D01*
X90383344Y-66189480D01*
X90271170Y-66021600D01*
X90128400Y-65878830D01*
X89960520Y-65766656D01*
X89773982Y-65689390D01*
X89616863Y-65658137D01*
X89585610Y-65501018D01*
X89508344Y-65314480D01*
X89396170Y-65146600D01*
X89253400Y-65003830D01*
X89085520Y-64891656D01*
X88898982Y-64814390D01*
X88700954Y-64775000D01*
X88499046Y-64775000D01*
X88301018Y-64814390D01*
X88114480Y-64891656D01*
X87946600Y-65003830D01*
X87900430Y-65050000D01*
X87124570Y-65050000D01*
X87078400Y-65003830D01*
X86910520Y-64891656D01*
X86723982Y-64814390D01*
X86525954Y-64775000D01*
X86324046Y-64775000D01*
X86126018Y-64814390D01*
X85939480Y-64891656D01*
X85771600Y-65003830D01*
X85628830Y-65146600D01*
X85516656Y-65314480D01*
X85439390Y-65501018D01*
X85400000Y-65699046D01*
X85400000Y-65900954D01*
X85404783Y-65925000D01*
X80835660Y-65925000D01*
X80675000Y-65764340D01*
X80675000Y-65699046D01*
X80635610Y-65501018D01*
X80558344Y-65314480D01*
X80446170Y-65146600D01*
X80303400Y-65003830D01*
X80135520Y-64891656D01*
X79948982Y-64814390D01*
X79750954Y-64775000D01*
X79549046Y-64775000D01*
X79351018Y-64814390D01*
X79164480Y-64891656D01*
X78996600Y-65003830D01*
X78853830Y-65146600D01*
X78741656Y-65314480D01*
X78664390Y-65501018D01*
X78625000Y-65699046D01*
X72375000Y-65699046D01*
X72375000Y-61924046D01*
X89325000Y-61924046D01*
X89325000Y-62125954D01*
X89364390Y-62323982D01*
X89441656Y-62510520D01*
X89553830Y-62678400D01*
X89696600Y-62821170D01*
X89864480Y-62933344D01*
X90051018Y-63010610D01*
X90249046Y-63050000D01*
X90450954Y-63050000D01*
X90648982Y-63010610D01*
X90835520Y-62933344D01*
X91003400Y-62821170D01*
X91146170Y-62678400D01*
X91258344Y-62510520D01*
X91335610Y-62323982D01*
X91375000Y-62125954D01*
X91375000Y-62060659D01*
X92354283Y-61081377D01*
X92382891Y-61057899D01*
X92476615Y-60943697D01*
X92546257Y-60813405D01*
X92589143Y-60672030D01*
X92599996Y-60561839D01*
X92599996Y-60561832D01*
X92603623Y-60525004D01*
X92599996Y-60488176D01*
X92599996Y-56149046D01*
X110075000Y-56149046D01*
X110075000Y-56350954D01*
X110114390Y-56548982D01*
X110191656Y-56735520D01*
X110303830Y-56903400D01*
X110446600Y-57046170D01*
X110614480Y-57158344D01*
X110801018Y-57235610D01*
X110999046Y-57275000D01*
X111064341Y-57275000D01*
X111918626Y-58129286D01*
X111942105Y-58157895D01*
X112056307Y-58251619D01*
X112186599Y-58321261D01*
X112327974Y-58364147D01*
X112438165Y-58375000D01*
X112438172Y-58375000D01*
X112475000Y-58378627D01*
X112511828Y-58375000D01*
X114490130Y-58375000D01*
X114494781Y-58390334D01*
X114552817Y-58498911D01*
X114553711Y-58500000D01*
X114552817Y-58501089D01*
X114494781Y-58609666D01*
X114459043Y-58727479D01*
X114446976Y-58850000D01*
X114450000Y-59093750D01*
X114606250Y-59250000D01*
X115425000Y-59250000D01*
X115425000Y-59230000D01*
X115675000Y-59230000D01*
X115675000Y-59250000D01*
X116493750Y-59250000D01*
X116625000Y-59118750D01*
X116756250Y-59250000D01*
X117575000Y-59250000D01*
X117575000Y-59230000D01*
X117825000Y-59230000D01*
X117825000Y-59250000D01*
X118643750Y-59250000D01*
X118800000Y-59093750D01*
X118803024Y-58850000D01*
X118790957Y-58727479D01*
X118755219Y-58609666D01*
X118697183Y-58501089D01*
X118696289Y-58500000D01*
X118697183Y-58498911D01*
X118755219Y-58390334D01*
X118790957Y-58272521D01*
X118803024Y-58150000D01*
X118803024Y-57100000D01*
X118790957Y-56977479D01*
X118755219Y-56859666D01*
X118697183Y-56751089D01*
X118619080Y-56655920D01*
X118523911Y-56577817D01*
X118415334Y-56519781D01*
X118297521Y-56484043D01*
X118175000Y-56471976D01*
X117657636Y-56471976D01*
X116931378Y-55745719D01*
X116907895Y-55717105D01*
X116793693Y-55623381D01*
X116663401Y-55553739D01*
X116522026Y-55510853D01*
X116411835Y-55500000D01*
X116411827Y-55500000D01*
X116375000Y-55496373D01*
X116338173Y-55500000D01*
X114349570Y-55500000D01*
X114303400Y-55453830D01*
X114135520Y-55341656D01*
X113948982Y-55264390D01*
X113750954Y-55225000D01*
X113549046Y-55225000D01*
X113351018Y-55264390D01*
X113164480Y-55341656D01*
X112996600Y-55453830D01*
X112853830Y-55596600D01*
X112741656Y-55764480D01*
X112664390Y-55951018D01*
X112625000Y-56149046D01*
X112625000Y-56350954D01*
X112664390Y-56548982D01*
X112741656Y-56735520D01*
X112834854Y-56875000D01*
X112785660Y-56875000D01*
X112125000Y-56214341D01*
X112125000Y-56149046D01*
X112085610Y-55951018D01*
X112008344Y-55764480D01*
X111896170Y-55596600D01*
X111753400Y-55453830D01*
X111585520Y-55341656D01*
X111398982Y-55264390D01*
X111200954Y-55225000D01*
X110999046Y-55225000D01*
X110801018Y-55264390D01*
X110614480Y-55341656D01*
X110446600Y-55453830D01*
X110303830Y-55596600D01*
X110191656Y-55764480D01*
X110114390Y-55951018D01*
X110075000Y-56149046D01*
X92599996Y-56149046D01*
X92599996Y-46174570D01*
X92646166Y-46128400D01*
X92758340Y-45960520D01*
X92835606Y-45773982D01*
X92874996Y-45575954D01*
X92874996Y-45374046D01*
X92835606Y-45176018D01*
X92758340Y-44989480D01*
X92646166Y-44821600D01*
X92503396Y-44678830D01*
X92335516Y-44566656D01*
X92148978Y-44489390D01*
X91950950Y-44450000D01*
X91749042Y-44450000D01*
X91551014Y-44489390D01*
X91364476Y-44566656D01*
X91196596Y-44678830D01*
X91053826Y-44821600D01*
X90941652Y-44989480D01*
X90864386Y-45176018D01*
X90824996Y-45374046D01*
X90824996Y-45575954D01*
X90864386Y-45773982D01*
X90941652Y-45960520D01*
X91053826Y-46128400D01*
X91099997Y-46174571D01*
X91099996Y-60214344D01*
X90314341Y-61000000D01*
X90249046Y-61000000D01*
X90051018Y-61039390D01*
X89864480Y-61116656D01*
X89696600Y-61228830D01*
X89553830Y-61371600D01*
X89441656Y-61539480D01*
X89364390Y-61726018D01*
X89325000Y-61924046D01*
X72375000Y-61924046D01*
X72375000Y-41125000D01*
X80575000Y-41125000D01*
X80575001Y-46233846D01*
G36*
X143000001Y-48523653D02*
G01*
X138570720Y-52952936D01*
X138542105Y-52976420D01*
X138448381Y-53090623D01*
X138378739Y-53220915D01*
X138335853Y-53362290D01*
X138325000Y-53472481D01*
X138325000Y-53472488D01*
X138321373Y-53509315D01*
X138325000Y-53546142D01*
X138325000Y-53825430D01*
X138278830Y-53871600D01*
X138166656Y-54039480D01*
X138089390Y-54226018D01*
X138050000Y-54424046D01*
X138050000Y-54489340D01*
X120950000Y-71589341D01*
X120950000Y-46610659D01*
X122125000Y-45435660D01*
X122893626Y-46204286D01*
X122917105Y-46232895D01*
X123031307Y-46326619D01*
X123161599Y-46396261D01*
X123302974Y-46439147D01*
X123413165Y-46450000D01*
X123413172Y-46450000D01*
X123450000Y-46453627D01*
X123486827Y-46450000D01*
X141388173Y-46450000D01*
X141425000Y-46453627D01*
X141461827Y-46450000D01*
X141461835Y-46450000D01*
X141572026Y-46439147D01*
X141713401Y-46396261D01*
X141843693Y-46326619D01*
X141957895Y-46232895D01*
X141981378Y-46204281D01*
X143000000Y-45185660D01*
X143000001Y-48523653D01*
X143000001Y-48523653D01*
G37*
X143000001Y-48523653D02*
X138570720Y-52952936D01*
X138542105Y-52976420D01*
X138448381Y-53090623D01*
X138378739Y-53220915D01*
X138335853Y-53362290D01*
X138325000Y-53472481D01*
X138325000Y-53472488D01*
X138321373Y-53509315D01*
X138325000Y-53546142D01*
X138325000Y-53825430D01*
X138278830Y-53871600D01*
X138166656Y-54039480D01*
X138089390Y-54226018D01*
X138050000Y-54424046D01*
X138050000Y-54489340D01*
X120950000Y-71589341D01*
X120950000Y-46610659D01*
X122125000Y-45435660D01*
X122893626Y-46204286D01*
X122917105Y-46232895D01*
X123031307Y-46326619D01*
X123161599Y-46396261D01*
X123302974Y-46439147D01*
X123413165Y-46450000D01*
X123413172Y-46450000D01*
X123450000Y-46453627D01*
X123486827Y-46450000D01*
X141388173Y-46450000D01*
X141425000Y-46453627D01*
X141461827Y-46450000D01*
X141461835Y-46450000D01*
X141572026Y-46439147D01*
X141713401Y-46396261D01*
X141843693Y-46326619D01*
X141957895Y-46232895D01*
X141981378Y-46204281D01*
X143000000Y-45185660D01*
X143000001Y-48523653D01*
G36*
X144740850Y-44553657D02*
G01*
X144957548Y-44575000D01*
X145102452Y-44575000D01*
X145295343Y-44556002D01*
X147750000Y-47010660D01*
X147750001Y-52264339D01*
X144439341Y-55575000D01*
X144399046Y-55575000D01*
X144201018Y-55614390D01*
X144014480Y-55691656D01*
X143846600Y-55803830D01*
X143800430Y-55850000D01*
X142560661Y-55850000D01*
X141656376Y-54945717D01*
X141632893Y-54917103D01*
X141518691Y-54823379D01*
X141388399Y-54753737D01*
X141247024Y-54710851D01*
X141136833Y-54699998D01*
X141136825Y-54699998D01*
X141099998Y-54696371D01*
X141063171Y-54699998D01*
X140085272Y-54699998D01*
X140100000Y-54625954D01*
X140100000Y-54424046D01*
X140060610Y-54226018D01*
X139983344Y-54039480D01*
X139871170Y-53871600D01*
X139825000Y-53825430D01*
X139825000Y-53819974D01*
X141504872Y-52140102D01*
X142725000Y-52140102D01*
X142725000Y-52479898D01*
X142791290Y-52813164D01*
X142921324Y-53127094D01*
X143110105Y-53409624D01*
X143350376Y-53649895D01*
X143632906Y-53838676D01*
X143946836Y-53968710D01*
X144280102Y-54035000D01*
X144619898Y-54035000D01*
X144953164Y-53968710D01*
X145267094Y-53838676D01*
X145549624Y-53649895D01*
X145789895Y-53409624D01*
X145978676Y-53127094D01*
X146108710Y-52813164D01*
X146175000Y-52479898D01*
X146175000Y-52140102D01*
X146108710Y-51806836D01*
X145978676Y-51492906D01*
X145789895Y-51210376D01*
X145549624Y-50970105D01*
X145267094Y-50781324D01*
X144953164Y-50651290D01*
X144619898Y-50585000D01*
X144280102Y-50585000D01*
X143946836Y-50651290D01*
X143632906Y-50781324D01*
X143350376Y-50970105D01*
X143110105Y-51210376D01*
X142921324Y-51492906D01*
X142791290Y-51806836D01*
X142725000Y-52140102D01*
X141504872Y-52140102D01*
X144254291Y-49390685D01*
X144282895Y-49367210D01*
X144306369Y-49338607D01*
X144306376Y-49338600D01*
X144376618Y-49253009D01*
X144376619Y-49253008D01*
X144446261Y-49122716D01*
X144489147Y-48981341D01*
X144500000Y-48871150D01*
X144500000Y-48871141D01*
X144503627Y-48834316D01*
X144500000Y-48797491D01*
X144500000Y-44480596D01*
X144740850Y-44553657D01*
X144740850Y-44553657D01*
G37*
X144740850Y-44553657D02*
X144957548Y-44575000D01*
X145102452Y-44575000D01*
X145295343Y-44556002D01*
X147750000Y-47010660D01*
X147750001Y-52264339D01*
X144439341Y-55575000D01*
X144399046Y-55575000D01*
X144201018Y-55614390D01*
X144014480Y-55691656D01*
X143846600Y-55803830D01*
X143800430Y-55850000D01*
X142560661Y-55850000D01*
X141656376Y-54945717D01*
X141632893Y-54917103D01*
X141518691Y-54823379D01*
X141388399Y-54753737D01*
X141247024Y-54710851D01*
X141136833Y-54699998D01*
X141136825Y-54699998D01*
X141099998Y-54696371D01*
X141063171Y-54699998D01*
X140085272Y-54699998D01*
X140100000Y-54625954D01*
X140100000Y-54424046D01*
X140060610Y-54226018D01*
X139983344Y-54039480D01*
X139871170Y-53871600D01*
X139825000Y-53825430D01*
X139825000Y-53819974D01*
X141504872Y-52140102D01*
X142725000Y-52140102D01*
X142725000Y-52479898D01*
X142791290Y-52813164D01*
X142921324Y-53127094D01*
X143110105Y-53409624D01*
X143350376Y-53649895D01*
X143632906Y-53838676D01*
X143946836Y-53968710D01*
X144280102Y-54035000D01*
X144619898Y-54035000D01*
X144953164Y-53968710D01*
X145267094Y-53838676D01*
X145549624Y-53649895D01*
X145789895Y-53409624D01*
X145978676Y-53127094D01*
X146108710Y-52813164D01*
X146175000Y-52479898D01*
X146175000Y-52140102D01*
X146108710Y-51806836D01*
X145978676Y-51492906D01*
X145789895Y-51210376D01*
X145549624Y-50970105D01*
X145267094Y-50781324D01*
X144953164Y-50651290D01*
X144619898Y-50585000D01*
X144280102Y-50585000D01*
X143946836Y-50651290D01*
X143632906Y-50781324D01*
X143350376Y-50970105D01*
X143110105Y-51210376D01*
X142921324Y-51492906D01*
X142791290Y-51806836D01*
X142725000Y-52140102D01*
X141504872Y-52140102D01*
X144254291Y-49390685D01*
X144282895Y-49367210D01*
X144306369Y-49338607D01*
X144306376Y-49338600D01*
X144376618Y-49253009D01*
X144376619Y-49253008D01*
X144446261Y-49122716D01*
X144489147Y-48981341D01*
X144500000Y-48871150D01*
X144500000Y-48871141D01*
X144503627Y-48834316D01*
X144500000Y-48797491D01*
X144500000Y-44480596D01*
X144740850Y-44553657D01*
G36*
X143821254Y-41143183D02*
G01*
X143792105Y-41167105D01*
X143768626Y-41195715D01*
X143245719Y-41718622D01*
X143217105Y-41742105D01*
X143174860Y-41793581D01*
X143057189Y-41730685D01*
X142779150Y-41646343D01*
X142562452Y-41625000D01*
X142417548Y-41625000D01*
X142200850Y-41646343D01*
X141922811Y-41730685D01*
X141666569Y-41867649D01*
X141441972Y-42051972D01*
X141257649Y-42276569D01*
X141215294Y-42355810D01*
X141137812Y-42225504D01*
X140944383Y-42010577D01*
X140712740Y-41837515D01*
X140451786Y-41712970D01*
X140303372Y-41667955D01*
X140075000Y-41787188D01*
X140075000Y-42975000D01*
X140095000Y-42975000D01*
X140095000Y-43225000D01*
X140075000Y-43225000D01*
X140075000Y-44412812D01*
X140303372Y-44532045D01*
X140451786Y-44487030D01*
X140712740Y-44362485D01*
X140944383Y-44189423D01*
X141137812Y-43974496D01*
X141215294Y-43844190D01*
X141257649Y-43923431D01*
X141441972Y-44148028D01*
X141666569Y-44332351D01*
X141709202Y-44355139D01*
X141114341Y-44950000D01*
X126459870Y-44950000D01*
X126490957Y-44847521D01*
X126503024Y-44725000D01*
X126500000Y-44406250D01*
X126343750Y-44250000D01*
X125650000Y-44250000D01*
X125650000Y-44270000D01*
X125400000Y-44270000D01*
X125400000Y-44250000D01*
X124706250Y-44250000D01*
X124550000Y-44406250D01*
X124546976Y-44725000D01*
X124559043Y-44847521D01*
X124590130Y-44950000D01*
X123760660Y-44950000D01*
X123103024Y-44292365D01*
X123103024Y-43793636D01*
X123259397Y-43762532D01*
X123436836Y-43689034D01*
X123596527Y-43582332D01*
X123732332Y-43446527D01*
X123825000Y-43307839D01*
X123917668Y-43446527D01*
X124053473Y-43582332D01*
X124213164Y-43689034D01*
X124390603Y-43762532D01*
X124549529Y-43794144D01*
X124550000Y-43843750D01*
X124706250Y-44000000D01*
X125400000Y-44000000D01*
X125400000Y-43980000D01*
X125650000Y-43980000D01*
X125650000Y-44000000D01*
X126343750Y-44000000D01*
X126500000Y-43843750D01*
X126503024Y-43525000D01*
X126495970Y-43453373D01*
X138517950Y-43453373D01*
X138614406Y-43725962D01*
X138762188Y-43974496D01*
X138955617Y-44189423D01*
X139187260Y-44362485D01*
X139448214Y-44487030D01*
X139596628Y-44532045D01*
X139825000Y-44412812D01*
X139825000Y-43225000D01*
X138636551Y-43225000D01*
X138517950Y-43453373D01*
X126495970Y-43453373D01*
X126495734Y-43450982D01*
X126597521Y-43440957D01*
X126715334Y-43405219D01*
X126823911Y-43347183D01*
X126919080Y-43269080D01*
X126997183Y-43173911D01*
X127055219Y-43065334D01*
X127090957Y-42947521D01*
X127103024Y-42825000D01*
X127103024Y-42746627D01*
X138517950Y-42746627D01*
X138636551Y-42975000D01*
X139825000Y-42975000D01*
X139825000Y-41787188D01*
X139596628Y-41667955D01*
X139448214Y-41712970D01*
X139187260Y-41837515D01*
X138955617Y-42010577D01*
X138762188Y-42225504D01*
X138614406Y-42474038D01*
X138517950Y-42746627D01*
X127103024Y-42746627D01*
X127103024Y-41525000D01*
X127090957Y-41402479D01*
X127055219Y-41284666D01*
X126997183Y-41176089D01*
X126955255Y-41125000D01*
X143843410Y-41125000D01*
X143821254Y-41143183D01*
X143821254Y-41143183D01*
G37*
X143821254Y-41143183D02*
X143792105Y-41167105D01*
X143768626Y-41195715D01*
X143245719Y-41718622D01*
X143217105Y-41742105D01*
X143174860Y-41793581D01*
X143057189Y-41730685D01*
X142779150Y-41646343D01*
X142562452Y-41625000D01*
X142417548Y-41625000D01*
X142200850Y-41646343D01*
X141922811Y-41730685D01*
X141666569Y-41867649D01*
X141441972Y-42051972D01*
X141257649Y-42276569D01*
X141215294Y-42355810D01*
X141137812Y-42225504D01*
X140944383Y-42010577D01*
X140712740Y-41837515D01*
X140451786Y-41712970D01*
X140303372Y-41667955D01*
X140075000Y-41787188D01*
X140075000Y-42975000D01*
X140095000Y-42975000D01*
X140095000Y-43225000D01*
X140075000Y-43225000D01*
X140075000Y-44412812D01*
X140303372Y-44532045D01*
X140451786Y-44487030D01*
X140712740Y-44362485D01*
X140944383Y-44189423D01*
X141137812Y-43974496D01*
X141215294Y-43844190D01*
X141257649Y-43923431D01*
X141441972Y-44148028D01*
X141666569Y-44332351D01*
X141709202Y-44355139D01*
X141114341Y-44950000D01*
X126459870Y-44950000D01*
X126490957Y-44847521D01*
X126503024Y-44725000D01*
X126500000Y-44406250D01*
X126343750Y-44250000D01*
X125650000Y-44250000D01*
X125650000Y-44270000D01*
X125400000Y-44270000D01*
X125400000Y-44250000D01*
X124706250Y-44250000D01*
X124550000Y-44406250D01*
X124546976Y-44725000D01*
X124559043Y-44847521D01*
X124590130Y-44950000D01*
X123760660Y-44950000D01*
X123103024Y-44292365D01*
X123103024Y-43793636D01*
X123259397Y-43762532D01*
X123436836Y-43689034D01*
X123596527Y-43582332D01*
X123732332Y-43446527D01*
X123825000Y-43307839D01*
X123917668Y-43446527D01*
X124053473Y-43582332D01*
X124213164Y-43689034D01*
X124390603Y-43762532D01*
X124549529Y-43794144D01*
X124550000Y-43843750D01*
X124706250Y-44000000D01*
X125400000Y-44000000D01*
X125400000Y-43980000D01*
X125650000Y-43980000D01*
X125650000Y-44000000D01*
X126343750Y-44000000D01*
X126500000Y-43843750D01*
X126503024Y-43525000D01*
X126495970Y-43453373D01*
X138517950Y-43453373D01*
X138614406Y-43725962D01*
X138762188Y-43974496D01*
X138955617Y-44189423D01*
X139187260Y-44362485D01*
X139448214Y-44487030D01*
X139596628Y-44532045D01*
X139825000Y-44412812D01*
X139825000Y-43225000D01*
X138636551Y-43225000D01*
X138517950Y-43453373D01*
X126495970Y-43453373D01*
X126495734Y-43450982D01*
X126597521Y-43440957D01*
X126715334Y-43405219D01*
X126823911Y-43347183D01*
X126919080Y-43269080D01*
X126997183Y-43173911D01*
X127055219Y-43065334D01*
X127090957Y-42947521D01*
X127103024Y-42825000D01*
X127103024Y-42746627D01*
X138517950Y-42746627D01*
X138636551Y-42975000D01*
X139825000Y-42975000D01*
X139825000Y-41787188D01*
X139596628Y-41667955D01*
X139448214Y-41712970D01*
X139187260Y-41837515D01*
X138955617Y-42010577D01*
X138762188Y-42225504D01*
X138614406Y-42474038D01*
X138517950Y-42746627D01*
X127103024Y-42746627D01*
X127103024Y-41525000D01*
X127090957Y-41402479D01*
X127055219Y-41284666D01*
X126997183Y-41176089D01*
X126955255Y-41125000D01*
X143843410Y-41125000D01*
X143821254Y-41143183D01*
M02*
