G04 #@! TF.GenerationSoftware,KiCad,Pcbnew,(5.1.0-0)*
G04 #@! TF.CreationDate,2019-05-12T16:12:14+09:00*
G04 #@! TF.ProjectId,split_EC_left,73706c69-745f-4454-935f-6c6566742e6b,rev?*
G04 #@! TF.SameCoordinates,Original*
G04 #@! TF.FileFunction,Profile,NP*
%FSLAX46Y46*%
G04 Gerber Fmt 4.6, Leading zero omitted, Abs format (unit mm)*
G04 Created by KiCad (PCBNEW (5.1.0-0)) date 2019-05-12 16:12:14*
%MOMM*%
%LPD*%
G04 APERTURE LIST*
%ADD10C,0.150000*%
G04 APERTURE END LIST*
D10*
X128775000Y-40000000D02*
X138575000Y-40000000D01*
X155250000Y-40000000D02*
X147275000Y-40000000D01*
X156250000Y-41000000D02*
G75*
G03X155250000Y-40000000I-1000000J0D01*
G01*
X155250000Y-110000000D02*
G75*
G03X156250000Y-109000000I0J1000000D01*
G01*
X71250000Y-109000000D02*
G75*
G03X72250000Y-110000000I1000000J0D01*
G01*
X72250000Y-40000000D02*
G75*
G03X71250000Y-41000000I0J-1000000D01*
G01*
X156250000Y-41000000D02*
X156250000Y-109000000D01*
X155250000Y-110000000D02*
X72250000Y-110000000D01*
X71250000Y-41000000D02*
X71250000Y-109000000D01*
X109075000Y-40000000D02*
X72250000Y-40000000D01*
X146225000Y-40000000D02*
X147275000Y-40000000D01*
X139625000Y-40000000D02*
X138575000Y-40000000D01*
X146225000Y-40000000D02*
X146225000Y-46870000D01*
X139625000Y-40000000D02*
X139625000Y-46870000D01*
X140625000Y-52500000D02*
X145225000Y-52500000D01*
X139625000Y-52500000D02*
G75*
G03X140625000Y-52500000I500000J0D01*
G01*
X145225000Y-52500000D02*
G75*
G03X146225000Y-52500000I500000J0D01*
G01*
X146525000Y-48170000D02*
G75*
G03X146525000Y-46870000I0J650000D01*
G01*
X146225000Y-46870000D02*
X146525000Y-46870000D01*
X146225000Y-48170000D02*
X146525000Y-48170000D01*
X146225000Y-48170000D02*
X146225000Y-52500000D01*
X139325000Y-46870000D02*
X139625000Y-46870000D01*
X139625000Y-48170000D02*
X139625000Y-52500000D01*
X139325000Y-48170000D02*
X139625000Y-48170000D01*
X139325000Y-48170000D02*
G75*
G02X139325000Y-46870000I0J650000D01*
G01*
X123425000Y-47150000D02*
X114425000Y-47150000D01*
X114425000Y-47150000D02*
X114425000Y-40000000D01*
X123425000Y-47150000D02*
X123425000Y-40000000D01*
X123425000Y-40000000D02*
X128775000Y-40000000D01*
X114425000Y-40000000D02*
X109075000Y-40000000D01*
X129250000Y-75550000D02*
X135250000Y-75550000D01*
X129250000Y-62550000D02*
X129250000Y-75550000D01*
X116250000Y-62550000D02*
X129250000Y-62550000D01*
X116250000Y-75550000D02*
X116250000Y-62550000D01*
X110250000Y-75550000D02*
X116250000Y-75550000D01*
X110250000Y-97550000D02*
X110250000Y-75550000D01*
X135250000Y-97550000D02*
X110250000Y-97550000D01*
X135250000Y-97550000D02*
X135250000Y-75550000D01*
M02*
