G04 #@! TF.GenerationSoftware,KiCad,Pcbnew,(5.1.0-0)*
G04 #@! TF.CreationDate,2019-05-12T00:03:29+09:00*
G04 #@! TF.ProjectId,split_EC_right,73706c69-745f-4454-935f-72696768742e,rev?*
G04 #@! TF.SameCoordinates,Original*
G04 #@! TF.FileFunction,Soldermask,Bot*
G04 #@! TF.FilePolarity,Negative*
%FSLAX46Y46*%
G04 Gerber Fmt 4.6, Leading zero omitted, Abs format (unit mm)*
G04 Created by KiCad (PCBNEW (5.1.0-0)) date 2019-05-12 00:03:29*
%MOMM*%
%LPD*%
G04 APERTURE LIST*
%ADD10C,0.100000*%
G04 APERTURE END LIST*
D10*
G36*
X144829196Y-96439958D02*
G01*
X145065781Y-96537955D01*
X145278702Y-96680224D01*
X145459776Y-96861298D01*
X145602045Y-97074219D01*
X145700042Y-97310804D01*
X145750000Y-97561961D01*
X145750000Y-97818039D01*
X145700042Y-98069196D01*
X145602045Y-98305781D01*
X145459776Y-98518702D01*
X145278702Y-98699776D01*
X145065781Y-98842045D01*
X144829196Y-98940042D01*
X144703617Y-98965021D01*
X144578040Y-98990000D01*
X144321960Y-98990000D01*
X144070804Y-98940042D01*
X143834219Y-98842045D01*
X143621298Y-98699776D01*
X143440224Y-98518702D01*
X143297955Y-98305781D01*
X143199958Y-98069196D01*
X143150000Y-97818039D01*
X143150000Y-97561961D01*
X143199958Y-97310804D01*
X143297955Y-97074219D01*
X143440224Y-96861298D01*
X143621298Y-96680224D01*
X143834219Y-96537955D01*
X144070804Y-96439958D01*
X144321960Y-96390000D01*
X144578040Y-96390000D01*
X144829196Y-96439958D01*
X144829196Y-96439958D01*
G37*
G36*
X142875009Y-78789091D02*
G01*
X142910429Y-78796136D01*
X142960476Y-78816867D01*
X143010524Y-78837597D01*
X143100602Y-78897785D01*
X143177215Y-78974398D01*
X143237403Y-79064476D01*
X143278864Y-79164572D01*
X143300000Y-79270828D01*
X143300000Y-79379172D01*
X143278864Y-79485428D01*
X143237403Y-79585524D01*
X143177215Y-79675602D01*
X143100602Y-79752215D01*
X143010524Y-79812403D01*
X142960476Y-79833133D01*
X142910429Y-79853864D01*
X142875009Y-79860909D01*
X142804172Y-79875000D01*
X142695828Y-79875000D01*
X142624991Y-79860909D01*
X142589571Y-79853864D01*
X142539524Y-79833133D01*
X142489476Y-79812403D01*
X142399398Y-79752215D01*
X142322785Y-79675602D01*
X142262597Y-79585524D01*
X142221136Y-79485428D01*
X142200000Y-79379172D01*
X142200000Y-79270828D01*
X142221136Y-79164572D01*
X142262597Y-79064476D01*
X142322785Y-78974398D01*
X142399398Y-78897785D01*
X142489476Y-78837597D01*
X142539524Y-78816867D01*
X142589571Y-78796136D01*
X142624991Y-78789091D01*
X142695828Y-78775000D01*
X142804172Y-78775000D01*
X142875009Y-78789091D01*
X142875009Y-78789091D01*
G37*
G36*
X142875009Y-70139091D02*
G01*
X142910429Y-70146136D01*
X142960476Y-70166867D01*
X143010524Y-70187597D01*
X143100602Y-70247785D01*
X143177215Y-70324398D01*
X143237403Y-70414476D01*
X143278864Y-70514572D01*
X143300000Y-70620828D01*
X143300000Y-70729172D01*
X143278864Y-70835428D01*
X143237403Y-70935524D01*
X143177215Y-71025602D01*
X143100602Y-71102215D01*
X143010524Y-71162403D01*
X142960476Y-71183133D01*
X142910429Y-71203864D01*
X142875009Y-71210909D01*
X142804172Y-71225000D01*
X142695828Y-71225000D01*
X142624991Y-71210909D01*
X142589571Y-71203864D01*
X142539524Y-71183134D01*
X142489476Y-71162403D01*
X142399398Y-71102215D01*
X142322785Y-71025602D01*
X142262597Y-70935524D01*
X142221136Y-70835428D01*
X142200000Y-70729172D01*
X142200000Y-70620828D01*
X142221136Y-70514572D01*
X142262597Y-70414476D01*
X142322785Y-70324398D01*
X142399398Y-70247785D01*
X142489476Y-70187597D01*
X142539524Y-70166867D01*
X142589571Y-70146136D01*
X142624991Y-70139091D01*
X142695828Y-70125000D01*
X142804172Y-70125000D01*
X142875009Y-70139091D01*
X142875009Y-70139091D01*
G37*
G36*
X101167290Y-60075619D02*
G01*
X101231689Y-60088429D01*
X101413678Y-60163811D01*
X101577463Y-60273249D01*
X101716751Y-60412537D01*
X101826189Y-60576322D01*
X101901571Y-60758311D01*
X101940000Y-60951509D01*
X101940000Y-61148491D01*
X101901571Y-61341689D01*
X101826189Y-61523678D01*
X101716751Y-61687463D01*
X101577463Y-61826751D01*
X101413678Y-61936189D01*
X101231689Y-62011571D01*
X101167290Y-62024381D01*
X101038493Y-62050000D01*
X100841507Y-62050000D01*
X100712710Y-62024381D01*
X100648311Y-62011571D01*
X100466322Y-61936189D01*
X100302537Y-61826751D01*
X100163249Y-61687463D01*
X100053811Y-61523678D01*
X99978429Y-61341689D01*
X99940000Y-61148491D01*
X99940000Y-60951509D01*
X99978429Y-60758311D01*
X100053811Y-60576322D01*
X100163249Y-60412537D01*
X100302537Y-60273249D01*
X100466322Y-60163811D01*
X100648311Y-60088429D01*
X100712710Y-60075619D01*
X100841507Y-60050000D01*
X101038493Y-60050000D01*
X101167290Y-60075619D01*
X101167290Y-60075619D01*
G37*
G36*
X103707290Y-60075619D02*
G01*
X103771689Y-60088429D01*
X103953678Y-60163811D01*
X104117463Y-60273249D01*
X104256751Y-60412537D01*
X104366189Y-60576322D01*
X104441571Y-60758311D01*
X104480000Y-60951509D01*
X104480000Y-61148491D01*
X104441571Y-61341689D01*
X104366189Y-61523678D01*
X104256751Y-61687463D01*
X104117463Y-61826751D01*
X103953678Y-61936189D01*
X103771689Y-62011571D01*
X103707290Y-62024381D01*
X103578493Y-62050000D01*
X103381507Y-62050000D01*
X103252710Y-62024381D01*
X103188311Y-62011571D01*
X103006322Y-61936189D01*
X102842537Y-61826751D01*
X102703249Y-61687463D01*
X102593811Y-61523678D01*
X102518429Y-61341689D01*
X102480000Y-61148491D01*
X102480000Y-60951509D01*
X102518429Y-60758311D01*
X102593811Y-60576322D01*
X102703249Y-60412537D01*
X102842537Y-60273249D01*
X103006322Y-60163811D01*
X103188311Y-60088429D01*
X103252710Y-60075619D01*
X103381507Y-60050000D01*
X103578493Y-60050000D01*
X103707290Y-60075619D01*
X103707290Y-60075619D01*
G37*
G36*
X108787290Y-60075619D02*
G01*
X108851689Y-60088429D01*
X109033678Y-60163811D01*
X109197463Y-60273249D01*
X109336751Y-60412537D01*
X109446189Y-60576322D01*
X109521571Y-60758311D01*
X109560000Y-60951509D01*
X109560000Y-61148491D01*
X109521571Y-61341689D01*
X109446189Y-61523678D01*
X109336751Y-61687463D01*
X109197463Y-61826751D01*
X109033678Y-61936189D01*
X108851689Y-62011571D01*
X108787290Y-62024381D01*
X108658493Y-62050000D01*
X108461507Y-62050000D01*
X108332710Y-62024381D01*
X108268311Y-62011571D01*
X108086322Y-61936189D01*
X107922537Y-61826751D01*
X107783249Y-61687463D01*
X107673811Y-61523678D01*
X107598429Y-61341689D01*
X107560000Y-61148491D01*
X107560000Y-60951509D01*
X107598429Y-60758311D01*
X107673811Y-60576322D01*
X107783249Y-60412537D01*
X107922537Y-60273249D01*
X108086322Y-60163811D01*
X108268311Y-60088429D01*
X108332710Y-60075619D01*
X108461507Y-60050000D01*
X108658493Y-60050000D01*
X108787290Y-60075619D01*
X108787290Y-60075619D01*
G37*
G36*
X106247290Y-60075619D02*
G01*
X106311689Y-60088429D01*
X106493678Y-60163811D01*
X106657463Y-60273249D01*
X106796751Y-60412537D01*
X106906189Y-60576322D01*
X106981571Y-60758311D01*
X107020000Y-60951509D01*
X107020000Y-61148491D01*
X106981571Y-61341689D01*
X106906189Y-61523678D01*
X106796751Y-61687463D01*
X106657463Y-61826751D01*
X106493678Y-61936189D01*
X106311689Y-62011571D01*
X106247290Y-62024381D01*
X106118493Y-62050000D01*
X105921507Y-62050000D01*
X105792710Y-62024381D01*
X105728311Y-62011571D01*
X105546322Y-61936189D01*
X105382537Y-61826751D01*
X105243249Y-61687463D01*
X105133811Y-61523678D01*
X105058429Y-61341689D01*
X105020000Y-61148491D01*
X105020000Y-60951509D01*
X105058429Y-60758311D01*
X105133811Y-60576322D01*
X105243249Y-60412537D01*
X105382537Y-60273249D01*
X105546322Y-60163811D01*
X105728311Y-60088429D01*
X105792710Y-60075619D01*
X105921507Y-60050000D01*
X106118493Y-60050000D01*
X106247290Y-60075619D01*
X106247290Y-60075619D01*
G37*
G36*
X118375000Y-60100000D02*
G01*
X117025000Y-60100000D01*
X117025000Y-58650000D01*
X118375000Y-58650000D01*
X118375000Y-60100000D01*
X118375000Y-60100000D01*
G37*
G36*
X116225000Y-60100000D02*
G01*
X114875000Y-60100000D01*
X114875000Y-58650000D01*
X116225000Y-58650000D01*
X116225000Y-60100000D01*
X116225000Y-60100000D01*
G37*
G36*
X116225000Y-58350000D02*
G01*
X114875000Y-58350000D01*
X114875000Y-56900000D01*
X116225000Y-56900000D01*
X116225000Y-58350000D01*
X116225000Y-58350000D01*
G37*
G36*
X118375000Y-58350000D02*
G01*
X117025000Y-58350000D01*
X117025000Y-56900000D01*
X118375000Y-56900000D01*
X118375000Y-58350000D01*
X118375000Y-58350000D01*
G37*
G36*
X144829196Y-51059958D02*
G01*
X145065781Y-51157955D01*
X145278702Y-51300224D01*
X145459776Y-51481298D01*
X145602045Y-51694219D01*
X145700042Y-51930804D01*
X145750000Y-52181961D01*
X145750000Y-52438039D01*
X145700042Y-52689196D01*
X145602045Y-52925781D01*
X145459776Y-53138702D01*
X145278702Y-53319776D01*
X145065781Y-53462045D01*
X144829196Y-53560042D01*
X144703617Y-53585021D01*
X144578040Y-53610000D01*
X144321960Y-53610000D01*
X144196383Y-53585021D01*
X144070804Y-53560042D01*
X143834219Y-53462045D01*
X143621298Y-53319776D01*
X143440224Y-53138702D01*
X143297955Y-52925781D01*
X143199958Y-52689196D01*
X143150000Y-52438039D01*
X143150000Y-52181961D01*
X143199958Y-51930804D01*
X143297955Y-51694219D01*
X143440224Y-51481298D01*
X143621298Y-51300224D01*
X143834219Y-51157955D01*
X144070804Y-51059958D01*
X144321960Y-51010000D01*
X144578040Y-51010000D01*
X144829196Y-51059958D01*
X144829196Y-51059958D01*
G37*
G36*
X116422290Y-44505619D02*
G01*
X116486689Y-44518429D01*
X116668678Y-44593811D01*
X116832463Y-44703249D01*
X116971751Y-44842537D01*
X117081189Y-45006322D01*
X117156571Y-45188311D01*
X117195000Y-45381509D01*
X117195000Y-45578491D01*
X117156571Y-45771689D01*
X117081189Y-45953678D01*
X116971751Y-46117463D01*
X116832463Y-46256751D01*
X116668678Y-46366189D01*
X116486689Y-46441571D01*
X116422290Y-46454381D01*
X116293493Y-46480000D01*
X116096507Y-46480000D01*
X115967710Y-46454381D01*
X115903311Y-46441571D01*
X115721322Y-46366189D01*
X115557537Y-46256751D01*
X115418249Y-46117463D01*
X115308811Y-45953678D01*
X115233429Y-45771689D01*
X115195000Y-45578491D01*
X115195000Y-45381509D01*
X115233429Y-45188311D01*
X115308811Y-45006322D01*
X115418249Y-44842537D01*
X115557537Y-44703249D01*
X115721322Y-44593811D01*
X115903311Y-44518429D01*
X115967710Y-44505619D01*
X116096507Y-44480000D01*
X116293493Y-44480000D01*
X116422290Y-44505619D01*
X116422290Y-44505619D01*
G37*
G36*
X101182290Y-44505619D02*
G01*
X101246689Y-44518429D01*
X101428678Y-44593811D01*
X101592463Y-44703249D01*
X101731751Y-44842537D01*
X101841189Y-45006322D01*
X101916571Y-45188311D01*
X101955000Y-45381509D01*
X101955000Y-45578491D01*
X101916571Y-45771689D01*
X101841189Y-45953678D01*
X101731751Y-46117463D01*
X101592463Y-46256751D01*
X101428678Y-46366189D01*
X101246689Y-46441571D01*
X101182290Y-46454381D01*
X101053493Y-46480000D01*
X100856507Y-46480000D01*
X100727710Y-46454381D01*
X100663311Y-46441571D01*
X100481322Y-46366189D01*
X100317537Y-46256751D01*
X100178249Y-46117463D01*
X100068811Y-45953678D01*
X99993429Y-45771689D01*
X99955000Y-45578491D01*
X99955000Y-45381509D01*
X99993429Y-45188311D01*
X100068811Y-45006322D01*
X100178249Y-44842537D01*
X100317537Y-44703249D01*
X100481322Y-44593811D01*
X100663311Y-44518429D01*
X100727710Y-44505619D01*
X100856507Y-44480000D01*
X101053493Y-44480000D01*
X101182290Y-44505619D01*
X101182290Y-44505619D01*
G37*
G36*
X126514205Y-41327893D02*
G01*
X126551909Y-41339330D01*
X126584544Y-41356774D01*
X126586652Y-41357901D01*
X126617106Y-41382894D01*
X126642099Y-41413348D01*
X126642100Y-41413350D01*
X126660670Y-41448091D01*
X126672107Y-41485795D01*
X126676573Y-41531140D01*
X126676573Y-42818860D01*
X126672107Y-42864205D01*
X126660670Y-42901909D01*
X126643226Y-42934544D01*
X126642099Y-42936652D01*
X126617106Y-42967106D01*
X126586652Y-42992099D01*
X126586650Y-42992100D01*
X126551909Y-43010670D01*
X126514205Y-43022107D01*
X126468860Y-43026573D01*
X125881140Y-43026573D01*
X125835795Y-43022107D01*
X125798091Y-43010670D01*
X125763350Y-42992100D01*
X125763348Y-42992099D01*
X125732894Y-42967106D01*
X125707901Y-42936652D01*
X125706774Y-42934544D01*
X125689330Y-42901909D01*
X125677893Y-42864205D01*
X125673427Y-42818860D01*
X125673427Y-42551572D01*
X125671025Y-42527186D01*
X125663912Y-42503737D01*
X125652361Y-42482126D01*
X125636816Y-42463184D01*
X125617874Y-42447639D01*
X125596263Y-42436088D01*
X125572814Y-42428975D01*
X125548428Y-42426573D01*
X125381140Y-42426573D01*
X125335791Y-42422107D01*
X125322945Y-42418210D01*
X125298912Y-42413430D01*
X125274408Y-42413430D01*
X125250374Y-42418211D01*
X125227736Y-42427589D01*
X125207362Y-42441203D01*
X125190035Y-42458530D01*
X125176422Y-42478905D01*
X125167045Y-42501544D01*
X125162265Y-42525577D01*
X125162265Y-42550081D01*
X125171177Y-42585659D01*
X125203864Y-42664571D01*
X125210162Y-42696235D01*
X125225000Y-42770828D01*
X125225000Y-42879172D01*
X125220477Y-42901909D01*
X125203864Y-42985429D01*
X125188672Y-43022106D01*
X125162403Y-43085524D01*
X125132314Y-43130556D01*
X125120763Y-43152167D01*
X125113650Y-43175616D01*
X125111248Y-43200002D01*
X125113650Y-43224388D01*
X125120763Y-43247837D01*
X125132315Y-43269447D01*
X125147860Y-43288389D01*
X125166802Y-43303934D01*
X125188413Y-43315485D01*
X125211862Y-43322598D01*
X125236247Y-43325000D01*
X126075000Y-43325000D01*
X126075000Y-44925000D01*
X124975000Y-44925000D01*
X124975000Y-43478413D01*
X124972598Y-43454027D01*
X124965485Y-43430578D01*
X124953934Y-43408967D01*
X124938389Y-43390025D01*
X124919447Y-43374480D01*
X124897836Y-43362929D01*
X124874387Y-43355816D01*
X124850001Y-43353414D01*
X124825616Y-43355816D01*
X124805506Y-43359816D01*
X124729172Y-43375000D01*
X124620828Y-43375000D01*
X124549991Y-43360909D01*
X124514571Y-43353864D01*
X124421917Y-43315485D01*
X124414476Y-43312403D01*
X124324398Y-43252215D01*
X124247785Y-43175602D01*
X124187597Y-43085524D01*
X124161328Y-43022106D01*
X124146136Y-42985429D01*
X124129523Y-42901909D01*
X124125000Y-42879172D01*
X124125000Y-42770828D01*
X124139838Y-42696235D01*
X124146136Y-42664571D01*
X124187597Y-42564477D01*
X124187597Y-42564476D01*
X124247785Y-42474398D01*
X124324398Y-42397785D01*
X124414476Y-42337597D01*
X124473395Y-42313192D01*
X124514571Y-42296136D01*
X124549991Y-42289091D01*
X124620828Y-42275000D01*
X124729172Y-42275000D01*
X124800009Y-42289091D01*
X124835429Y-42296136D01*
X124876605Y-42313192D01*
X124935524Y-42337597D01*
X124982958Y-42369291D01*
X125004569Y-42380842D01*
X125028018Y-42387955D01*
X125052404Y-42390357D01*
X125076790Y-42387955D01*
X125100239Y-42380842D01*
X125121849Y-42369290D01*
X125140791Y-42353745D01*
X125156336Y-42334803D01*
X125167887Y-42313192D01*
X125175000Y-42289743D01*
X125176800Y-42253106D01*
X125173427Y-42218860D01*
X125173427Y-41531140D01*
X125177893Y-41485795D01*
X125189330Y-41448091D01*
X125207900Y-41413350D01*
X125207901Y-41413348D01*
X125232894Y-41382894D01*
X125263348Y-41357901D01*
X125265456Y-41356774D01*
X125298091Y-41339330D01*
X125335795Y-41327893D01*
X125381140Y-41323427D01*
X126468860Y-41323427D01*
X126514205Y-41327893D01*
X126514205Y-41327893D01*
G37*
G36*
X122314205Y-41327893D02*
G01*
X122351909Y-41339330D01*
X122384544Y-41356774D01*
X122386652Y-41357901D01*
X122417106Y-41382894D01*
X122442099Y-41413348D01*
X122442100Y-41413350D01*
X122460670Y-41448091D01*
X122472107Y-41485795D01*
X122476573Y-41531140D01*
X122476573Y-42218860D01*
X122473200Y-42253106D01*
X122473200Y-42277610D01*
X122477980Y-42301643D01*
X122487358Y-42324282D01*
X122500971Y-42344656D01*
X122518298Y-42361983D01*
X122538673Y-42375597D01*
X122561311Y-42384975D01*
X122585345Y-42389755D01*
X122609849Y-42389755D01*
X122633882Y-42384975D01*
X122667042Y-42369291D01*
X122714476Y-42337597D01*
X122773395Y-42313192D01*
X122814571Y-42296136D01*
X122849991Y-42289091D01*
X122920828Y-42275000D01*
X123029172Y-42275000D01*
X123100009Y-42289091D01*
X123135429Y-42296136D01*
X123176605Y-42313192D01*
X123235524Y-42337597D01*
X123325602Y-42397785D01*
X123402215Y-42474398D01*
X123462403Y-42564476D01*
X123462403Y-42564477D01*
X123503864Y-42664571D01*
X123510162Y-42696235D01*
X123525000Y-42770828D01*
X123525000Y-42879172D01*
X123520477Y-42901909D01*
X123503864Y-42985429D01*
X123488672Y-43022106D01*
X123462403Y-43085524D01*
X123402215Y-43175602D01*
X123325602Y-43252215D01*
X123235524Y-43312403D01*
X123228083Y-43315485D01*
X123135429Y-43353864D01*
X123100009Y-43360909D01*
X123029172Y-43375000D01*
X122920828Y-43375000D01*
X122844494Y-43359816D01*
X122824384Y-43355816D01*
X122799999Y-43353414D01*
X122775613Y-43355816D01*
X122752164Y-43362929D01*
X122730553Y-43374480D01*
X122711612Y-43390025D01*
X122696066Y-43408967D01*
X122684515Y-43430578D01*
X122677402Y-43454027D01*
X122675000Y-43478413D01*
X122675000Y-44925000D01*
X121575000Y-44925000D01*
X121575000Y-43325000D01*
X122413753Y-43325000D01*
X122438139Y-43322598D01*
X122461588Y-43315485D01*
X122483199Y-43303934D01*
X122502141Y-43288389D01*
X122517686Y-43269447D01*
X122529237Y-43247836D01*
X122536350Y-43224387D01*
X122538752Y-43200001D01*
X122536350Y-43175615D01*
X122529237Y-43152166D01*
X122517686Y-43130556D01*
X122487597Y-43085524D01*
X122461328Y-43022106D01*
X122446136Y-42985429D01*
X122429523Y-42901909D01*
X122425000Y-42879172D01*
X122425000Y-42770828D01*
X122439838Y-42696235D01*
X122446136Y-42664571D01*
X122478824Y-42585657D01*
X122485935Y-42562214D01*
X122488337Y-42537828D01*
X122485935Y-42513442D01*
X122478822Y-42489993D01*
X122467271Y-42468382D01*
X122451726Y-42449440D01*
X122432784Y-42433894D01*
X122411174Y-42422343D01*
X122387725Y-42415230D01*
X122363339Y-42412828D01*
X122327055Y-42418210D01*
X122314209Y-42422107D01*
X122268860Y-42426573D01*
X122101572Y-42426573D01*
X122077186Y-42428975D01*
X122053737Y-42436088D01*
X122032126Y-42447639D01*
X122013184Y-42463184D01*
X121997639Y-42482126D01*
X121986088Y-42503737D01*
X121978975Y-42527186D01*
X121976573Y-42551572D01*
X121976573Y-42818860D01*
X121972107Y-42864205D01*
X121960670Y-42901909D01*
X121943226Y-42934544D01*
X121942099Y-42936652D01*
X121917106Y-42967106D01*
X121886652Y-42992099D01*
X121886650Y-42992100D01*
X121851909Y-43010670D01*
X121814205Y-43022107D01*
X121768860Y-43026573D01*
X121181140Y-43026573D01*
X121135795Y-43022107D01*
X121098091Y-43010670D01*
X121063350Y-42992100D01*
X121063348Y-42992099D01*
X121032894Y-42967106D01*
X121007901Y-42936652D01*
X121006774Y-42934544D01*
X120989330Y-42901909D01*
X120977893Y-42864205D01*
X120973427Y-42818860D01*
X120973427Y-41531140D01*
X120977893Y-41485795D01*
X120989330Y-41448091D01*
X121007900Y-41413350D01*
X121007901Y-41413348D01*
X121032894Y-41382894D01*
X121063348Y-41357901D01*
X121065456Y-41356774D01*
X121098091Y-41339330D01*
X121135795Y-41327893D01*
X121181140Y-41323427D01*
X122268860Y-41323427D01*
X122314205Y-41327893D01*
X122314205Y-41327893D01*
G37*
G36*
X153700000Y-44150000D02*
G01*
X151600000Y-44150000D01*
X151600000Y-42050000D01*
X153700000Y-42050000D01*
X153700000Y-44150000D01*
X153700000Y-44150000D01*
G37*
G36*
X145158707Y-42057596D02*
G01*
X145235836Y-42065193D01*
X145433762Y-42125233D01*
X145433765Y-42125234D01*
X145616170Y-42222732D01*
X145776055Y-42353945D01*
X145907268Y-42513830D01*
X146004766Y-42696235D01*
X146004767Y-42696238D01*
X146064807Y-42894164D01*
X146085080Y-43100000D01*
X146064807Y-43305836D01*
X146004767Y-43503762D01*
X146004766Y-43503765D01*
X145907268Y-43686170D01*
X145776055Y-43846055D01*
X145616170Y-43977268D01*
X145433765Y-44074766D01*
X145433762Y-44074767D01*
X145235836Y-44134807D01*
X145158707Y-44142403D01*
X145081580Y-44150000D01*
X144978420Y-44150000D01*
X144901293Y-44142404D01*
X144824164Y-44134807D01*
X144626238Y-44074767D01*
X144626235Y-44074766D01*
X144443830Y-43977268D01*
X144283945Y-43846055D01*
X144152732Y-43686170D01*
X144055234Y-43503765D01*
X144055233Y-43503762D01*
X143995193Y-43305836D01*
X143974920Y-43100000D01*
X143995193Y-42894164D01*
X144055233Y-42696238D01*
X144055234Y-42696235D01*
X144152732Y-42513830D01*
X144283945Y-42353945D01*
X144443830Y-42222732D01*
X144626235Y-42125234D01*
X144626238Y-42125233D01*
X144824164Y-42065193D01*
X144901293Y-42057596D01*
X144978420Y-42050000D01*
X145081580Y-42050000D01*
X145158707Y-42057596D01*
X145158707Y-42057596D01*
G37*
G36*
X147698707Y-42057596D02*
G01*
X147775836Y-42065193D01*
X147973762Y-42125233D01*
X147973765Y-42125234D01*
X148156170Y-42222732D01*
X148316055Y-42353945D01*
X148447268Y-42513830D01*
X148544766Y-42696235D01*
X148544767Y-42696238D01*
X148604807Y-42894164D01*
X148625080Y-43100000D01*
X148604807Y-43305836D01*
X148544767Y-43503762D01*
X148544766Y-43503765D01*
X148447268Y-43686170D01*
X148316055Y-43846055D01*
X148156170Y-43977268D01*
X147973765Y-44074766D01*
X147973762Y-44074767D01*
X147775836Y-44134807D01*
X147698707Y-44142403D01*
X147621580Y-44150000D01*
X147518420Y-44150000D01*
X147441293Y-44142404D01*
X147364164Y-44134807D01*
X147166238Y-44074767D01*
X147166235Y-44074766D01*
X146983830Y-43977268D01*
X146823945Y-43846055D01*
X146692732Y-43686170D01*
X146595234Y-43503765D01*
X146595233Y-43503762D01*
X146535193Y-43305836D01*
X146514920Y-43100000D01*
X146535193Y-42894164D01*
X146595233Y-42696238D01*
X146595234Y-42696235D01*
X146692732Y-42513830D01*
X146823945Y-42353945D01*
X146983830Y-42222732D01*
X147166235Y-42125234D01*
X147166238Y-42125233D01*
X147364164Y-42065193D01*
X147441293Y-42057596D01*
X147518420Y-42050000D01*
X147621580Y-42050000D01*
X147698707Y-42057596D01*
X147698707Y-42057596D01*
G37*
G36*
X150238707Y-42057596D02*
G01*
X150315836Y-42065193D01*
X150513762Y-42125233D01*
X150513765Y-42125234D01*
X150696170Y-42222732D01*
X150856055Y-42353945D01*
X150987268Y-42513830D01*
X151084766Y-42696235D01*
X151084767Y-42696238D01*
X151144807Y-42894164D01*
X151165080Y-43100000D01*
X151144807Y-43305836D01*
X151084767Y-43503762D01*
X151084766Y-43503765D01*
X150987268Y-43686170D01*
X150856055Y-43846055D01*
X150696170Y-43977268D01*
X150513765Y-44074766D01*
X150513762Y-44074767D01*
X150315836Y-44134807D01*
X150238707Y-44142403D01*
X150161580Y-44150000D01*
X150058420Y-44150000D01*
X149981293Y-44142404D01*
X149904164Y-44134807D01*
X149706238Y-44074767D01*
X149706235Y-44074766D01*
X149523830Y-43977268D01*
X149363945Y-43846055D01*
X149232732Y-43686170D01*
X149135234Y-43503765D01*
X149135233Y-43503762D01*
X149075193Y-43305836D01*
X149054920Y-43100000D01*
X149075193Y-42894164D01*
X149135233Y-42696238D01*
X149135234Y-42696235D01*
X149232732Y-42513830D01*
X149363945Y-42353945D01*
X149523830Y-42222732D01*
X149706235Y-42125234D01*
X149706238Y-42125233D01*
X149904164Y-42065193D01*
X149981293Y-42057596D01*
X150058420Y-42050000D01*
X150161580Y-42050000D01*
X150238707Y-42057596D01*
X150238707Y-42057596D01*
G37*
G36*
X142618707Y-42057596D02*
G01*
X142695836Y-42065193D01*
X142893762Y-42125233D01*
X142893765Y-42125234D01*
X143076170Y-42222732D01*
X143236055Y-42353945D01*
X143367268Y-42513830D01*
X143464766Y-42696235D01*
X143464767Y-42696238D01*
X143524807Y-42894164D01*
X143545080Y-43100000D01*
X143524807Y-43305836D01*
X143464767Y-43503762D01*
X143464766Y-43503765D01*
X143367268Y-43686170D01*
X143236055Y-43846055D01*
X143076170Y-43977268D01*
X142893765Y-44074766D01*
X142893762Y-44074767D01*
X142695836Y-44134807D01*
X142618707Y-44142403D01*
X142541580Y-44150000D01*
X142438420Y-44150000D01*
X142361293Y-44142404D01*
X142284164Y-44134807D01*
X142086238Y-44074767D01*
X142086235Y-44074766D01*
X141903830Y-43977268D01*
X141743945Y-43846055D01*
X141612732Y-43686170D01*
X141515234Y-43503765D01*
X141515233Y-43503762D01*
X141455193Y-43305836D01*
X141434920Y-43100000D01*
X141455193Y-42894164D01*
X141515233Y-42696238D01*
X141515234Y-42696235D01*
X141612732Y-42513830D01*
X141743945Y-42353945D01*
X141903830Y-42222732D01*
X142086235Y-42125234D01*
X142086238Y-42125233D01*
X142284164Y-42065193D01*
X142361293Y-42057596D01*
X142438420Y-42050000D01*
X142541580Y-42050000D01*
X142618707Y-42057596D01*
X142618707Y-42057596D01*
G37*
G36*
X140078707Y-42057596D02*
G01*
X140155836Y-42065193D01*
X140353762Y-42125233D01*
X140353765Y-42125234D01*
X140536170Y-42222732D01*
X140696055Y-42353945D01*
X140827268Y-42513830D01*
X140924766Y-42696235D01*
X140924767Y-42696238D01*
X140984807Y-42894164D01*
X141005080Y-43100000D01*
X140984807Y-43305836D01*
X140924767Y-43503762D01*
X140924766Y-43503765D01*
X140827268Y-43686170D01*
X140696055Y-43846055D01*
X140536170Y-43977268D01*
X140353765Y-44074766D01*
X140353762Y-44074767D01*
X140155836Y-44134807D01*
X140078707Y-44142403D01*
X140001580Y-44150000D01*
X139898420Y-44150000D01*
X139821293Y-44142404D01*
X139744164Y-44134807D01*
X139546238Y-44074767D01*
X139546235Y-44074766D01*
X139363830Y-43977268D01*
X139203945Y-43846055D01*
X139072732Y-43686170D01*
X138975234Y-43503765D01*
X138975233Y-43503762D01*
X138915193Y-43305836D01*
X138894920Y-43100000D01*
X138915193Y-42894164D01*
X138975233Y-42696238D01*
X138975234Y-42696235D01*
X139072732Y-42513830D01*
X139203945Y-42353945D01*
X139363830Y-42222732D01*
X139546235Y-42125234D01*
X139546238Y-42125233D01*
X139744164Y-42065193D01*
X139821293Y-42057596D01*
X139898420Y-42050000D01*
X140001580Y-42050000D01*
X140078707Y-42057596D01*
X140078707Y-42057596D01*
G37*
G36*
X101182290Y-41965619D02*
G01*
X101246689Y-41978429D01*
X101428678Y-42053811D01*
X101592463Y-42163249D01*
X101731751Y-42302537D01*
X101841189Y-42466322D01*
X101890621Y-42585663D01*
X101916571Y-42648312D01*
X101951717Y-42825000D01*
X101955000Y-42841509D01*
X101955000Y-43038491D01*
X101916571Y-43231689D01*
X101841189Y-43413678D01*
X101731751Y-43577463D01*
X101592463Y-43716751D01*
X101428678Y-43826189D01*
X101246689Y-43901571D01*
X101182290Y-43914381D01*
X101053493Y-43940000D01*
X100856507Y-43940000D01*
X100727710Y-43914381D01*
X100663311Y-43901571D01*
X100481322Y-43826189D01*
X100317537Y-43716751D01*
X100178249Y-43577463D01*
X100068811Y-43413678D01*
X99993429Y-43231689D01*
X99955000Y-43038491D01*
X99955000Y-42841509D01*
X99958284Y-42825000D01*
X99993429Y-42648312D01*
X100019379Y-42585663D01*
X100068811Y-42466322D01*
X100178249Y-42302537D01*
X100317537Y-42163249D01*
X100481322Y-42053811D01*
X100663311Y-41978429D01*
X100727710Y-41965619D01*
X100856507Y-41940000D01*
X101053493Y-41940000D01*
X101182290Y-41965619D01*
X101182290Y-41965619D01*
G37*
G36*
X116422290Y-41965619D02*
G01*
X116486689Y-41978429D01*
X116668678Y-42053811D01*
X116832463Y-42163249D01*
X116971751Y-42302537D01*
X117081189Y-42466322D01*
X117130621Y-42585663D01*
X117156571Y-42648312D01*
X117191717Y-42825000D01*
X117195000Y-42841509D01*
X117195000Y-43038491D01*
X117156571Y-43231689D01*
X117081189Y-43413678D01*
X116971751Y-43577463D01*
X116832463Y-43716751D01*
X116668678Y-43826189D01*
X116486689Y-43901571D01*
X116422290Y-43914381D01*
X116293493Y-43940000D01*
X116096507Y-43940000D01*
X115967710Y-43914381D01*
X115903311Y-43901571D01*
X115721322Y-43826189D01*
X115557537Y-43716751D01*
X115418249Y-43577463D01*
X115308811Y-43413678D01*
X115233429Y-43231689D01*
X115195000Y-43038491D01*
X115195000Y-42841509D01*
X115198284Y-42825000D01*
X115233429Y-42648312D01*
X115259379Y-42585663D01*
X115308811Y-42466322D01*
X115418249Y-42302537D01*
X115557537Y-42163249D01*
X115721322Y-42053811D01*
X115903311Y-41978429D01*
X115967710Y-41965619D01*
X116096507Y-41940000D01*
X116293493Y-41940000D01*
X116422290Y-41965619D01*
X116422290Y-41965619D01*
G37*
M02*
