M48
; DRILL file {KiCad (5.1.0-0)} date 2019年05月11日 土曜日 23:58:25
; FORMAT={-:-/ absolute / inch / decimal}
; #@! TF.CreationDate,2019-05-11T23:58:25+09:00
; #@! TF.GenerationSoftware,Kicad,Pcbnew,(5.1.0-0)
; #@! TF.FileFunction,Plated,1,2,PTH
FMAT,2
INCH
T1C0.0157
T2C0.0197
T3C0.0315
T4C0.0394
%
G90
G05
T1
X2.8612Y-1.6319
X2.8612Y-1.8352
X2.8612Y-2.0385
X2.8612Y-2.2417
X2.8612Y-2.445
X2.8612Y-2.6483
X2.8612Y-2.8516
X2.8612Y-3.0549
X2.8612Y-3.2582
X2.8612Y-3.4615
X2.8612Y-3.6647
X2.8612Y-3.868
X2.8612Y-4.0713
X2.8612Y-4.2746
X2.9075Y-2.9124
X2.9567Y-2.8661
X2.999Y-2.9134
X3.0138Y-3.1624
X3.0138Y-3.3307
X3.0138Y-3.503
X3.0581Y-2.4803
X3.0624Y-1.6319
X3.0624Y-2.0385
X3.0624Y-2.2417
X3.0624Y-2.6483
X3.0624Y-4.0713
X3.0624Y-4.2746
X3.064Y-3.8681
X3.0744Y-3.501
X3.0896Y-3.6644
X3.1004Y-1.8504
X3.1407Y-2.3209
X3.1467Y-3.689
X3.1732Y-2.7894
X3.1841Y-1.6319
X3.1969Y-3.6604
X3.2047Y-1.9478
X3.2195Y-3.2293
X3.2461Y-3.6319
X3.2636Y-4.0713
X3.2636Y-4.2746
X3.3159Y-1.6319
X3.3327Y-3.2402
X3.3701Y-2.3051
X3.373Y-2.6644
X3.3917Y-2.7874
X3.3967Y-3.4528
X3.4409Y-3.2402
X3.4596Y-3.7421
X3.4648Y-1.6319
X3.4648Y-4.0713
X3.4648Y-4.2746
X3.4774Y-2.7884
X3.4803Y-2.1614
X3.4843Y-1.9557
X3.4941Y-2.998
X3.5108Y-3.1358
X3.5482Y-2.8346
X3.5482Y-3.1811
X3.564Y-3.5896
X3.5778Y-1.7638
X3.5817Y-1.9035
X3.5827Y-2.9134
X3.5827Y-3.2106
X3.5915Y-3.7372
X3.6171Y-2.3268
X3.6191Y-3.9065
X3.6329Y-2.9469
X3.6659Y-1.6319
X3.6659Y-4.0713
X3.6659Y-4.2746
X3.689Y-2.1594
X3.7077Y-3.5827
X3.7136Y-3.4331
X3.7175Y-3.2205
X3.7234Y-3.7333
X3.7352Y-2.061
X3.7362Y-2.3907
X3.7431Y-1.9075
X3.7638Y-1.7628
X3.7707Y-2.561
X3.8376Y-3.1594
X3.8406Y-3.4508
X3.8415Y-2.3228
X3.8425Y-3.6732
X3.8484Y-1.8071
X3.8671Y-1.6319
X3.8671Y-4.0713
X3.8671Y-4.2746
X3.872Y-2.0354
X3.8888Y-3.9075
X3.8986Y-2.4242
X3.9006Y-2.8376
X3.9016Y-3.065
X3.9094Y-3.3848
X3.9281Y-2.2539
X3.9744Y-3.7992
X4.0Y-2.7972
X4.002Y-3.2923
X4.0069Y-2.1762
X4.0492Y-2.9587
X4.0502Y-2.2736
X4.0502Y-2.4409
X4.0502Y-2.6033
X4.0512Y-3.2411
X4.0512Y-3.8809
X4.0512Y-3.9311
X4.0683Y-4.0713
X4.0683Y-4.2746
X4.0827Y-1.8091
X4.0955Y-3.0561
X4.1102Y-2.0719
X4.124Y-3.1565
X4.1289Y-3.6043
X4.1526Y-3.2548
X4.1614Y-3.8071
X4.1713Y-3.5049
X4.1811Y-3.3563
X4.2175Y-2.1811
X4.2224Y-3.4055
X4.2254Y-2.3297
X4.2264Y-2.4833
X4.2264Y-2.6358
X4.2264Y-2.7835
X4.2264Y-2.9961
X4.2695Y-1.6319
X4.2695Y-4.0713
X4.2695Y-4.2746
X4.2953Y-1.8957
X4.2982Y-3.7372
X4.2992Y-3.6161
X4.3051Y-3.8671
X4.3071Y-2.0207
X4.4281Y-2.1594
X4.4626Y-1.6329
X4.4646Y-1.8888
X4.4707Y-4.0713
X4.4707Y-4.2746
X4.4843Y-3.8819
X4.5354Y-2.4843
X4.5354Y-2.6368
X4.5354Y-2.7835
X4.5364Y-2.9331
X4.5787Y-2.2657
X4.6368Y-2.1181
X4.6719Y-4.0713
X4.6719Y-4.2746
X4.7756Y-2.1191
X4.7756Y-2.3012
X4.8317Y-3.9843
X4.873Y-4.0713
X4.873Y-4.2746
X4.8907Y-2.1181
X4.8907Y-2.2992
X4.8996Y-1.8898
X4.9026Y-1.6319
X4.9596Y-4.0236
X4.9724Y-2.1181
X5.0089Y-2.2992
X5.062Y-1.8898
X5.0742Y-1.6319
X5.0742Y-4.0713
X5.0742Y-4.2746
X5.1004Y-2.3976
X5.1083Y-2.2264
X5.1152Y-2.003
X5.1329Y-2.9311
X5.1339Y-2.7815
X5.1368Y-2.6033
X5.1437Y-3.8839
X5.2382Y-1.8848
X5.2754Y-4.0713
X5.2754Y-4.2746
X5.2972Y-1.6348
X5.344Y-2.4198
X5.3533Y-3.875
X5.3622Y-1.6831
X5.3652Y-2.6053
X5.3652Y-2.7815
X5.3661Y-3.6171
X5.3711Y-2.9833
X5.4163Y-2.2283
X5.4213Y-1.7992
X5.4766Y-3.665
X5.4766Y-3.8682
X5.4766Y-4.0713
X5.4766Y-4.2746
X5.4862Y-3.4193
X5.5148Y-3.2116
X5.6437Y-3.2628
X5.6732Y-2.56
X5.6732Y-2.7854
X5.6742Y-3.0492
X5.6778Y-3.4619
X5.6778Y-3.665
X5.6778Y-3.8682
X5.6778Y-4.0713
X5.6778Y-4.2746
X5.6939Y-2.3366
X5.8012Y-2.3386
X5.8022Y-3.1014
X5.8041Y-2.5591
X5.8051Y-2.8474
X5.815Y-2.0896
X5.875Y-1.6329
X5.878Y-1.8061
X5.8789Y-3.2587
X5.8789Y-3.4619
X5.8789Y-3.665
X5.8789Y-3.8682
X5.8789Y-4.0713
X5.8789Y-4.2746
X5.9272Y-2.1161
X6.0915Y-1.8356
X6.0915Y-2.0384
X6.0915Y-2.2411
X6.0915Y-2.4439
X6.0915Y-2.6467
X6.0915Y-2.8494
X6.0915Y-3.0522
X6.0915Y-3.2549
X6.0915Y-3.4577
X6.0915Y-3.6604
X6.0915Y-3.8632
X6.0915Y-4.0659
X6.0931Y-1.6319
X6.0935Y-4.2717
T2
X5.4154Y-2.3297
T3
X4.3821Y-1.6906
X4.3821Y-1.6906
X4.3821Y-1.7906
X4.3821Y-1.7906
X4.9821Y-1.6906
X4.9821Y-1.6906
X4.9821Y-1.7906
X4.9821Y-1.7906
X4.6827Y-2.4035
X4.7827Y-2.4035
X4.8827Y-2.4035
X4.9827Y-2.4035
T4
X2.9567Y-1.7313
X3.0567Y-1.7313
X3.1567Y-1.7313
X3.2567Y-1.7313
X3.3567Y-1.7313
X3.4567Y-1.7313
T0
M30
