G04 #@! TF.GenerationSoftware,KiCad,Pcbnew,(5.1.0-0)*
G04 #@! TF.CreationDate,2019-05-12T16:12:14+09:00*
G04 #@! TF.ProjectId,split_EC_left,73706c69-745f-4454-935f-6c6566742e6b,rev?*
G04 #@! TF.SameCoordinates,Original*
G04 #@! TF.FileFunction,Legend,Bot*
G04 #@! TF.FilePolarity,Positive*
%FSLAX46Y46*%
G04 Gerber Fmt 4.6, Leading zero omitted, Abs format (unit mm)*
G04 Created by KiCad (PCBNEW (5.1.0-0)) date 2019-05-12 16:12:14*
%MOMM*%
%LPD*%
G04 APERTURE LIST*
%ADD10C,0.200000*%
%ADD11C,0.120000*%
%ADD12C,0.150000*%
G04 APERTURE END LIST*
D10*
X153047619Y-105379761D02*
X152952380Y-105427380D01*
X152761904Y-105427380D01*
X152666666Y-105379761D01*
X152619047Y-105284523D01*
X152619047Y-105236904D01*
X152666666Y-105141666D01*
X152761904Y-105094047D01*
X152904761Y-105094047D01*
X153000000Y-105046428D01*
X153047619Y-104951190D01*
X153047619Y-104903571D01*
X153000000Y-104808333D01*
X152904761Y-104760714D01*
X152761904Y-104760714D01*
X152666666Y-104808333D01*
X152190476Y-104760714D02*
X152190476Y-105760714D01*
X152190476Y-104808333D02*
X152095238Y-104760714D01*
X151904761Y-104760714D01*
X151809523Y-104808333D01*
X151761904Y-104855952D01*
X151714285Y-104951190D01*
X151714285Y-105236904D01*
X151761904Y-105332142D01*
X151809523Y-105379761D01*
X151904761Y-105427380D01*
X152095238Y-105427380D01*
X152190476Y-105379761D01*
X151142857Y-105427380D02*
X151238095Y-105379761D01*
X151285714Y-105284523D01*
X151285714Y-104427380D01*
X150761904Y-105427380D02*
X150761904Y-104760714D01*
X150761904Y-104427380D02*
X150809523Y-104475000D01*
X150761904Y-104522619D01*
X150714285Y-104475000D01*
X150761904Y-104427380D01*
X150761904Y-104522619D01*
X150428571Y-104760714D02*
X150047619Y-104760714D01*
X150285714Y-104427380D02*
X150285714Y-105284523D01*
X150238095Y-105379761D01*
X150142857Y-105427380D01*
X150047619Y-105427380D01*
X148952380Y-104903571D02*
X148619047Y-104903571D01*
X148476190Y-105427380D02*
X148952380Y-105427380D01*
X148952380Y-104427380D01*
X148476190Y-104427380D01*
X147476190Y-105332142D02*
X147523809Y-105379761D01*
X147666666Y-105427380D01*
X147761904Y-105427380D01*
X147904761Y-105379761D01*
X148000000Y-105284523D01*
X148047619Y-105189285D01*
X148095238Y-104998809D01*
X148095238Y-104855952D01*
X148047619Y-104665476D01*
X148000000Y-104570238D01*
X147904761Y-104475000D01*
X147761904Y-104427380D01*
X147666666Y-104427380D01*
X147523809Y-104475000D01*
X147476190Y-104522619D01*
X146142857Y-105427380D02*
X146238095Y-105379761D01*
X146285714Y-105284523D01*
X146285714Y-104427380D01*
X145380952Y-105379761D02*
X145476190Y-105427380D01*
X145666666Y-105427380D01*
X145761904Y-105379761D01*
X145809523Y-105284523D01*
X145809523Y-104903571D01*
X145761904Y-104808333D01*
X145666666Y-104760714D01*
X145476190Y-104760714D01*
X145380952Y-104808333D01*
X145333333Y-104903571D01*
X145333333Y-104998809D01*
X145809523Y-105094047D01*
X145047619Y-104760714D02*
X144666666Y-104760714D01*
X144904761Y-105427380D02*
X144904761Y-104570238D01*
X144857142Y-104475000D01*
X144761904Y-104427380D01*
X144666666Y-104427380D01*
X144476190Y-104760714D02*
X144095238Y-104760714D01*
X144333333Y-104427380D02*
X144333333Y-105284523D01*
X144285714Y-105379761D01*
X144190476Y-105427380D01*
X144095238Y-105427380D01*
X143047619Y-105379761D02*
X142952380Y-105427380D01*
X142761904Y-105427380D01*
X142666666Y-105379761D01*
X142619047Y-105284523D01*
X142619047Y-105236904D01*
X142666666Y-105141666D01*
X142761904Y-105094047D01*
X142904761Y-105094047D01*
X143000000Y-105046428D01*
X143047619Y-104951190D01*
X143047619Y-104903571D01*
X143000000Y-104808333D01*
X142904761Y-104760714D01*
X142761904Y-104760714D01*
X142666666Y-104808333D01*
X142190476Y-105427380D02*
X142190476Y-104760714D01*
X142190476Y-104427380D02*
X142238095Y-104475000D01*
X142190476Y-104522619D01*
X142142857Y-104475000D01*
X142190476Y-104427380D01*
X142190476Y-104522619D01*
X141285714Y-105427380D02*
X141285714Y-104427380D01*
X141285714Y-105379761D02*
X141380952Y-105427380D01*
X141571428Y-105427380D01*
X141666666Y-105379761D01*
X141714285Y-105332142D01*
X141761904Y-105236904D01*
X141761904Y-104951190D01*
X141714285Y-104855952D01*
X141666666Y-104808333D01*
X141571428Y-104760714D01*
X141380952Y-104760714D01*
X141285714Y-104808333D01*
X140428571Y-105379761D02*
X140523809Y-105427380D01*
X140714285Y-105427380D01*
X140809523Y-105379761D01*
X140857142Y-105284523D01*
X140857142Y-104903571D01*
X140809523Y-104808333D01*
X140714285Y-104760714D01*
X140523809Y-104760714D01*
X140428571Y-104808333D01*
X140380952Y-104903571D01*
X140380952Y-104998809D01*
X140857142Y-105094047D01*
X139190476Y-105427380D02*
X139190476Y-104760714D01*
X139190476Y-104951190D02*
X139142857Y-104855952D01*
X139095238Y-104808333D01*
X139000000Y-104760714D01*
X138904761Y-104760714D01*
X138190476Y-105379761D02*
X138285714Y-105427380D01*
X138476190Y-105427380D01*
X138571428Y-105379761D01*
X138619047Y-105284523D01*
X138619047Y-104903571D01*
X138571428Y-104808333D01*
X138476190Y-104760714D01*
X138285714Y-104760714D01*
X138190476Y-104808333D01*
X138142857Y-104903571D01*
X138142857Y-104998809D01*
X138619047Y-105094047D01*
X137809523Y-104760714D02*
X137571428Y-105427380D01*
X137333333Y-104760714D01*
X136952380Y-105332142D02*
X136904761Y-105379761D01*
X136952380Y-105427380D01*
X137000000Y-105379761D01*
X136952380Y-105332142D01*
X136952380Y-105427380D01*
X135952380Y-105427380D02*
X136523809Y-105427380D01*
X136238095Y-105427380D02*
X136238095Y-104427380D01*
X136333333Y-104570238D01*
X136428571Y-104665476D01*
X136523809Y-104713095D01*
X150833333Y-106365476D02*
X150928571Y-106317857D01*
X151119047Y-106317857D01*
X151214285Y-106365476D01*
X151309523Y-106460714D01*
X151357142Y-106555952D01*
X151357142Y-106746428D01*
X151309523Y-106841666D01*
X151214285Y-106936904D01*
X151119047Y-106984523D01*
X150928571Y-106984523D01*
X150833333Y-106936904D01*
X151023809Y-105984523D02*
X151261904Y-106032142D01*
X151500000Y-106175000D01*
X151642857Y-106413095D01*
X151690476Y-106651190D01*
X151642857Y-106889285D01*
X151500000Y-107127380D01*
X151261904Y-107270238D01*
X151023809Y-107317857D01*
X150785714Y-107270238D01*
X150547619Y-107127380D01*
X150404761Y-106889285D01*
X150357142Y-106651190D01*
X150404761Y-106413095D01*
X150547619Y-106175000D01*
X150785714Y-106032142D01*
X151023809Y-105984523D01*
X148833333Y-106603571D02*
X148690476Y-106651190D01*
X148642857Y-106698809D01*
X148595238Y-106794047D01*
X148595238Y-106936904D01*
X148642857Y-107032142D01*
X148690476Y-107079761D01*
X148785714Y-107127380D01*
X149166666Y-107127380D01*
X149166666Y-106127380D01*
X148833333Y-106127380D01*
X148738095Y-106175000D01*
X148690476Y-106222619D01*
X148642857Y-106317857D01*
X148642857Y-106413095D01*
X148690476Y-106508333D01*
X148738095Y-106555952D01*
X148833333Y-106603571D01*
X149166666Y-106603571D01*
X148166666Y-106746428D02*
X147404761Y-106746428D01*
X146976190Y-107079761D02*
X146833333Y-107127380D01*
X146595238Y-107127380D01*
X146500000Y-107079761D01*
X146452380Y-107032142D01*
X146404761Y-106936904D01*
X146404761Y-106841666D01*
X146452380Y-106746428D01*
X146500000Y-106698809D01*
X146595238Y-106651190D01*
X146785714Y-106603571D01*
X146880952Y-106555952D01*
X146928571Y-106508333D01*
X146976190Y-106413095D01*
X146976190Y-106317857D01*
X146928571Y-106222619D01*
X146880952Y-106175000D01*
X146785714Y-106127380D01*
X146547619Y-106127380D01*
X146404761Y-106175000D01*
X146023809Y-106841666D02*
X145547619Y-106841666D01*
X146119047Y-107127380D02*
X145785714Y-106127380D01*
X145452380Y-107127380D01*
X145119047Y-107127380D02*
X145119047Y-106127380D01*
X144547619Y-107127380D02*
X144976190Y-106555952D01*
X144547619Y-106127380D02*
X145119047Y-106698809D01*
X144166666Y-106841666D02*
X143690476Y-106841666D01*
X144261904Y-107127380D02*
X143928571Y-106127380D01*
X143595238Y-107127380D01*
X143404761Y-106127380D02*
X142833333Y-106127380D01*
X143119047Y-107127380D02*
X143119047Y-106127380D01*
X142500000Y-106127380D02*
X142500000Y-106936904D01*
X142452380Y-107032142D01*
X142404761Y-107079761D01*
X142309523Y-107127380D01*
X142119047Y-107127380D01*
X142023809Y-107079761D01*
X141976190Y-107032142D01*
X141928571Y-106936904D01*
X141928571Y-106127380D01*
X140738095Y-106222619D02*
X140690476Y-106175000D01*
X140595238Y-106127380D01*
X140357142Y-106127380D01*
X140261904Y-106175000D01*
X140214285Y-106222619D01*
X140166666Y-106317857D01*
X140166666Y-106413095D01*
X140214285Y-106555952D01*
X140785714Y-107127380D01*
X140166666Y-107127380D01*
X139547619Y-106127380D02*
X139452380Y-106127380D01*
X139357142Y-106175000D01*
X139309523Y-106222619D01*
X139261904Y-106317857D01*
X139214285Y-106508333D01*
X139214285Y-106746428D01*
X139261904Y-106936904D01*
X139309523Y-107032142D01*
X139357142Y-107079761D01*
X139452380Y-107127380D01*
X139547619Y-107127380D01*
X139642857Y-107079761D01*
X139690476Y-107032142D01*
X139738095Y-106936904D01*
X139785714Y-106746428D01*
X139785714Y-106508333D01*
X139738095Y-106317857D01*
X139690476Y-106222619D01*
X139642857Y-106175000D01*
X139547619Y-106127380D01*
X138261904Y-107127380D02*
X138833333Y-107127380D01*
X138547619Y-107127380D02*
X138547619Y-106127380D01*
X138642857Y-106270238D01*
X138738095Y-106365476D01*
X138833333Y-106413095D01*
X137785714Y-107127380D02*
X137595238Y-107127380D01*
X137500000Y-107079761D01*
X137452380Y-107032142D01*
X137357142Y-106889285D01*
X137309523Y-106698809D01*
X137309523Y-106317857D01*
X137357142Y-106222619D01*
X137404761Y-106175000D01*
X137500000Y-106127380D01*
X137690476Y-106127380D01*
X137785714Y-106175000D01*
X137833333Y-106222619D01*
X137880952Y-106317857D01*
X137880952Y-106555952D01*
X137833333Y-106651190D01*
X137785714Y-106698809D01*
X137690476Y-106746428D01*
X137500000Y-106746428D01*
X137404761Y-106698809D01*
X137357142Y-106651190D01*
X137309523Y-106555952D01*
D11*
X134860000Y-55138748D02*
X134860000Y-57911252D01*
X131440000Y-55138748D02*
X131440000Y-57911252D01*
D12*
X113025000Y-58371267D02*
X113025000Y-58028733D01*
X111925000Y-58371267D02*
X111925000Y-58028733D01*
X114025000Y-58396267D02*
X114025000Y-58053733D01*
X115125000Y-58396267D02*
X115125000Y-58053733D01*
X101275000Y-44500000D02*
X101275000Y-43100000D01*
X101425000Y-44500000D02*
X101275000Y-44500000D01*
X106075000Y-44500000D02*
X106075000Y-43100000D01*
X105975000Y-44500000D02*
X106075000Y-44500000D01*
X104975000Y-41800000D02*
X102375000Y-41800000D01*
X102475000Y-44500000D02*
X104875000Y-44500000D01*
X102675000Y-40600000D02*
X102675000Y-41800000D01*
X104675000Y-40600000D02*
X102675000Y-40600000D01*
X104675000Y-41800000D02*
X104675000Y-40600000D01*
D11*
X110515000Y-51760000D02*
X109975000Y-51760000D01*
X113085000Y-51770000D02*
X112085000Y-51770000D01*
X115625000Y-51770000D02*
X114625000Y-51770000D01*
X118165000Y-51770000D02*
X117165000Y-51770000D01*
X120705000Y-51770000D02*
X119705000Y-51770000D01*
X123245000Y-51770000D02*
X122245000Y-51770000D01*
X127875000Y-54430000D02*
X127875000Y-51770000D01*
X109975000Y-54430000D02*
X109975000Y-51770000D01*
X127875000Y-54430000D02*
X109975000Y-54430000D01*
X127305000Y-51770000D02*
X127305000Y-50250000D01*
X127875000Y-51770000D02*
X127305000Y-51770000D01*
X125785000Y-51770000D02*
X124785000Y-51770000D01*
D12*
X128925000Y-40600000D02*
X128925000Y-55100000D01*
X108925000Y-40600000D02*
X108925000Y-55100000D01*
X108925000Y-55100000D02*
X128925000Y-55100000D01*
X127545000Y-41940000D02*
X127545000Y-46480000D01*
X127545000Y-46480000D02*
X125545000Y-46480000D01*
X125545000Y-46480000D02*
X125545000Y-41940000D01*
X125545000Y-41940000D02*
X127545000Y-41940000D01*
X112305000Y-41940000D02*
X112305000Y-46480000D01*
X112305000Y-46480000D02*
X110305000Y-46480000D01*
X110305000Y-46480000D02*
X110305000Y-41940000D01*
X110305000Y-41940000D02*
X112305000Y-41940000D01*
D11*
X73770000Y-42645000D02*
X73770000Y-43975000D01*
X75100000Y-42645000D02*
X73770000Y-42645000D01*
X76370000Y-42645000D02*
X89130000Y-42645000D01*
X76370000Y-45305000D02*
X76370000Y-42645000D01*
X89130000Y-45305000D02*
X76370000Y-45305000D01*
X89130000Y-42645000D02*
X89130000Y-45305000D01*
D12*
X134694047Y-52702380D02*
X134694047Y-51702380D01*
X134313095Y-51702380D01*
X134217857Y-51750000D01*
X134170238Y-51797619D01*
X134122619Y-51892857D01*
X134122619Y-52035714D01*
X134170238Y-52130952D01*
X134217857Y-52178571D01*
X134313095Y-52226190D01*
X134694047Y-52226190D01*
X133836904Y-51702380D02*
X133265476Y-51702380D01*
X133551190Y-52702380D02*
X133551190Y-51702380D01*
X132360714Y-52607142D02*
X132408333Y-52654761D01*
X132551190Y-52702380D01*
X132646428Y-52702380D01*
X132789285Y-52654761D01*
X132884523Y-52559523D01*
X132932142Y-52464285D01*
X132979761Y-52273809D01*
X132979761Y-52130952D01*
X132932142Y-51940476D01*
X132884523Y-51845238D01*
X132789285Y-51750000D01*
X132646428Y-51702380D01*
X132551190Y-51702380D01*
X132408333Y-51750000D01*
X132360714Y-51797619D01*
X131408333Y-52702380D02*
X131979761Y-52702380D01*
X131694047Y-52702380D02*
X131694047Y-51702380D01*
X131789285Y-51845238D01*
X131884523Y-51940476D01*
X131979761Y-51988095D01*
X112591666Y-61052380D02*
X112925000Y-60576190D01*
X113163095Y-61052380D02*
X113163095Y-60052380D01*
X112782142Y-60052380D01*
X112686904Y-60100000D01*
X112639285Y-60147619D01*
X112591666Y-60242857D01*
X112591666Y-60385714D01*
X112639285Y-60480952D01*
X112686904Y-60528571D01*
X112782142Y-60576190D01*
X113163095Y-60576190D01*
X111639285Y-61052380D02*
X112210714Y-61052380D01*
X111925000Y-61052380D02*
X111925000Y-60052380D01*
X112020238Y-60195238D01*
X112115476Y-60290476D01*
X112210714Y-60338095D01*
X114791666Y-61152380D02*
X115125000Y-60676190D01*
X115363095Y-61152380D02*
X115363095Y-60152380D01*
X114982142Y-60152380D01*
X114886904Y-60200000D01*
X114839285Y-60247619D01*
X114791666Y-60342857D01*
X114791666Y-60485714D01*
X114839285Y-60580952D01*
X114886904Y-60628571D01*
X114982142Y-60676190D01*
X115363095Y-60676190D01*
X114410714Y-60247619D02*
X114363095Y-60200000D01*
X114267857Y-60152380D01*
X114029761Y-60152380D01*
X113934523Y-60200000D01*
X113886904Y-60247619D01*
X113839285Y-60342857D01*
X113839285Y-60438095D01*
X113886904Y-60580952D01*
X114458333Y-61152380D01*
X113839285Y-61152380D01*
X105008333Y-46054761D02*
X104865476Y-46102380D01*
X104627380Y-46102380D01*
X104532142Y-46054761D01*
X104484523Y-46007142D01*
X104436904Y-45911904D01*
X104436904Y-45816666D01*
X104484523Y-45721428D01*
X104532142Y-45673809D01*
X104627380Y-45626190D01*
X104817857Y-45578571D01*
X104913095Y-45530952D01*
X104960714Y-45483333D01*
X105008333Y-45388095D01*
X105008333Y-45292857D01*
X104960714Y-45197619D01*
X104913095Y-45150000D01*
X104817857Y-45102380D01*
X104579761Y-45102380D01*
X104436904Y-45150000D01*
X104103571Y-45102380D02*
X103865476Y-46102380D01*
X103675000Y-45388095D01*
X103484523Y-46102380D01*
X103246428Y-45102380D01*
X102341666Y-46102380D02*
X102913095Y-46102380D01*
X102627380Y-46102380D02*
X102627380Y-45102380D01*
X102722619Y-45245238D01*
X102817857Y-45340476D01*
X102913095Y-45388095D01*
X119258333Y-55702380D02*
X119258333Y-56416666D01*
X119305952Y-56559523D01*
X119401190Y-56654761D01*
X119544047Y-56702380D01*
X119639285Y-56702380D01*
X118258333Y-56702380D02*
X118829761Y-56702380D01*
X118544047Y-56702380D02*
X118544047Y-55702380D01*
X118639285Y-55845238D01*
X118734523Y-55940476D01*
X118829761Y-55988095D01*
X73083333Y-43427380D02*
X73083333Y-44141666D01*
X73130952Y-44284523D01*
X73226190Y-44379761D01*
X73369047Y-44427380D01*
X73464285Y-44427380D01*
X72654761Y-43522619D02*
X72607142Y-43475000D01*
X72511904Y-43427380D01*
X72273809Y-43427380D01*
X72178571Y-43475000D01*
X72130952Y-43522619D01*
X72083333Y-43617857D01*
X72083333Y-43713095D01*
X72130952Y-43855952D01*
X72702380Y-44427380D01*
X72083333Y-44427380D01*
X76200000Y-46323666D02*
X76200000Y-45623666D01*
X75966666Y-46123666D01*
X75733333Y-45623666D01*
X75733333Y-46323666D01*
X75400000Y-46323666D02*
X75400000Y-45623666D01*
X75100000Y-46290333D02*
X75000000Y-46323666D01*
X74833333Y-46323666D01*
X74766666Y-46290333D01*
X74733333Y-46257000D01*
X74700000Y-46190333D01*
X74700000Y-46123666D01*
X74733333Y-46057000D01*
X74766666Y-46023666D01*
X74833333Y-45990333D01*
X74966666Y-45957000D01*
X75033333Y-45923666D01*
X75066666Y-45890333D01*
X75100000Y-45823666D01*
X75100000Y-45757000D01*
X75066666Y-45690333D01*
X75033333Y-45657000D01*
X74966666Y-45623666D01*
X74800000Y-45623666D01*
X74700000Y-45657000D01*
X74266666Y-45623666D02*
X74133333Y-45623666D01*
X74066666Y-45657000D01*
X74000000Y-45723666D01*
X73966666Y-45857000D01*
X73966666Y-46090333D01*
X74000000Y-46223666D01*
X74066666Y-46290333D01*
X74133333Y-46323666D01*
X74266666Y-46323666D01*
X74333333Y-46290333D01*
X74400000Y-46223666D01*
X74433333Y-46090333D01*
X74433333Y-45857000D01*
X74400000Y-45723666D01*
X74333333Y-45657000D01*
X74266666Y-45623666D01*
X78573333Y-45623666D02*
X78340000Y-46323666D01*
X78106666Y-45623666D01*
X77473333Y-46257000D02*
X77506666Y-46290333D01*
X77606666Y-46323666D01*
X77673333Y-46323666D01*
X77773333Y-46290333D01*
X77840000Y-46223666D01*
X77873333Y-46157000D01*
X77906666Y-46023666D01*
X77906666Y-45923666D01*
X77873333Y-45790333D01*
X77840000Y-45723666D01*
X77773333Y-45657000D01*
X77673333Y-45623666D01*
X77606666Y-45623666D01*
X77506666Y-45657000D01*
X77473333Y-45690333D01*
X76773333Y-46257000D02*
X76806666Y-46290333D01*
X76906666Y-46323666D01*
X76973333Y-46323666D01*
X77073333Y-46290333D01*
X77140000Y-46223666D01*
X77173333Y-46157000D01*
X77206666Y-46023666D01*
X77206666Y-45923666D01*
X77173333Y-45790333D01*
X77140000Y-45723666D01*
X77073333Y-45657000D01*
X76973333Y-45623666D01*
X76906666Y-45623666D01*
X76806666Y-45657000D01*
X76773333Y-45690333D01*
X81080000Y-46290333D02*
X80980000Y-46323666D01*
X80813333Y-46323666D01*
X80746666Y-46290333D01*
X80713333Y-46257000D01*
X80680000Y-46190333D01*
X80680000Y-46123666D01*
X80713333Y-46057000D01*
X80746666Y-46023666D01*
X80813333Y-45990333D01*
X80946666Y-45957000D01*
X81013333Y-45923666D01*
X81046666Y-45890333D01*
X81080000Y-45823666D01*
X81080000Y-45757000D01*
X81046666Y-45690333D01*
X81013333Y-45657000D01*
X80946666Y-45623666D01*
X80780000Y-45623666D01*
X80680000Y-45657000D01*
X79980000Y-46257000D02*
X80013333Y-46290333D01*
X80113333Y-46323666D01*
X80180000Y-46323666D01*
X80280000Y-46290333D01*
X80346666Y-46223666D01*
X80380000Y-46157000D01*
X80413333Y-46023666D01*
X80413333Y-45923666D01*
X80380000Y-45790333D01*
X80346666Y-45723666D01*
X80280000Y-45657000D01*
X80180000Y-45623666D01*
X80113333Y-45623666D01*
X80013333Y-45657000D01*
X79980000Y-45690333D01*
X79680000Y-46323666D02*
X79680000Y-45623666D01*
X79280000Y-46323666D02*
X79580000Y-45923666D01*
X79280000Y-45623666D02*
X79680000Y-46023666D01*
X83820000Y-46323666D02*
X83820000Y-45623666D01*
X83586666Y-46123666D01*
X83353333Y-45623666D01*
X83353333Y-46323666D01*
X82886666Y-45623666D02*
X82753333Y-45623666D01*
X82686666Y-45657000D01*
X82620000Y-45723666D01*
X82586666Y-45857000D01*
X82586666Y-46090333D01*
X82620000Y-46223666D01*
X82686666Y-46290333D01*
X82753333Y-46323666D01*
X82886666Y-46323666D01*
X82953333Y-46290333D01*
X83020000Y-46223666D01*
X83053333Y-46090333D01*
X83053333Y-45857000D01*
X83020000Y-45723666D01*
X82953333Y-45657000D01*
X82886666Y-45623666D01*
X82320000Y-46290333D02*
X82220000Y-46323666D01*
X82053333Y-46323666D01*
X81986666Y-46290333D01*
X81953333Y-46257000D01*
X81920000Y-46190333D01*
X81920000Y-46123666D01*
X81953333Y-46057000D01*
X81986666Y-46023666D01*
X82053333Y-45990333D01*
X82186666Y-45957000D01*
X82253333Y-45923666D01*
X82286666Y-45890333D01*
X82320000Y-45823666D01*
X82320000Y-45757000D01*
X82286666Y-45690333D01*
X82253333Y-45657000D01*
X82186666Y-45623666D01*
X82020000Y-45623666D01*
X81920000Y-45657000D01*
X81620000Y-46323666D02*
X81620000Y-45623666D01*
X85643333Y-46323666D02*
X85876666Y-45990333D01*
X86043333Y-46323666D02*
X86043333Y-45623666D01*
X85776666Y-45623666D01*
X85710000Y-45657000D01*
X85676666Y-45690333D01*
X85643333Y-45757000D01*
X85643333Y-45857000D01*
X85676666Y-45923666D01*
X85710000Y-45957000D01*
X85776666Y-45990333D01*
X86043333Y-45990333D01*
X85376666Y-46290333D02*
X85276666Y-46323666D01*
X85110000Y-46323666D01*
X85043333Y-46290333D01*
X85010000Y-46257000D01*
X84976666Y-46190333D01*
X84976666Y-46123666D01*
X85010000Y-46057000D01*
X85043333Y-46023666D01*
X85110000Y-45990333D01*
X85243333Y-45957000D01*
X85310000Y-45923666D01*
X85343333Y-45890333D01*
X85376666Y-45823666D01*
X85376666Y-45757000D01*
X85343333Y-45690333D01*
X85310000Y-45657000D01*
X85243333Y-45623666D01*
X85076666Y-45623666D01*
X84976666Y-45657000D01*
X84776666Y-45623666D02*
X84376666Y-45623666D01*
X84576666Y-46323666D02*
X84576666Y-45623666D01*
X88333333Y-45657000D02*
X88400000Y-45623666D01*
X88500000Y-45623666D01*
X88600000Y-45657000D01*
X88666666Y-45723666D01*
X88700000Y-45790333D01*
X88733333Y-45923666D01*
X88733333Y-46023666D01*
X88700000Y-46157000D01*
X88666666Y-46223666D01*
X88600000Y-46290333D01*
X88500000Y-46323666D01*
X88433333Y-46323666D01*
X88333333Y-46290333D01*
X88300000Y-46257000D01*
X88300000Y-46023666D01*
X88433333Y-46023666D01*
X88000000Y-46323666D02*
X88000000Y-45623666D01*
X87600000Y-46323666D01*
X87600000Y-45623666D01*
X87266666Y-46323666D02*
X87266666Y-45623666D01*
X87100000Y-45623666D01*
X87000000Y-45657000D01*
X86933333Y-45723666D01*
X86900000Y-45790333D01*
X86866666Y-45923666D01*
X86866666Y-46023666D01*
X86900000Y-46157000D01*
X86933333Y-46223666D01*
X87000000Y-46290333D01*
X87100000Y-46323666D01*
X87266666Y-46323666D01*
X113661904Y-73102380D02*
X113661904Y-73911904D01*
X113614285Y-74007142D01*
X113566666Y-74054761D01*
X113471428Y-74102380D01*
X113280952Y-74102380D01*
X113185714Y-74054761D01*
X113138095Y-74007142D01*
X113090476Y-73911904D01*
X113090476Y-73102380D01*
X112090476Y-74102380D02*
X112661904Y-74102380D01*
X112376190Y-74102380D02*
X112376190Y-73102380D01*
X112471428Y-73245238D01*
X112566666Y-73340476D01*
X112661904Y-73388095D01*
M02*
