G04 #@! TF.GenerationSoftware,KiCad,Pcbnew,(5.1.0-0)*
G04 #@! TF.CreationDate,2019-05-12T16:12:14+09:00*
G04 #@! TF.ProjectId,split_EC_left,73706c69-745f-4454-935f-6c6566742e6b,rev?*
G04 #@! TF.SameCoordinates,Original*
G04 #@! TF.FileFunction,Soldermask,Top*
G04 #@! TF.FilePolarity,Negative*
%FSLAX46Y46*%
G04 Gerber Fmt 4.6, Leading zero omitted, Abs format (unit mm)*
G04 Created by KiCad (PCBNEW (5.1.0-0)) date 2019-05-12 16:12:14*
%MOMM*%
%LPD*%
G04 APERTURE LIST*
%ADD10C,0.100000*%
G04 APERTURE END LIST*
D10*
G36*
X129800000Y-99750000D02*
G01*
X128400000Y-99750000D01*
X128400000Y-97050000D01*
X129800000Y-97050000D01*
X129800000Y-99750000D01*
X129800000Y-99750000D01*
G37*
G36*
X127260000Y-99750000D02*
G01*
X125860000Y-99750000D01*
X125860000Y-97050000D01*
X127260000Y-97050000D01*
X127260000Y-99750000D01*
X127260000Y-99750000D01*
G37*
G36*
X124720000Y-99750000D02*
G01*
X123320000Y-99750000D01*
X123320000Y-97050000D01*
X124720000Y-97050000D01*
X124720000Y-99750000D01*
X124720000Y-99750000D01*
G37*
G36*
X122180000Y-99750000D02*
G01*
X120780000Y-99750000D01*
X120780000Y-97050000D01*
X122180000Y-97050000D01*
X122180000Y-99750000D01*
X122180000Y-99750000D01*
G37*
G36*
X119640000Y-99750000D02*
G01*
X118240000Y-99750000D01*
X118240000Y-97050000D01*
X119640000Y-97050000D01*
X119640000Y-99750000D01*
X119640000Y-99750000D01*
G37*
G36*
X117100000Y-99750000D02*
G01*
X115700000Y-99750000D01*
X115700000Y-97050000D01*
X117100000Y-97050000D01*
X117100000Y-99750000D01*
X117100000Y-99750000D01*
G37*
G36*
X83429196Y-96439958D02*
G01*
X83665781Y-96537955D01*
X83878702Y-96680224D01*
X84059776Y-96861298D01*
X84202045Y-97074219D01*
X84300042Y-97310804D01*
X84350000Y-97561961D01*
X84350000Y-97818039D01*
X84300042Y-98069196D01*
X84202045Y-98305781D01*
X84059776Y-98518702D01*
X83878702Y-98699776D01*
X83665781Y-98842045D01*
X83429196Y-98940042D01*
X83303617Y-98965021D01*
X83178040Y-98990000D01*
X82921960Y-98990000D01*
X82670804Y-98940042D01*
X82434219Y-98842045D01*
X82221298Y-98699776D01*
X82040224Y-98518702D01*
X81897955Y-98305781D01*
X81799958Y-98069196D01*
X81750000Y-97818039D01*
X81750000Y-97561961D01*
X81799958Y-97310804D01*
X81897955Y-97074219D01*
X82040224Y-96861298D01*
X82221298Y-96680224D01*
X82434219Y-96537955D01*
X82670804Y-96439958D01*
X82921960Y-96390000D01*
X83178040Y-96390000D01*
X83429196Y-96439958D01*
X83429196Y-96439958D01*
G37*
G36*
X80430000Y-91300000D02*
G01*
X79430000Y-91300000D01*
X79430000Y-89400000D01*
X80430000Y-89400000D01*
X80430000Y-91300000D01*
X80430000Y-91300000D01*
G37*
G36*
X89320000Y-91300000D02*
G01*
X88320000Y-91300000D01*
X88320000Y-89400000D01*
X89320000Y-89400000D01*
X89320000Y-91300000D01*
X89320000Y-91300000D01*
G37*
G36*
X88050000Y-91300000D02*
G01*
X87050000Y-91300000D01*
X87050000Y-89400000D01*
X88050000Y-89400000D01*
X88050000Y-91300000D01*
X88050000Y-91300000D01*
G37*
G36*
X86780000Y-91300000D02*
G01*
X85780000Y-91300000D01*
X85780000Y-89400000D01*
X86780000Y-89400000D01*
X86780000Y-91300000D01*
X86780000Y-91300000D01*
G37*
G36*
X84240000Y-91300000D02*
G01*
X83240000Y-91300000D01*
X83240000Y-89400000D01*
X84240000Y-89400000D01*
X84240000Y-91300000D01*
X84240000Y-91300000D01*
G37*
G36*
X85510000Y-91300000D02*
G01*
X84510000Y-91300000D01*
X84510000Y-89400000D01*
X85510000Y-89400000D01*
X85510000Y-91300000D01*
X85510000Y-91300000D01*
G37*
G36*
X81700000Y-91300000D02*
G01*
X80700000Y-91300000D01*
X80700000Y-89400000D01*
X81700000Y-89400000D01*
X81700000Y-91300000D01*
X81700000Y-91300000D01*
G37*
G36*
X82970000Y-91300000D02*
G01*
X81970000Y-91300000D01*
X81970000Y-89400000D01*
X82970000Y-89400000D01*
X82970000Y-91300000D01*
X82970000Y-91300000D01*
G37*
G36*
X137450000Y-91030000D02*
G01*
X134750000Y-91030000D01*
X134750000Y-89630000D01*
X137450000Y-89630000D01*
X137450000Y-91030000D01*
X137450000Y-91030000D01*
G37*
G36*
X110750000Y-91030000D02*
G01*
X108050000Y-91030000D01*
X108050000Y-89630000D01*
X110750000Y-89630000D01*
X110750000Y-91030000D01*
X110750000Y-91030000D01*
G37*
G36*
X110750000Y-88490000D02*
G01*
X108050000Y-88490000D01*
X108050000Y-87090000D01*
X110750000Y-87090000D01*
X110750000Y-88490000D01*
X110750000Y-88490000D01*
G37*
G36*
X137450000Y-88490000D02*
G01*
X134750000Y-88490000D01*
X134750000Y-87090000D01*
X137450000Y-87090000D01*
X137450000Y-88490000D01*
X137450000Y-88490000D01*
G37*
G36*
X110750000Y-85950000D02*
G01*
X108050000Y-85950000D01*
X108050000Y-84550000D01*
X110750000Y-84550000D01*
X110750000Y-85950000D01*
X110750000Y-85950000D01*
G37*
G36*
X137450000Y-85950000D02*
G01*
X134750000Y-85950000D01*
X134750000Y-84550000D01*
X137450000Y-84550000D01*
X137450000Y-85950000D01*
X137450000Y-85950000D01*
G37*
G36*
X89320000Y-85900000D02*
G01*
X88320000Y-85900000D01*
X88320000Y-84000000D01*
X89320000Y-84000000D01*
X89320000Y-85900000D01*
X89320000Y-85900000D01*
G37*
G36*
X88050000Y-85900000D02*
G01*
X87050000Y-85900000D01*
X87050000Y-84000000D01*
X88050000Y-84000000D01*
X88050000Y-85900000D01*
X88050000Y-85900000D01*
G37*
G36*
X86780000Y-85900000D02*
G01*
X85780000Y-85900000D01*
X85780000Y-84000000D01*
X86780000Y-84000000D01*
X86780000Y-85900000D01*
X86780000Y-85900000D01*
G37*
G36*
X85510000Y-85900000D02*
G01*
X84510000Y-85900000D01*
X84510000Y-84000000D01*
X85510000Y-84000000D01*
X85510000Y-85900000D01*
X85510000Y-85900000D01*
G37*
G36*
X80430000Y-85900000D02*
G01*
X79430000Y-85900000D01*
X79430000Y-84000000D01*
X80430000Y-84000000D01*
X80430000Y-85900000D01*
X80430000Y-85900000D01*
G37*
G36*
X81700000Y-85900000D02*
G01*
X80700000Y-85900000D01*
X80700000Y-84000000D01*
X81700000Y-84000000D01*
X81700000Y-85900000D01*
X81700000Y-85900000D01*
G37*
G36*
X82970000Y-85900000D02*
G01*
X81970000Y-85900000D01*
X81970000Y-84000000D01*
X82970000Y-84000000D01*
X82970000Y-85900000D01*
X82970000Y-85900000D01*
G37*
G36*
X84240000Y-85900000D02*
G01*
X83240000Y-85900000D01*
X83240000Y-84000000D01*
X84240000Y-84000000D01*
X84240000Y-85900000D01*
X84240000Y-85900000D01*
G37*
G36*
X137450000Y-83410000D02*
G01*
X134750000Y-83410000D01*
X134750000Y-82010000D01*
X137450000Y-82010000D01*
X137450000Y-83410000D01*
X137450000Y-83410000D01*
G37*
G36*
X110750000Y-83410000D02*
G01*
X108050000Y-83410000D01*
X108050000Y-82010000D01*
X110750000Y-82010000D01*
X110750000Y-83410000D01*
X110750000Y-83410000D01*
G37*
G36*
X80625000Y-83000000D02*
G01*
X79175000Y-83000000D01*
X79175000Y-81650000D01*
X80625000Y-81650000D01*
X80625000Y-83000000D01*
X80625000Y-83000000D01*
G37*
G36*
X78875000Y-83000000D02*
G01*
X77425000Y-83000000D01*
X77425000Y-81650000D01*
X78875000Y-81650000D01*
X78875000Y-83000000D01*
X78875000Y-83000000D01*
G37*
G36*
X110750000Y-80870000D02*
G01*
X108050000Y-80870000D01*
X108050000Y-79470000D01*
X110750000Y-79470000D01*
X110750000Y-80870000D01*
X110750000Y-80870000D01*
G37*
G36*
X137450000Y-80870000D02*
G01*
X134750000Y-80870000D01*
X134750000Y-79470000D01*
X137450000Y-79470000D01*
X137450000Y-80870000D01*
X137450000Y-80870000D01*
G37*
G36*
X84875009Y-78789091D02*
G01*
X84910429Y-78796136D01*
X84960476Y-78816867D01*
X85010524Y-78837597D01*
X85100602Y-78897785D01*
X85177215Y-78974398D01*
X85237403Y-79064476D01*
X85278864Y-79164572D01*
X85300000Y-79270828D01*
X85300000Y-79379172D01*
X85278864Y-79485428D01*
X85237403Y-79585524D01*
X85177215Y-79675602D01*
X85100602Y-79752215D01*
X85010524Y-79812403D01*
X84960476Y-79833133D01*
X84910429Y-79853864D01*
X84875009Y-79860909D01*
X84804172Y-79875000D01*
X84695828Y-79875000D01*
X84624991Y-79860909D01*
X84589571Y-79853864D01*
X84539524Y-79833133D01*
X84489476Y-79812403D01*
X84399398Y-79752215D01*
X84322785Y-79675602D01*
X84262597Y-79585524D01*
X84221136Y-79485428D01*
X84200000Y-79379172D01*
X84200000Y-79270828D01*
X84221136Y-79164572D01*
X84262597Y-79064476D01*
X84322785Y-78974398D01*
X84399398Y-78897785D01*
X84489476Y-78837597D01*
X84539524Y-78816867D01*
X84589571Y-78796136D01*
X84624991Y-78789091D01*
X84695828Y-78775000D01*
X84804172Y-78775000D01*
X84875009Y-78789091D01*
X84875009Y-78789091D01*
G37*
G36*
X110750000Y-78330000D02*
G01*
X108050000Y-78330000D01*
X108050000Y-76930000D01*
X110750000Y-76930000D01*
X110750000Y-78330000D01*
X110750000Y-78330000D01*
G37*
G36*
X137450000Y-78330000D02*
G01*
X134750000Y-78330000D01*
X134750000Y-76930000D01*
X137450000Y-76930000D01*
X137450000Y-78330000D01*
X137450000Y-78330000D01*
G37*
G36*
X81850000Y-78325000D02*
G01*
X78450000Y-78325000D01*
X78450000Y-71675000D01*
X81850000Y-71675000D01*
X81850000Y-78325000D01*
X81850000Y-78325000D01*
G37*
G36*
X87650000Y-78325000D02*
G01*
X84250000Y-78325000D01*
X84250000Y-71675000D01*
X87650000Y-71675000D01*
X87650000Y-78325000D01*
X87650000Y-78325000D01*
G37*
G36*
X84875009Y-70139091D02*
G01*
X84910429Y-70146136D01*
X84960476Y-70166867D01*
X85010524Y-70187597D01*
X85100602Y-70247785D01*
X85177215Y-70324398D01*
X85237403Y-70414476D01*
X85278864Y-70514572D01*
X85300000Y-70620828D01*
X85300000Y-70729172D01*
X85278864Y-70835428D01*
X85237403Y-70935524D01*
X85177215Y-71025602D01*
X85100602Y-71102215D01*
X85010524Y-71162403D01*
X84960476Y-71183134D01*
X84910429Y-71203864D01*
X84875009Y-71210909D01*
X84804172Y-71225000D01*
X84695828Y-71225000D01*
X84624991Y-71210909D01*
X84589571Y-71203864D01*
X84539524Y-71183134D01*
X84489476Y-71162403D01*
X84399398Y-71102215D01*
X84322785Y-71025602D01*
X84262597Y-70935524D01*
X84221136Y-70835428D01*
X84200000Y-70729172D01*
X84200000Y-70620828D01*
X84221136Y-70514572D01*
X84262597Y-70414476D01*
X84322785Y-70324398D01*
X84399398Y-70247785D01*
X84489476Y-70187597D01*
X84539524Y-70166867D01*
X84589571Y-70146136D01*
X84624991Y-70139091D01*
X84695828Y-70125000D01*
X84804172Y-70125000D01*
X84875009Y-70139091D01*
X84875009Y-70139091D01*
G37*
G36*
X91900000Y-64000001D02*
G01*
X91902402Y-64024387D01*
X91909515Y-64047836D01*
X91921066Y-64069447D01*
X91936611Y-64088389D01*
X91955553Y-64103934D01*
X91977164Y-64115485D01*
X92000613Y-64122598D01*
X92024999Y-64125000D01*
X93350000Y-64125000D01*
X93350000Y-65925000D01*
X92024999Y-65925000D01*
X92000613Y-65927402D01*
X91977164Y-65934515D01*
X91955553Y-65946066D01*
X91936611Y-65961611D01*
X91921066Y-65980553D01*
X91909515Y-66002164D01*
X91902402Y-66025613D01*
X91900000Y-66049999D01*
X91900000Y-66525000D01*
X91000000Y-66525000D01*
X91000000Y-66049999D01*
X90997598Y-66025613D01*
X90990485Y-66002164D01*
X90978934Y-65980553D01*
X90963389Y-65961611D01*
X90944447Y-65946066D01*
X90922836Y-65934515D01*
X90899387Y-65927402D01*
X90875001Y-65925000D01*
X89550000Y-65925000D01*
X89550000Y-64999999D01*
X90950000Y-64999999D01*
X90950000Y-65050001D01*
X90952402Y-65074387D01*
X90959515Y-65097836D01*
X90971066Y-65119447D01*
X90986611Y-65138389D01*
X91005553Y-65153934D01*
X91027164Y-65165485D01*
X91050613Y-65172598D01*
X91074999Y-65175000D01*
X91825001Y-65175000D01*
X91849387Y-65172598D01*
X91872836Y-65165485D01*
X91894447Y-65153934D01*
X91913389Y-65138389D01*
X91928934Y-65119447D01*
X91940485Y-65097836D01*
X91947598Y-65074387D01*
X91950000Y-65050001D01*
X91950000Y-64999999D01*
X91947598Y-64975613D01*
X91940485Y-64952164D01*
X91928934Y-64930553D01*
X91913389Y-64911611D01*
X91894447Y-64896066D01*
X91872836Y-64884515D01*
X91849387Y-64877402D01*
X91825001Y-64875000D01*
X91074999Y-64875000D01*
X91050613Y-64877402D01*
X91027164Y-64884515D01*
X91005553Y-64896066D01*
X90986611Y-64911611D01*
X90971066Y-64930553D01*
X90959515Y-64952164D01*
X90952402Y-64975613D01*
X90950000Y-64999999D01*
X89550000Y-64999999D01*
X89550000Y-64125000D01*
X90875001Y-64125000D01*
X90899387Y-64122598D01*
X90922836Y-64115485D01*
X90944447Y-64103934D01*
X90963389Y-64088389D01*
X90978934Y-64069447D01*
X90990485Y-64047836D01*
X90997598Y-64024387D01*
X91000000Y-64000001D01*
X91000000Y-63525000D01*
X91900000Y-63525000D01*
X91900000Y-64000001D01*
X91900000Y-64000001D01*
G37*
G36*
X85050000Y-66275000D02*
G01*
X83650000Y-66275000D01*
X83650000Y-63775000D01*
X85050000Y-63775000D01*
X85050000Y-66275000D01*
X85050000Y-66275000D01*
G37*
G36*
X87550000Y-66275000D02*
G01*
X86150000Y-66275000D01*
X86150000Y-63775000D01*
X87550000Y-63775000D01*
X87550000Y-66275000D01*
X87550000Y-66275000D01*
G37*
G36*
X80500000Y-65925000D02*
G01*
X78950000Y-65925000D01*
X78950000Y-64125000D01*
X80500000Y-64125000D01*
X80500000Y-65925000D01*
X80500000Y-65925000D01*
G37*
G36*
X82550000Y-65925000D02*
G01*
X81000000Y-65925000D01*
X81000000Y-64125000D01*
X82550000Y-64125000D01*
X82550000Y-65925000D01*
X82550000Y-65925000D01*
G37*
G36*
X143700000Y-63000000D02*
G01*
X142350000Y-63000000D01*
X142350000Y-61550000D01*
X143700000Y-61550000D01*
X143700000Y-63000000D01*
X143700000Y-63000000D01*
G37*
G36*
X140575000Y-63000000D02*
G01*
X139225000Y-63000000D01*
X139225000Y-61550000D01*
X140575000Y-61550000D01*
X140575000Y-63000000D01*
X140575000Y-63000000D01*
G37*
G36*
X93950000Y-62300000D02*
G01*
X92125000Y-62300000D01*
X92125000Y-60150000D01*
X93950000Y-60150000D01*
X93950000Y-62300000D01*
X93950000Y-62300000D01*
G37*
G36*
X90975000Y-62300000D02*
G01*
X89150000Y-62300000D01*
X89150000Y-60150000D01*
X90975000Y-60150000D01*
X90975000Y-62300000D01*
X90975000Y-62300000D01*
G37*
G36*
X124247290Y-60075619D02*
G01*
X124311689Y-60088429D01*
X124493678Y-60163811D01*
X124657463Y-60273249D01*
X124796751Y-60412537D01*
X124906189Y-60576322D01*
X124981571Y-60758311D01*
X125020000Y-60951509D01*
X125020000Y-61148491D01*
X124981571Y-61341689D01*
X124906189Y-61523678D01*
X124796751Y-61687463D01*
X124657463Y-61826751D01*
X124493678Y-61936189D01*
X124311689Y-62011571D01*
X124247290Y-62024381D01*
X124118493Y-62050000D01*
X123921507Y-62050000D01*
X123792710Y-62024381D01*
X123728311Y-62011571D01*
X123546322Y-61936189D01*
X123382537Y-61826751D01*
X123243249Y-61687463D01*
X123133811Y-61523678D01*
X123058429Y-61341689D01*
X123020000Y-61148491D01*
X123020000Y-60951509D01*
X123058429Y-60758311D01*
X123133811Y-60576322D01*
X123243249Y-60412537D01*
X123382537Y-60273249D01*
X123546322Y-60163811D01*
X123728311Y-60088429D01*
X123792710Y-60075619D01*
X123921507Y-60050000D01*
X124118493Y-60050000D01*
X124247290Y-60075619D01*
X124247290Y-60075619D01*
G37*
G36*
X126787290Y-60075619D02*
G01*
X126851689Y-60088429D01*
X127033678Y-60163811D01*
X127197463Y-60273249D01*
X127336751Y-60412537D01*
X127446189Y-60576322D01*
X127521571Y-60758311D01*
X127560000Y-60951509D01*
X127560000Y-61148491D01*
X127521571Y-61341689D01*
X127446189Y-61523678D01*
X127336751Y-61687463D01*
X127197463Y-61826751D01*
X127033678Y-61936189D01*
X126851689Y-62011571D01*
X126787290Y-62024381D01*
X126658493Y-62050000D01*
X126461507Y-62050000D01*
X126332710Y-62024381D01*
X126268311Y-62011571D01*
X126086322Y-61936189D01*
X125922537Y-61826751D01*
X125783249Y-61687463D01*
X125673811Y-61523678D01*
X125598429Y-61341689D01*
X125560000Y-61148491D01*
X125560000Y-60951509D01*
X125598429Y-60758311D01*
X125673811Y-60576322D01*
X125783249Y-60412537D01*
X125922537Y-60273249D01*
X126086322Y-60163811D01*
X126268311Y-60088429D01*
X126332710Y-60075619D01*
X126461507Y-60050000D01*
X126658493Y-60050000D01*
X126787290Y-60075619D01*
X126787290Y-60075619D01*
G37*
G36*
X119167290Y-60075619D02*
G01*
X119231689Y-60088429D01*
X119413678Y-60163811D01*
X119577463Y-60273249D01*
X119716751Y-60412537D01*
X119826189Y-60576322D01*
X119901571Y-60758311D01*
X119940000Y-60951509D01*
X119940000Y-61148491D01*
X119901571Y-61341689D01*
X119826189Y-61523678D01*
X119716751Y-61687463D01*
X119577463Y-61826751D01*
X119413678Y-61936189D01*
X119231689Y-62011571D01*
X119167290Y-62024381D01*
X119038493Y-62050000D01*
X118841507Y-62050000D01*
X118712710Y-62024381D01*
X118648311Y-62011571D01*
X118466322Y-61936189D01*
X118302537Y-61826751D01*
X118163249Y-61687463D01*
X118053811Y-61523678D01*
X117978429Y-61341689D01*
X117940000Y-61148491D01*
X117940000Y-60951509D01*
X117978429Y-60758311D01*
X118053811Y-60576322D01*
X118163249Y-60412537D01*
X118302537Y-60273249D01*
X118466322Y-60163811D01*
X118648311Y-60088429D01*
X118712710Y-60075619D01*
X118841507Y-60050000D01*
X119038493Y-60050000D01*
X119167290Y-60075619D01*
X119167290Y-60075619D01*
G37*
G36*
X121707290Y-60075619D02*
G01*
X121771689Y-60088429D01*
X121953678Y-60163811D01*
X122117463Y-60273249D01*
X122256751Y-60412537D01*
X122366189Y-60576322D01*
X122441571Y-60758311D01*
X122480000Y-60951509D01*
X122480000Y-61148491D01*
X122441571Y-61341689D01*
X122366189Y-61523678D01*
X122256751Y-61687463D01*
X122117463Y-61826751D01*
X121953678Y-61936189D01*
X121771689Y-62011571D01*
X121707290Y-62024381D01*
X121578493Y-62050000D01*
X121381507Y-62050000D01*
X121252710Y-62024381D01*
X121188311Y-62011571D01*
X121006322Y-61936189D01*
X120842537Y-61826751D01*
X120703249Y-61687463D01*
X120593811Y-61523678D01*
X120518429Y-61341689D01*
X120480000Y-61148491D01*
X120480000Y-60951509D01*
X120518429Y-60758311D01*
X120593811Y-60576322D01*
X120703249Y-60412537D01*
X120842537Y-60273249D01*
X121006322Y-60163811D01*
X121188311Y-60088429D01*
X121252710Y-60075619D01*
X121381507Y-60050000D01*
X121578493Y-60050000D01*
X121707290Y-60075619D01*
X121707290Y-60075619D01*
G37*
G36*
X85050000Y-61925000D02*
G01*
X83650000Y-61925000D01*
X83650000Y-60525000D01*
X85050000Y-60525000D01*
X85050000Y-61925000D01*
X85050000Y-61925000D01*
G37*
G36*
X87550000Y-61925000D02*
G01*
X86150000Y-61925000D01*
X86150000Y-60525000D01*
X87550000Y-60525000D01*
X87550000Y-61925000D01*
X87550000Y-61925000D01*
G37*
G36*
X82350000Y-61900000D02*
G01*
X80900000Y-61900000D01*
X80900000Y-60550000D01*
X82350000Y-60550000D01*
X82350000Y-61900000D01*
X82350000Y-61900000D01*
G37*
G36*
X80600000Y-61900000D02*
G01*
X79150000Y-61900000D01*
X79150000Y-60550000D01*
X80600000Y-60550000D01*
X80600000Y-61900000D01*
X80600000Y-61900000D01*
G37*
G36*
X140575000Y-61250000D02*
G01*
X139225000Y-61250000D01*
X139225000Y-59800000D01*
X140575000Y-59800000D01*
X140575000Y-61250000D01*
X140575000Y-61250000D01*
G37*
G36*
X143700000Y-61250000D02*
G01*
X142350000Y-61250000D01*
X142350000Y-59800000D01*
X143700000Y-59800000D01*
X143700000Y-61250000D01*
X143700000Y-61250000D01*
G37*
G36*
X140162197Y-55900233D02*
G01*
X140174449Y-55900835D01*
X140192869Y-55900835D01*
X140244358Y-55905906D01*
X140328439Y-55922631D01*
X140344403Y-55927474D01*
X140372048Y-55935859D01*
X140372054Y-55935861D01*
X140377960Y-55937653D01*
X140457158Y-55970457D01*
X140502791Y-55994848D01*
X140574076Y-56042479D01*
X140578847Y-56046395D01*
X140578849Y-56046396D01*
X140609303Y-56071389D01*
X140609309Y-56071395D01*
X140614072Y-56075304D01*
X140674696Y-56135928D01*
X140678605Y-56140691D01*
X140678611Y-56140697D01*
X140703604Y-56171151D01*
X140707521Y-56175924D01*
X140755152Y-56247209D01*
X140779543Y-56292842D01*
X140812347Y-56372040D01*
X140814139Y-56377946D01*
X140814141Y-56377952D01*
X140822526Y-56405597D01*
X140827369Y-56421561D01*
X140844094Y-56505642D01*
X140849165Y-56557131D01*
X140849165Y-56575551D01*
X140849767Y-56587803D01*
X140851573Y-56606140D01*
X140851573Y-57093860D01*
X140847107Y-57139205D01*
X140835670Y-57176908D01*
X140828096Y-57191078D01*
X140818720Y-57213717D01*
X140813940Y-57237751D01*
X140813940Y-57262255D01*
X140818721Y-57286288D01*
X140828096Y-57308922D01*
X140835670Y-57323092D01*
X140847107Y-57360795D01*
X140851573Y-57406140D01*
X140851573Y-57893860D01*
X140849767Y-57912197D01*
X140849165Y-57924449D01*
X140849165Y-57942869D01*
X140844094Y-57994358D01*
X140827369Y-58078439D01*
X140825576Y-58084349D01*
X140814141Y-58122048D01*
X140814139Y-58122054D01*
X140812347Y-58127960D01*
X140779543Y-58207158D01*
X140755152Y-58252791D01*
X140707521Y-58324076D01*
X140703605Y-58328847D01*
X140703604Y-58328849D01*
X140678611Y-58359303D01*
X140678605Y-58359309D01*
X140674696Y-58364072D01*
X140614072Y-58424696D01*
X140609309Y-58428605D01*
X140609303Y-58428611D01*
X140578849Y-58453604D01*
X140574076Y-58457521D01*
X140502791Y-58505152D01*
X140457158Y-58529543D01*
X140377960Y-58562347D01*
X140372054Y-58564139D01*
X140372048Y-58564141D01*
X140344403Y-58572526D01*
X140328439Y-58577369D01*
X140244358Y-58594094D01*
X140192869Y-58599165D01*
X140174449Y-58599165D01*
X140162197Y-58599767D01*
X140143860Y-58601573D01*
X139656140Y-58601573D01*
X139637803Y-58599767D01*
X139625551Y-58599165D01*
X139607131Y-58599165D01*
X139555642Y-58594094D01*
X139471561Y-58577369D01*
X139455597Y-58572526D01*
X139427952Y-58564141D01*
X139427946Y-58564139D01*
X139422040Y-58562347D01*
X139342842Y-58529543D01*
X139297209Y-58505152D01*
X139225924Y-58457521D01*
X139221151Y-58453604D01*
X139190697Y-58428611D01*
X139190691Y-58428605D01*
X139185928Y-58424696D01*
X139125304Y-58364072D01*
X139121395Y-58359309D01*
X139121389Y-58359303D01*
X139096396Y-58328849D01*
X139096395Y-58328847D01*
X139092479Y-58324076D01*
X139044848Y-58252791D01*
X139020457Y-58207158D01*
X138987653Y-58127960D01*
X138985861Y-58122054D01*
X138985859Y-58122048D01*
X138974424Y-58084349D01*
X138972631Y-58078439D01*
X138955906Y-57994358D01*
X138950835Y-57942869D01*
X138950835Y-57924449D01*
X138950233Y-57912197D01*
X138948427Y-57893860D01*
X138948427Y-57406140D01*
X138952893Y-57360795D01*
X138964330Y-57323092D01*
X138971904Y-57308922D01*
X138981280Y-57286283D01*
X138986060Y-57262249D01*
X138986060Y-57237745D01*
X138981279Y-57213712D01*
X138971904Y-57191078D01*
X138964330Y-57176908D01*
X138952893Y-57139205D01*
X138948427Y-57093860D01*
X138948427Y-56606140D01*
X138950233Y-56587803D01*
X138950835Y-56575551D01*
X138950835Y-56557131D01*
X138955906Y-56505642D01*
X138972631Y-56421561D01*
X138977474Y-56405597D01*
X138985859Y-56377952D01*
X138985861Y-56377946D01*
X138987653Y-56372040D01*
X139020457Y-56292842D01*
X139044848Y-56247209D01*
X139092479Y-56175924D01*
X139096396Y-56171151D01*
X139121389Y-56140697D01*
X139121395Y-56140691D01*
X139125304Y-56135928D01*
X139185928Y-56075304D01*
X139190691Y-56071395D01*
X139190697Y-56071389D01*
X139221151Y-56046396D01*
X139221153Y-56046395D01*
X139225924Y-56042479D01*
X139297209Y-55994848D01*
X139342842Y-55970457D01*
X139422040Y-55937653D01*
X139427946Y-55935861D01*
X139427952Y-55935859D01*
X139455597Y-55927474D01*
X139471561Y-55922631D01*
X139555642Y-55905906D01*
X139607131Y-55900835D01*
X139625551Y-55900835D01*
X139637803Y-55900233D01*
X139656140Y-55898427D01*
X140143860Y-55898427D01*
X140162197Y-55900233D01*
X140162197Y-55900233D01*
G37*
G36*
X143287197Y-55900233D02*
G01*
X143299449Y-55900835D01*
X143317869Y-55900835D01*
X143369358Y-55905906D01*
X143453439Y-55922631D01*
X143469403Y-55927474D01*
X143497048Y-55935859D01*
X143497054Y-55935861D01*
X143502960Y-55937653D01*
X143582158Y-55970457D01*
X143627791Y-55994848D01*
X143699076Y-56042479D01*
X143703847Y-56046395D01*
X143703849Y-56046396D01*
X143734303Y-56071389D01*
X143734309Y-56071395D01*
X143739072Y-56075304D01*
X143799696Y-56135928D01*
X143803605Y-56140691D01*
X143803611Y-56140697D01*
X143828604Y-56171151D01*
X143832521Y-56175924D01*
X143880152Y-56247209D01*
X143904543Y-56292842D01*
X143937347Y-56372040D01*
X143939139Y-56377946D01*
X143939141Y-56377952D01*
X143947526Y-56405597D01*
X143952369Y-56421561D01*
X143969094Y-56505642D01*
X143974165Y-56557131D01*
X143974165Y-56575551D01*
X143974767Y-56587803D01*
X143976573Y-56606140D01*
X143976573Y-57093860D01*
X143972107Y-57139205D01*
X143960670Y-57176908D01*
X143953096Y-57191078D01*
X143943720Y-57213717D01*
X143938940Y-57237751D01*
X143938940Y-57262255D01*
X143943721Y-57286288D01*
X143953096Y-57308922D01*
X143960670Y-57323092D01*
X143972107Y-57360795D01*
X143976573Y-57406140D01*
X143976573Y-57893860D01*
X143974767Y-57912197D01*
X143974165Y-57924449D01*
X143974165Y-57942869D01*
X143969094Y-57994358D01*
X143952369Y-58078439D01*
X143950576Y-58084349D01*
X143939141Y-58122048D01*
X143939139Y-58122054D01*
X143937347Y-58127960D01*
X143904543Y-58207158D01*
X143880152Y-58252791D01*
X143832521Y-58324076D01*
X143828605Y-58328847D01*
X143828604Y-58328849D01*
X143803611Y-58359303D01*
X143803605Y-58359309D01*
X143799696Y-58364072D01*
X143739072Y-58424696D01*
X143734309Y-58428605D01*
X143734303Y-58428611D01*
X143703849Y-58453604D01*
X143699076Y-58457521D01*
X143627791Y-58505152D01*
X143582158Y-58529543D01*
X143502960Y-58562347D01*
X143497054Y-58564139D01*
X143497048Y-58564141D01*
X143469403Y-58572526D01*
X143453439Y-58577369D01*
X143369358Y-58594094D01*
X143317869Y-58599165D01*
X143299449Y-58599165D01*
X143287197Y-58599767D01*
X143268860Y-58601573D01*
X142781140Y-58601573D01*
X142762803Y-58599767D01*
X142750551Y-58599165D01*
X142732131Y-58599165D01*
X142680642Y-58594094D01*
X142596561Y-58577369D01*
X142580597Y-58572526D01*
X142552952Y-58564141D01*
X142552946Y-58564139D01*
X142547040Y-58562347D01*
X142467842Y-58529543D01*
X142422209Y-58505152D01*
X142350924Y-58457521D01*
X142346151Y-58453604D01*
X142315697Y-58428611D01*
X142315691Y-58428605D01*
X142310928Y-58424696D01*
X142250304Y-58364072D01*
X142246395Y-58359309D01*
X142246389Y-58359303D01*
X142221396Y-58328849D01*
X142221395Y-58328847D01*
X142217479Y-58324076D01*
X142169848Y-58252791D01*
X142145457Y-58207158D01*
X142112653Y-58127960D01*
X142110861Y-58122054D01*
X142110859Y-58122048D01*
X142099424Y-58084349D01*
X142097631Y-58078439D01*
X142080906Y-57994358D01*
X142075835Y-57942869D01*
X142075835Y-57924449D01*
X142075233Y-57912197D01*
X142073427Y-57893860D01*
X142073427Y-57406140D01*
X142077893Y-57360795D01*
X142089330Y-57323092D01*
X142096904Y-57308922D01*
X142106280Y-57286283D01*
X142111060Y-57262249D01*
X142111060Y-57237745D01*
X142106279Y-57213712D01*
X142096904Y-57191078D01*
X142089330Y-57176908D01*
X142077893Y-57139205D01*
X142073427Y-57093860D01*
X142073427Y-56606140D01*
X142075233Y-56587803D01*
X142075835Y-56575551D01*
X142075835Y-56557131D01*
X142080906Y-56505642D01*
X142097631Y-56421561D01*
X142102474Y-56405597D01*
X142110859Y-56377952D01*
X142110861Y-56377946D01*
X142112653Y-56372040D01*
X142145457Y-56292842D01*
X142169848Y-56247209D01*
X142217479Y-56175924D01*
X142221396Y-56171151D01*
X142246389Y-56140697D01*
X142246395Y-56140691D01*
X142250304Y-56135928D01*
X142310928Y-56075304D01*
X142315691Y-56071395D01*
X142315697Y-56071389D01*
X142346151Y-56046396D01*
X142346153Y-56046395D01*
X142350924Y-56042479D01*
X142422209Y-55994848D01*
X142467842Y-55970457D01*
X142547040Y-55937653D01*
X142552946Y-55935861D01*
X142552952Y-55935859D01*
X142580597Y-55927474D01*
X142596561Y-55922631D01*
X142680642Y-55905906D01*
X142732131Y-55900835D01*
X142750551Y-55900835D01*
X142762803Y-55900233D01*
X142781140Y-55898427D01*
X143268860Y-55898427D01*
X143287197Y-55900233D01*
X143287197Y-55900233D01*
G37*
G36*
X146462197Y-55900233D02*
G01*
X146474449Y-55900835D01*
X146492869Y-55900835D01*
X146544358Y-55905906D01*
X146628439Y-55922631D01*
X146644403Y-55927474D01*
X146672048Y-55935859D01*
X146672054Y-55935861D01*
X146677960Y-55937653D01*
X146757158Y-55970457D01*
X146802791Y-55994848D01*
X146874076Y-56042479D01*
X146878847Y-56046395D01*
X146878849Y-56046396D01*
X146909303Y-56071389D01*
X146909309Y-56071395D01*
X146914072Y-56075304D01*
X146974696Y-56135928D01*
X146978605Y-56140691D01*
X146978611Y-56140697D01*
X147003604Y-56171151D01*
X147007521Y-56175924D01*
X147055152Y-56247209D01*
X147079543Y-56292842D01*
X147112347Y-56372040D01*
X147114139Y-56377946D01*
X147114141Y-56377952D01*
X147122526Y-56405597D01*
X147127369Y-56421561D01*
X147144094Y-56505642D01*
X147149165Y-56557131D01*
X147149165Y-56575551D01*
X147149767Y-56587803D01*
X147151573Y-56606140D01*
X147151573Y-57093860D01*
X147147107Y-57139205D01*
X147135670Y-57176908D01*
X147128096Y-57191078D01*
X147118720Y-57213717D01*
X147113940Y-57237751D01*
X147113940Y-57262255D01*
X147118721Y-57286288D01*
X147128096Y-57308922D01*
X147135670Y-57323092D01*
X147147107Y-57360795D01*
X147151573Y-57406140D01*
X147151573Y-57893860D01*
X147149767Y-57912197D01*
X147149165Y-57924449D01*
X147149165Y-57942869D01*
X147144094Y-57994358D01*
X147127369Y-58078439D01*
X147125576Y-58084349D01*
X147114141Y-58122048D01*
X147114139Y-58122054D01*
X147112347Y-58127960D01*
X147079543Y-58207158D01*
X147055152Y-58252791D01*
X147007521Y-58324076D01*
X147003605Y-58328847D01*
X147003604Y-58328849D01*
X146978611Y-58359303D01*
X146978605Y-58359309D01*
X146974696Y-58364072D01*
X146914072Y-58424696D01*
X146909309Y-58428605D01*
X146909303Y-58428611D01*
X146878849Y-58453604D01*
X146874076Y-58457521D01*
X146802791Y-58505152D01*
X146757158Y-58529543D01*
X146677960Y-58562347D01*
X146672054Y-58564139D01*
X146672048Y-58564141D01*
X146644403Y-58572526D01*
X146628439Y-58577369D01*
X146544358Y-58594094D01*
X146492869Y-58599165D01*
X146474449Y-58599165D01*
X146462197Y-58599767D01*
X146443860Y-58601573D01*
X145956140Y-58601573D01*
X145937803Y-58599767D01*
X145925551Y-58599165D01*
X145907131Y-58599165D01*
X145855642Y-58594094D01*
X145771561Y-58577369D01*
X145755597Y-58572526D01*
X145727952Y-58564141D01*
X145727946Y-58564139D01*
X145722040Y-58562347D01*
X145642842Y-58529543D01*
X145597209Y-58505152D01*
X145525924Y-58457521D01*
X145521151Y-58453604D01*
X145490697Y-58428611D01*
X145490691Y-58428605D01*
X145485928Y-58424696D01*
X145425304Y-58364072D01*
X145421395Y-58359309D01*
X145421389Y-58359303D01*
X145396396Y-58328849D01*
X145396395Y-58328847D01*
X145392479Y-58324076D01*
X145344848Y-58252791D01*
X145320457Y-58207158D01*
X145287653Y-58127960D01*
X145285861Y-58122054D01*
X145285859Y-58122048D01*
X145274424Y-58084349D01*
X145272631Y-58078439D01*
X145255906Y-57994358D01*
X145250835Y-57942869D01*
X145250835Y-57924449D01*
X145250233Y-57912197D01*
X145248427Y-57893860D01*
X145248427Y-57406140D01*
X145252893Y-57360795D01*
X145264330Y-57323092D01*
X145271904Y-57308922D01*
X145281280Y-57286283D01*
X145286060Y-57262249D01*
X145286060Y-57237745D01*
X145281279Y-57213712D01*
X145271904Y-57191078D01*
X145264330Y-57176908D01*
X145252893Y-57139205D01*
X145248427Y-57093860D01*
X145248427Y-56606140D01*
X145250233Y-56587803D01*
X145250835Y-56575551D01*
X145250835Y-56557131D01*
X145255906Y-56505642D01*
X145272631Y-56421561D01*
X145277474Y-56405597D01*
X145285859Y-56377952D01*
X145285861Y-56377946D01*
X145287653Y-56372040D01*
X145320457Y-56292842D01*
X145344848Y-56247209D01*
X145392479Y-56175924D01*
X145396396Y-56171151D01*
X145421389Y-56140697D01*
X145421395Y-56140691D01*
X145425304Y-56135928D01*
X145485928Y-56075304D01*
X145490691Y-56071395D01*
X145490697Y-56071389D01*
X145521151Y-56046396D01*
X145521153Y-56046395D01*
X145525924Y-56042479D01*
X145597209Y-55994848D01*
X145642842Y-55970457D01*
X145722040Y-55937653D01*
X145727946Y-55935861D01*
X145727952Y-55935859D01*
X145755597Y-55927474D01*
X145771561Y-55922631D01*
X145855642Y-55905906D01*
X145907131Y-55900835D01*
X145925551Y-55900835D01*
X145937803Y-55900233D01*
X145956140Y-55898427D01*
X146443860Y-55898427D01*
X146462197Y-55900233D01*
X146462197Y-55900233D01*
G37*
G36*
X83429196Y-51059958D02*
G01*
X83596486Y-51129252D01*
X83638407Y-51146616D01*
X83665781Y-51157955D01*
X83878702Y-51300224D01*
X84059776Y-51481298D01*
X84202045Y-51694219D01*
X84300042Y-51930804D01*
X84350000Y-52181961D01*
X84350000Y-52438039D01*
X84300042Y-52689196D01*
X84202045Y-52925781D01*
X84059776Y-53138702D01*
X83878702Y-53319776D01*
X83665781Y-53462045D01*
X83429196Y-53560042D01*
X83303617Y-53585021D01*
X83178040Y-53610000D01*
X82921960Y-53610000D01*
X82796383Y-53585021D01*
X82670804Y-53560042D01*
X82434219Y-53462045D01*
X82221298Y-53319776D01*
X82040224Y-53138702D01*
X81897955Y-52925781D01*
X81799958Y-52689196D01*
X81750000Y-52438039D01*
X81750000Y-52181961D01*
X81799958Y-51930804D01*
X81897955Y-51694219D01*
X82040224Y-51481298D01*
X82221298Y-51300224D01*
X82434219Y-51157955D01*
X82461594Y-51146616D01*
X82503514Y-51129252D01*
X82670804Y-51059958D01*
X82921960Y-51010000D01*
X83178040Y-51010000D01*
X83429196Y-51059958D01*
X83429196Y-51059958D01*
G37*
G36*
X140425000Y-52900000D02*
G01*
X137425000Y-52900000D01*
X137425000Y-47900000D01*
X140425000Y-47900000D01*
X140425000Y-52900000D01*
X140425000Y-52900000D01*
G37*
G36*
X148425000Y-51750000D02*
G01*
X145425000Y-51750000D01*
X145425000Y-49350000D01*
X148425000Y-49350000D01*
X148425000Y-51750000D01*
X148425000Y-51750000D01*
G37*
G36*
X134824953Y-49232156D02*
G01*
X134888920Y-49251560D01*
X134947865Y-49283067D01*
X134999532Y-49325468D01*
X135041933Y-49377135D01*
X135073440Y-49436080D01*
X135092844Y-49500047D01*
X135100000Y-49572700D01*
X135100000Y-51057300D01*
X135092844Y-51129953D01*
X135073440Y-51193920D01*
X135041933Y-51252865D01*
X134999532Y-51304532D01*
X134947865Y-51346933D01*
X134888920Y-51378440D01*
X134824953Y-51397844D01*
X134752300Y-51405000D01*
X131547700Y-51405000D01*
X131475047Y-51397844D01*
X131411080Y-51378440D01*
X131352135Y-51346933D01*
X131300468Y-51304532D01*
X131258067Y-51252865D01*
X131226560Y-51193920D01*
X131207156Y-51129953D01*
X131200000Y-51057300D01*
X131200000Y-49572700D01*
X131207156Y-49500047D01*
X131226560Y-49436080D01*
X131258067Y-49377135D01*
X131300468Y-49325468D01*
X131352135Y-49283067D01*
X131411080Y-49251560D01*
X131475047Y-49232156D01*
X131547700Y-49225000D01*
X134752300Y-49225000D01*
X134824953Y-49232156D01*
X134824953Y-49232156D01*
G37*
G36*
X148425000Y-46700000D02*
G01*
X145425000Y-46700000D01*
X145425000Y-44300000D01*
X148425000Y-44300000D01*
X148425000Y-46700000D01*
X148425000Y-46700000D01*
G37*
G36*
X111532290Y-44505619D02*
G01*
X111596689Y-44518429D01*
X111778678Y-44593811D01*
X111942463Y-44703249D01*
X112081751Y-44842537D01*
X112191189Y-45006322D01*
X112266571Y-45188311D01*
X112305000Y-45381509D01*
X112305000Y-45578491D01*
X112266571Y-45771689D01*
X112191189Y-45953678D01*
X112081751Y-46117463D01*
X111942463Y-46256751D01*
X111778678Y-46366189D01*
X111596689Y-46441571D01*
X111532290Y-46454381D01*
X111403493Y-46480000D01*
X111206507Y-46480000D01*
X111077710Y-46454381D01*
X111013311Y-46441571D01*
X110831322Y-46366189D01*
X110667537Y-46256751D01*
X110528249Y-46117463D01*
X110418811Y-45953678D01*
X110343429Y-45771689D01*
X110305000Y-45578491D01*
X110305000Y-45381509D01*
X110343429Y-45188311D01*
X110418811Y-45006322D01*
X110528249Y-44842537D01*
X110667537Y-44703249D01*
X110831322Y-44593811D01*
X111013311Y-44518429D01*
X111077710Y-44505619D01*
X111206507Y-44480000D01*
X111403493Y-44480000D01*
X111532290Y-44505619D01*
X111532290Y-44505619D01*
G37*
G36*
X126772290Y-44505619D02*
G01*
X126836689Y-44518429D01*
X127018678Y-44593811D01*
X127182463Y-44703249D01*
X127321751Y-44842537D01*
X127431189Y-45006322D01*
X127506571Y-45188311D01*
X127545000Y-45381509D01*
X127545000Y-45578491D01*
X127506571Y-45771689D01*
X127431189Y-45953678D01*
X127321751Y-46117463D01*
X127182463Y-46256751D01*
X127018678Y-46366189D01*
X126836689Y-46441571D01*
X126772290Y-46454381D01*
X126643493Y-46480000D01*
X126446507Y-46480000D01*
X126317710Y-46454381D01*
X126253311Y-46441571D01*
X126071322Y-46366189D01*
X125907537Y-46256751D01*
X125768249Y-46117463D01*
X125658811Y-45953678D01*
X125583429Y-45771689D01*
X125545000Y-45578491D01*
X125545000Y-45381509D01*
X125583429Y-45188311D01*
X125658811Y-45006322D01*
X125768249Y-44842537D01*
X125907537Y-44703249D01*
X126071322Y-44593811D01*
X126253311Y-44518429D01*
X126317710Y-44505619D01*
X126446507Y-44480000D01*
X126643493Y-44480000D01*
X126772290Y-44505619D01*
X126772290Y-44505619D01*
G37*
G36*
X134824953Y-44002156D02*
G01*
X134888920Y-44021560D01*
X134947865Y-44053067D01*
X134999532Y-44095468D01*
X135041933Y-44147135D01*
X135073440Y-44206080D01*
X135092844Y-44270047D01*
X135100000Y-44342700D01*
X135100000Y-45827300D01*
X135092844Y-45899953D01*
X135073440Y-45963920D01*
X135041933Y-46022865D01*
X134999532Y-46074532D01*
X134947865Y-46116933D01*
X134888920Y-46148440D01*
X134824953Y-46167844D01*
X134752300Y-46175000D01*
X131547700Y-46175000D01*
X131475047Y-46167844D01*
X131411080Y-46148440D01*
X131352135Y-46116933D01*
X131300468Y-46074532D01*
X131258067Y-46022865D01*
X131226560Y-45963920D01*
X131207156Y-45899953D01*
X131200000Y-45827300D01*
X131200000Y-44342700D01*
X131207156Y-44270047D01*
X131226560Y-44206080D01*
X131258067Y-44147135D01*
X131300468Y-44095468D01*
X131352135Y-44053067D01*
X131411080Y-44021560D01*
X131475047Y-44002156D01*
X131547700Y-43995000D01*
X134752300Y-43995000D01*
X134824953Y-44002156D01*
X134824953Y-44002156D01*
G37*
G36*
X80308707Y-42932597D02*
G01*
X80385836Y-42940193D01*
X80583762Y-43000233D01*
X80583765Y-43000234D01*
X80766170Y-43097732D01*
X80926055Y-43228945D01*
X81057268Y-43388830D01*
X81154766Y-43571235D01*
X81154767Y-43571238D01*
X81214807Y-43769164D01*
X81235080Y-43975000D01*
X81214807Y-44180836D01*
X81187745Y-44270047D01*
X81154766Y-44378765D01*
X81057268Y-44561170D01*
X80926055Y-44721055D01*
X80766170Y-44852268D01*
X80583765Y-44949766D01*
X80583762Y-44949767D01*
X80385836Y-45009807D01*
X80308707Y-45017403D01*
X80231580Y-45025000D01*
X80128420Y-45025000D01*
X80051293Y-45017404D01*
X79974164Y-45009807D01*
X79776238Y-44949767D01*
X79776235Y-44949766D01*
X79593830Y-44852268D01*
X79433945Y-44721055D01*
X79302732Y-44561170D01*
X79205234Y-44378765D01*
X79172255Y-44270047D01*
X79145193Y-44180836D01*
X79124920Y-43975000D01*
X79145193Y-43769164D01*
X79205233Y-43571238D01*
X79205234Y-43571235D01*
X79302732Y-43388830D01*
X79433945Y-43228945D01*
X79593830Y-43097732D01*
X79776235Y-43000234D01*
X79776238Y-43000233D01*
X79974164Y-42940193D01*
X80051293Y-42932597D01*
X80128420Y-42925000D01*
X80231580Y-42925000D01*
X80308707Y-42932597D01*
X80308707Y-42932597D01*
G37*
G36*
X87928707Y-42932597D02*
G01*
X88005836Y-42940193D01*
X88203762Y-43000233D01*
X88203765Y-43000234D01*
X88386170Y-43097732D01*
X88546055Y-43228945D01*
X88677268Y-43388830D01*
X88774766Y-43571235D01*
X88774767Y-43571238D01*
X88834807Y-43769164D01*
X88855080Y-43975000D01*
X88834807Y-44180836D01*
X88807745Y-44270047D01*
X88774766Y-44378765D01*
X88677268Y-44561170D01*
X88546055Y-44721055D01*
X88386170Y-44852268D01*
X88203765Y-44949766D01*
X88203762Y-44949767D01*
X88005836Y-45009807D01*
X87928707Y-45017403D01*
X87851580Y-45025000D01*
X87748420Y-45025000D01*
X87671293Y-45017404D01*
X87594164Y-45009807D01*
X87396238Y-44949767D01*
X87396235Y-44949766D01*
X87213830Y-44852268D01*
X87053945Y-44721055D01*
X86922732Y-44561170D01*
X86825234Y-44378765D01*
X86792255Y-44270047D01*
X86765193Y-44180836D01*
X86744920Y-43975000D01*
X86765193Y-43769164D01*
X86825233Y-43571238D01*
X86825234Y-43571235D01*
X86922732Y-43388830D01*
X87053945Y-43228945D01*
X87213830Y-43097732D01*
X87396235Y-43000234D01*
X87396238Y-43000233D01*
X87594164Y-42940193D01*
X87671293Y-42932597D01*
X87748420Y-42925000D01*
X87851580Y-42925000D01*
X87928707Y-42932597D01*
X87928707Y-42932597D01*
G37*
G36*
X85388707Y-42932597D02*
G01*
X85465836Y-42940193D01*
X85663762Y-43000233D01*
X85663765Y-43000234D01*
X85846170Y-43097732D01*
X86006055Y-43228945D01*
X86137268Y-43388830D01*
X86234766Y-43571235D01*
X86234767Y-43571238D01*
X86294807Y-43769164D01*
X86315080Y-43975000D01*
X86294807Y-44180836D01*
X86267745Y-44270047D01*
X86234766Y-44378765D01*
X86137268Y-44561170D01*
X86006055Y-44721055D01*
X85846170Y-44852268D01*
X85663765Y-44949766D01*
X85663762Y-44949767D01*
X85465836Y-45009807D01*
X85388707Y-45017403D01*
X85311580Y-45025000D01*
X85208420Y-45025000D01*
X85131293Y-45017404D01*
X85054164Y-45009807D01*
X84856238Y-44949767D01*
X84856235Y-44949766D01*
X84673830Y-44852268D01*
X84513945Y-44721055D01*
X84382732Y-44561170D01*
X84285234Y-44378765D01*
X84252255Y-44270047D01*
X84225193Y-44180836D01*
X84204920Y-43975000D01*
X84225193Y-43769164D01*
X84285233Y-43571238D01*
X84285234Y-43571235D01*
X84382732Y-43388830D01*
X84513945Y-43228945D01*
X84673830Y-43097732D01*
X84856235Y-43000234D01*
X84856238Y-43000233D01*
X85054164Y-42940193D01*
X85131293Y-42932597D01*
X85208420Y-42925000D01*
X85311580Y-42925000D01*
X85388707Y-42932597D01*
X85388707Y-42932597D01*
G37*
G36*
X82848707Y-42932597D02*
G01*
X82925836Y-42940193D01*
X83123762Y-43000233D01*
X83123765Y-43000234D01*
X83306170Y-43097732D01*
X83466055Y-43228945D01*
X83597268Y-43388830D01*
X83694766Y-43571235D01*
X83694767Y-43571238D01*
X83754807Y-43769164D01*
X83775080Y-43975000D01*
X83754807Y-44180836D01*
X83727745Y-44270047D01*
X83694766Y-44378765D01*
X83597268Y-44561170D01*
X83466055Y-44721055D01*
X83306170Y-44852268D01*
X83123765Y-44949766D01*
X83123762Y-44949767D01*
X82925836Y-45009807D01*
X82848707Y-45017403D01*
X82771580Y-45025000D01*
X82668420Y-45025000D01*
X82591293Y-45017404D01*
X82514164Y-45009807D01*
X82316238Y-44949767D01*
X82316235Y-44949766D01*
X82133830Y-44852268D01*
X81973945Y-44721055D01*
X81842732Y-44561170D01*
X81745234Y-44378765D01*
X81712255Y-44270047D01*
X81685193Y-44180836D01*
X81664920Y-43975000D01*
X81685193Y-43769164D01*
X81745233Y-43571238D01*
X81745234Y-43571235D01*
X81842732Y-43388830D01*
X81973945Y-43228945D01*
X82133830Y-43097732D01*
X82316235Y-43000234D01*
X82316238Y-43000233D01*
X82514164Y-42940193D01*
X82591293Y-42932597D01*
X82668420Y-42925000D01*
X82771580Y-42925000D01*
X82848707Y-42932597D01*
X82848707Y-42932597D01*
G37*
G36*
X77768707Y-42932597D02*
G01*
X77845836Y-42940193D01*
X78043762Y-43000233D01*
X78043765Y-43000234D01*
X78226170Y-43097732D01*
X78386055Y-43228945D01*
X78517268Y-43388830D01*
X78614766Y-43571235D01*
X78614767Y-43571238D01*
X78674807Y-43769164D01*
X78695080Y-43975000D01*
X78674807Y-44180836D01*
X78647745Y-44270047D01*
X78614766Y-44378765D01*
X78517268Y-44561170D01*
X78386055Y-44721055D01*
X78226170Y-44852268D01*
X78043765Y-44949766D01*
X78043762Y-44949767D01*
X77845836Y-45009807D01*
X77768707Y-45017404D01*
X77691580Y-45025000D01*
X77588420Y-45025000D01*
X77511293Y-45017404D01*
X77434164Y-45009807D01*
X77236238Y-44949767D01*
X77236235Y-44949766D01*
X77053830Y-44852268D01*
X76893945Y-44721055D01*
X76762732Y-44561170D01*
X76665234Y-44378765D01*
X76632255Y-44270047D01*
X76605193Y-44180836D01*
X76584920Y-43975000D01*
X76605193Y-43769164D01*
X76665233Y-43571238D01*
X76665234Y-43571235D01*
X76762732Y-43388830D01*
X76893945Y-43228945D01*
X77053830Y-43097732D01*
X77236235Y-43000234D01*
X77236238Y-43000233D01*
X77434164Y-42940193D01*
X77511293Y-42932597D01*
X77588420Y-42925000D01*
X77691580Y-42925000D01*
X77768707Y-42932597D01*
X77768707Y-42932597D01*
G37*
G36*
X76150000Y-45025000D02*
G01*
X74050000Y-45025000D01*
X74050000Y-42925000D01*
X76150000Y-42925000D01*
X76150000Y-45025000D01*
X76150000Y-45025000D01*
G37*
G36*
X148425000Y-43950000D02*
G01*
X145425000Y-43950000D01*
X145425000Y-41550000D01*
X148425000Y-41550000D01*
X148425000Y-43950000D01*
X148425000Y-43950000D01*
G37*
G36*
X140425000Y-43950000D02*
G01*
X137425000Y-43950000D01*
X137425000Y-41550000D01*
X140425000Y-41550000D01*
X140425000Y-43950000D01*
X140425000Y-43950000D01*
G37*
G36*
X111532290Y-41965619D02*
G01*
X111596689Y-41978429D01*
X111778678Y-42053811D01*
X111942463Y-42163249D01*
X112081751Y-42302537D01*
X112191189Y-42466322D01*
X112242201Y-42589477D01*
X112266571Y-42648312D01*
X112305000Y-42841507D01*
X112305000Y-43038493D01*
X112293216Y-43097733D01*
X112266571Y-43231689D01*
X112191189Y-43413678D01*
X112081751Y-43577463D01*
X111942463Y-43716751D01*
X111778678Y-43826189D01*
X111596689Y-43901571D01*
X111532290Y-43914381D01*
X111403493Y-43940000D01*
X111206507Y-43940000D01*
X111077710Y-43914381D01*
X111013311Y-43901571D01*
X110831322Y-43826189D01*
X110667537Y-43716751D01*
X110528249Y-43577463D01*
X110418811Y-43413678D01*
X110343429Y-43231689D01*
X110316784Y-43097733D01*
X110305000Y-43038493D01*
X110305000Y-42841507D01*
X110343429Y-42648312D01*
X110367799Y-42589477D01*
X110418811Y-42466322D01*
X110528249Y-42302537D01*
X110667537Y-42163249D01*
X110831322Y-42053811D01*
X111013311Y-41978429D01*
X111077710Y-41965619D01*
X111206507Y-41940000D01*
X111403493Y-41940000D01*
X111532290Y-41965619D01*
X111532290Y-41965619D01*
G37*
G36*
X126772290Y-41965619D02*
G01*
X126836689Y-41978429D01*
X127018678Y-42053811D01*
X127182463Y-42163249D01*
X127321751Y-42302537D01*
X127431189Y-42466322D01*
X127482201Y-42589477D01*
X127506571Y-42648312D01*
X127545000Y-42841507D01*
X127545000Y-43038493D01*
X127533216Y-43097733D01*
X127506571Y-43231689D01*
X127431189Y-43413678D01*
X127321751Y-43577463D01*
X127182463Y-43716751D01*
X127018678Y-43826189D01*
X126836689Y-43901571D01*
X126772290Y-43914381D01*
X126643493Y-43940000D01*
X126446507Y-43940000D01*
X126317710Y-43914381D01*
X126253311Y-43901571D01*
X126071322Y-43826189D01*
X125907537Y-43716751D01*
X125768249Y-43577463D01*
X125658811Y-43413678D01*
X125583429Y-43231689D01*
X125556784Y-43097733D01*
X125545000Y-43038493D01*
X125545000Y-42841507D01*
X125583429Y-42648312D01*
X125607799Y-42589477D01*
X125658811Y-42466322D01*
X125768249Y-42302537D01*
X125907537Y-42163249D01*
X126071322Y-42053811D01*
X126253311Y-41978429D01*
X126317710Y-41965619D01*
X126446507Y-41940000D01*
X126643493Y-41940000D01*
X126772290Y-41965619D01*
X126772290Y-41965619D01*
G37*
G36*
X102950009Y-42314091D02*
G01*
X102985429Y-42321136D01*
X103035476Y-42341866D01*
X103085524Y-42362597D01*
X103175602Y-42422785D01*
X103252215Y-42499398D01*
X103312403Y-42589476D01*
X103353864Y-42689572D01*
X103375000Y-42795828D01*
X103375000Y-42904172D01*
X103353864Y-43010428D01*
X103312403Y-43110524D01*
X103252215Y-43200602D01*
X103175602Y-43277215D01*
X103085524Y-43337403D01*
X103035476Y-43358134D01*
X102985429Y-43378864D01*
X102950009Y-43385909D01*
X102879172Y-43400000D01*
X102770828Y-43400000D01*
X102699991Y-43385909D01*
X102664571Y-43378864D01*
X102614524Y-43358133D01*
X102564476Y-43337403D01*
X102474398Y-43277215D01*
X102397785Y-43200602D01*
X102337597Y-43110524D01*
X102296136Y-43010428D01*
X102275000Y-42904172D01*
X102275000Y-42795828D01*
X102296136Y-42689572D01*
X102337597Y-42589476D01*
X102397785Y-42499398D01*
X102474398Y-42422785D01*
X102564476Y-42362597D01*
X102614524Y-42341866D01*
X102664571Y-42321136D01*
X102699991Y-42314091D01*
X102770828Y-42300000D01*
X102879172Y-42300000D01*
X102950009Y-42314091D01*
X102950009Y-42314091D01*
G37*
G36*
X104650009Y-42314091D02*
G01*
X104685429Y-42321136D01*
X104735476Y-42341866D01*
X104785524Y-42362597D01*
X104875602Y-42422785D01*
X104952215Y-42499398D01*
X105012403Y-42589476D01*
X105053864Y-42689572D01*
X105075000Y-42795828D01*
X105075000Y-42904172D01*
X105053864Y-43010428D01*
X105012403Y-43110524D01*
X104952215Y-43200602D01*
X104875602Y-43277215D01*
X104785524Y-43337403D01*
X104735476Y-43358134D01*
X104685429Y-43378864D01*
X104650009Y-43385909D01*
X104579172Y-43400000D01*
X104470828Y-43400000D01*
X104399991Y-43385909D01*
X104364571Y-43378864D01*
X104314524Y-43358133D01*
X104264476Y-43337403D01*
X104174398Y-43277215D01*
X104097785Y-43200602D01*
X104037597Y-43110524D01*
X103996136Y-43010428D01*
X103975000Y-42904172D01*
X103975000Y-42795828D01*
X103996136Y-42689572D01*
X104037597Y-42589476D01*
X104097785Y-42499398D01*
X104174398Y-42422785D01*
X104264476Y-42362597D01*
X104314524Y-42341866D01*
X104364571Y-42321136D01*
X104399991Y-42314091D01*
X104470828Y-42300000D01*
X104579172Y-42300000D01*
X104650009Y-42314091D01*
X104650009Y-42314091D01*
G37*
M02*
