G04 #@! TF.GenerationSoftware,KiCad,Pcbnew,(5.1.0-0)*
G04 #@! TF.CreationDate,2019-05-12T16:12:14+09:00*
G04 #@! TF.ProjectId,split_EC_left,73706c69-745f-4454-935f-6c6566742e6b,rev?*
G04 #@! TF.SameCoordinates,Original*
G04 #@! TF.FileFunction,Legend,Top*
G04 #@! TF.FilePolarity,Positive*
%FSLAX46Y46*%
G04 Gerber Fmt 4.6, Leading zero omitted, Abs format (unit mm)*
G04 Created by KiCad (PCBNEW (5.1.0-0)) date 2019-05-12 16:12:14*
%MOMM*%
%LPD*%
G04 APERTURE LIST*
%ADD10C,0.200000*%
%ADD11C,0.150000*%
%ADD12C,0.120000*%
G04 APERTURE END LIST*
D10*
X135952380Y-105379761D02*
X136047619Y-105427380D01*
X136238095Y-105427380D01*
X136333333Y-105379761D01*
X136380952Y-105284523D01*
X136380952Y-105236904D01*
X136333333Y-105141666D01*
X136238095Y-105094047D01*
X136095238Y-105094047D01*
X136000000Y-105046428D01*
X135952380Y-104951190D01*
X135952380Y-104903571D01*
X136000000Y-104808333D01*
X136095238Y-104760714D01*
X136238095Y-104760714D01*
X136333333Y-104808333D01*
X136809523Y-104760714D02*
X136809523Y-105760714D01*
X136809523Y-104808333D02*
X136904761Y-104760714D01*
X137095238Y-104760714D01*
X137190476Y-104808333D01*
X137238095Y-104855952D01*
X137285714Y-104951190D01*
X137285714Y-105236904D01*
X137238095Y-105332142D01*
X137190476Y-105379761D01*
X137095238Y-105427380D01*
X136904761Y-105427380D01*
X136809523Y-105379761D01*
X137857142Y-105427380D02*
X137761904Y-105379761D01*
X137714285Y-105284523D01*
X137714285Y-104427380D01*
X138238095Y-105427380D02*
X138238095Y-104760714D01*
X138238095Y-104427380D02*
X138190476Y-104475000D01*
X138238095Y-104522619D01*
X138285714Y-104475000D01*
X138238095Y-104427380D01*
X138238095Y-104522619D01*
X138571428Y-104760714D02*
X138952380Y-104760714D01*
X138714285Y-104427380D02*
X138714285Y-105284523D01*
X138761904Y-105379761D01*
X138857142Y-105427380D01*
X138952380Y-105427380D01*
X140047619Y-104903571D02*
X140380952Y-104903571D01*
X140523809Y-105427380D02*
X140047619Y-105427380D01*
X140047619Y-104427380D01*
X140523809Y-104427380D01*
X141523809Y-105332142D02*
X141476190Y-105379761D01*
X141333333Y-105427380D01*
X141238095Y-105427380D01*
X141095238Y-105379761D01*
X141000000Y-105284523D01*
X140952380Y-105189285D01*
X140904761Y-104998809D01*
X140904761Y-104855952D01*
X140952380Y-104665476D01*
X141000000Y-104570238D01*
X141095238Y-104475000D01*
X141238095Y-104427380D01*
X141333333Y-104427380D01*
X141476190Y-104475000D01*
X141523809Y-104522619D01*
X142857142Y-105427380D02*
X142761904Y-105379761D01*
X142714285Y-105284523D01*
X142714285Y-104427380D01*
X143619047Y-105379761D02*
X143523809Y-105427380D01*
X143333333Y-105427380D01*
X143238095Y-105379761D01*
X143190476Y-105284523D01*
X143190476Y-104903571D01*
X143238095Y-104808333D01*
X143333333Y-104760714D01*
X143523809Y-104760714D01*
X143619047Y-104808333D01*
X143666666Y-104903571D01*
X143666666Y-104998809D01*
X143190476Y-105094047D01*
X143952380Y-104760714D02*
X144333333Y-104760714D01*
X144095238Y-105427380D02*
X144095238Y-104570238D01*
X144142857Y-104475000D01*
X144238095Y-104427380D01*
X144333333Y-104427380D01*
X144523809Y-104760714D02*
X144904761Y-104760714D01*
X144666666Y-104427380D02*
X144666666Y-105284523D01*
X144714285Y-105379761D01*
X144809523Y-105427380D01*
X144904761Y-105427380D01*
X145952380Y-105379761D02*
X146047619Y-105427380D01*
X146238095Y-105427380D01*
X146333333Y-105379761D01*
X146380952Y-105284523D01*
X146380952Y-105236904D01*
X146333333Y-105141666D01*
X146238095Y-105094047D01*
X146095238Y-105094047D01*
X146000000Y-105046428D01*
X145952380Y-104951190D01*
X145952380Y-104903571D01*
X146000000Y-104808333D01*
X146095238Y-104760714D01*
X146238095Y-104760714D01*
X146333333Y-104808333D01*
X146809523Y-105427380D02*
X146809523Y-104760714D01*
X146809523Y-104427380D02*
X146761904Y-104475000D01*
X146809523Y-104522619D01*
X146857142Y-104475000D01*
X146809523Y-104427380D01*
X146809523Y-104522619D01*
X147714285Y-105427380D02*
X147714285Y-104427380D01*
X147714285Y-105379761D02*
X147619047Y-105427380D01*
X147428571Y-105427380D01*
X147333333Y-105379761D01*
X147285714Y-105332142D01*
X147238095Y-105236904D01*
X147238095Y-104951190D01*
X147285714Y-104855952D01*
X147333333Y-104808333D01*
X147428571Y-104760714D01*
X147619047Y-104760714D01*
X147714285Y-104808333D01*
X148571428Y-105379761D02*
X148476190Y-105427380D01*
X148285714Y-105427380D01*
X148190476Y-105379761D01*
X148142857Y-105284523D01*
X148142857Y-104903571D01*
X148190476Y-104808333D01*
X148285714Y-104760714D01*
X148476190Y-104760714D01*
X148571428Y-104808333D01*
X148619047Y-104903571D01*
X148619047Y-104998809D01*
X148142857Y-105094047D01*
X149809523Y-105427380D02*
X149809523Y-104760714D01*
X149809523Y-104951190D02*
X149857142Y-104855952D01*
X149904761Y-104808333D01*
X150000000Y-104760714D01*
X150095238Y-104760714D01*
X150809523Y-105379761D02*
X150714285Y-105427380D01*
X150523809Y-105427380D01*
X150428571Y-105379761D01*
X150380952Y-105284523D01*
X150380952Y-104903571D01*
X150428571Y-104808333D01*
X150523809Y-104760714D01*
X150714285Y-104760714D01*
X150809523Y-104808333D01*
X150857142Y-104903571D01*
X150857142Y-104998809D01*
X150380952Y-105094047D01*
X151190476Y-104760714D02*
X151428571Y-105427380D01*
X151666666Y-104760714D01*
X152047619Y-105332142D02*
X152095238Y-105379761D01*
X152047619Y-105427380D01*
X152000000Y-105379761D01*
X152047619Y-105332142D01*
X152047619Y-105427380D01*
X153047619Y-105427380D02*
X152476190Y-105427380D01*
X152761904Y-105427380D02*
X152761904Y-104427380D01*
X152666666Y-104570238D01*
X152571428Y-104665476D01*
X152476190Y-104713095D01*
X138166666Y-106365476D02*
X138071428Y-106317857D01*
X137880952Y-106317857D01*
X137785714Y-106365476D01*
X137690476Y-106460714D01*
X137642857Y-106555952D01*
X137642857Y-106746428D01*
X137690476Y-106841666D01*
X137785714Y-106936904D01*
X137880952Y-106984523D01*
X138071428Y-106984523D01*
X138166666Y-106936904D01*
X137976190Y-105984523D02*
X137738095Y-106032142D01*
X137500000Y-106175000D01*
X137357142Y-106413095D01*
X137309523Y-106651190D01*
X137357142Y-106889285D01*
X137500000Y-107127380D01*
X137738095Y-107270238D01*
X137976190Y-107317857D01*
X138214285Y-107270238D01*
X138452380Y-107127380D01*
X138595238Y-106889285D01*
X138642857Y-106651190D01*
X138595238Y-106413095D01*
X138452380Y-106175000D01*
X138214285Y-106032142D01*
X137976190Y-105984523D01*
X140166666Y-106603571D02*
X140309523Y-106651190D01*
X140357142Y-106698809D01*
X140404761Y-106794047D01*
X140404761Y-106936904D01*
X140357142Y-107032142D01*
X140309523Y-107079761D01*
X140214285Y-107127380D01*
X139833333Y-107127380D01*
X139833333Y-106127380D01*
X140166666Y-106127380D01*
X140261904Y-106175000D01*
X140309523Y-106222619D01*
X140357142Y-106317857D01*
X140357142Y-106413095D01*
X140309523Y-106508333D01*
X140261904Y-106555952D01*
X140166666Y-106603571D01*
X139833333Y-106603571D01*
X140833333Y-106746428D02*
X141595238Y-106746428D01*
X142023809Y-107079761D02*
X142166666Y-107127380D01*
X142404761Y-107127380D01*
X142500000Y-107079761D01*
X142547619Y-107032142D01*
X142595238Y-106936904D01*
X142595238Y-106841666D01*
X142547619Y-106746428D01*
X142500000Y-106698809D01*
X142404761Y-106651190D01*
X142214285Y-106603571D01*
X142119047Y-106555952D01*
X142071428Y-106508333D01*
X142023809Y-106413095D01*
X142023809Y-106317857D01*
X142071428Y-106222619D01*
X142119047Y-106175000D01*
X142214285Y-106127380D01*
X142452380Y-106127380D01*
X142595238Y-106175000D01*
X142976190Y-106841666D02*
X143452380Y-106841666D01*
X142880952Y-107127380D02*
X143214285Y-106127380D01*
X143547619Y-107127380D01*
X143880952Y-107127380D02*
X143880952Y-106127380D01*
X144452380Y-107127380D02*
X144023809Y-106555952D01*
X144452380Y-106127380D02*
X143880952Y-106698809D01*
X144833333Y-106841666D02*
X145309523Y-106841666D01*
X144738095Y-107127380D02*
X145071428Y-106127380D01*
X145404761Y-107127380D01*
X145595238Y-106127380D02*
X146166666Y-106127380D01*
X145880952Y-107127380D02*
X145880952Y-106127380D01*
X146500000Y-106127380D02*
X146500000Y-106936904D01*
X146547619Y-107032142D01*
X146595238Y-107079761D01*
X146690476Y-107127380D01*
X146880952Y-107127380D01*
X146976190Y-107079761D01*
X147023809Y-107032142D01*
X147071428Y-106936904D01*
X147071428Y-106127380D01*
X148261904Y-106222619D02*
X148309523Y-106175000D01*
X148404761Y-106127380D01*
X148642857Y-106127380D01*
X148738095Y-106175000D01*
X148785714Y-106222619D01*
X148833333Y-106317857D01*
X148833333Y-106413095D01*
X148785714Y-106555952D01*
X148214285Y-107127380D01*
X148833333Y-107127380D01*
X149452380Y-106127380D02*
X149547619Y-106127380D01*
X149642857Y-106175000D01*
X149690476Y-106222619D01*
X149738095Y-106317857D01*
X149785714Y-106508333D01*
X149785714Y-106746428D01*
X149738095Y-106936904D01*
X149690476Y-107032142D01*
X149642857Y-107079761D01*
X149547619Y-107127380D01*
X149452380Y-107127380D01*
X149357142Y-107079761D01*
X149309523Y-107032142D01*
X149261904Y-106936904D01*
X149214285Y-106746428D01*
X149214285Y-106508333D01*
X149261904Y-106317857D01*
X149309523Y-106222619D01*
X149357142Y-106175000D01*
X149452380Y-106127380D01*
X150738095Y-107127380D02*
X150166666Y-107127380D01*
X150452380Y-107127380D02*
X150452380Y-106127380D01*
X150357142Y-106270238D01*
X150261904Y-106365476D01*
X150166666Y-106413095D01*
X151214285Y-107127380D02*
X151404761Y-107127380D01*
X151500000Y-107079761D01*
X151547619Y-107032142D01*
X151642857Y-106889285D01*
X151690476Y-106698809D01*
X151690476Y-106317857D01*
X151642857Y-106222619D01*
X151595238Y-106175000D01*
X151500000Y-106127380D01*
X151309523Y-106127380D01*
X151214285Y-106175000D01*
X151166666Y-106222619D01*
X151119047Y-106317857D01*
X151119047Y-106555952D01*
X151166666Y-106651190D01*
X151214285Y-106698809D01*
X151309523Y-106746428D01*
X151500000Y-106746428D01*
X151595238Y-106698809D01*
X151642857Y-106651190D01*
X151690476Y-106555952D01*
D11*
X90250000Y-64225000D02*
X90250000Y-64425000D01*
X92650000Y-64225000D02*
X90250000Y-64225000D01*
X92650000Y-64425000D02*
X92650000Y-64225000D01*
X90250000Y-65825000D02*
X90250000Y-65625000D01*
X92650000Y-65825000D02*
X90250000Y-65825000D01*
X92650000Y-65625000D02*
X92650000Y-65825000D01*
X91000000Y-62175000D02*
X92100000Y-62175000D01*
X91000000Y-60275000D02*
X92100000Y-60275000D01*
X81011252Y-64275000D02*
X80488748Y-64275000D01*
X81011252Y-65775000D02*
X80488748Y-65775000D01*
X80900000Y-61775000D02*
X80600000Y-61775000D01*
X80900000Y-60675000D02*
X80600000Y-60675000D01*
X79175000Y-81775000D02*
X78875000Y-81775000D01*
X79175000Y-82875000D02*
X78875000Y-82875000D01*
D12*
X87500000Y-62075000D02*
X84350000Y-62075000D01*
X87500000Y-60375000D02*
X84350000Y-60375000D01*
X87500000Y-62075000D02*
X87500000Y-60375000D01*
D11*
X80300000Y-80250000D02*
X85800000Y-80250000D01*
X80300000Y-69750000D02*
X85775000Y-69750000D01*
X80300000Y-69750000D02*
X80300000Y-71250000D01*
X85800000Y-69750000D02*
X85800000Y-71250000D01*
X85800000Y-80250000D02*
X85800000Y-78750000D01*
X80300000Y-80250000D02*
X80300000Y-78750000D01*
D12*
X138900000Y-56550000D02*
G75*
G02X139600000Y-55850000I700000J0D01*
G01*
X140200000Y-55850000D02*
G75*
G02X140900000Y-56550000I0J-700000D01*
G01*
X140900000Y-57950000D02*
G75*
G02X140200000Y-58650000I-700000J0D01*
G01*
X139600000Y-58650000D02*
G75*
G02X138900000Y-57950000I0J700000D01*
G01*
X140200000Y-58650000D02*
X139600000Y-58650000D01*
X140900000Y-56550000D02*
X140900000Y-57950000D01*
X139600000Y-55850000D02*
X140200000Y-55850000D01*
X138900000Y-57950000D02*
X138900000Y-56550000D01*
X142025000Y-57950000D02*
X142025000Y-56550000D01*
X142725000Y-55850000D02*
X143325000Y-55850000D01*
X144025000Y-56550000D02*
X144025000Y-57950000D01*
X143325000Y-58650000D02*
X142725000Y-58650000D01*
X142725000Y-58650000D02*
G75*
G02X142025000Y-57950000I0J700000D01*
G01*
X144025000Y-57950000D02*
G75*
G02X143325000Y-58650000I-700000J0D01*
G01*
X143325000Y-55850000D02*
G75*
G02X144025000Y-56550000I0J-700000D01*
G01*
X142025000Y-56550000D02*
G75*
G02X142725000Y-55850000I700000J0D01*
G01*
X145200000Y-56550000D02*
G75*
G02X145900000Y-55850000I700000J0D01*
G01*
X146500000Y-55850000D02*
G75*
G02X147200000Y-56550000I0J-700000D01*
G01*
X147200000Y-57950000D02*
G75*
G02X146500000Y-58650000I-700000J0D01*
G01*
X145900000Y-58650000D02*
G75*
G02X145200000Y-57950000I0J700000D01*
G01*
X146500000Y-58650000D02*
X145900000Y-58650000D01*
X147200000Y-56550000D02*
X147200000Y-57950000D01*
X145900000Y-55850000D02*
X146500000Y-55850000D01*
X145200000Y-57950000D02*
X145200000Y-56550000D01*
X86250000Y-66075000D02*
X84950000Y-66075000D01*
X86250000Y-63975000D02*
X84950000Y-63975000D01*
X131440000Y-49086252D02*
X131440000Y-46313748D01*
X134860000Y-49086252D02*
X134860000Y-46313748D01*
D11*
X140450000Y-61571267D02*
X140450000Y-61228733D01*
X139350000Y-61571267D02*
X139350000Y-61228733D01*
X142475000Y-61571267D02*
X142475000Y-61228733D01*
X143575000Y-61571267D02*
X143575000Y-61228733D01*
X79300000Y-89725000D02*
X79325000Y-89725000D01*
X79300000Y-85575000D02*
X79405000Y-85575000D01*
X89450000Y-85575000D02*
X89345000Y-85575000D01*
X89450000Y-89725000D02*
X89345000Y-89725000D01*
X79300000Y-89725000D02*
X79300000Y-85575000D01*
X89450000Y-89725000D02*
X89450000Y-85575000D01*
X79325000Y-89725000D02*
X79325000Y-91100000D01*
D12*
X76370000Y-45305000D02*
X76370000Y-42645000D01*
X89130000Y-45305000D02*
X76370000Y-45305000D01*
X89130000Y-42645000D02*
X89130000Y-45305000D01*
X76370000Y-42645000D02*
X89130000Y-42645000D01*
D11*
X90259523Y-67777380D02*
X90259523Y-66777380D01*
X90830952Y-67777380D01*
X90830952Y-66777380D01*
X91640476Y-67253571D02*
X91307142Y-67253571D01*
X91307142Y-67777380D02*
X91307142Y-66777380D01*
X91783333Y-66777380D01*
X92688095Y-67777380D02*
X92116666Y-67777380D01*
X92402380Y-67777380D02*
X92402380Y-66777380D01*
X92307142Y-66920238D01*
X92211904Y-67015476D01*
X92116666Y-67063095D01*
X149241666Y-42152380D02*
X149241666Y-42866666D01*
X149194047Y-43009523D01*
X149098809Y-43104761D01*
X148955952Y-43152380D01*
X148860714Y-43152380D01*
X150146428Y-42485714D02*
X150146428Y-43152380D01*
X149908333Y-42104761D02*
X149670238Y-42819047D01*
X150289285Y-42819047D01*
X91383333Y-59762142D02*
X91335714Y-59809761D01*
X91192857Y-59857380D01*
X91097619Y-59857380D01*
X90954761Y-59809761D01*
X90859523Y-59714523D01*
X90811904Y-59619285D01*
X90764285Y-59428809D01*
X90764285Y-59285952D01*
X90811904Y-59095476D01*
X90859523Y-59000238D01*
X90954761Y-58905000D01*
X91097619Y-58857380D01*
X91192857Y-58857380D01*
X91335714Y-58905000D01*
X91383333Y-58952619D01*
X92335714Y-59857380D02*
X91764285Y-59857380D01*
X92050000Y-59857380D02*
X92050000Y-58857380D01*
X91954761Y-59000238D01*
X91859523Y-59095476D01*
X91764285Y-59143095D01*
X80583333Y-67032142D02*
X80535714Y-67079761D01*
X80392857Y-67127380D01*
X80297619Y-67127380D01*
X80154761Y-67079761D01*
X80059523Y-66984523D01*
X80011904Y-66889285D01*
X79964285Y-66698809D01*
X79964285Y-66555952D01*
X80011904Y-66365476D01*
X80059523Y-66270238D01*
X80154761Y-66175000D01*
X80297619Y-66127380D01*
X80392857Y-66127380D01*
X80535714Y-66175000D01*
X80583333Y-66222619D01*
X80964285Y-66222619D02*
X81011904Y-66175000D01*
X81107142Y-66127380D01*
X81345238Y-66127380D01*
X81440476Y-66175000D01*
X81488095Y-66222619D01*
X81535714Y-66317857D01*
X81535714Y-66413095D01*
X81488095Y-66555952D01*
X80916666Y-67127380D01*
X81535714Y-67127380D01*
X80583333Y-63012142D02*
X80535714Y-63059761D01*
X80392857Y-63107380D01*
X80297619Y-63107380D01*
X80154761Y-63059761D01*
X80059523Y-62964523D01*
X80011904Y-62869285D01*
X79964285Y-62678809D01*
X79964285Y-62535952D01*
X80011904Y-62345476D01*
X80059523Y-62250238D01*
X80154761Y-62155000D01*
X80297619Y-62107380D01*
X80392857Y-62107380D01*
X80535714Y-62155000D01*
X80583333Y-62202619D01*
X80916666Y-62107380D02*
X81535714Y-62107380D01*
X81202380Y-62488333D01*
X81345238Y-62488333D01*
X81440476Y-62535952D01*
X81488095Y-62583571D01*
X81535714Y-62678809D01*
X81535714Y-62916904D01*
X81488095Y-63012142D01*
X81440476Y-63059761D01*
X81345238Y-63107380D01*
X81059523Y-63107380D01*
X80964285Y-63059761D01*
X80916666Y-63012142D01*
X76058333Y-82682142D02*
X76010714Y-82729761D01*
X75867857Y-82777380D01*
X75772619Y-82777380D01*
X75629761Y-82729761D01*
X75534523Y-82634523D01*
X75486904Y-82539285D01*
X75439285Y-82348809D01*
X75439285Y-82205952D01*
X75486904Y-82015476D01*
X75534523Y-81920238D01*
X75629761Y-81825000D01*
X75772619Y-81777380D01*
X75867857Y-81777380D01*
X76010714Y-81825000D01*
X76058333Y-81872619D01*
X76915476Y-82110714D02*
X76915476Y-82777380D01*
X76677380Y-81729761D02*
X76439285Y-82444047D01*
X77058333Y-82444047D01*
X84861904Y-63527380D02*
X84861904Y-62527380D01*
X85100000Y-62527380D01*
X85242857Y-62575000D01*
X85338095Y-62670238D01*
X85385714Y-62765476D01*
X85433333Y-62955952D01*
X85433333Y-63098809D01*
X85385714Y-63289285D01*
X85338095Y-63384523D01*
X85242857Y-63479761D01*
X85100000Y-63527380D01*
X84861904Y-63527380D01*
X86385714Y-63527380D02*
X85814285Y-63527380D01*
X86100000Y-63527380D02*
X86100000Y-62527380D01*
X86004761Y-62670238D01*
X85909523Y-62765476D01*
X85814285Y-62813095D01*
X82716666Y-68202380D02*
X82716666Y-68916666D01*
X82669047Y-69059523D01*
X82573809Y-69154761D01*
X82430952Y-69202380D01*
X82335714Y-69202380D01*
X83097619Y-68202380D02*
X83716666Y-68202380D01*
X83383333Y-68583333D01*
X83526190Y-68583333D01*
X83621428Y-68630952D01*
X83669047Y-68678571D01*
X83716666Y-68773809D01*
X83716666Y-69011904D01*
X83669047Y-69107142D01*
X83621428Y-69154761D01*
X83526190Y-69202380D01*
X83240476Y-69202380D01*
X83145238Y-69154761D01*
X83097619Y-69107142D01*
X139091666Y-54252380D02*
X139091666Y-54966666D01*
X139044047Y-55109523D01*
X138948809Y-55204761D01*
X138805952Y-55252380D01*
X138710714Y-55252380D01*
X139567857Y-55252380D02*
X139567857Y-54252380D01*
X139948809Y-54252380D01*
X140044047Y-54300000D01*
X140091666Y-54347619D01*
X140139285Y-54442857D01*
X140139285Y-54585714D01*
X140091666Y-54680952D01*
X140044047Y-54728571D01*
X139948809Y-54776190D01*
X139567857Y-54776190D01*
X141091666Y-55252380D02*
X140520238Y-55252380D01*
X140805952Y-55252380D02*
X140805952Y-54252380D01*
X140710714Y-54395238D01*
X140615476Y-54490476D01*
X140520238Y-54538095D01*
X142241666Y-54302380D02*
X142241666Y-55016666D01*
X142194047Y-55159523D01*
X142098809Y-55254761D01*
X141955952Y-55302380D01*
X141860714Y-55302380D01*
X142717857Y-55302380D02*
X142717857Y-54302380D01*
X143098809Y-54302380D01*
X143194047Y-54350000D01*
X143241666Y-54397619D01*
X143289285Y-54492857D01*
X143289285Y-54635714D01*
X143241666Y-54730952D01*
X143194047Y-54778571D01*
X143098809Y-54826190D01*
X142717857Y-54826190D01*
X143670238Y-54397619D02*
X143717857Y-54350000D01*
X143813095Y-54302380D01*
X144051190Y-54302380D01*
X144146428Y-54350000D01*
X144194047Y-54397619D01*
X144241666Y-54492857D01*
X144241666Y-54588095D01*
X144194047Y-54730952D01*
X143622619Y-55302380D01*
X144241666Y-55302380D01*
X145366666Y-54377380D02*
X145366666Y-55091666D01*
X145319047Y-55234523D01*
X145223809Y-55329761D01*
X145080952Y-55377380D01*
X144985714Y-55377380D01*
X145842857Y-55377380D02*
X145842857Y-54377380D01*
X146223809Y-54377380D01*
X146319047Y-54425000D01*
X146366666Y-54472619D01*
X146414285Y-54567857D01*
X146414285Y-54710714D01*
X146366666Y-54805952D01*
X146319047Y-54853571D01*
X146223809Y-54901190D01*
X145842857Y-54901190D01*
X146747619Y-54377380D02*
X147366666Y-54377380D01*
X147033333Y-54758333D01*
X147176190Y-54758333D01*
X147271428Y-54805952D01*
X147319047Y-54853571D01*
X147366666Y-54948809D01*
X147366666Y-55186904D01*
X147319047Y-55282142D01*
X147271428Y-55329761D01*
X147176190Y-55377380D01*
X146890476Y-55377380D01*
X146795238Y-55329761D01*
X146747619Y-55282142D01*
X85433333Y-67677380D02*
X84957142Y-67677380D01*
X84957142Y-66677380D01*
X86290476Y-67677380D02*
X85719047Y-67677380D01*
X86004761Y-67677380D02*
X86004761Y-66677380D01*
X85909523Y-66820238D01*
X85814285Y-66915476D01*
X85719047Y-66963095D01*
X81816666Y-101027380D02*
X81816666Y-100027380D01*
X82150000Y-100741666D01*
X82483333Y-100027380D01*
X82483333Y-101027380D01*
X82959523Y-101027380D02*
X82959523Y-100027380D01*
X82959523Y-100503571D02*
X83530952Y-100503571D01*
X83530952Y-101027380D02*
X83530952Y-100027380D01*
X84530952Y-101027380D02*
X83959523Y-101027380D01*
X84245238Y-101027380D02*
X84245238Y-100027380D01*
X84150000Y-100170238D01*
X84054761Y-100265476D01*
X83959523Y-100313095D01*
X81716666Y-49562380D02*
X81716666Y-48562380D01*
X82050000Y-49276666D01*
X82383333Y-48562380D01*
X82383333Y-49562380D01*
X82859523Y-49562380D02*
X82859523Y-48562380D01*
X82859523Y-49038571D02*
X83430952Y-49038571D01*
X83430952Y-49562380D02*
X83430952Y-48562380D01*
X83859523Y-48657619D02*
X83907142Y-48610000D01*
X84002380Y-48562380D01*
X84240476Y-48562380D01*
X84335714Y-48610000D01*
X84383333Y-48657619D01*
X84430952Y-48752857D01*
X84430952Y-48848095D01*
X84383333Y-48990952D01*
X83811904Y-49562380D01*
X84430952Y-49562380D01*
X131555952Y-52702380D02*
X131555952Y-51702380D01*
X131936904Y-51702380D01*
X132032142Y-51750000D01*
X132079761Y-51797619D01*
X132127380Y-51892857D01*
X132127380Y-52035714D01*
X132079761Y-52130952D01*
X132032142Y-52178571D01*
X131936904Y-52226190D01*
X131555952Y-52226190D01*
X132413095Y-51702380D02*
X132984523Y-51702380D01*
X132698809Y-52702380D02*
X132698809Y-51702380D01*
X133889285Y-52607142D02*
X133841666Y-52654761D01*
X133698809Y-52702380D01*
X133603571Y-52702380D01*
X133460714Y-52654761D01*
X133365476Y-52559523D01*
X133317857Y-52464285D01*
X133270238Y-52273809D01*
X133270238Y-52130952D01*
X133317857Y-51940476D01*
X133365476Y-51845238D01*
X133460714Y-51750000D01*
X133603571Y-51702380D01*
X133698809Y-51702380D01*
X133841666Y-51750000D01*
X133889285Y-51797619D01*
X134270238Y-51797619D02*
X134317857Y-51750000D01*
X134413095Y-51702380D01*
X134651190Y-51702380D01*
X134746428Y-51750000D01*
X134794047Y-51797619D01*
X134841666Y-51892857D01*
X134841666Y-51988095D01*
X134794047Y-52130952D01*
X134222619Y-52702380D01*
X134841666Y-52702380D01*
X139733333Y-64327380D02*
X139400000Y-63851190D01*
X139161904Y-64327380D02*
X139161904Y-63327380D01*
X139542857Y-63327380D01*
X139638095Y-63375000D01*
X139685714Y-63422619D01*
X139733333Y-63517857D01*
X139733333Y-63660714D01*
X139685714Y-63755952D01*
X139638095Y-63803571D01*
X139542857Y-63851190D01*
X139161904Y-63851190D01*
X140066666Y-63327380D02*
X140685714Y-63327380D01*
X140352380Y-63708333D01*
X140495238Y-63708333D01*
X140590476Y-63755952D01*
X140638095Y-63803571D01*
X140685714Y-63898809D01*
X140685714Y-64136904D01*
X140638095Y-64232142D01*
X140590476Y-64279761D01*
X140495238Y-64327380D01*
X140209523Y-64327380D01*
X140114285Y-64279761D01*
X140066666Y-64232142D01*
X142883333Y-64327380D02*
X142550000Y-63851190D01*
X142311904Y-64327380D02*
X142311904Y-63327380D01*
X142692857Y-63327380D01*
X142788095Y-63375000D01*
X142835714Y-63422619D01*
X142883333Y-63517857D01*
X142883333Y-63660714D01*
X142835714Y-63755952D01*
X142788095Y-63803571D01*
X142692857Y-63851190D01*
X142311904Y-63851190D01*
X143740476Y-63660714D02*
X143740476Y-64327380D01*
X143502380Y-63279761D02*
X143264285Y-63994047D01*
X143883333Y-63994047D01*
X76788095Y-87102380D02*
X76788095Y-87911904D01*
X76835714Y-88007142D01*
X76883333Y-88054761D01*
X76978571Y-88102380D01*
X77169047Y-88102380D01*
X77264285Y-88054761D01*
X77311904Y-88007142D01*
X77359523Y-87911904D01*
X77359523Y-87102380D01*
X77788095Y-87197619D02*
X77835714Y-87150000D01*
X77930952Y-87102380D01*
X78169047Y-87102380D01*
X78264285Y-87150000D01*
X78311904Y-87197619D01*
X78359523Y-87292857D01*
X78359523Y-87388095D01*
X78311904Y-87530952D01*
X77740476Y-88102380D01*
X78359523Y-88102380D01*
X76706666Y-45623666D02*
X76940000Y-46323666D01*
X77173333Y-45623666D01*
X77806666Y-46257000D02*
X77773333Y-46290333D01*
X77673333Y-46323666D01*
X77606666Y-46323666D01*
X77506666Y-46290333D01*
X77440000Y-46223666D01*
X77406666Y-46157000D01*
X77373333Y-46023666D01*
X77373333Y-45923666D01*
X77406666Y-45790333D01*
X77440000Y-45723666D01*
X77506666Y-45657000D01*
X77606666Y-45623666D01*
X77673333Y-45623666D01*
X77773333Y-45657000D01*
X77806666Y-45690333D01*
X78506666Y-46257000D02*
X78473333Y-46290333D01*
X78373333Y-46323666D01*
X78306666Y-46323666D01*
X78206666Y-46290333D01*
X78140000Y-46223666D01*
X78106666Y-46157000D01*
X78073333Y-46023666D01*
X78073333Y-45923666D01*
X78106666Y-45790333D01*
X78140000Y-45723666D01*
X78206666Y-45657000D01*
X78306666Y-45623666D01*
X78373333Y-45623666D01*
X78473333Y-45657000D01*
X78506666Y-45690333D01*
X87266666Y-45657000D02*
X87200000Y-45623666D01*
X87100000Y-45623666D01*
X87000000Y-45657000D01*
X86933333Y-45723666D01*
X86900000Y-45790333D01*
X86866666Y-45923666D01*
X86866666Y-46023666D01*
X86900000Y-46157000D01*
X86933333Y-46223666D01*
X87000000Y-46290333D01*
X87100000Y-46323666D01*
X87166666Y-46323666D01*
X87266666Y-46290333D01*
X87300000Y-46257000D01*
X87300000Y-46023666D01*
X87166666Y-46023666D01*
X87600000Y-46323666D02*
X87600000Y-45623666D01*
X88000000Y-46323666D01*
X88000000Y-45623666D01*
X88333333Y-46323666D02*
X88333333Y-45623666D01*
X88500000Y-45623666D01*
X88600000Y-45657000D01*
X88666666Y-45723666D01*
X88700000Y-45790333D01*
X88733333Y-45923666D01*
X88733333Y-46023666D01*
X88700000Y-46157000D01*
X88666666Y-46223666D01*
X88600000Y-46290333D01*
X88500000Y-46323666D01*
X88333333Y-46323666D01*
X84876666Y-46323666D02*
X84643333Y-45990333D01*
X84476666Y-46323666D02*
X84476666Y-45623666D01*
X84743333Y-45623666D01*
X84810000Y-45657000D01*
X84843333Y-45690333D01*
X84876666Y-45757000D01*
X84876666Y-45857000D01*
X84843333Y-45923666D01*
X84810000Y-45957000D01*
X84743333Y-45990333D01*
X84476666Y-45990333D01*
X85143333Y-46290333D02*
X85243333Y-46323666D01*
X85410000Y-46323666D01*
X85476666Y-46290333D01*
X85510000Y-46257000D01*
X85543333Y-46190333D01*
X85543333Y-46123666D01*
X85510000Y-46057000D01*
X85476666Y-46023666D01*
X85410000Y-45990333D01*
X85276666Y-45957000D01*
X85210000Y-45923666D01*
X85176666Y-45890333D01*
X85143333Y-45823666D01*
X85143333Y-45757000D01*
X85176666Y-45690333D01*
X85210000Y-45657000D01*
X85276666Y-45623666D01*
X85443333Y-45623666D01*
X85543333Y-45657000D01*
X85743333Y-45623666D02*
X86143333Y-45623666D01*
X85943333Y-46323666D02*
X85943333Y-45623666D01*
X74000000Y-46323666D02*
X74000000Y-45623666D01*
X74233333Y-46123666D01*
X74466666Y-45623666D01*
X74466666Y-46323666D01*
X74800000Y-46323666D02*
X74800000Y-45623666D01*
X75100000Y-46290333D02*
X75200000Y-46323666D01*
X75366666Y-46323666D01*
X75433333Y-46290333D01*
X75466666Y-46257000D01*
X75500000Y-46190333D01*
X75500000Y-46123666D01*
X75466666Y-46057000D01*
X75433333Y-46023666D01*
X75366666Y-45990333D01*
X75233333Y-45957000D01*
X75166666Y-45923666D01*
X75133333Y-45890333D01*
X75100000Y-45823666D01*
X75100000Y-45757000D01*
X75133333Y-45690333D01*
X75166666Y-45657000D01*
X75233333Y-45623666D01*
X75400000Y-45623666D01*
X75500000Y-45657000D01*
X75933333Y-45623666D02*
X76066666Y-45623666D01*
X76133333Y-45657000D01*
X76200000Y-45723666D01*
X76233333Y-45857000D01*
X76233333Y-46090333D01*
X76200000Y-46223666D01*
X76133333Y-46290333D01*
X76066666Y-46323666D01*
X75933333Y-46323666D01*
X75866666Y-46290333D01*
X75800000Y-46223666D01*
X75766666Y-46090333D01*
X75766666Y-45857000D01*
X75800000Y-45723666D01*
X75866666Y-45657000D01*
X75933333Y-45623666D01*
X79280000Y-46290333D02*
X79380000Y-46323666D01*
X79546666Y-46323666D01*
X79613333Y-46290333D01*
X79646666Y-46257000D01*
X79680000Y-46190333D01*
X79680000Y-46123666D01*
X79646666Y-46057000D01*
X79613333Y-46023666D01*
X79546666Y-45990333D01*
X79413333Y-45957000D01*
X79346666Y-45923666D01*
X79313333Y-45890333D01*
X79280000Y-45823666D01*
X79280000Y-45757000D01*
X79313333Y-45690333D01*
X79346666Y-45657000D01*
X79413333Y-45623666D01*
X79580000Y-45623666D01*
X79680000Y-45657000D01*
X80380000Y-46257000D02*
X80346666Y-46290333D01*
X80246666Y-46323666D01*
X80180000Y-46323666D01*
X80080000Y-46290333D01*
X80013333Y-46223666D01*
X79980000Y-46157000D01*
X79946666Y-46023666D01*
X79946666Y-45923666D01*
X79980000Y-45790333D01*
X80013333Y-45723666D01*
X80080000Y-45657000D01*
X80180000Y-45623666D01*
X80246666Y-45623666D01*
X80346666Y-45657000D01*
X80380000Y-45690333D01*
X80680000Y-46323666D02*
X80680000Y-45623666D01*
X81080000Y-46323666D02*
X80780000Y-45923666D01*
X81080000Y-45623666D02*
X80680000Y-46023666D01*
X81620000Y-46323666D02*
X81620000Y-45623666D01*
X81853333Y-46123666D01*
X82086666Y-45623666D01*
X82086666Y-46323666D01*
X82553333Y-45623666D02*
X82686666Y-45623666D01*
X82753333Y-45657000D01*
X82820000Y-45723666D01*
X82853333Y-45857000D01*
X82853333Y-46090333D01*
X82820000Y-46223666D01*
X82753333Y-46290333D01*
X82686666Y-46323666D01*
X82553333Y-46323666D01*
X82486666Y-46290333D01*
X82420000Y-46223666D01*
X82386666Y-46090333D01*
X82386666Y-45857000D01*
X82420000Y-45723666D01*
X82486666Y-45657000D01*
X82553333Y-45623666D01*
X83120000Y-46290333D02*
X83220000Y-46323666D01*
X83386666Y-46323666D01*
X83453333Y-46290333D01*
X83486666Y-46257000D01*
X83520000Y-46190333D01*
X83520000Y-46123666D01*
X83486666Y-46057000D01*
X83453333Y-46023666D01*
X83386666Y-45990333D01*
X83253333Y-45957000D01*
X83186666Y-45923666D01*
X83153333Y-45890333D01*
X83120000Y-45823666D01*
X83120000Y-45757000D01*
X83153333Y-45690333D01*
X83186666Y-45657000D01*
X83253333Y-45623666D01*
X83420000Y-45623666D01*
X83520000Y-45657000D01*
X83820000Y-46323666D02*
X83820000Y-45623666D01*
X72416666Y-43427380D02*
X72416666Y-44141666D01*
X72369047Y-44284523D01*
X72273809Y-44379761D01*
X72130952Y-44427380D01*
X72035714Y-44427380D01*
X72845238Y-43522619D02*
X72892857Y-43475000D01*
X72988095Y-43427380D01*
X73226190Y-43427380D01*
X73321428Y-43475000D01*
X73369047Y-43522619D01*
X73416666Y-43617857D01*
X73416666Y-43713095D01*
X73369047Y-43855952D01*
X72797619Y-44427380D01*
X73416666Y-44427380D01*
X112388095Y-73102380D02*
X112388095Y-73911904D01*
X112435714Y-74007142D01*
X112483333Y-74054761D01*
X112578571Y-74102380D01*
X112769047Y-74102380D01*
X112864285Y-74054761D01*
X112911904Y-74007142D01*
X112959523Y-73911904D01*
X112959523Y-73102380D01*
X113959523Y-74102380D02*
X113388095Y-74102380D01*
X113673809Y-74102380D02*
X113673809Y-73102380D01*
X113578571Y-73245238D01*
X113483333Y-73340476D01*
X113388095Y-73388095D01*
X138028904Y-78620476D02*
X138028904Y-78125238D01*
X138333666Y-78391904D01*
X138333666Y-78277619D01*
X138371761Y-78201428D01*
X138409857Y-78163333D01*
X138486047Y-78125238D01*
X138676523Y-78125238D01*
X138752714Y-78163333D01*
X138790809Y-78201428D01*
X138828904Y-78277619D01*
X138828904Y-78506190D01*
X138790809Y-78582380D01*
X138752714Y-78620476D01*
X138028904Y-77896666D02*
X138828904Y-77630000D01*
X138028904Y-77363333D01*
X138028904Y-77172857D02*
X138028904Y-76677619D01*
X138333666Y-76944285D01*
X138333666Y-76830000D01*
X138371761Y-76753809D01*
X138409857Y-76715714D01*
X138486047Y-76677619D01*
X138676523Y-76677619D01*
X138752714Y-76715714D01*
X138790809Y-76753809D01*
X138828904Y-76830000D01*
X138828904Y-77058571D01*
X138790809Y-77134761D01*
X138752714Y-77172857D01*
X138067000Y-80779523D02*
X138028904Y-80855714D01*
X138028904Y-80970000D01*
X138067000Y-81084285D01*
X138143190Y-81160476D01*
X138219380Y-81198571D01*
X138371761Y-81236666D01*
X138486047Y-81236666D01*
X138638428Y-81198571D01*
X138714619Y-81160476D01*
X138790809Y-81084285D01*
X138828904Y-80970000D01*
X138828904Y-80893809D01*
X138790809Y-80779523D01*
X138752714Y-80741428D01*
X138486047Y-80741428D01*
X138486047Y-80893809D01*
X138828904Y-80398571D02*
X138028904Y-80398571D01*
X138828904Y-79941428D01*
X138028904Y-79941428D01*
X138828904Y-79560476D02*
X138028904Y-79560476D01*
X138028904Y-79370000D01*
X138067000Y-79255714D01*
X138143190Y-79179523D01*
X138219380Y-79141428D01*
X138371761Y-79103333D01*
X138486047Y-79103333D01*
X138638428Y-79141428D01*
X138714619Y-79179523D01*
X138790809Y-79255714D01*
X138828904Y-79370000D01*
X138828904Y-79560476D01*
X121045238Y-59661904D02*
X121045238Y-58861904D01*
X121235714Y-58861904D01*
X121350000Y-58900000D01*
X121426190Y-58976190D01*
X121464285Y-59052380D01*
X121502380Y-59204761D01*
X121502380Y-59319047D01*
X121464285Y-59471428D01*
X121426190Y-59547619D01*
X121350000Y-59623809D01*
X121235714Y-59661904D01*
X121045238Y-59661904D01*
X121845238Y-59357142D02*
X122454761Y-59357142D01*
X122150000Y-59661904D02*
X122150000Y-59052380D01*
X123245238Y-59661904D02*
X123245238Y-58861904D01*
X123435714Y-58861904D01*
X123550000Y-58900000D01*
X123626190Y-58976190D01*
X123664285Y-59052380D01*
X123702380Y-59204761D01*
X123702380Y-59319047D01*
X123664285Y-59471428D01*
X123626190Y-59547619D01*
X123550000Y-59623809D01*
X123435714Y-59661904D01*
X123245238Y-59661904D01*
X124045238Y-59357142D02*
X124654761Y-59357142D01*
X125583333Y-58861904D02*
X125850000Y-59661904D01*
X126116666Y-58861904D01*
X126650000Y-59242857D02*
X126764285Y-59280952D01*
X126802380Y-59319047D01*
X126840476Y-59395238D01*
X126840476Y-59509523D01*
X126802380Y-59585714D01*
X126764285Y-59623809D01*
X126688095Y-59661904D01*
X126383333Y-59661904D01*
X126383333Y-58861904D01*
X126650000Y-58861904D01*
X126726190Y-58900000D01*
X126764285Y-58938095D01*
X126802380Y-59014285D01*
X126802380Y-59090476D01*
X126764285Y-59166666D01*
X126726190Y-59204761D01*
X126650000Y-59242857D01*
X126383333Y-59242857D01*
X127183333Y-58861904D02*
X127183333Y-59509523D01*
X127221428Y-59585714D01*
X127259523Y-59623809D01*
X127335714Y-59661904D01*
X127488095Y-59661904D01*
X127564285Y-59623809D01*
X127602380Y-59585714D01*
X127640476Y-59509523D01*
X127640476Y-58861904D01*
X127983333Y-59623809D02*
X128097619Y-59661904D01*
X128288095Y-59661904D01*
X128364285Y-59623809D01*
X128402380Y-59585714D01*
X128440476Y-59509523D01*
X128440476Y-59433333D01*
X128402380Y-59357142D01*
X128364285Y-59319047D01*
X128288095Y-59280952D01*
X128135714Y-59242857D01*
X128059523Y-59204761D01*
X128021428Y-59166666D01*
X127983333Y-59090476D01*
X127983333Y-59014285D01*
X128021428Y-58938095D01*
X128059523Y-58900000D01*
X128135714Y-58861904D01*
X128326190Y-58861904D01*
X128440476Y-58900000D01*
X118440476Y-58900000D02*
X118364285Y-58861904D01*
X118250000Y-58861904D01*
X118135714Y-58900000D01*
X118059523Y-58976190D01*
X118021428Y-59052380D01*
X117983333Y-59204761D01*
X117983333Y-59319047D01*
X118021428Y-59471428D01*
X118059523Y-59547619D01*
X118135714Y-59623809D01*
X118250000Y-59661904D01*
X118326190Y-59661904D01*
X118440476Y-59623809D01*
X118478571Y-59585714D01*
X118478571Y-59319047D01*
X118326190Y-59319047D01*
X118821428Y-59661904D02*
X118821428Y-58861904D01*
X119278571Y-59661904D01*
X119278571Y-58861904D01*
X119659523Y-59661904D02*
X119659523Y-58861904D01*
X119850000Y-58861904D01*
X119964285Y-58900000D01*
X120040476Y-58976190D01*
X120078571Y-59052380D01*
X120116666Y-59204761D01*
X120116666Y-59319047D01*
X120078571Y-59471428D01*
X120040476Y-59547619D01*
X119964285Y-59623809D01*
X119850000Y-59661904D01*
X119659523Y-59661904D01*
X138790809Y-83662380D02*
X138828904Y-83548095D01*
X138828904Y-83357619D01*
X138790809Y-83281428D01*
X138752714Y-83243333D01*
X138676523Y-83205238D01*
X138600333Y-83205238D01*
X138524142Y-83243333D01*
X138486047Y-83281428D01*
X138447952Y-83357619D01*
X138409857Y-83510000D01*
X138371761Y-83586190D01*
X138333666Y-83624285D01*
X138257476Y-83662380D01*
X138181285Y-83662380D01*
X138105095Y-83624285D01*
X138067000Y-83586190D01*
X138028904Y-83510000D01*
X138028904Y-83319523D01*
X138067000Y-83205238D01*
X138752714Y-82405238D02*
X138790809Y-82443333D01*
X138828904Y-82557619D01*
X138828904Y-82633809D01*
X138790809Y-82748095D01*
X138714619Y-82824285D01*
X138638428Y-82862380D01*
X138486047Y-82900476D01*
X138371761Y-82900476D01*
X138219380Y-82862380D01*
X138143190Y-82824285D01*
X138067000Y-82748095D01*
X138028904Y-82633809D01*
X138028904Y-82557619D01*
X138067000Y-82443333D01*
X138105095Y-82405238D01*
X138828904Y-81681428D02*
X138828904Y-82062380D01*
X138028904Y-82062380D01*
X138790809Y-86221428D02*
X138828904Y-86107142D01*
X138828904Y-85916666D01*
X138790809Y-85840476D01*
X138752714Y-85802380D01*
X138676523Y-85764285D01*
X138600333Y-85764285D01*
X138524142Y-85802380D01*
X138486047Y-85840476D01*
X138447952Y-85916666D01*
X138409857Y-86069047D01*
X138371761Y-86145238D01*
X138333666Y-86183333D01*
X138257476Y-86221428D01*
X138181285Y-86221428D01*
X138105095Y-86183333D01*
X138067000Y-86145238D01*
X138028904Y-86069047D01*
X138028904Y-85878571D01*
X138067000Y-85764285D01*
X138828904Y-85421428D02*
X138028904Y-85421428D01*
X138028904Y-85230952D01*
X138067000Y-85116666D01*
X138143190Y-85040476D01*
X138219380Y-85002380D01*
X138371761Y-84964285D01*
X138486047Y-84964285D01*
X138638428Y-85002380D01*
X138714619Y-85040476D01*
X138790809Y-85116666D01*
X138828904Y-85230952D01*
X138828904Y-85421428D01*
X138600333Y-84659523D02*
X138600333Y-84278571D01*
X138828904Y-84735714D02*
X138028904Y-84469047D01*
X138828904Y-84202380D01*
X138828904Y-87923333D02*
X138447952Y-88190000D01*
X138828904Y-88380476D02*
X138028904Y-88380476D01*
X138028904Y-88075714D01*
X138067000Y-87999523D01*
X138105095Y-87961428D01*
X138181285Y-87923333D01*
X138295571Y-87923333D01*
X138371761Y-87961428D01*
X138409857Y-87999523D01*
X138447952Y-88075714D01*
X138447952Y-88380476D01*
X138028904Y-87656666D02*
X138828904Y-87123333D01*
X138028904Y-87123333D02*
X138828904Y-87656666D01*
X138028904Y-90939523D02*
X138028904Y-90482380D01*
X138828904Y-90710952D02*
X138028904Y-90710952D01*
X138028904Y-90291904D02*
X138828904Y-89758571D01*
X138028904Y-89758571D02*
X138828904Y-90291904D01*
X107594904Y-78087142D02*
X106794904Y-78087142D01*
X107366333Y-77820476D01*
X106794904Y-77553809D01*
X107594904Y-77553809D01*
X107594904Y-77172857D02*
X106794904Y-77172857D01*
X107594904Y-80855714D02*
X106794904Y-80855714D01*
X107366333Y-80589047D01*
X106794904Y-80322380D01*
X107594904Y-80322380D01*
X106794904Y-79789047D02*
X106794904Y-79636666D01*
X106833000Y-79560476D01*
X106909190Y-79484285D01*
X107061571Y-79446190D01*
X107328238Y-79446190D01*
X107480619Y-79484285D01*
X107556809Y-79560476D01*
X107594904Y-79636666D01*
X107594904Y-79789047D01*
X107556809Y-79865238D01*
X107480619Y-79941428D01*
X107328238Y-79979523D01*
X107061571Y-79979523D01*
X106909190Y-79941428D01*
X106833000Y-79865238D01*
X106794904Y-79789047D01*
X107556809Y-83738571D02*
X107594904Y-83624285D01*
X107594904Y-83433809D01*
X107556809Y-83357619D01*
X107518714Y-83319523D01*
X107442523Y-83281428D01*
X107366333Y-83281428D01*
X107290142Y-83319523D01*
X107252047Y-83357619D01*
X107213952Y-83433809D01*
X107175857Y-83586190D01*
X107137761Y-83662380D01*
X107099666Y-83700476D01*
X107023476Y-83738571D01*
X106947285Y-83738571D01*
X106871095Y-83700476D01*
X106833000Y-83662380D01*
X106794904Y-83586190D01*
X106794904Y-83395714D01*
X106833000Y-83281428D01*
X107518714Y-82481428D02*
X107556809Y-82519523D01*
X107594904Y-82633809D01*
X107594904Y-82710000D01*
X107556809Y-82824285D01*
X107480619Y-82900476D01*
X107404428Y-82938571D01*
X107252047Y-82976666D01*
X107137761Y-82976666D01*
X106985380Y-82938571D01*
X106909190Y-82900476D01*
X106833000Y-82824285D01*
X106794904Y-82710000D01*
X106794904Y-82633809D01*
X106833000Y-82519523D01*
X106871095Y-82481428D01*
X107594904Y-82138571D02*
X106794904Y-82138571D01*
X107594904Y-81681428D02*
X107137761Y-82024285D01*
X106794904Y-81681428D02*
X107252047Y-82138571D01*
X107594904Y-85745238D02*
X107213952Y-86011904D01*
X107594904Y-86202380D02*
X106794904Y-86202380D01*
X106794904Y-85897619D01*
X106833000Y-85821428D01*
X106871095Y-85783333D01*
X106947285Y-85745238D01*
X107061571Y-85745238D01*
X107137761Y-85783333D01*
X107175857Y-85821428D01*
X107213952Y-85897619D01*
X107213952Y-86202380D01*
X107175857Y-85402380D02*
X107175857Y-85135714D01*
X107594904Y-85021428D02*
X107594904Y-85402380D01*
X106794904Y-85402380D01*
X106794904Y-85021428D01*
X107556809Y-84716666D02*
X107594904Y-84602380D01*
X107594904Y-84411904D01*
X107556809Y-84335714D01*
X107518714Y-84297619D01*
X107442523Y-84259523D01*
X107366333Y-84259523D01*
X107290142Y-84297619D01*
X107252047Y-84335714D01*
X107213952Y-84411904D01*
X107175857Y-84564285D01*
X107137761Y-84640476D01*
X107099666Y-84678571D01*
X107023476Y-84716666D01*
X106947285Y-84716666D01*
X106871095Y-84678571D01*
X106833000Y-84640476D01*
X106794904Y-84564285D01*
X106794904Y-84373809D01*
X106833000Y-84259523D01*
X106833000Y-88399523D02*
X106794904Y-88475714D01*
X106794904Y-88590000D01*
X106833000Y-88704285D01*
X106909190Y-88780476D01*
X106985380Y-88818571D01*
X107137761Y-88856666D01*
X107252047Y-88856666D01*
X107404428Y-88818571D01*
X107480619Y-88780476D01*
X107556809Y-88704285D01*
X107594904Y-88590000D01*
X107594904Y-88513809D01*
X107556809Y-88399523D01*
X107518714Y-88361428D01*
X107252047Y-88361428D01*
X107252047Y-88513809D01*
X107594904Y-88018571D02*
X106794904Y-88018571D01*
X107594904Y-87561428D01*
X106794904Y-87561428D01*
X107594904Y-87180476D02*
X106794904Y-87180476D01*
X106794904Y-86990000D01*
X106833000Y-86875714D01*
X106909190Y-86799523D01*
X106985380Y-86761428D01*
X107137761Y-86723333D01*
X107252047Y-86723333D01*
X107404428Y-86761428D01*
X107480619Y-86799523D01*
X107556809Y-86875714D01*
X107594904Y-86990000D01*
X107594904Y-87180476D01*
X106794904Y-90482380D02*
X106794904Y-90863333D01*
X107175857Y-90901428D01*
X107137761Y-90863333D01*
X107099666Y-90787142D01*
X107099666Y-90596666D01*
X107137761Y-90520476D01*
X107175857Y-90482380D01*
X107252047Y-90444285D01*
X107442523Y-90444285D01*
X107518714Y-90482380D01*
X107556809Y-90520476D01*
X107594904Y-90596666D01*
X107594904Y-90787142D01*
X107556809Y-90863333D01*
X107518714Y-90901428D01*
X106794904Y-90215714D02*
X107594904Y-89949047D01*
X106794904Y-89682380D01*
X128128571Y-100890904D02*
X128128571Y-100090904D01*
X128319047Y-100090904D01*
X128433333Y-100129000D01*
X128509523Y-100205190D01*
X128547619Y-100281380D01*
X128585714Y-100433761D01*
X128585714Y-100548047D01*
X128547619Y-100700428D01*
X128509523Y-100776619D01*
X128433333Y-100852809D01*
X128319047Y-100890904D01*
X128128571Y-100890904D01*
X129347619Y-100890904D02*
X128890476Y-100890904D01*
X129119047Y-100890904D02*
X129119047Y-100090904D01*
X129042857Y-100205190D01*
X128966666Y-100281380D01*
X128890476Y-100319476D01*
X130109523Y-100890904D02*
X129652380Y-100890904D01*
X129880952Y-100890904D02*
X129880952Y-100090904D01*
X129804761Y-100205190D01*
X129728571Y-100281380D01*
X129652380Y-100319476D01*
X125588571Y-100890904D02*
X125588571Y-100090904D01*
X125779047Y-100090904D01*
X125893333Y-100129000D01*
X125969523Y-100205190D01*
X126007619Y-100281380D01*
X126045714Y-100433761D01*
X126045714Y-100548047D01*
X126007619Y-100700428D01*
X125969523Y-100776619D01*
X125893333Y-100852809D01*
X125779047Y-100890904D01*
X125588571Y-100890904D01*
X126807619Y-100890904D02*
X126350476Y-100890904D01*
X126579047Y-100890904D02*
X126579047Y-100090904D01*
X126502857Y-100205190D01*
X126426666Y-100281380D01*
X126350476Y-100319476D01*
X127302857Y-100090904D02*
X127379047Y-100090904D01*
X127455238Y-100129000D01*
X127493333Y-100167095D01*
X127531428Y-100243285D01*
X127569523Y-100395666D01*
X127569523Y-100586142D01*
X127531428Y-100738523D01*
X127493333Y-100814714D01*
X127455238Y-100852809D01*
X127379047Y-100890904D01*
X127302857Y-100890904D01*
X127226666Y-100852809D01*
X127188571Y-100814714D01*
X127150476Y-100738523D01*
X127112380Y-100586142D01*
X127112380Y-100395666D01*
X127150476Y-100243285D01*
X127188571Y-100167095D01*
X127226666Y-100129000D01*
X127302857Y-100090904D01*
X123429523Y-100890904D02*
X123429523Y-100090904D01*
X123620000Y-100090904D01*
X123734285Y-100129000D01*
X123810476Y-100205190D01*
X123848571Y-100281380D01*
X123886666Y-100433761D01*
X123886666Y-100548047D01*
X123848571Y-100700428D01*
X123810476Y-100776619D01*
X123734285Y-100852809D01*
X123620000Y-100890904D01*
X123429523Y-100890904D01*
X124267619Y-100890904D02*
X124420000Y-100890904D01*
X124496190Y-100852809D01*
X124534285Y-100814714D01*
X124610476Y-100700428D01*
X124648571Y-100548047D01*
X124648571Y-100243285D01*
X124610476Y-100167095D01*
X124572380Y-100129000D01*
X124496190Y-100090904D01*
X124343809Y-100090904D01*
X124267619Y-100129000D01*
X124229523Y-100167095D01*
X124191428Y-100243285D01*
X124191428Y-100433761D01*
X124229523Y-100509952D01*
X124267619Y-100548047D01*
X124343809Y-100586142D01*
X124496190Y-100586142D01*
X124572380Y-100548047D01*
X124610476Y-100509952D01*
X124648571Y-100433761D01*
X120908571Y-100662333D02*
X121289523Y-100662333D01*
X120832380Y-100890904D02*
X121099047Y-100090904D01*
X121365714Y-100890904D01*
X121784761Y-100090904D02*
X121860952Y-100090904D01*
X121937142Y-100129000D01*
X121975238Y-100167095D01*
X122013333Y-100243285D01*
X122051428Y-100395666D01*
X122051428Y-100586142D01*
X122013333Y-100738523D01*
X121975238Y-100814714D01*
X121937142Y-100852809D01*
X121860952Y-100890904D01*
X121784761Y-100890904D01*
X121708571Y-100852809D01*
X121670476Y-100814714D01*
X121632380Y-100738523D01*
X121594285Y-100586142D01*
X121594285Y-100395666D01*
X121632380Y-100243285D01*
X121670476Y-100167095D01*
X121708571Y-100129000D01*
X121784761Y-100090904D01*
X118368571Y-100662333D02*
X118749523Y-100662333D01*
X118292380Y-100890904D02*
X118559047Y-100090904D01*
X118825714Y-100890904D01*
X119511428Y-100890904D02*
X119054285Y-100890904D01*
X119282857Y-100890904D02*
X119282857Y-100090904D01*
X119206666Y-100205190D01*
X119130476Y-100281380D01*
X119054285Y-100319476D01*
X115828571Y-100662333D02*
X116209523Y-100662333D01*
X115752380Y-100890904D02*
X116019047Y-100090904D01*
X116285714Y-100890904D01*
X116514285Y-100167095D02*
X116552380Y-100129000D01*
X116628571Y-100090904D01*
X116819047Y-100090904D01*
X116895238Y-100129000D01*
X116933333Y-100167095D01*
X116971428Y-100243285D01*
X116971428Y-100319476D01*
X116933333Y-100433761D01*
X116476190Y-100890904D01*
X116971428Y-100890904D01*
M02*
