G04 #@! TF.GenerationSoftware,KiCad,Pcbnew,(5.1.0-0)*
G04 #@! TF.CreationDate,2019-05-12T16:12:14+09:00*
G04 #@! TF.ProjectId,split_EC_left,73706c69-745f-4454-935f-6c6566742e6b,rev?*
G04 #@! TF.SameCoordinates,Original*
G04 #@! TF.FileFunction,Copper,L2,Bot*
G04 #@! TF.FilePolarity,Positive*
%FSLAX46Y46*%
G04 Gerber Fmt 4.6, Leading zero omitted, Abs format (unit mm)*
G04 Created by KiCad (PCBNEW (5.1.0-0)) date 2019-05-12 16:12:14*
%MOMM*%
%LPD*%
G04 APERTURE LIST*
%ADD10C,0.100000*%
%ADD11C,1.780000*%
%ADD12R,0.950000X1.050000*%
%ADD13C,0.700000*%
%ADD14R,0.700000X1.200000*%
%ADD15R,1.000000X2.510000*%
%ADD16C,1.600000*%
%ADD17O,1.700000X1.700000*%
%ADD18R,1.700000X1.700000*%
%ADD19C,0.800000*%
%ADD20C,1.000000*%
%ADD21C,0.250000*%
%ADD22C,0.200000*%
%ADD23C,0.500000*%
G04 APERTURE END LIST*
D10*
G36*
X134591738Y-58251646D02*
G01*
X134624914Y-58256567D01*
X134657448Y-58264716D01*
X134689026Y-58276015D01*
X134719345Y-58290355D01*
X134748112Y-58307597D01*
X134775050Y-58327576D01*
X134799901Y-58350099D01*
X134822424Y-58374950D01*
X134842403Y-58401888D01*
X134859645Y-58430655D01*
X134873985Y-58460974D01*
X134885284Y-58492552D01*
X134893433Y-58525086D01*
X134898354Y-58558262D01*
X134900000Y-58591760D01*
X134900000Y-59688240D01*
X134898354Y-59721738D01*
X134893433Y-59754914D01*
X134885284Y-59787448D01*
X134873985Y-59819026D01*
X134859645Y-59849345D01*
X134842403Y-59878112D01*
X134822424Y-59905050D01*
X134799901Y-59929901D01*
X134775050Y-59952424D01*
X134748112Y-59972403D01*
X134719345Y-59989645D01*
X134689026Y-60003985D01*
X134657448Y-60015284D01*
X134624914Y-60023433D01*
X134591738Y-60028354D01*
X134558240Y-60030000D01*
X131741760Y-60030000D01*
X131708262Y-60028354D01*
X131675086Y-60023433D01*
X131642552Y-60015284D01*
X131610974Y-60003985D01*
X131580655Y-59989645D01*
X131551888Y-59972403D01*
X131524950Y-59952424D01*
X131500099Y-59929901D01*
X131477576Y-59905050D01*
X131457597Y-59878112D01*
X131440355Y-59849345D01*
X131426015Y-59819026D01*
X131414716Y-59787448D01*
X131406567Y-59754914D01*
X131401646Y-59721738D01*
X131400000Y-59688240D01*
X131400000Y-58591760D01*
X131401646Y-58558262D01*
X131406567Y-58525086D01*
X131414716Y-58492552D01*
X131426015Y-58460974D01*
X131440355Y-58430655D01*
X131457597Y-58401888D01*
X131477576Y-58374950D01*
X131500099Y-58350099D01*
X131524950Y-58327576D01*
X131551888Y-58307597D01*
X131580655Y-58290355D01*
X131610974Y-58276015D01*
X131642552Y-58264716D01*
X131675086Y-58256567D01*
X131708262Y-58251646D01*
X131741760Y-58250000D01*
X134558240Y-58250000D01*
X134591738Y-58251646D01*
X134591738Y-58251646D01*
G37*
D11*
X133150000Y-59140000D03*
D10*
G36*
X134591738Y-53021646D02*
G01*
X134624914Y-53026567D01*
X134657448Y-53034716D01*
X134689026Y-53046015D01*
X134719345Y-53060355D01*
X134748112Y-53077597D01*
X134775050Y-53097576D01*
X134799901Y-53120099D01*
X134822424Y-53144950D01*
X134842403Y-53171888D01*
X134859645Y-53200655D01*
X134873985Y-53230974D01*
X134885284Y-53262552D01*
X134893433Y-53295086D01*
X134898354Y-53328262D01*
X134900000Y-53361760D01*
X134900000Y-54458240D01*
X134898354Y-54491738D01*
X134893433Y-54524914D01*
X134885284Y-54557448D01*
X134873985Y-54589026D01*
X134859645Y-54619345D01*
X134842403Y-54648112D01*
X134822424Y-54675050D01*
X134799901Y-54699901D01*
X134775050Y-54722424D01*
X134748112Y-54742403D01*
X134719345Y-54759645D01*
X134689026Y-54773985D01*
X134657448Y-54785284D01*
X134624914Y-54793433D01*
X134591738Y-54798354D01*
X134558240Y-54800000D01*
X131741760Y-54800000D01*
X131708262Y-54798354D01*
X131675086Y-54793433D01*
X131642552Y-54785284D01*
X131610974Y-54773985D01*
X131580655Y-54759645D01*
X131551888Y-54742403D01*
X131524950Y-54722424D01*
X131500099Y-54699901D01*
X131477576Y-54675050D01*
X131457597Y-54648112D01*
X131440355Y-54619345D01*
X131426015Y-54589026D01*
X131414716Y-54557448D01*
X131406567Y-54524914D01*
X131401646Y-54491738D01*
X131400000Y-54458240D01*
X131400000Y-53361760D01*
X131401646Y-53328262D01*
X131406567Y-53295086D01*
X131414716Y-53262552D01*
X131426015Y-53230974D01*
X131440355Y-53200655D01*
X131457597Y-53171888D01*
X131477576Y-53144950D01*
X131500099Y-53120099D01*
X131524950Y-53097576D01*
X131551888Y-53077597D01*
X131580655Y-53060355D01*
X131610974Y-53046015D01*
X131642552Y-53034716D01*
X131675086Y-53026567D01*
X131708262Y-53021646D01*
X131741760Y-53020000D01*
X134558240Y-53020000D01*
X134591738Y-53021646D01*
X134591738Y-53021646D01*
G37*
D11*
X133150000Y-53910000D03*
D12*
X112475000Y-59075000D03*
X112475000Y-57325000D03*
X114575000Y-57350000D03*
X114575000Y-59100000D03*
D13*
X105775000Y-41900000D03*
D10*
G36*
X106325000Y-42850000D02*
G01*
X105725000Y-42850000D01*
X105725000Y-42250000D01*
X105225000Y-42250000D01*
X105225000Y-41550000D01*
X106325000Y-41550000D01*
X106325000Y-42850000D01*
X106325000Y-42850000D01*
G37*
D14*
X105375000Y-44150000D03*
X101975000Y-44150000D03*
D13*
X101575000Y-41900000D03*
D10*
G36*
X102125000Y-42250000D02*
G01*
X101625000Y-42250000D01*
X101625000Y-42850000D01*
X101025000Y-42850000D01*
X101025000Y-41550000D01*
X102125000Y-41550000D01*
X102125000Y-42250000D01*
X102125000Y-42250000D01*
G37*
D15*
X126545000Y-51445000D03*
X121465000Y-51445000D03*
X116385000Y-51445000D03*
X111305000Y-51445000D03*
X124005000Y-51445000D03*
X118925000Y-51445000D03*
X113845000Y-51445000D03*
D16*
X126545000Y-45480000D03*
X126545000Y-42940000D03*
X111305000Y-45480000D03*
X111305000Y-42940000D03*
X126545000Y-45480000D03*
X126545000Y-42940000D03*
X111305000Y-45480000D03*
X111305000Y-42940000D03*
D17*
X87800000Y-43975000D03*
X85260000Y-43975000D03*
X82720000Y-43975000D03*
X80180000Y-43975000D03*
X77640000Y-43975000D03*
D18*
X75100000Y-43975000D03*
D16*
X126560000Y-61050000D03*
X124020000Y-61050000D03*
X121480000Y-61050000D03*
X118940000Y-61050000D03*
D19*
X78475000Y-93075000D03*
X88750000Y-76150000D03*
X86275000Y-87700000D03*
X94425000Y-81800000D03*
X72675000Y-41450000D03*
X72675000Y-46613461D03*
X72675000Y-51776922D03*
X72675000Y-56940383D03*
X72675000Y-62103844D03*
X72675000Y-67267305D03*
X72675000Y-72430766D03*
X72675000Y-77594227D03*
X72675000Y-82757688D03*
X72675000Y-87921149D03*
X72675000Y-93084610D03*
X72675000Y-98248071D03*
X72675000Y-103411532D03*
X72675000Y-108575000D03*
X154725000Y-46625000D03*
X154725000Y-51775000D03*
X154725000Y-56925000D03*
X154725000Y-62075000D03*
X154725000Y-67225000D03*
X154725000Y-72375000D03*
X154725000Y-77525000D03*
X154725000Y-82675000D03*
X154725000Y-87825000D03*
X154725000Y-92975000D03*
X154725000Y-98125000D03*
X154725000Y-103275000D03*
X77785000Y-108575000D03*
X82895000Y-108575000D03*
X88005000Y-108575000D03*
X93115000Y-108575000D03*
X98225000Y-108575000D03*
X103335000Y-108575000D03*
X108445000Y-108575000D03*
X113555000Y-108575000D03*
X118665000Y-108575000D03*
X123775000Y-108575000D03*
X128885000Y-108575000D03*
X133995000Y-108575000D03*
X139105000Y-108575000D03*
X144215000Y-108575000D03*
X149325000Y-108575000D03*
X154775000Y-108500000D03*
X77785000Y-41450000D03*
X84225000Y-41450000D03*
X88005000Y-41450000D03*
X93115000Y-41450000D03*
X98225000Y-41450000D03*
X108445000Y-41450000D03*
X121300000Y-58450000D03*
X121300000Y-53825000D03*
X112475000Y-54850000D03*
X115225000Y-74500000D03*
X115200000Y-70700000D03*
X115200000Y-66975000D03*
X115200000Y-63100000D03*
X117775000Y-53800000D03*
X116300000Y-57550000D03*
X124225000Y-53800000D03*
X124225000Y-58400000D03*
X126300000Y-53800000D03*
X127225000Y-58400000D03*
X98775000Y-99250000D03*
X91925000Y-99225000D03*
X80600000Y-70850000D03*
X94900000Y-60725000D03*
X97575000Y-59000000D03*
X99775000Y-57250000D03*
X94875000Y-52350000D03*
X104400000Y-52625000D03*
X105950000Y-89025000D03*
X107250000Y-86500000D03*
X97550000Y-87650000D03*
X94325000Y-87200000D03*
X90525000Y-91175000D03*
X97600000Y-93300000D03*
X113900000Y-98600000D03*
X109350000Y-98225000D03*
X109200000Y-91850000D03*
X109175000Y-94925000D03*
X86150000Y-70800000D03*
X88325000Y-70825000D03*
X85675000Y-67675000D03*
X93700000Y-54850000D03*
X77785000Y-51776922D03*
X77785000Y-56940383D03*
X77675000Y-63000000D03*
X77785000Y-67267305D03*
X92275000Y-74850000D03*
X97475000Y-80250000D03*
X87875000Y-95050000D03*
X94575000Y-94825000D03*
X104875000Y-91550000D03*
X100950000Y-96500000D03*
X154765000Y-41450000D03*
X149300000Y-45875000D03*
X149225000Y-41475000D03*
X130375000Y-74450000D03*
X77785000Y-103411532D03*
X82895000Y-103411532D03*
X88005000Y-103411532D03*
X93115000Y-103411532D03*
X98225000Y-103411532D03*
X103335000Y-103411532D03*
X108445000Y-103411532D03*
X113555000Y-103411532D03*
X118665000Y-103411532D03*
X123775000Y-103411532D03*
X128885000Y-103411532D03*
X133995000Y-103411532D03*
X139105000Y-103411532D03*
X144215000Y-103411532D03*
X149325000Y-103411532D03*
X102875000Y-62000000D03*
X129550000Y-60900000D03*
X147700000Y-53075000D03*
X150550000Y-53750000D03*
X149325000Y-98251532D03*
X149325000Y-93091532D03*
X149325000Y-87931532D03*
X149325000Y-82771532D03*
X144215000Y-98251532D03*
X144215000Y-93091532D03*
X144215000Y-87931532D03*
X139105000Y-98251532D03*
X139105000Y-93091532D03*
X130650000Y-98650000D03*
X135975000Y-98425000D03*
X136300000Y-91875000D03*
X136425000Y-75775000D03*
X130400000Y-70650000D03*
X130475000Y-66125000D03*
X136275000Y-70650000D03*
X136275000Y-66175000D03*
X129750000Y-56550000D03*
X77825000Y-98250000D03*
X91225000Y-94925000D03*
X80875000Y-41450000D03*
X78750000Y-47000000D03*
X81400000Y-49475000D03*
X88500000Y-49675000D03*
X90975000Y-48350000D03*
X95600000Y-44775000D03*
X90875000Y-44800000D03*
X97750000Y-45900000D03*
X95075000Y-48450000D03*
X101775000Y-55275000D03*
X98350000Y-51700000D03*
X85600000Y-58550000D03*
X91875000Y-59100000D03*
X88400000Y-54900000D03*
X79775000Y-58950000D03*
X81775000Y-82025000D03*
X128575000Y-48000000D03*
X134550000Y-41525000D03*
X103700000Y-45950000D03*
X113350000Y-41475000D03*
X124525000Y-41450000D03*
X128885000Y-41450000D03*
X109100000Y-48150000D03*
X113400000Y-47975000D03*
X124450000Y-48000000D03*
X133050000Y-47875000D03*
X129925000Y-50875000D03*
X76550000Y-88975000D03*
X102900000Y-82325000D03*
X105700000Y-96700000D03*
X144625000Y-59350000D03*
X140075000Y-81575000D03*
X144125000Y-77450000D03*
X144100000Y-65025000D03*
X144100000Y-70750000D03*
X147375000Y-78775000D03*
X143350000Y-82875000D03*
X139350000Y-86850000D03*
X107125000Y-55400000D03*
X107350000Y-76100000D03*
X107350000Y-70700000D03*
X107350000Y-66950000D03*
X107350000Y-63075000D03*
X107325000Y-59175000D03*
X99075000Y-72075000D03*
X101650000Y-83625000D03*
X99100000Y-77850000D03*
X89175000Y-79650000D03*
X76550000Y-84600000D03*
X76550000Y-80325000D03*
X147425000Y-65000000D03*
X147350010Y-59400000D03*
X147450000Y-72325000D03*
X135736452Y-61463548D03*
D20*
X137550000Y-59175000D03*
D19*
X137700000Y-45700000D03*
X99025000Y-61575000D03*
X109400000Y-51325000D03*
X95775000Y-65050000D03*
X102850000Y-75150000D03*
X101600000Y-71050000D03*
X102875000Y-57750000D03*
X102875000Y-66125000D03*
X99300000Y-85975000D03*
X94175000Y-91000000D03*
X73850082Y-73975000D03*
X78090681Y-88925000D03*
X122725000Y-101200000D03*
X102900000Y-98575000D03*
X102900002Y-99850000D03*
X125975000Y-102200000D03*
X104750000Y-80175000D03*
X81200000Y-92975000D03*
X82450000Y-92250000D03*
X104025000Y-77625000D03*
X105475000Y-82671154D03*
X79925000Y-93700000D03*
X90125000Y-72000000D03*
X90125002Y-80800000D03*
X84650000Y-82300000D03*
X75100006Y-72800010D03*
X91000000Y-73999998D03*
X91000000Y-81549996D03*
X87400000Y-82300000D03*
X76175000Y-74000000D03*
X106200000Y-85250000D03*
X137575000Y-56600000D03*
X136200000Y-42750002D03*
D21*
X78100000Y-78224918D02*
X78100000Y-88915681D01*
X78100000Y-88915681D02*
X78090681Y-88925000D01*
X73850082Y-73975000D02*
X78100000Y-78224918D01*
X103299999Y-98974999D02*
X102900000Y-98575000D01*
X105525000Y-101200000D02*
X103299999Y-98974999D01*
X122725000Y-101200000D02*
X105525000Y-101200000D01*
X125409315Y-102200000D02*
X125975000Y-102200000D01*
X105250002Y-102200000D02*
X125409315Y-102200000D01*
X102900002Y-99850000D02*
X105250002Y-102200000D01*
X84392908Y-46849989D02*
X95738579Y-46849989D01*
X95738579Y-46849989D02*
X104750000Y-55861410D01*
X82720000Y-45177081D02*
X84392908Y-46849989D01*
X104750000Y-55861410D02*
X104750000Y-80175000D01*
X82720000Y-43975000D02*
X82720000Y-45177081D01*
X104750000Y-82763590D02*
X104750000Y-80175000D01*
X94538590Y-92975000D02*
X104750000Y-82763590D01*
X81200000Y-92975000D02*
X94538590Y-92975000D01*
X75100000Y-45075000D02*
X75100000Y-43975000D01*
X81675000Y-45825000D02*
X75850000Y-45825000D01*
X82450000Y-92250000D02*
X94627180Y-92250000D01*
X94627180Y-92250000D02*
X104025000Y-82852180D01*
X95550000Y-47300000D02*
X83150000Y-47300000D01*
X104025000Y-82852180D02*
X104025000Y-55775000D01*
X104025000Y-55775000D02*
X95550000Y-47300000D01*
X83150000Y-47300000D02*
X81675000Y-45825000D01*
X75850000Y-45825000D02*
X75100000Y-45075000D01*
X105475000Y-82675000D02*
X105475000Y-82671154D01*
X94450000Y-93700000D02*
X105475000Y-82675000D01*
X79925000Y-93700000D02*
X94450000Y-93700000D01*
X105475000Y-82601988D02*
X105475000Y-82671154D01*
X105475000Y-55950000D02*
X105475000Y-82601988D01*
X95924978Y-46399978D02*
X105475000Y-55950000D01*
X85174978Y-46399978D02*
X95924978Y-46399978D01*
X81125000Y-42400000D02*
X83450000Y-42400000D01*
X83975000Y-45200000D02*
X85174978Y-46399978D01*
X83975000Y-42925000D02*
X83975000Y-45200000D01*
X80180000Y-43345000D02*
X81125000Y-42400000D01*
X83450000Y-42400000D02*
X83975000Y-42925000D01*
X80180000Y-43975000D02*
X80180000Y-43345000D01*
X90125000Y-80799998D02*
X90125002Y-80800000D01*
X90125000Y-72000000D02*
X90125000Y-80799998D01*
X75100006Y-73365695D02*
X75100006Y-72800010D01*
X75100006Y-74575006D02*
X75100006Y-73365695D01*
X81800000Y-79450000D02*
X79975000Y-79450000D01*
X79975000Y-79450000D02*
X75100006Y-74575006D01*
X84650000Y-82300000D02*
X81800000Y-79450000D01*
X91000000Y-73999998D02*
X91000000Y-74565683D01*
X91000000Y-74565683D02*
X91000000Y-81549996D01*
X76175000Y-74000000D02*
X76175000Y-74025000D01*
X76175000Y-74950000D02*
X76175000Y-74000000D01*
X86375000Y-81275000D02*
X84575000Y-81275000D01*
X80200000Y-78975000D02*
X76175000Y-74950000D01*
X82275000Y-78975000D02*
X80200000Y-78975000D01*
X84575000Y-81275000D02*
X82275000Y-78975000D01*
X87400000Y-82300000D02*
X86375000Y-81275000D01*
D22*
X122525000Y-60005000D02*
X122525000Y-53250000D01*
X121480000Y-61050000D02*
X122525000Y-60005000D01*
X121465000Y-52190000D02*
X122525000Y-53250000D01*
X121465000Y-51445000D02*
X121465000Y-52190000D01*
D21*
X114575000Y-57300000D02*
X116400000Y-55475000D01*
X114575000Y-57350000D02*
X114575000Y-57300000D01*
X116400000Y-55475000D02*
X116400000Y-51450000D01*
D22*
X122975000Y-60005000D02*
X122975000Y-53250000D01*
X124020000Y-61050000D02*
X122975000Y-60005000D01*
X124005000Y-52220000D02*
X122975000Y-53250000D01*
X124005000Y-51445000D02*
X124005000Y-52220000D01*
D21*
X113845000Y-51445000D02*
X113845000Y-55930000D01*
X113845000Y-55930000D02*
X112475000Y-57300000D01*
X101975000Y-44150000D02*
X101950000Y-44150000D01*
X87210000Y-45925000D02*
X96100000Y-45925000D01*
X85260000Y-43975000D02*
X87210000Y-45925000D01*
X97875000Y-44150000D02*
X96100000Y-45925000D01*
X101975000Y-44150000D02*
X97875000Y-44150000D01*
X106200000Y-56025000D02*
X96100000Y-45925000D01*
X106200000Y-85250000D02*
X106200000Y-56025000D01*
D23*
X128460000Y-59150000D02*
X133150000Y-59150000D01*
X126560000Y-61050000D02*
X128460000Y-59150000D01*
X128250000Y-53900000D02*
X133150000Y-53900000D01*
X126545000Y-52195000D02*
X128250000Y-53900000D01*
X126545000Y-51445000D02*
X126545000Y-52195000D01*
D21*
X136200000Y-43315687D02*
X136200000Y-42750002D01*
X136200000Y-50200000D02*
X136200000Y-43315687D01*
X137575000Y-51575000D02*
X136200000Y-50200000D01*
X137575000Y-56600000D02*
X137575000Y-51575000D01*
G36*
X100502817Y-41201089D02*
G01*
X100444781Y-41309666D01*
X100409043Y-41427479D01*
X100396976Y-41550000D01*
X100396976Y-42850000D01*
X100409043Y-42972521D01*
X100444781Y-43090334D01*
X100502817Y-43198911D01*
X100580920Y-43294080D01*
X100676089Y-43372183D01*
X100728131Y-43400000D01*
X97911827Y-43400000D01*
X97874999Y-43396373D01*
X97838172Y-43400000D01*
X97838165Y-43400000D01*
X97727974Y-43410853D01*
X97586599Y-43453739D01*
X97456307Y-43523381D01*
X97342105Y-43617105D01*
X97318626Y-43645714D01*
X95789341Y-45175000D01*
X88646376Y-45175000D01*
X88794383Y-45064423D01*
X88987812Y-44849496D01*
X89135594Y-44600962D01*
X89232050Y-44328373D01*
X89113449Y-44100000D01*
X87925000Y-44100000D01*
X87925000Y-44120000D01*
X87675000Y-44120000D01*
X87675000Y-44100000D01*
X87655000Y-44100000D01*
X87655000Y-43850000D01*
X87675000Y-43850000D01*
X87675000Y-42662188D01*
X87925000Y-42662188D01*
X87925000Y-43850000D01*
X89113449Y-43850000D01*
X89232050Y-43621627D01*
X89135594Y-43349038D01*
X88987812Y-43100504D01*
X88794383Y-42885577D01*
X88562740Y-42712515D01*
X88301786Y-42587970D01*
X88153372Y-42542955D01*
X87925000Y-42662188D01*
X87675000Y-42662188D01*
X87446628Y-42542955D01*
X87298214Y-42587970D01*
X87037260Y-42712515D01*
X86805617Y-42885577D01*
X86612188Y-43100504D01*
X86534706Y-43230810D01*
X86492351Y-43151569D01*
X86308028Y-42926972D01*
X86083431Y-42742649D01*
X85827189Y-42605685D01*
X85549150Y-42521343D01*
X85332452Y-42500000D01*
X85187548Y-42500000D01*
X84970850Y-42521343D01*
X84692811Y-42605685D01*
X84663198Y-42621514D01*
X84601619Y-42506307D01*
X84507895Y-42392105D01*
X84479287Y-42368627D01*
X84006378Y-41895719D01*
X83982895Y-41867105D01*
X83868693Y-41773381D01*
X83738401Y-41703739D01*
X83597026Y-41660853D01*
X83486835Y-41650000D01*
X83486827Y-41650000D01*
X83450000Y-41646373D01*
X83413173Y-41650000D01*
X81161828Y-41650000D01*
X81125000Y-41646373D01*
X81088172Y-41650000D01*
X81088165Y-41650000D01*
X80977974Y-41660853D01*
X80836599Y-41703739D01*
X80706307Y-41773381D01*
X80592105Y-41867105D01*
X80568626Y-41895714D01*
X79948695Y-42515646D01*
X79890850Y-42521343D01*
X79612811Y-42605685D01*
X79356569Y-42742649D01*
X79131972Y-42926972D01*
X78947649Y-43151569D01*
X78910000Y-43222005D01*
X78872351Y-43151569D01*
X78688028Y-42926972D01*
X78463431Y-42742649D01*
X78207189Y-42605685D01*
X77929150Y-42521343D01*
X77712452Y-42500000D01*
X77567548Y-42500000D01*
X77350850Y-42521343D01*
X77072811Y-42605685D01*
X76816569Y-42742649D01*
X76591972Y-42926972D01*
X76556254Y-42970494D01*
X76530219Y-42884666D01*
X76472183Y-42776089D01*
X76394080Y-42680920D01*
X76298911Y-42602817D01*
X76190334Y-42544781D01*
X76072521Y-42509043D01*
X75950000Y-42496976D01*
X74250000Y-42496976D01*
X74127479Y-42509043D01*
X74009666Y-42544781D01*
X73901089Y-42602817D01*
X73805920Y-42680920D01*
X73727817Y-42776089D01*
X73669781Y-42884666D01*
X73634043Y-43002479D01*
X73621976Y-43125000D01*
X73621976Y-44825000D01*
X73634043Y-44947521D01*
X73669781Y-45065334D01*
X73727817Y-45173911D01*
X73805920Y-45269080D01*
X73901089Y-45347183D01*
X74009666Y-45405219D01*
X74127479Y-45440957D01*
X74250000Y-45453024D01*
X74451644Y-45453024D01*
X74473381Y-45493692D01*
X74567105Y-45607895D01*
X74595719Y-45631378D01*
X75293626Y-46329286D01*
X75317105Y-46357895D01*
X75431307Y-46451619D01*
X75552353Y-46516319D01*
X75561599Y-46521261D01*
X75702973Y-46564147D01*
X75713208Y-46565155D01*
X75813165Y-46575000D01*
X75813171Y-46575000D01*
X75849999Y-46578627D01*
X75886827Y-46575000D01*
X81364341Y-46575000D01*
X82593626Y-47804286D01*
X82617105Y-47832895D01*
X82645714Y-47856374D01*
X82645716Y-47856376D01*
X82654717Y-47863763D01*
X82731307Y-47926619D01*
X82861599Y-47996261D01*
X83002974Y-48039147D01*
X83113165Y-48050000D01*
X83113172Y-48050000D01*
X83149999Y-48053627D01*
X83186827Y-48050000D01*
X95239341Y-48050000D01*
X103275001Y-56085661D01*
X103275000Y-76925430D01*
X103228830Y-76971600D01*
X103116656Y-77139480D01*
X103039390Y-77326018D01*
X103000000Y-77524046D01*
X103000000Y-77725954D01*
X103039390Y-77923982D01*
X103116656Y-78110520D01*
X103228830Y-78278400D01*
X103275000Y-78324570D01*
X103275000Y-82541520D01*
X94316521Y-91500000D01*
X83149570Y-91500000D01*
X83103400Y-91453830D01*
X82935520Y-91341656D01*
X82748982Y-91264390D01*
X82550954Y-91225000D01*
X82349046Y-91225000D01*
X82151018Y-91264390D01*
X81964480Y-91341656D01*
X81796600Y-91453830D01*
X81653830Y-91596600D01*
X81541656Y-91764480D01*
X81464390Y-91951018D01*
X81458364Y-91981311D01*
X81300954Y-91950000D01*
X81099046Y-91950000D01*
X80901018Y-91989390D01*
X80714480Y-92066656D01*
X80546600Y-92178830D01*
X80403830Y-92321600D01*
X80291656Y-92489480D01*
X80214390Y-92676018D01*
X80207413Y-92711094D01*
X80025954Y-92675000D01*
X79824046Y-92675000D01*
X79626018Y-92714390D01*
X79439480Y-92791656D01*
X79271600Y-92903830D01*
X79128830Y-93046600D01*
X79016656Y-93214480D01*
X78939390Y-93401018D01*
X78900000Y-93599046D01*
X78900000Y-93800954D01*
X78939390Y-93998982D01*
X79016656Y-94185520D01*
X79128830Y-94353400D01*
X79271600Y-94496170D01*
X79439480Y-94608344D01*
X79626018Y-94685610D01*
X79824046Y-94725000D01*
X80025954Y-94725000D01*
X80223982Y-94685610D01*
X80410520Y-94608344D01*
X80578400Y-94496170D01*
X80624570Y-94450000D01*
X94413173Y-94450000D01*
X94450000Y-94453627D01*
X94486827Y-94450000D01*
X94486835Y-94450000D01*
X94597026Y-94439147D01*
X94738401Y-94396261D01*
X94868693Y-94326619D01*
X94982895Y-94232895D01*
X95006379Y-94204280D01*
X105450000Y-83760660D01*
X105450000Y-84550430D01*
X105403830Y-84596600D01*
X105291656Y-84764480D01*
X105214390Y-84951018D01*
X105175000Y-85149046D01*
X105175000Y-85350954D01*
X105214390Y-85548982D01*
X105291656Y-85735520D01*
X105403830Y-85903400D01*
X105546600Y-86046170D01*
X105714480Y-86158344D01*
X105901018Y-86235610D01*
X106099046Y-86275000D01*
X106300954Y-86275000D01*
X106498982Y-86235610D01*
X106685520Y-86158344D01*
X106853400Y-86046170D01*
X106996170Y-85903400D01*
X107108344Y-85735520D01*
X107185610Y-85548982D01*
X107225000Y-85350954D01*
X107225000Y-85149046D01*
X107185610Y-84951018D01*
X107108344Y-84764480D01*
X106996170Y-84596600D01*
X106950000Y-84550430D01*
X106950000Y-75550000D01*
X109546613Y-75550000D01*
X109550001Y-75584400D01*
X109550000Y-97515610D01*
X109546613Y-97550000D01*
X109560128Y-97687224D01*
X109600155Y-97819175D01*
X109665155Y-97940781D01*
X109752630Y-98047370D01*
X109859219Y-98134845D01*
X109980825Y-98199845D01*
X110112776Y-98239872D01*
X110250000Y-98253387D01*
X110284390Y-98250000D01*
X135215610Y-98250000D01*
X135250000Y-98253387D01*
X135284390Y-98250000D01*
X135387224Y-98239872D01*
X135519175Y-98199845D01*
X135640781Y-98134845D01*
X135747370Y-98047370D01*
X135834845Y-97940781D01*
X135899845Y-97819175D01*
X135939872Y-97687224D01*
X135953387Y-97550000D01*
X135950000Y-97515610D01*
X135950000Y-75584389D01*
X135953387Y-75550000D01*
X135939872Y-75412776D01*
X135899845Y-75280825D01*
X135834845Y-75159219D01*
X135747370Y-75052630D01*
X135640781Y-74965155D01*
X135519175Y-74900155D01*
X135387224Y-74860128D01*
X135284390Y-74850000D01*
X135250000Y-74846613D01*
X135215610Y-74850000D01*
X129950000Y-74850000D01*
X129950000Y-62584390D01*
X129953387Y-62550000D01*
X129939872Y-62412776D01*
X129899845Y-62280825D01*
X129834845Y-62159219D01*
X129747370Y-62052630D01*
X129640781Y-61965155D01*
X129519175Y-61900155D01*
X129387224Y-61860128D01*
X129284390Y-61850000D01*
X129250000Y-61846613D01*
X129215610Y-61850000D01*
X127739291Y-61850000D01*
X127822819Y-61724991D01*
X127930238Y-61465657D01*
X127985000Y-61190350D01*
X127985000Y-60909650D01*
X127977167Y-60870270D01*
X128822437Y-60025000D01*
X130835373Y-60025000D01*
X130845796Y-60059360D01*
X130935414Y-60227023D01*
X131056019Y-60373981D01*
X131202977Y-60494586D01*
X131370640Y-60584204D01*
X131552565Y-60639390D01*
X131741760Y-60658024D01*
X134558240Y-60658024D01*
X134747435Y-60639390D01*
X134929360Y-60584204D01*
X135097023Y-60494586D01*
X135243981Y-60373981D01*
X135364586Y-60227023D01*
X135454204Y-60059360D01*
X135509390Y-59877435D01*
X135528024Y-59688240D01*
X135528024Y-58591760D01*
X135509390Y-58402565D01*
X135454204Y-58220640D01*
X135364586Y-58052977D01*
X135243981Y-57906019D01*
X135097023Y-57785414D01*
X134929360Y-57695796D01*
X134747435Y-57640610D01*
X134558240Y-57621976D01*
X131741760Y-57621976D01*
X131552565Y-57640610D01*
X131370640Y-57695796D01*
X131202977Y-57785414D01*
X131056019Y-57906019D01*
X130935414Y-58052977D01*
X130845796Y-58220640D01*
X130829306Y-58275000D01*
X128502979Y-58275000D01*
X128460000Y-58270767D01*
X128417021Y-58275000D01*
X128288470Y-58287661D01*
X128123532Y-58337695D01*
X127971524Y-58418944D01*
X127838288Y-58528288D01*
X127810888Y-58561675D01*
X126739730Y-59632833D01*
X126700350Y-59625000D01*
X126419650Y-59625000D01*
X126144343Y-59679762D01*
X125885009Y-59787181D01*
X125651615Y-59943130D01*
X125453130Y-60141615D01*
X125297181Y-60375009D01*
X125290000Y-60392346D01*
X125282819Y-60375009D01*
X125126870Y-60141615D01*
X124928385Y-59943130D01*
X124694991Y-59787181D01*
X124435657Y-59679762D01*
X124160350Y-59625000D01*
X123879650Y-59625000D01*
X123700000Y-59660735D01*
X123700000Y-53550304D01*
X123922280Y-53328024D01*
X124505000Y-53328024D01*
X124627521Y-53315957D01*
X124745334Y-53280219D01*
X124853911Y-53222183D01*
X124949080Y-53144080D01*
X125027183Y-53048911D01*
X125085219Y-52940334D01*
X125120957Y-52822521D01*
X125133024Y-52700000D01*
X125133024Y-50190000D01*
X125416976Y-50190000D01*
X125416976Y-52700000D01*
X125429043Y-52822521D01*
X125464781Y-52940334D01*
X125522817Y-53048911D01*
X125600920Y-53144080D01*
X125696089Y-53222183D01*
X125804666Y-53280219D01*
X125922479Y-53315957D01*
X126045000Y-53328024D01*
X126440588Y-53328024D01*
X127600888Y-54488325D01*
X127628288Y-54521712D01*
X127761524Y-54631056D01*
X127913532Y-54712305D01*
X128078469Y-54762339D01*
X128249999Y-54779233D01*
X128292978Y-54775000D01*
X130829306Y-54775000D01*
X130845796Y-54829360D01*
X130935414Y-54997023D01*
X131056019Y-55143981D01*
X131202977Y-55264586D01*
X131370640Y-55354204D01*
X131552565Y-55409390D01*
X131741760Y-55428024D01*
X134558240Y-55428024D01*
X134747435Y-55409390D01*
X134929360Y-55354204D01*
X135097023Y-55264586D01*
X135243981Y-55143981D01*
X135364586Y-54997023D01*
X135454204Y-54829360D01*
X135509390Y-54647435D01*
X135528024Y-54458240D01*
X135528024Y-53361760D01*
X135509390Y-53172565D01*
X135454204Y-52990640D01*
X135364586Y-52822977D01*
X135243981Y-52676019D01*
X135097023Y-52555414D01*
X134929360Y-52465796D01*
X134747435Y-52410610D01*
X134558240Y-52391976D01*
X131741760Y-52391976D01*
X131552565Y-52410610D01*
X131370640Y-52465796D01*
X131202977Y-52555414D01*
X131056019Y-52676019D01*
X130935414Y-52822977D01*
X130845796Y-52990640D01*
X130835373Y-53025000D01*
X128612437Y-53025000D01*
X127673024Y-52085588D01*
X127673024Y-50190000D01*
X127660957Y-50067479D01*
X127625219Y-49949666D01*
X127567183Y-49841089D01*
X127489080Y-49745920D01*
X127393911Y-49667817D01*
X127285334Y-49609781D01*
X127167521Y-49574043D01*
X127045000Y-49561976D01*
X126045000Y-49561976D01*
X125922479Y-49574043D01*
X125804666Y-49609781D01*
X125696089Y-49667817D01*
X125600920Y-49745920D01*
X125522817Y-49841089D01*
X125464781Y-49949666D01*
X125429043Y-50067479D01*
X125416976Y-50190000D01*
X125133024Y-50190000D01*
X125120957Y-50067479D01*
X125085219Y-49949666D01*
X125027183Y-49841089D01*
X124949080Y-49745920D01*
X124853911Y-49667817D01*
X124745334Y-49609781D01*
X124627521Y-49574043D01*
X124505000Y-49561976D01*
X123505000Y-49561976D01*
X123382479Y-49574043D01*
X123264666Y-49609781D01*
X123156089Y-49667817D01*
X123060920Y-49745920D01*
X122982817Y-49841089D01*
X122924781Y-49949666D01*
X122889043Y-50067479D01*
X122876976Y-50190000D01*
X122876976Y-52322720D01*
X122750000Y-52449695D01*
X122593024Y-52292719D01*
X122593024Y-50190000D01*
X122580957Y-50067479D01*
X122545219Y-49949666D01*
X122487183Y-49841089D01*
X122409080Y-49745920D01*
X122313911Y-49667817D01*
X122205334Y-49609781D01*
X122087521Y-49574043D01*
X121965000Y-49561976D01*
X120965000Y-49561976D01*
X120842479Y-49574043D01*
X120724666Y-49609781D01*
X120616089Y-49667817D01*
X120520920Y-49745920D01*
X120442817Y-49841089D01*
X120384781Y-49949666D01*
X120349043Y-50067479D01*
X120336976Y-50190000D01*
X120336976Y-52700000D01*
X120349043Y-52822521D01*
X120384781Y-52940334D01*
X120442817Y-53048911D01*
X120520920Y-53144080D01*
X120616089Y-53222183D01*
X120724666Y-53280219D01*
X120842479Y-53315957D01*
X120965000Y-53328024D01*
X121577719Y-53328024D01*
X121800001Y-53550306D01*
X121800000Y-59660735D01*
X121620350Y-59625000D01*
X121339650Y-59625000D01*
X121064343Y-59679762D01*
X120805009Y-59787181D01*
X120571615Y-59943130D01*
X120373130Y-60141615D01*
X120217181Y-60375009D01*
X120210024Y-60392288D01*
X120167479Y-60312693D01*
X119926065Y-60240712D01*
X119116777Y-61050000D01*
X119130919Y-61064142D01*
X118954142Y-61240919D01*
X118940000Y-61226777D01*
X118925858Y-61240919D01*
X118749081Y-61064142D01*
X118763223Y-61050000D01*
X117953935Y-60240712D01*
X117712521Y-60312693D01*
X117592265Y-60566330D01*
X117523802Y-60838553D01*
X117509763Y-61118903D01*
X117550686Y-61396604D01*
X117645000Y-61660986D01*
X117712521Y-61787307D01*
X117922784Y-61850000D01*
X116284390Y-61850000D01*
X116250000Y-61846613D01*
X116215610Y-61850000D01*
X116112776Y-61860128D01*
X115980825Y-61900155D01*
X115859219Y-61965155D01*
X115752630Y-62052630D01*
X115665155Y-62159219D01*
X115600155Y-62280825D01*
X115560128Y-62412776D01*
X115546613Y-62550000D01*
X115550001Y-62584400D01*
X115550000Y-74850000D01*
X110284390Y-74850000D01*
X110250000Y-74846613D01*
X110215610Y-74850000D01*
X110112776Y-74860128D01*
X109980825Y-74900155D01*
X109859219Y-74965155D01*
X109752630Y-75052630D01*
X109665155Y-75159219D01*
X109600155Y-75280825D01*
X109560128Y-75412776D01*
X109546613Y-75550000D01*
X106950000Y-75550000D01*
X106950000Y-59600000D01*
X111371976Y-59600000D01*
X111384043Y-59722521D01*
X111419781Y-59840334D01*
X111477817Y-59948911D01*
X111555920Y-60044080D01*
X111651089Y-60122183D01*
X111759666Y-60180219D01*
X111877479Y-60215957D01*
X112000000Y-60228024D01*
X112193750Y-60225000D01*
X112350000Y-60068750D01*
X112350000Y-59200000D01*
X112600000Y-59200000D01*
X112600000Y-60068750D01*
X112756250Y-60225000D01*
X112950000Y-60228024D01*
X113072521Y-60215957D01*
X113190334Y-60180219D01*
X113298911Y-60122183D01*
X113394080Y-60044080D01*
X113472183Y-59948911D01*
X113518722Y-59861843D01*
X113519781Y-59865334D01*
X113577817Y-59973911D01*
X113655920Y-60069080D01*
X113751089Y-60147183D01*
X113859666Y-60205219D01*
X113977479Y-60240957D01*
X114100000Y-60253024D01*
X114293750Y-60250000D01*
X114450000Y-60093750D01*
X114450000Y-59225000D01*
X114700000Y-59225000D01*
X114700000Y-60093750D01*
X114856250Y-60250000D01*
X115050000Y-60253024D01*
X115172521Y-60240957D01*
X115290334Y-60205219D01*
X115398911Y-60147183D01*
X115494080Y-60069080D01*
X115498302Y-60063935D01*
X118130712Y-60063935D01*
X118940000Y-60873223D01*
X119749288Y-60063935D01*
X119677307Y-59822521D01*
X119423670Y-59702265D01*
X119151447Y-59633802D01*
X118871097Y-59619763D01*
X118593396Y-59660686D01*
X118329014Y-59755000D01*
X118202693Y-59822521D01*
X118130712Y-60063935D01*
X115498302Y-60063935D01*
X115572183Y-59973911D01*
X115630219Y-59865334D01*
X115665957Y-59747521D01*
X115678024Y-59625000D01*
X115675000Y-59381250D01*
X115518750Y-59225000D01*
X114700000Y-59225000D01*
X114450000Y-59225000D01*
X113631250Y-59225000D01*
X113537500Y-59318750D01*
X113418750Y-59200000D01*
X112600000Y-59200000D01*
X112350000Y-59200000D01*
X111531250Y-59200000D01*
X111375000Y-59356250D01*
X111371976Y-59600000D01*
X106950000Y-59600000D01*
X106950000Y-56800000D01*
X111371976Y-56800000D01*
X111371976Y-57850000D01*
X111384043Y-57972521D01*
X111419781Y-58090334D01*
X111477817Y-58198911D01*
X111478711Y-58200000D01*
X111477817Y-58201089D01*
X111419781Y-58309666D01*
X111384043Y-58427479D01*
X111371976Y-58550000D01*
X111375000Y-58793750D01*
X111531250Y-58950000D01*
X112350000Y-58950000D01*
X112350000Y-58930000D01*
X112600000Y-58930000D01*
X112600000Y-58950000D01*
X113418750Y-58950000D01*
X113512500Y-58856250D01*
X113631250Y-58975000D01*
X114450000Y-58975000D01*
X114450000Y-58955000D01*
X114700000Y-58955000D01*
X114700000Y-58975000D01*
X115518750Y-58975000D01*
X115675000Y-58818750D01*
X115678024Y-58575000D01*
X115665957Y-58452479D01*
X115630219Y-58334666D01*
X115572183Y-58226089D01*
X115571289Y-58225000D01*
X115572183Y-58223911D01*
X115630219Y-58115334D01*
X115665957Y-57997521D01*
X115678024Y-57875000D01*
X115678024Y-57257635D01*
X116904287Y-56031373D01*
X116932895Y-56007895D01*
X116966593Y-55966835D01*
X117026619Y-55893693D01*
X117096261Y-55763401D01*
X117139147Y-55622026D01*
X117140695Y-55606307D01*
X117150000Y-55511835D01*
X117150000Y-55511828D01*
X117153627Y-55475000D01*
X117150000Y-55438172D01*
X117150000Y-53267035D01*
X117233911Y-53222183D01*
X117329080Y-53144080D01*
X117407183Y-53048911D01*
X117465219Y-52940334D01*
X117500957Y-52822521D01*
X117513024Y-52700000D01*
X117796976Y-52700000D01*
X117809043Y-52822521D01*
X117844781Y-52940334D01*
X117902817Y-53048911D01*
X117980920Y-53144080D01*
X118076089Y-53222183D01*
X118184666Y-53280219D01*
X118302479Y-53315957D01*
X118425000Y-53328024D01*
X118643750Y-53325000D01*
X118800000Y-53168750D01*
X118800000Y-51570000D01*
X119050000Y-51570000D01*
X119050000Y-53168750D01*
X119206250Y-53325000D01*
X119425000Y-53328024D01*
X119547521Y-53315957D01*
X119665334Y-53280219D01*
X119773911Y-53222183D01*
X119869080Y-53144080D01*
X119947183Y-53048911D01*
X120005219Y-52940334D01*
X120040957Y-52822521D01*
X120053024Y-52700000D01*
X120050000Y-51726250D01*
X119893750Y-51570000D01*
X119050000Y-51570000D01*
X118800000Y-51570000D01*
X117956250Y-51570000D01*
X117800000Y-51726250D01*
X117796976Y-52700000D01*
X117513024Y-52700000D01*
X117513024Y-50190000D01*
X117796976Y-50190000D01*
X117800000Y-51163750D01*
X117956250Y-51320000D01*
X118800000Y-51320000D01*
X118800000Y-49721250D01*
X119050000Y-49721250D01*
X119050000Y-51320000D01*
X119893750Y-51320000D01*
X120050000Y-51163750D01*
X120053024Y-50190000D01*
X120040957Y-50067479D01*
X120005219Y-49949666D01*
X119947183Y-49841089D01*
X119869080Y-49745920D01*
X119773911Y-49667817D01*
X119665334Y-49609781D01*
X119547521Y-49574043D01*
X119425000Y-49561976D01*
X119206250Y-49565000D01*
X119050000Y-49721250D01*
X118800000Y-49721250D01*
X118643750Y-49565000D01*
X118425000Y-49561976D01*
X118302479Y-49574043D01*
X118184666Y-49609781D01*
X118076089Y-49667817D01*
X117980920Y-49745920D01*
X117902817Y-49841089D01*
X117844781Y-49949666D01*
X117809043Y-50067479D01*
X117796976Y-50190000D01*
X117513024Y-50190000D01*
X117500957Y-50067479D01*
X117465219Y-49949666D01*
X117407183Y-49841089D01*
X117329080Y-49745920D01*
X117233911Y-49667817D01*
X117125334Y-49609781D01*
X117007521Y-49574043D01*
X116885000Y-49561976D01*
X115885000Y-49561976D01*
X115762479Y-49574043D01*
X115644666Y-49609781D01*
X115536089Y-49667817D01*
X115440920Y-49745920D01*
X115362817Y-49841089D01*
X115304781Y-49949666D01*
X115269043Y-50067479D01*
X115256976Y-50190000D01*
X115256976Y-52700000D01*
X115269043Y-52822521D01*
X115304781Y-52940334D01*
X115362817Y-53048911D01*
X115440920Y-53144080D01*
X115536089Y-53222183D01*
X115644666Y-53280219D01*
X115650001Y-53281837D01*
X115650000Y-55164340D01*
X114617365Y-56196976D01*
X114547760Y-56196976D01*
X114584147Y-56077026D01*
X114589271Y-56025000D01*
X114595000Y-55966835D01*
X114595000Y-55966828D01*
X114598627Y-55930000D01*
X114595000Y-55893172D01*
X114595000Y-53275052D01*
X114693911Y-53222183D01*
X114789080Y-53144080D01*
X114867183Y-53048911D01*
X114925219Y-52940334D01*
X114960957Y-52822521D01*
X114973024Y-52700000D01*
X114973024Y-50190000D01*
X114960957Y-50067479D01*
X114925219Y-49949666D01*
X114867183Y-49841089D01*
X114789080Y-49745920D01*
X114693911Y-49667817D01*
X114585334Y-49609781D01*
X114467521Y-49574043D01*
X114345000Y-49561976D01*
X113345000Y-49561976D01*
X113222479Y-49574043D01*
X113104666Y-49609781D01*
X112996089Y-49667817D01*
X112900920Y-49745920D01*
X112822817Y-49841089D01*
X112764781Y-49949666D01*
X112729043Y-50067479D01*
X112716976Y-50190000D01*
X112716976Y-52700000D01*
X112729043Y-52822521D01*
X112764781Y-52940334D01*
X112822817Y-53048911D01*
X112900920Y-53144080D01*
X112996089Y-53222183D01*
X113095000Y-53275053D01*
X113095001Y-55619339D01*
X112542365Y-56171976D01*
X112000000Y-56171976D01*
X111877479Y-56184043D01*
X111759666Y-56219781D01*
X111651089Y-56277817D01*
X111555920Y-56355920D01*
X111477817Y-56451089D01*
X111419781Y-56559666D01*
X111384043Y-56677479D01*
X111371976Y-56800000D01*
X106950000Y-56800000D01*
X106950000Y-56061827D01*
X106953627Y-56025000D01*
X106950000Y-55988172D01*
X106950000Y-55988165D01*
X106939147Y-55877974D01*
X106896261Y-55736599D01*
X106826619Y-55606307D01*
X106774529Y-55542835D01*
X106756376Y-55520716D01*
X106756374Y-55520714D01*
X106732895Y-55492105D01*
X106704286Y-55468626D01*
X103935660Y-52700000D01*
X110176976Y-52700000D01*
X110189043Y-52822521D01*
X110224781Y-52940334D01*
X110282817Y-53048911D01*
X110360920Y-53144080D01*
X110456089Y-53222183D01*
X110564666Y-53280219D01*
X110682479Y-53315957D01*
X110805000Y-53328024D01*
X111023750Y-53325000D01*
X111180000Y-53168750D01*
X111180000Y-51570000D01*
X111430000Y-51570000D01*
X111430000Y-53168750D01*
X111586250Y-53325000D01*
X111805000Y-53328024D01*
X111927521Y-53315957D01*
X112045334Y-53280219D01*
X112153911Y-53222183D01*
X112249080Y-53144080D01*
X112327183Y-53048911D01*
X112385219Y-52940334D01*
X112420957Y-52822521D01*
X112433024Y-52700000D01*
X112430000Y-51726250D01*
X112273750Y-51570000D01*
X111430000Y-51570000D01*
X111180000Y-51570000D01*
X110336250Y-51570000D01*
X110180000Y-51726250D01*
X110176976Y-52700000D01*
X103935660Y-52700000D01*
X101425660Y-50190000D01*
X110176976Y-50190000D01*
X110180000Y-51163750D01*
X110336250Y-51320000D01*
X111180000Y-51320000D01*
X111180000Y-49721250D01*
X111430000Y-49721250D01*
X111430000Y-51320000D01*
X112273750Y-51320000D01*
X112430000Y-51163750D01*
X112433024Y-50190000D01*
X112420957Y-50067479D01*
X112385219Y-49949666D01*
X112327183Y-49841089D01*
X112249080Y-49745920D01*
X112153911Y-49667817D01*
X112045334Y-49609781D01*
X111927521Y-49574043D01*
X111805000Y-49561976D01*
X111586250Y-49565000D01*
X111430000Y-49721250D01*
X111180000Y-49721250D01*
X111023750Y-49565000D01*
X110805000Y-49561976D01*
X110682479Y-49574043D01*
X110564666Y-49609781D01*
X110456089Y-49667817D01*
X110360920Y-49745920D01*
X110282817Y-49841089D01*
X110224781Y-49949666D01*
X110189043Y-50067479D01*
X110176976Y-50190000D01*
X101425660Y-50190000D01*
X97160659Y-45925000D01*
X98185660Y-44900000D01*
X101017379Y-44900000D01*
X101044781Y-44990334D01*
X101102817Y-45098911D01*
X101180920Y-45194080D01*
X101276089Y-45272183D01*
X101384666Y-45330219D01*
X101502479Y-45365957D01*
X101625000Y-45378024D01*
X102325000Y-45378024D01*
X102447521Y-45365957D01*
X102565334Y-45330219D01*
X102673911Y-45272183D01*
X102769080Y-45194080D01*
X102847183Y-45098911D01*
X102905219Y-44990334D01*
X102940957Y-44872521D01*
X102953024Y-44750000D01*
X104396976Y-44750000D01*
X104409043Y-44872521D01*
X104444781Y-44990334D01*
X104502817Y-45098911D01*
X104580920Y-45194080D01*
X104676089Y-45272183D01*
X104784666Y-45330219D01*
X104902479Y-45365957D01*
X105025000Y-45378024D01*
X105093750Y-45375000D01*
X105250000Y-45218750D01*
X105250000Y-44275000D01*
X105500000Y-44275000D01*
X105500000Y-45218750D01*
X105656250Y-45375000D01*
X105725000Y-45378024D01*
X105847521Y-45365957D01*
X105965334Y-45330219D01*
X106073911Y-45272183D01*
X106169080Y-45194080D01*
X106247183Y-45098911D01*
X106305219Y-44990334D01*
X106340957Y-44872521D01*
X106353024Y-44750000D01*
X106350000Y-44431250D01*
X106193750Y-44275000D01*
X105500000Y-44275000D01*
X105250000Y-44275000D01*
X104556250Y-44275000D01*
X104400000Y-44431250D01*
X104396976Y-44750000D01*
X102953024Y-44750000D01*
X102953024Y-43818636D01*
X103109397Y-43787532D01*
X103286836Y-43714034D01*
X103446527Y-43607332D01*
X103582332Y-43471527D01*
X103675000Y-43332839D01*
X103767668Y-43471527D01*
X103903473Y-43607332D01*
X104063164Y-43714034D01*
X104240603Y-43787532D01*
X104399529Y-43819144D01*
X104400000Y-43868750D01*
X104556250Y-44025000D01*
X105250000Y-44025000D01*
X105250000Y-44005000D01*
X105500000Y-44005000D01*
X105500000Y-44025000D01*
X106193750Y-44025000D01*
X106350000Y-43868750D01*
X106353024Y-43550000D01*
X106345734Y-43475982D01*
X106447521Y-43465957D01*
X106565334Y-43430219D01*
X106673911Y-43372183D01*
X106769080Y-43294080D01*
X106847183Y-43198911D01*
X106905219Y-43090334D01*
X106940957Y-42972521D01*
X106953024Y-42850000D01*
X106953024Y-42799650D01*
X109880000Y-42799650D01*
X109880000Y-43080350D01*
X109934762Y-43355657D01*
X110042181Y-43614991D01*
X110198130Y-43848385D01*
X110396615Y-44046870D01*
X110630009Y-44202819D01*
X110647346Y-44210000D01*
X110630009Y-44217181D01*
X110396615Y-44373130D01*
X110198130Y-44571615D01*
X110042181Y-44805009D01*
X109934762Y-45064343D01*
X109880000Y-45339650D01*
X109880000Y-45620350D01*
X109934762Y-45895657D01*
X110042181Y-46154991D01*
X110198130Y-46388385D01*
X110396615Y-46586870D01*
X110630009Y-46742819D01*
X110889343Y-46850238D01*
X111164650Y-46905000D01*
X111445350Y-46905000D01*
X111720657Y-46850238D01*
X111979991Y-46742819D01*
X112213385Y-46586870D01*
X112411870Y-46388385D01*
X112567819Y-46154991D01*
X112675238Y-45895657D01*
X112730000Y-45620350D01*
X112730000Y-45339650D01*
X112675238Y-45064343D01*
X112567819Y-44805009D01*
X112411870Y-44571615D01*
X112213385Y-44373130D01*
X111979991Y-44217181D01*
X111962654Y-44210000D01*
X111979991Y-44202819D01*
X112213385Y-44046870D01*
X112411870Y-43848385D01*
X112567819Y-43614991D01*
X112675238Y-43355657D01*
X112730000Y-43080350D01*
X112730000Y-42799650D01*
X112675238Y-42524343D01*
X112567819Y-42265009D01*
X112411870Y-42031615D01*
X112213385Y-41833130D01*
X111979991Y-41677181D01*
X111720657Y-41569762D01*
X111445350Y-41515000D01*
X111164650Y-41515000D01*
X110889343Y-41569762D01*
X110630009Y-41677181D01*
X110396615Y-41833130D01*
X110198130Y-42031615D01*
X110042181Y-42265009D01*
X109934762Y-42524343D01*
X109880000Y-42799650D01*
X106953024Y-42799650D01*
X106953024Y-41550000D01*
X106940957Y-41427479D01*
X106905219Y-41309666D01*
X106847183Y-41201089D01*
X106784739Y-41125000D01*
X113725001Y-41125000D01*
X113725000Y-47115610D01*
X113721613Y-47150000D01*
X113735128Y-47287224D01*
X113775155Y-47419175D01*
X113840155Y-47540781D01*
X113927630Y-47647370D01*
X114034219Y-47734845D01*
X114155825Y-47799845D01*
X114287776Y-47839872D01*
X114383818Y-47849331D01*
X114425000Y-47853387D01*
X114459390Y-47850000D01*
X123390610Y-47850000D01*
X123425000Y-47853387D01*
X123459390Y-47850000D01*
X123562224Y-47839872D01*
X123694175Y-47799845D01*
X123815781Y-47734845D01*
X123922370Y-47647370D01*
X124009845Y-47540781D01*
X124074845Y-47419175D01*
X124114872Y-47287224D01*
X124128387Y-47150000D01*
X124125000Y-47115610D01*
X124125000Y-42799650D01*
X125120000Y-42799650D01*
X125120000Y-43080350D01*
X125174762Y-43355657D01*
X125282181Y-43614991D01*
X125438130Y-43848385D01*
X125636615Y-44046870D01*
X125870009Y-44202819D01*
X125887346Y-44210000D01*
X125870009Y-44217181D01*
X125636615Y-44373130D01*
X125438130Y-44571615D01*
X125282181Y-44805009D01*
X125174762Y-45064343D01*
X125120000Y-45339650D01*
X125120000Y-45620350D01*
X125174762Y-45895657D01*
X125282181Y-46154991D01*
X125438130Y-46388385D01*
X125636615Y-46586870D01*
X125870009Y-46742819D01*
X126129343Y-46850238D01*
X126404650Y-46905000D01*
X126685350Y-46905000D01*
X126960657Y-46850238D01*
X127219991Y-46742819D01*
X127453385Y-46586870D01*
X127651870Y-46388385D01*
X127807819Y-46154991D01*
X127915238Y-45895657D01*
X127970000Y-45620350D01*
X127970000Y-45339650D01*
X127915238Y-45064343D01*
X127807819Y-44805009D01*
X127651870Y-44571615D01*
X127453385Y-44373130D01*
X127219991Y-44217181D01*
X127202654Y-44210000D01*
X127219991Y-44202819D01*
X127453385Y-44046870D01*
X127651870Y-43848385D01*
X127807819Y-43614991D01*
X127915238Y-43355657D01*
X127970000Y-43080350D01*
X127970000Y-42799650D01*
X127940044Y-42649048D01*
X135175000Y-42649048D01*
X135175000Y-42850956D01*
X135214390Y-43048984D01*
X135291656Y-43235522D01*
X135403830Y-43403402D01*
X135450001Y-43449573D01*
X135450000Y-50163173D01*
X135446373Y-50200000D01*
X135450000Y-50236827D01*
X135450000Y-50236834D01*
X135460853Y-50347025D01*
X135503739Y-50488400D01*
X135573381Y-50618692D01*
X135667105Y-50732895D01*
X135695719Y-50756378D01*
X136825001Y-51885661D01*
X136825000Y-55900430D01*
X136778830Y-55946600D01*
X136666656Y-56114480D01*
X136589390Y-56301018D01*
X136550000Y-56499046D01*
X136550000Y-56700954D01*
X136589390Y-56898982D01*
X136666656Y-57085520D01*
X136778830Y-57253400D01*
X136921600Y-57396170D01*
X137089480Y-57508344D01*
X137276018Y-57585610D01*
X137474046Y-57625000D01*
X137675954Y-57625000D01*
X137873982Y-57585610D01*
X138060520Y-57508344D01*
X138228400Y-57396170D01*
X138371170Y-57253400D01*
X138483344Y-57085520D01*
X138560610Y-56898982D01*
X138600000Y-56700954D01*
X138600000Y-56499046D01*
X138560610Y-56301018D01*
X138483344Y-56114480D01*
X138371170Y-55946600D01*
X138325000Y-55900430D01*
X138325000Y-51611828D01*
X138328627Y-51575000D01*
X138325000Y-51538172D01*
X138325000Y-51538165D01*
X138314147Y-51427974D01*
X138271261Y-51286599D01*
X138201619Y-51156307D01*
X138107895Y-51042105D01*
X138079286Y-51018626D01*
X136950000Y-49889341D01*
X136950000Y-43449572D01*
X136996170Y-43403402D01*
X137108344Y-43235522D01*
X137185610Y-43048984D01*
X137225000Y-42850956D01*
X137225000Y-42649048D01*
X137185610Y-42451020D01*
X137108344Y-42264482D01*
X136996170Y-42096602D01*
X136853400Y-41953832D01*
X136685520Y-41841658D01*
X136498982Y-41764392D01*
X136300954Y-41725002D01*
X136099046Y-41725002D01*
X135901018Y-41764392D01*
X135714480Y-41841658D01*
X135546600Y-41953832D01*
X135403830Y-42096602D01*
X135291656Y-42264482D01*
X135214390Y-42451020D01*
X135175000Y-42649048D01*
X127940044Y-42649048D01*
X127915238Y-42524343D01*
X127807819Y-42265009D01*
X127651870Y-42031615D01*
X127453385Y-41833130D01*
X127219991Y-41677181D01*
X126960657Y-41569762D01*
X126685350Y-41515000D01*
X126404650Y-41515000D01*
X126129343Y-41569762D01*
X125870009Y-41677181D01*
X125636615Y-41833130D01*
X125438130Y-42031615D01*
X125282181Y-42265009D01*
X125174762Y-42524343D01*
X125120000Y-42799650D01*
X124125000Y-42799650D01*
X124125000Y-41125000D01*
X138925000Y-41125000D01*
X138925001Y-46233846D01*
X138857278Y-46255329D01*
X138798978Y-46280317D01*
X138740310Y-46304497D01*
X138731713Y-46309146D01*
X138620546Y-46370260D01*
X138568210Y-46406095D01*
X138515347Y-46441217D01*
X138507816Y-46447448D01*
X138410639Y-46528991D01*
X138366270Y-46574299D01*
X138321235Y-46619020D01*
X138315058Y-46626594D01*
X138315054Y-46626599D01*
X138315051Y-46626604D01*
X138235568Y-46725460D01*
X138200824Y-46778553D01*
X138165349Y-46831146D01*
X138160764Y-46839771D01*
X138160761Y-46839775D01*
X138160761Y-46839776D01*
X138101988Y-46952198D01*
X138078210Y-47011050D01*
X138053635Y-47069511D01*
X138050812Y-47078860D01*
X138050810Y-47078866D01*
X138050810Y-47078868D01*
X138014993Y-47200563D01*
X138003103Y-47262892D01*
X137990347Y-47325034D01*
X137989394Y-47334762D01*
X137977897Y-47461098D01*
X137978340Y-47524538D01*
X137977897Y-47587979D01*
X137978851Y-47597706D01*
X137992111Y-47723870D01*
X138004865Y-47786007D01*
X138016756Y-47848341D01*
X138019578Y-47857684D01*
X138019580Y-47857695D01*
X138019584Y-47857705D01*
X138057094Y-47978882D01*
X138081691Y-48037396D01*
X138105447Y-48096194D01*
X138110036Y-48104824D01*
X138170373Y-48216414D01*
X138205869Y-48269038D01*
X138240588Y-48322096D01*
X138246765Y-48329670D01*
X138327627Y-48427416D01*
X138372676Y-48472152D01*
X138417034Y-48517450D01*
X138424559Y-48523675D01*
X138424565Y-48523681D01*
X138424570Y-48523684D01*
X138522872Y-48603858D01*
X138575737Y-48638982D01*
X138628068Y-48674814D01*
X138636655Y-48679457D01*
X138636661Y-48679461D01*
X138636666Y-48679463D01*
X138748675Y-48739019D01*
X138807313Y-48763188D01*
X138865645Y-48788189D01*
X138874982Y-48791079D01*
X138925000Y-48806180D01*
X138925001Y-52534390D01*
X138928389Y-52568790D01*
X138928389Y-52575285D01*
X138929411Y-52585006D01*
X138934128Y-52627064D01*
X138935129Y-52637224D01*
X138935349Y-52637951D01*
X138940288Y-52681981D01*
X138953485Y-52744071D01*
X138965802Y-52806277D01*
X138968692Y-52815614D01*
X138998198Y-52908630D01*
X139023199Y-52966962D01*
X139047368Y-53025600D01*
X139052017Y-53034198D01*
X139099028Y-53119710D01*
X139134874Y-53172062D01*
X139169984Y-53224907D01*
X139176214Y-53232438D01*
X139238939Y-53307190D01*
X139284287Y-53351597D01*
X139328970Y-53396594D01*
X139336544Y-53402772D01*
X139412594Y-53463918D01*
X139465701Y-53498670D01*
X139518281Y-53534136D01*
X139526904Y-53538721D01*
X139526909Y-53538724D01*
X139526914Y-53538726D01*
X139613391Y-53583935D01*
X139672239Y-53607712D01*
X139730698Y-53632286D01*
X139740051Y-53635110D01*
X139740059Y-53635113D01*
X139740067Y-53635115D01*
X139833666Y-53662663D01*
X139896001Y-53674554D01*
X139958140Y-53687310D01*
X139967856Y-53688262D01*
X139967862Y-53688263D01*
X139967868Y-53688263D01*
X140065050Y-53697107D01*
X140128524Y-53696664D01*
X140191932Y-53697107D01*
X140201649Y-53696154D01*
X140201663Y-53696154D01*
X140201676Y-53696151D01*
X140298708Y-53685953D01*
X140360878Y-53673192D01*
X140423177Y-53661308D01*
X140432524Y-53658486D01*
X140432534Y-53658484D01*
X140432543Y-53658480D01*
X140525753Y-53629627D01*
X140584283Y-53605024D01*
X140643068Y-53581273D01*
X140651686Y-53576690D01*
X140651694Y-53576687D01*
X140651700Y-53576683D01*
X140737536Y-53530272D01*
X140790156Y-53494779D01*
X140843220Y-53460055D01*
X140850792Y-53453879D01*
X140850795Y-53453877D01*
X140850800Y-53453872D01*
X140925983Y-53391675D01*
X140970698Y-53346647D01*
X141016012Y-53302273D01*
X141022243Y-53294742D01*
X141083918Y-53219121D01*
X141096622Y-53200000D01*
X144753436Y-53200000D01*
X144769984Y-53224907D01*
X144776214Y-53232438D01*
X144838939Y-53307190D01*
X144884287Y-53351597D01*
X144928970Y-53396594D01*
X144936544Y-53402772D01*
X145012594Y-53463918D01*
X145065701Y-53498670D01*
X145118281Y-53534136D01*
X145126904Y-53538721D01*
X145126909Y-53538724D01*
X145126914Y-53538726D01*
X145213391Y-53583935D01*
X145272239Y-53607712D01*
X145330698Y-53632286D01*
X145340051Y-53635110D01*
X145340059Y-53635113D01*
X145340067Y-53635115D01*
X145433666Y-53662663D01*
X145496001Y-53674554D01*
X145558140Y-53687310D01*
X145567856Y-53688262D01*
X145567862Y-53688263D01*
X145567868Y-53688263D01*
X145665050Y-53697107D01*
X145728524Y-53696664D01*
X145791932Y-53697107D01*
X145801649Y-53696154D01*
X145801663Y-53696154D01*
X145801676Y-53696151D01*
X145898708Y-53685953D01*
X145960878Y-53673192D01*
X146023177Y-53661308D01*
X146032524Y-53658486D01*
X146032534Y-53658484D01*
X146032543Y-53658480D01*
X146125753Y-53629627D01*
X146184283Y-53605024D01*
X146243068Y-53581273D01*
X146251686Y-53576690D01*
X146251694Y-53576687D01*
X146251700Y-53576683D01*
X146337536Y-53530272D01*
X146390156Y-53494779D01*
X146443220Y-53460055D01*
X146450792Y-53453879D01*
X146450795Y-53453877D01*
X146450800Y-53453872D01*
X146525983Y-53391675D01*
X146570698Y-53346647D01*
X146616012Y-53302273D01*
X146622243Y-53294742D01*
X146683918Y-53219121D01*
X146719022Y-53166287D01*
X146754878Y-53113921D01*
X146759526Y-53105323D01*
X146805338Y-53019162D01*
X146829515Y-52960504D01*
X146854506Y-52902197D01*
X146857396Y-52892860D01*
X146885601Y-52799442D01*
X146897927Y-52737190D01*
X146911116Y-52675143D01*
X146912136Y-52665435D01*
X146912137Y-52665428D01*
X146912137Y-52665422D01*
X146921492Y-52570005D01*
X146925000Y-52534390D01*
X146925000Y-48806154D01*
X146992722Y-48784671D01*
X147051064Y-48759666D01*
X147109689Y-48735503D01*
X147118281Y-48730857D01*
X147118291Y-48730853D01*
X147118300Y-48730847D01*
X147229454Y-48669740D01*
X147281807Y-48633893D01*
X147334652Y-48598783D01*
X147342172Y-48592561D01*
X147342178Y-48592557D01*
X147342182Y-48592552D01*
X147439361Y-48511010D01*
X147483749Y-48465682D01*
X147528765Y-48420980D01*
X147534942Y-48413405D01*
X147534946Y-48413401D01*
X147534949Y-48413396D01*
X147614432Y-48314540D01*
X147649176Y-48261447D01*
X147684651Y-48208854D01*
X147689236Y-48200229D01*
X147689239Y-48200225D01*
X147689241Y-48200221D01*
X147748012Y-48087802D01*
X147771784Y-48028964D01*
X147796365Y-47970490D01*
X147799190Y-47961133D01*
X147835007Y-47839437D01*
X147846897Y-47777108D01*
X147859653Y-47714966D01*
X147860606Y-47705238D01*
X147872103Y-47578902D01*
X147871660Y-47515500D01*
X147872104Y-47452021D01*
X147871149Y-47442294D01*
X147857889Y-47316131D01*
X147845131Y-47253975D01*
X147833244Y-47191659D01*
X147830422Y-47182316D01*
X147830420Y-47182305D01*
X147830416Y-47182295D01*
X147792905Y-47061118D01*
X147768322Y-47002636D01*
X147744553Y-46943806D01*
X147739964Y-46935176D01*
X147679627Y-46823586D01*
X147644131Y-46770962D01*
X147609412Y-46717904D01*
X147603235Y-46710330D01*
X147522373Y-46612584D01*
X147477324Y-46567848D01*
X147432966Y-46522550D01*
X147425441Y-46516325D01*
X147425435Y-46516319D01*
X147425428Y-46516315D01*
X147327128Y-46436142D01*
X147274278Y-46401028D01*
X147221932Y-46365186D01*
X147213334Y-46360537D01*
X147101325Y-46300981D01*
X147042674Y-46276807D01*
X146984355Y-46251811D01*
X146975017Y-46248921D01*
X146925000Y-46233820D01*
X146925000Y-41125000D01*
X155125000Y-41125000D01*
X155125000Y-108875000D01*
X72375000Y-108875000D01*
X72375000Y-97520102D01*
X81325000Y-97520102D01*
X81325000Y-97859898D01*
X81391290Y-98193164D01*
X81521324Y-98507094D01*
X81710105Y-98789624D01*
X81950376Y-99029895D01*
X82232906Y-99218676D01*
X82546836Y-99348710D01*
X82880102Y-99415000D01*
X83219898Y-99415000D01*
X83553164Y-99348710D01*
X83867094Y-99218676D01*
X84149624Y-99029895D01*
X84389895Y-98789624D01*
X84578676Y-98507094D01*
X84592364Y-98474046D01*
X101875000Y-98474046D01*
X101875000Y-98675954D01*
X101914390Y-98873982D01*
X101991656Y-99060520D01*
X102093207Y-99212501D01*
X101991658Y-99364480D01*
X101914392Y-99551018D01*
X101875002Y-99749046D01*
X101875002Y-99950954D01*
X101914392Y-100148982D01*
X101991658Y-100335520D01*
X102103832Y-100503400D01*
X102246602Y-100646170D01*
X102414482Y-100758344D01*
X102601020Y-100835610D01*
X102799048Y-100875000D01*
X102864343Y-100875000D01*
X104693628Y-102704286D01*
X104717107Y-102732895D01*
X104831309Y-102826619D01*
X104961601Y-102896261D01*
X105102976Y-102939147D01*
X105213167Y-102950000D01*
X105213174Y-102950000D01*
X105250002Y-102953627D01*
X105286829Y-102950000D01*
X125275430Y-102950000D01*
X125321600Y-102996170D01*
X125489480Y-103108344D01*
X125676018Y-103185610D01*
X125874046Y-103225000D01*
X126075954Y-103225000D01*
X126273982Y-103185610D01*
X126460520Y-103108344D01*
X126628400Y-102996170D01*
X126771170Y-102853400D01*
X126883344Y-102685520D01*
X126960610Y-102498982D01*
X127000000Y-102300954D01*
X127000000Y-102099046D01*
X126960610Y-101901018D01*
X126883344Y-101714480D01*
X126771170Y-101546600D01*
X126628400Y-101403830D01*
X126460520Y-101291656D01*
X126273982Y-101214390D01*
X126075954Y-101175000D01*
X125874046Y-101175000D01*
X125676018Y-101214390D01*
X125489480Y-101291656D01*
X125321600Y-101403830D01*
X125275430Y-101450000D01*
X123720353Y-101450000D01*
X123750000Y-101300954D01*
X123750000Y-101099046D01*
X123710610Y-100901018D01*
X123633344Y-100714480D01*
X123521170Y-100546600D01*
X123378400Y-100403830D01*
X123210520Y-100291656D01*
X123023982Y-100214390D01*
X122825954Y-100175000D01*
X122624046Y-100175000D01*
X122426018Y-100214390D01*
X122239480Y-100291656D01*
X122071600Y-100403830D01*
X122025430Y-100450000D01*
X105835660Y-100450000D01*
X103925000Y-98539341D01*
X103925000Y-98474046D01*
X103885610Y-98276018D01*
X103808344Y-98089480D01*
X103696170Y-97921600D01*
X103553400Y-97778830D01*
X103385520Y-97666656D01*
X103198982Y-97589390D01*
X103000954Y-97550000D01*
X102799046Y-97550000D01*
X102601018Y-97589390D01*
X102414480Y-97666656D01*
X102246600Y-97778830D01*
X102103830Y-97921600D01*
X101991656Y-98089480D01*
X101914390Y-98276018D01*
X101875000Y-98474046D01*
X84592364Y-98474046D01*
X84708710Y-98193164D01*
X84775000Y-97859898D01*
X84775000Y-97520102D01*
X84708710Y-97186836D01*
X84578676Y-96872906D01*
X84389895Y-96590376D01*
X84149624Y-96350105D01*
X83867094Y-96161324D01*
X83553164Y-96031290D01*
X83219898Y-95965000D01*
X82880102Y-95965000D01*
X82546836Y-96031290D01*
X82232906Y-96161324D01*
X81950376Y-96350105D01*
X81710105Y-96590376D01*
X81521324Y-96872906D01*
X81391290Y-97186836D01*
X81325000Y-97520102D01*
X72375000Y-97520102D01*
X72375000Y-73874046D01*
X72825082Y-73874046D01*
X72825082Y-74075954D01*
X72864472Y-74273982D01*
X72941738Y-74460520D01*
X73053912Y-74628400D01*
X73196682Y-74771170D01*
X73364562Y-74883344D01*
X73551100Y-74960610D01*
X73749128Y-75000000D01*
X73814423Y-75000000D01*
X77350000Y-78535578D01*
X77350001Y-88216110D01*
X77294511Y-88271600D01*
X77182337Y-88439480D01*
X77105071Y-88626018D01*
X77065681Y-88824046D01*
X77065681Y-89025954D01*
X77105071Y-89223982D01*
X77182337Y-89410520D01*
X77294511Y-89578400D01*
X77437281Y-89721170D01*
X77605161Y-89833344D01*
X77791699Y-89910610D01*
X77989727Y-89950000D01*
X78191635Y-89950000D01*
X78389663Y-89910610D01*
X78576201Y-89833344D01*
X78744081Y-89721170D01*
X78886851Y-89578400D01*
X78999025Y-89410520D01*
X79076291Y-89223982D01*
X79115681Y-89025954D01*
X79115681Y-88824046D01*
X79076291Y-88626018D01*
X78999025Y-88439480D01*
X78886851Y-88271600D01*
X78850000Y-88234749D01*
X78850000Y-79385660D01*
X79418626Y-79954286D01*
X79442105Y-79982895D01*
X79556307Y-80076619D01*
X79686599Y-80146261D01*
X79827974Y-80189147D01*
X79938165Y-80200000D01*
X79938172Y-80200000D01*
X79975000Y-80203627D01*
X80011828Y-80200000D01*
X81489341Y-80200000D01*
X83625000Y-82335660D01*
X83625000Y-82400954D01*
X83664390Y-82598982D01*
X83741656Y-82785520D01*
X83853830Y-82953400D01*
X83996600Y-83096170D01*
X84164480Y-83208344D01*
X84351018Y-83285610D01*
X84549046Y-83325000D01*
X84750954Y-83325000D01*
X84948982Y-83285610D01*
X85135520Y-83208344D01*
X85303400Y-83096170D01*
X85446170Y-82953400D01*
X85558344Y-82785520D01*
X85635610Y-82598982D01*
X85675000Y-82400954D01*
X85675000Y-82199046D01*
X85640380Y-82025000D01*
X86064341Y-82025000D01*
X86375000Y-82335660D01*
X86375000Y-82400954D01*
X86414390Y-82598982D01*
X86491656Y-82785520D01*
X86603830Y-82953400D01*
X86746600Y-83096170D01*
X86914480Y-83208344D01*
X87101018Y-83285610D01*
X87299046Y-83325000D01*
X87500954Y-83325000D01*
X87698982Y-83285610D01*
X87885520Y-83208344D01*
X88053400Y-83096170D01*
X88196170Y-82953400D01*
X88308344Y-82785520D01*
X88385610Y-82598982D01*
X88425000Y-82400954D01*
X88425000Y-82199046D01*
X88385610Y-82001018D01*
X88308344Y-81814480D01*
X88196170Y-81646600D01*
X88053400Y-81503830D01*
X87885520Y-81391656D01*
X87698982Y-81314390D01*
X87500954Y-81275000D01*
X87435660Y-81275000D01*
X86931378Y-80770719D01*
X86907895Y-80742105D01*
X86793693Y-80648381D01*
X86663401Y-80578739D01*
X86522026Y-80535853D01*
X86411835Y-80525000D01*
X86411827Y-80525000D01*
X86375000Y-80521373D01*
X86338173Y-80525000D01*
X84885660Y-80525000D01*
X84660660Y-80300000D01*
X84846029Y-80300000D01*
X85034397Y-80262532D01*
X85211836Y-80189034D01*
X85371527Y-80082332D01*
X85507332Y-79946527D01*
X85614034Y-79786836D01*
X85687532Y-79609397D01*
X85725000Y-79421029D01*
X85725000Y-79228971D01*
X85687532Y-79040603D01*
X85614034Y-78863164D01*
X85507332Y-78703473D01*
X85371527Y-78567668D01*
X85211836Y-78460966D01*
X85034397Y-78387468D01*
X84846029Y-78350000D01*
X84653971Y-78350000D01*
X84465603Y-78387468D01*
X84288164Y-78460966D01*
X84128473Y-78567668D01*
X83992668Y-78703473D01*
X83885966Y-78863164D01*
X83812468Y-79040603D01*
X83775000Y-79228971D01*
X83775000Y-79414341D01*
X82831379Y-78470720D01*
X82807895Y-78442105D01*
X82693693Y-78348381D01*
X82563401Y-78278739D01*
X82422026Y-78235853D01*
X82311835Y-78225000D01*
X82311827Y-78225000D01*
X82275000Y-78221373D01*
X82238173Y-78225000D01*
X80510660Y-78225000D01*
X76955115Y-74669455D01*
X76971170Y-74653400D01*
X77083344Y-74485520D01*
X77160610Y-74298982D01*
X77200000Y-74100954D01*
X77200000Y-73899046D01*
X77160610Y-73701018D01*
X77083344Y-73514480D01*
X76971170Y-73346600D01*
X76828400Y-73203830D01*
X76660520Y-73091656D01*
X76473982Y-73014390D01*
X76275954Y-72975000D01*
X76110279Y-72975000D01*
X76125006Y-72900964D01*
X76125006Y-72699056D01*
X76085616Y-72501028D01*
X76008350Y-72314490D01*
X75896176Y-72146610D01*
X75753406Y-72003840D01*
X75596571Y-71899046D01*
X89100000Y-71899046D01*
X89100000Y-72100954D01*
X89139390Y-72298982D01*
X89216656Y-72485520D01*
X89328830Y-72653400D01*
X89375000Y-72699570D01*
X89375001Y-80100431D01*
X89328832Y-80146600D01*
X89216658Y-80314480D01*
X89139392Y-80501018D01*
X89100002Y-80699046D01*
X89100002Y-80900954D01*
X89139392Y-81098982D01*
X89216658Y-81285520D01*
X89328832Y-81453400D01*
X89471602Y-81596170D01*
X89639482Y-81708344D01*
X89826020Y-81785610D01*
X90009026Y-81822012D01*
X90014390Y-81848978D01*
X90091656Y-82035516D01*
X90203830Y-82203396D01*
X90346600Y-82346166D01*
X90514480Y-82458340D01*
X90701018Y-82535606D01*
X90899046Y-82574996D01*
X91100954Y-82574996D01*
X91298982Y-82535606D01*
X91485520Y-82458340D01*
X91653400Y-82346166D01*
X91796170Y-82203396D01*
X91908344Y-82035516D01*
X91985610Y-81848978D01*
X92025000Y-81650950D01*
X92025000Y-81449042D01*
X91985610Y-81251014D01*
X91908344Y-81064476D01*
X91796170Y-80896596D01*
X91750000Y-80850426D01*
X91750000Y-74699568D01*
X91796170Y-74653398D01*
X91908344Y-74485518D01*
X91985610Y-74298980D01*
X92025000Y-74100952D01*
X92025000Y-73899044D01*
X91985610Y-73701016D01*
X91908344Y-73514478D01*
X91796170Y-73346598D01*
X91653400Y-73203828D01*
X91485520Y-73091654D01*
X91298982Y-73014388D01*
X91100954Y-72974998D01*
X90899046Y-72974998D01*
X90875000Y-72979781D01*
X90875000Y-72699570D01*
X90921170Y-72653400D01*
X91033344Y-72485520D01*
X91110610Y-72298982D01*
X91150000Y-72100954D01*
X91150000Y-71899046D01*
X91110610Y-71701018D01*
X91033344Y-71514480D01*
X90921170Y-71346600D01*
X90778400Y-71203830D01*
X90610520Y-71091656D01*
X90423982Y-71014390D01*
X90225954Y-70975000D01*
X90024046Y-70975000D01*
X89826018Y-71014390D01*
X89639480Y-71091656D01*
X89471600Y-71203830D01*
X89328830Y-71346600D01*
X89216656Y-71514480D01*
X89139390Y-71701018D01*
X89100000Y-71899046D01*
X75596571Y-71899046D01*
X75585526Y-71891666D01*
X75398988Y-71814400D01*
X75200960Y-71775010D01*
X74999052Y-71775010D01*
X74801024Y-71814400D01*
X74614486Y-71891666D01*
X74446606Y-72003840D01*
X74303836Y-72146610D01*
X74191662Y-72314490D01*
X74114396Y-72501028D01*
X74075006Y-72699056D01*
X74075006Y-72900964D01*
X74090269Y-72977695D01*
X73951036Y-72950000D01*
X73749128Y-72950000D01*
X73551100Y-72989390D01*
X73364562Y-73066656D01*
X73196682Y-73178830D01*
X73053912Y-73321600D01*
X72941738Y-73489480D01*
X72864472Y-73676018D01*
X72825082Y-73874046D01*
X72375000Y-73874046D01*
X72375000Y-70578971D01*
X83775000Y-70578971D01*
X83775000Y-70771029D01*
X83812468Y-70959397D01*
X83885966Y-71136836D01*
X83992668Y-71296527D01*
X84128473Y-71432332D01*
X84288164Y-71539034D01*
X84465603Y-71612532D01*
X84653971Y-71650000D01*
X84846029Y-71650000D01*
X85034397Y-71612532D01*
X85211836Y-71539034D01*
X85371527Y-71432332D01*
X85507332Y-71296527D01*
X85614034Y-71136836D01*
X85687532Y-70959397D01*
X85725000Y-70771029D01*
X85725000Y-70578971D01*
X85687532Y-70390603D01*
X85614034Y-70213164D01*
X85507332Y-70053473D01*
X85371527Y-69917668D01*
X85211836Y-69810966D01*
X85034397Y-69737468D01*
X84846029Y-69700000D01*
X84653971Y-69700000D01*
X84465603Y-69737468D01*
X84288164Y-69810966D01*
X84128473Y-69917668D01*
X83992668Y-70053473D01*
X83885966Y-70213164D01*
X83812468Y-70390603D01*
X83775000Y-70578971D01*
X72375000Y-70578971D01*
X72375000Y-52140102D01*
X81325000Y-52140102D01*
X81325000Y-52479898D01*
X81391290Y-52813164D01*
X81521324Y-53127094D01*
X81710105Y-53409624D01*
X81950376Y-53649895D01*
X82232906Y-53838676D01*
X82546836Y-53968710D01*
X82880102Y-54035000D01*
X83219898Y-54035000D01*
X83553164Y-53968710D01*
X83867094Y-53838676D01*
X84149624Y-53649895D01*
X84389895Y-53409624D01*
X84578676Y-53127094D01*
X84708710Y-52813164D01*
X84775000Y-52479898D01*
X84775000Y-52140102D01*
X84708710Y-51806836D01*
X84578676Y-51492906D01*
X84389895Y-51210376D01*
X84149624Y-50970105D01*
X83867094Y-50781324D01*
X83553164Y-50651290D01*
X83219898Y-50585000D01*
X82880102Y-50585000D01*
X82546836Y-50651290D01*
X82232906Y-50781324D01*
X81950376Y-50970105D01*
X81710105Y-51210376D01*
X81521324Y-51492906D01*
X81391290Y-51806836D01*
X81325000Y-52140102D01*
X72375000Y-52140102D01*
X72375000Y-41125000D01*
X100565261Y-41125000D01*
X100502817Y-41201089D01*
X100502817Y-41201089D01*
G37*
X100502817Y-41201089D02*
X100444781Y-41309666D01*
X100409043Y-41427479D01*
X100396976Y-41550000D01*
X100396976Y-42850000D01*
X100409043Y-42972521D01*
X100444781Y-43090334D01*
X100502817Y-43198911D01*
X100580920Y-43294080D01*
X100676089Y-43372183D01*
X100728131Y-43400000D01*
X97911827Y-43400000D01*
X97874999Y-43396373D01*
X97838172Y-43400000D01*
X97838165Y-43400000D01*
X97727974Y-43410853D01*
X97586599Y-43453739D01*
X97456307Y-43523381D01*
X97342105Y-43617105D01*
X97318626Y-43645714D01*
X95789341Y-45175000D01*
X88646376Y-45175000D01*
X88794383Y-45064423D01*
X88987812Y-44849496D01*
X89135594Y-44600962D01*
X89232050Y-44328373D01*
X89113449Y-44100000D01*
X87925000Y-44100000D01*
X87925000Y-44120000D01*
X87675000Y-44120000D01*
X87675000Y-44100000D01*
X87655000Y-44100000D01*
X87655000Y-43850000D01*
X87675000Y-43850000D01*
X87675000Y-42662188D01*
X87925000Y-42662188D01*
X87925000Y-43850000D01*
X89113449Y-43850000D01*
X89232050Y-43621627D01*
X89135594Y-43349038D01*
X88987812Y-43100504D01*
X88794383Y-42885577D01*
X88562740Y-42712515D01*
X88301786Y-42587970D01*
X88153372Y-42542955D01*
X87925000Y-42662188D01*
X87675000Y-42662188D01*
X87446628Y-42542955D01*
X87298214Y-42587970D01*
X87037260Y-42712515D01*
X86805617Y-42885577D01*
X86612188Y-43100504D01*
X86534706Y-43230810D01*
X86492351Y-43151569D01*
X86308028Y-42926972D01*
X86083431Y-42742649D01*
X85827189Y-42605685D01*
X85549150Y-42521343D01*
X85332452Y-42500000D01*
X85187548Y-42500000D01*
X84970850Y-42521343D01*
X84692811Y-42605685D01*
X84663198Y-42621514D01*
X84601619Y-42506307D01*
X84507895Y-42392105D01*
X84479287Y-42368627D01*
X84006378Y-41895719D01*
X83982895Y-41867105D01*
X83868693Y-41773381D01*
X83738401Y-41703739D01*
X83597026Y-41660853D01*
X83486835Y-41650000D01*
X83486827Y-41650000D01*
X83450000Y-41646373D01*
X83413173Y-41650000D01*
X81161828Y-41650000D01*
X81125000Y-41646373D01*
X81088172Y-41650000D01*
X81088165Y-41650000D01*
X80977974Y-41660853D01*
X80836599Y-41703739D01*
X80706307Y-41773381D01*
X80592105Y-41867105D01*
X80568626Y-41895714D01*
X79948695Y-42515646D01*
X79890850Y-42521343D01*
X79612811Y-42605685D01*
X79356569Y-42742649D01*
X79131972Y-42926972D01*
X78947649Y-43151569D01*
X78910000Y-43222005D01*
X78872351Y-43151569D01*
X78688028Y-42926972D01*
X78463431Y-42742649D01*
X78207189Y-42605685D01*
X77929150Y-42521343D01*
X77712452Y-42500000D01*
X77567548Y-42500000D01*
X77350850Y-42521343D01*
X77072811Y-42605685D01*
X76816569Y-42742649D01*
X76591972Y-42926972D01*
X76556254Y-42970494D01*
X76530219Y-42884666D01*
X76472183Y-42776089D01*
X76394080Y-42680920D01*
X76298911Y-42602817D01*
X76190334Y-42544781D01*
X76072521Y-42509043D01*
X75950000Y-42496976D01*
X74250000Y-42496976D01*
X74127479Y-42509043D01*
X74009666Y-42544781D01*
X73901089Y-42602817D01*
X73805920Y-42680920D01*
X73727817Y-42776089D01*
X73669781Y-42884666D01*
X73634043Y-43002479D01*
X73621976Y-43125000D01*
X73621976Y-44825000D01*
X73634043Y-44947521D01*
X73669781Y-45065334D01*
X73727817Y-45173911D01*
X73805920Y-45269080D01*
X73901089Y-45347183D01*
X74009666Y-45405219D01*
X74127479Y-45440957D01*
X74250000Y-45453024D01*
X74451644Y-45453024D01*
X74473381Y-45493692D01*
X74567105Y-45607895D01*
X74595719Y-45631378D01*
X75293626Y-46329286D01*
X75317105Y-46357895D01*
X75431307Y-46451619D01*
X75552353Y-46516319D01*
X75561599Y-46521261D01*
X75702973Y-46564147D01*
X75713208Y-46565155D01*
X75813165Y-46575000D01*
X75813171Y-46575000D01*
X75849999Y-46578627D01*
X75886827Y-46575000D01*
X81364341Y-46575000D01*
X82593626Y-47804286D01*
X82617105Y-47832895D01*
X82645714Y-47856374D01*
X82645716Y-47856376D01*
X82654717Y-47863763D01*
X82731307Y-47926619D01*
X82861599Y-47996261D01*
X83002974Y-48039147D01*
X83113165Y-48050000D01*
X83113172Y-48050000D01*
X83149999Y-48053627D01*
X83186827Y-48050000D01*
X95239341Y-48050000D01*
X103275001Y-56085661D01*
X103275000Y-76925430D01*
X103228830Y-76971600D01*
X103116656Y-77139480D01*
X103039390Y-77326018D01*
X103000000Y-77524046D01*
X103000000Y-77725954D01*
X103039390Y-77923982D01*
X103116656Y-78110520D01*
X103228830Y-78278400D01*
X103275000Y-78324570D01*
X103275000Y-82541520D01*
X94316521Y-91500000D01*
X83149570Y-91500000D01*
X83103400Y-91453830D01*
X82935520Y-91341656D01*
X82748982Y-91264390D01*
X82550954Y-91225000D01*
X82349046Y-91225000D01*
X82151018Y-91264390D01*
X81964480Y-91341656D01*
X81796600Y-91453830D01*
X81653830Y-91596600D01*
X81541656Y-91764480D01*
X81464390Y-91951018D01*
X81458364Y-91981311D01*
X81300954Y-91950000D01*
X81099046Y-91950000D01*
X80901018Y-91989390D01*
X80714480Y-92066656D01*
X80546600Y-92178830D01*
X80403830Y-92321600D01*
X80291656Y-92489480D01*
X80214390Y-92676018D01*
X80207413Y-92711094D01*
X80025954Y-92675000D01*
X79824046Y-92675000D01*
X79626018Y-92714390D01*
X79439480Y-92791656D01*
X79271600Y-92903830D01*
X79128830Y-93046600D01*
X79016656Y-93214480D01*
X78939390Y-93401018D01*
X78900000Y-93599046D01*
X78900000Y-93800954D01*
X78939390Y-93998982D01*
X79016656Y-94185520D01*
X79128830Y-94353400D01*
X79271600Y-94496170D01*
X79439480Y-94608344D01*
X79626018Y-94685610D01*
X79824046Y-94725000D01*
X80025954Y-94725000D01*
X80223982Y-94685610D01*
X80410520Y-94608344D01*
X80578400Y-94496170D01*
X80624570Y-94450000D01*
X94413173Y-94450000D01*
X94450000Y-94453627D01*
X94486827Y-94450000D01*
X94486835Y-94450000D01*
X94597026Y-94439147D01*
X94738401Y-94396261D01*
X94868693Y-94326619D01*
X94982895Y-94232895D01*
X95006379Y-94204280D01*
X105450000Y-83760660D01*
X105450000Y-84550430D01*
X105403830Y-84596600D01*
X105291656Y-84764480D01*
X105214390Y-84951018D01*
X105175000Y-85149046D01*
X105175000Y-85350954D01*
X105214390Y-85548982D01*
X105291656Y-85735520D01*
X105403830Y-85903400D01*
X105546600Y-86046170D01*
X105714480Y-86158344D01*
X105901018Y-86235610D01*
X106099046Y-86275000D01*
X106300954Y-86275000D01*
X106498982Y-86235610D01*
X106685520Y-86158344D01*
X106853400Y-86046170D01*
X106996170Y-85903400D01*
X107108344Y-85735520D01*
X107185610Y-85548982D01*
X107225000Y-85350954D01*
X107225000Y-85149046D01*
X107185610Y-84951018D01*
X107108344Y-84764480D01*
X106996170Y-84596600D01*
X106950000Y-84550430D01*
X106950000Y-75550000D01*
X109546613Y-75550000D01*
X109550001Y-75584400D01*
X109550000Y-97515610D01*
X109546613Y-97550000D01*
X109560128Y-97687224D01*
X109600155Y-97819175D01*
X109665155Y-97940781D01*
X109752630Y-98047370D01*
X109859219Y-98134845D01*
X109980825Y-98199845D01*
X110112776Y-98239872D01*
X110250000Y-98253387D01*
X110284390Y-98250000D01*
X135215610Y-98250000D01*
X135250000Y-98253387D01*
X135284390Y-98250000D01*
X135387224Y-98239872D01*
X135519175Y-98199845D01*
X135640781Y-98134845D01*
X135747370Y-98047370D01*
X135834845Y-97940781D01*
X135899845Y-97819175D01*
X135939872Y-97687224D01*
X135953387Y-97550000D01*
X135950000Y-97515610D01*
X135950000Y-75584389D01*
X135953387Y-75550000D01*
X135939872Y-75412776D01*
X135899845Y-75280825D01*
X135834845Y-75159219D01*
X135747370Y-75052630D01*
X135640781Y-74965155D01*
X135519175Y-74900155D01*
X135387224Y-74860128D01*
X135284390Y-74850000D01*
X135250000Y-74846613D01*
X135215610Y-74850000D01*
X129950000Y-74850000D01*
X129950000Y-62584390D01*
X129953387Y-62550000D01*
X129939872Y-62412776D01*
X129899845Y-62280825D01*
X129834845Y-62159219D01*
X129747370Y-62052630D01*
X129640781Y-61965155D01*
X129519175Y-61900155D01*
X129387224Y-61860128D01*
X129284390Y-61850000D01*
X129250000Y-61846613D01*
X129215610Y-61850000D01*
X127739291Y-61850000D01*
X127822819Y-61724991D01*
X127930238Y-61465657D01*
X127985000Y-61190350D01*
X127985000Y-60909650D01*
X127977167Y-60870270D01*
X128822437Y-60025000D01*
X130835373Y-60025000D01*
X130845796Y-60059360D01*
X130935414Y-60227023D01*
X131056019Y-60373981D01*
X131202977Y-60494586D01*
X131370640Y-60584204D01*
X131552565Y-60639390D01*
X131741760Y-60658024D01*
X134558240Y-60658024D01*
X134747435Y-60639390D01*
X134929360Y-60584204D01*
X135097023Y-60494586D01*
X135243981Y-60373981D01*
X135364586Y-60227023D01*
X135454204Y-60059360D01*
X135509390Y-59877435D01*
X135528024Y-59688240D01*
X135528024Y-58591760D01*
X135509390Y-58402565D01*
X135454204Y-58220640D01*
X135364586Y-58052977D01*
X135243981Y-57906019D01*
X135097023Y-57785414D01*
X134929360Y-57695796D01*
X134747435Y-57640610D01*
X134558240Y-57621976D01*
X131741760Y-57621976D01*
X131552565Y-57640610D01*
X131370640Y-57695796D01*
X131202977Y-57785414D01*
X131056019Y-57906019D01*
X130935414Y-58052977D01*
X130845796Y-58220640D01*
X130829306Y-58275000D01*
X128502979Y-58275000D01*
X128460000Y-58270767D01*
X128417021Y-58275000D01*
X128288470Y-58287661D01*
X128123532Y-58337695D01*
X127971524Y-58418944D01*
X127838288Y-58528288D01*
X127810888Y-58561675D01*
X126739730Y-59632833D01*
X126700350Y-59625000D01*
X126419650Y-59625000D01*
X126144343Y-59679762D01*
X125885009Y-59787181D01*
X125651615Y-59943130D01*
X125453130Y-60141615D01*
X125297181Y-60375009D01*
X125290000Y-60392346D01*
X125282819Y-60375009D01*
X125126870Y-60141615D01*
X124928385Y-59943130D01*
X124694991Y-59787181D01*
X124435657Y-59679762D01*
X124160350Y-59625000D01*
X123879650Y-59625000D01*
X123700000Y-59660735D01*
X123700000Y-53550304D01*
X123922280Y-53328024D01*
X124505000Y-53328024D01*
X124627521Y-53315957D01*
X124745334Y-53280219D01*
X124853911Y-53222183D01*
X124949080Y-53144080D01*
X125027183Y-53048911D01*
X125085219Y-52940334D01*
X125120957Y-52822521D01*
X125133024Y-52700000D01*
X125133024Y-50190000D01*
X125416976Y-50190000D01*
X125416976Y-52700000D01*
X125429043Y-52822521D01*
X125464781Y-52940334D01*
X125522817Y-53048911D01*
X125600920Y-53144080D01*
X125696089Y-53222183D01*
X125804666Y-53280219D01*
X125922479Y-53315957D01*
X126045000Y-53328024D01*
X126440588Y-53328024D01*
X127600888Y-54488325D01*
X127628288Y-54521712D01*
X127761524Y-54631056D01*
X127913532Y-54712305D01*
X128078469Y-54762339D01*
X128249999Y-54779233D01*
X128292978Y-54775000D01*
X130829306Y-54775000D01*
X130845796Y-54829360D01*
X130935414Y-54997023D01*
X131056019Y-55143981D01*
X131202977Y-55264586D01*
X131370640Y-55354204D01*
X131552565Y-55409390D01*
X131741760Y-55428024D01*
X134558240Y-55428024D01*
X134747435Y-55409390D01*
X134929360Y-55354204D01*
X135097023Y-55264586D01*
X135243981Y-55143981D01*
X135364586Y-54997023D01*
X135454204Y-54829360D01*
X135509390Y-54647435D01*
X135528024Y-54458240D01*
X135528024Y-53361760D01*
X135509390Y-53172565D01*
X135454204Y-52990640D01*
X135364586Y-52822977D01*
X135243981Y-52676019D01*
X135097023Y-52555414D01*
X134929360Y-52465796D01*
X134747435Y-52410610D01*
X134558240Y-52391976D01*
X131741760Y-52391976D01*
X131552565Y-52410610D01*
X131370640Y-52465796D01*
X131202977Y-52555414D01*
X131056019Y-52676019D01*
X130935414Y-52822977D01*
X130845796Y-52990640D01*
X130835373Y-53025000D01*
X128612437Y-53025000D01*
X127673024Y-52085588D01*
X127673024Y-50190000D01*
X127660957Y-50067479D01*
X127625219Y-49949666D01*
X127567183Y-49841089D01*
X127489080Y-49745920D01*
X127393911Y-49667817D01*
X127285334Y-49609781D01*
X127167521Y-49574043D01*
X127045000Y-49561976D01*
X126045000Y-49561976D01*
X125922479Y-49574043D01*
X125804666Y-49609781D01*
X125696089Y-49667817D01*
X125600920Y-49745920D01*
X125522817Y-49841089D01*
X125464781Y-49949666D01*
X125429043Y-50067479D01*
X125416976Y-50190000D01*
X125133024Y-50190000D01*
X125120957Y-50067479D01*
X125085219Y-49949666D01*
X125027183Y-49841089D01*
X124949080Y-49745920D01*
X124853911Y-49667817D01*
X124745334Y-49609781D01*
X124627521Y-49574043D01*
X124505000Y-49561976D01*
X123505000Y-49561976D01*
X123382479Y-49574043D01*
X123264666Y-49609781D01*
X123156089Y-49667817D01*
X123060920Y-49745920D01*
X122982817Y-49841089D01*
X122924781Y-49949666D01*
X122889043Y-50067479D01*
X122876976Y-50190000D01*
X122876976Y-52322720D01*
X122750000Y-52449695D01*
X122593024Y-52292719D01*
X122593024Y-50190000D01*
X122580957Y-50067479D01*
X122545219Y-49949666D01*
X122487183Y-49841089D01*
X122409080Y-49745920D01*
X122313911Y-49667817D01*
X122205334Y-49609781D01*
X122087521Y-49574043D01*
X121965000Y-49561976D01*
X120965000Y-49561976D01*
X120842479Y-49574043D01*
X120724666Y-49609781D01*
X120616089Y-49667817D01*
X120520920Y-49745920D01*
X120442817Y-49841089D01*
X120384781Y-49949666D01*
X120349043Y-50067479D01*
X120336976Y-50190000D01*
X120336976Y-52700000D01*
X120349043Y-52822521D01*
X120384781Y-52940334D01*
X120442817Y-53048911D01*
X120520920Y-53144080D01*
X120616089Y-53222183D01*
X120724666Y-53280219D01*
X120842479Y-53315957D01*
X120965000Y-53328024D01*
X121577719Y-53328024D01*
X121800001Y-53550306D01*
X121800000Y-59660735D01*
X121620350Y-59625000D01*
X121339650Y-59625000D01*
X121064343Y-59679762D01*
X120805009Y-59787181D01*
X120571615Y-59943130D01*
X120373130Y-60141615D01*
X120217181Y-60375009D01*
X120210024Y-60392288D01*
X120167479Y-60312693D01*
X119926065Y-60240712D01*
X119116777Y-61050000D01*
X119130919Y-61064142D01*
X118954142Y-61240919D01*
X118940000Y-61226777D01*
X118925858Y-61240919D01*
X118749081Y-61064142D01*
X118763223Y-61050000D01*
X117953935Y-60240712D01*
X117712521Y-60312693D01*
X117592265Y-60566330D01*
X117523802Y-60838553D01*
X117509763Y-61118903D01*
X117550686Y-61396604D01*
X117645000Y-61660986D01*
X117712521Y-61787307D01*
X117922784Y-61850000D01*
X116284390Y-61850000D01*
X116250000Y-61846613D01*
X116215610Y-61850000D01*
X116112776Y-61860128D01*
X115980825Y-61900155D01*
X115859219Y-61965155D01*
X115752630Y-62052630D01*
X115665155Y-62159219D01*
X115600155Y-62280825D01*
X115560128Y-62412776D01*
X115546613Y-62550000D01*
X115550001Y-62584400D01*
X115550000Y-74850000D01*
X110284390Y-74850000D01*
X110250000Y-74846613D01*
X110215610Y-74850000D01*
X110112776Y-74860128D01*
X109980825Y-74900155D01*
X109859219Y-74965155D01*
X109752630Y-75052630D01*
X109665155Y-75159219D01*
X109600155Y-75280825D01*
X109560128Y-75412776D01*
X109546613Y-75550000D01*
X106950000Y-75550000D01*
X106950000Y-59600000D01*
X111371976Y-59600000D01*
X111384043Y-59722521D01*
X111419781Y-59840334D01*
X111477817Y-59948911D01*
X111555920Y-60044080D01*
X111651089Y-60122183D01*
X111759666Y-60180219D01*
X111877479Y-60215957D01*
X112000000Y-60228024D01*
X112193750Y-60225000D01*
X112350000Y-60068750D01*
X112350000Y-59200000D01*
X112600000Y-59200000D01*
X112600000Y-60068750D01*
X112756250Y-60225000D01*
X112950000Y-60228024D01*
X113072521Y-60215957D01*
X113190334Y-60180219D01*
X113298911Y-60122183D01*
X113394080Y-60044080D01*
X113472183Y-59948911D01*
X113518722Y-59861843D01*
X113519781Y-59865334D01*
X113577817Y-59973911D01*
X113655920Y-60069080D01*
X113751089Y-60147183D01*
X113859666Y-60205219D01*
X113977479Y-60240957D01*
X114100000Y-60253024D01*
X114293750Y-60250000D01*
X114450000Y-60093750D01*
X114450000Y-59225000D01*
X114700000Y-59225000D01*
X114700000Y-60093750D01*
X114856250Y-60250000D01*
X115050000Y-60253024D01*
X115172521Y-60240957D01*
X115290334Y-60205219D01*
X115398911Y-60147183D01*
X115494080Y-60069080D01*
X115498302Y-60063935D01*
X118130712Y-60063935D01*
X118940000Y-60873223D01*
X119749288Y-60063935D01*
X119677307Y-59822521D01*
X119423670Y-59702265D01*
X119151447Y-59633802D01*
X118871097Y-59619763D01*
X118593396Y-59660686D01*
X118329014Y-59755000D01*
X118202693Y-59822521D01*
X118130712Y-60063935D01*
X115498302Y-60063935D01*
X115572183Y-59973911D01*
X115630219Y-59865334D01*
X115665957Y-59747521D01*
X115678024Y-59625000D01*
X115675000Y-59381250D01*
X115518750Y-59225000D01*
X114700000Y-59225000D01*
X114450000Y-59225000D01*
X113631250Y-59225000D01*
X113537500Y-59318750D01*
X113418750Y-59200000D01*
X112600000Y-59200000D01*
X112350000Y-59200000D01*
X111531250Y-59200000D01*
X111375000Y-59356250D01*
X111371976Y-59600000D01*
X106950000Y-59600000D01*
X106950000Y-56800000D01*
X111371976Y-56800000D01*
X111371976Y-57850000D01*
X111384043Y-57972521D01*
X111419781Y-58090334D01*
X111477817Y-58198911D01*
X111478711Y-58200000D01*
X111477817Y-58201089D01*
X111419781Y-58309666D01*
X111384043Y-58427479D01*
X111371976Y-58550000D01*
X111375000Y-58793750D01*
X111531250Y-58950000D01*
X112350000Y-58950000D01*
X112350000Y-58930000D01*
X112600000Y-58930000D01*
X112600000Y-58950000D01*
X113418750Y-58950000D01*
X113512500Y-58856250D01*
X113631250Y-58975000D01*
X114450000Y-58975000D01*
X114450000Y-58955000D01*
X114700000Y-58955000D01*
X114700000Y-58975000D01*
X115518750Y-58975000D01*
X115675000Y-58818750D01*
X115678024Y-58575000D01*
X115665957Y-58452479D01*
X115630219Y-58334666D01*
X115572183Y-58226089D01*
X115571289Y-58225000D01*
X115572183Y-58223911D01*
X115630219Y-58115334D01*
X115665957Y-57997521D01*
X115678024Y-57875000D01*
X115678024Y-57257635D01*
X116904287Y-56031373D01*
X116932895Y-56007895D01*
X116966593Y-55966835D01*
X117026619Y-55893693D01*
X117096261Y-55763401D01*
X117139147Y-55622026D01*
X117140695Y-55606307D01*
X117150000Y-55511835D01*
X117150000Y-55511828D01*
X117153627Y-55475000D01*
X117150000Y-55438172D01*
X117150000Y-53267035D01*
X117233911Y-53222183D01*
X117329080Y-53144080D01*
X117407183Y-53048911D01*
X117465219Y-52940334D01*
X117500957Y-52822521D01*
X117513024Y-52700000D01*
X117796976Y-52700000D01*
X117809043Y-52822521D01*
X117844781Y-52940334D01*
X117902817Y-53048911D01*
X117980920Y-53144080D01*
X118076089Y-53222183D01*
X118184666Y-53280219D01*
X118302479Y-53315957D01*
X118425000Y-53328024D01*
X118643750Y-53325000D01*
X118800000Y-53168750D01*
X118800000Y-51570000D01*
X119050000Y-51570000D01*
X119050000Y-53168750D01*
X119206250Y-53325000D01*
X119425000Y-53328024D01*
X119547521Y-53315957D01*
X119665334Y-53280219D01*
X119773911Y-53222183D01*
X119869080Y-53144080D01*
X119947183Y-53048911D01*
X120005219Y-52940334D01*
X120040957Y-52822521D01*
X120053024Y-52700000D01*
X120050000Y-51726250D01*
X119893750Y-51570000D01*
X119050000Y-51570000D01*
X118800000Y-51570000D01*
X117956250Y-51570000D01*
X117800000Y-51726250D01*
X117796976Y-52700000D01*
X117513024Y-52700000D01*
X117513024Y-50190000D01*
X117796976Y-50190000D01*
X117800000Y-51163750D01*
X117956250Y-51320000D01*
X118800000Y-51320000D01*
X118800000Y-49721250D01*
X119050000Y-49721250D01*
X119050000Y-51320000D01*
X119893750Y-51320000D01*
X120050000Y-51163750D01*
X120053024Y-50190000D01*
X120040957Y-50067479D01*
X120005219Y-49949666D01*
X119947183Y-49841089D01*
X119869080Y-49745920D01*
X119773911Y-49667817D01*
X119665334Y-49609781D01*
X119547521Y-49574043D01*
X119425000Y-49561976D01*
X119206250Y-49565000D01*
X119050000Y-49721250D01*
X118800000Y-49721250D01*
X118643750Y-49565000D01*
X118425000Y-49561976D01*
X118302479Y-49574043D01*
X118184666Y-49609781D01*
X118076089Y-49667817D01*
X117980920Y-49745920D01*
X117902817Y-49841089D01*
X117844781Y-49949666D01*
X117809043Y-50067479D01*
X117796976Y-50190000D01*
X117513024Y-50190000D01*
X117500957Y-50067479D01*
X117465219Y-49949666D01*
X117407183Y-49841089D01*
X117329080Y-49745920D01*
X117233911Y-49667817D01*
X117125334Y-49609781D01*
X117007521Y-49574043D01*
X116885000Y-49561976D01*
X115885000Y-49561976D01*
X115762479Y-49574043D01*
X115644666Y-49609781D01*
X115536089Y-49667817D01*
X115440920Y-49745920D01*
X115362817Y-49841089D01*
X115304781Y-49949666D01*
X115269043Y-50067479D01*
X115256976Y-50190000D01*
X115256976Y-52700000D01*
X115269043Y-52822521D01*
X115304781Y-52940334D01*
X115362817Y-53048911D01*
X115440920Y-53144080D01*
X115536089Y-53222183D01*
X115644666Y-53280219D01*
X115650001Y-53281837D01*
X115650000Y-55164340D01*
X114617365Y-56196976D01*
X114547760Y-56196976D01*
X114584147Y-56077026D01*
X114589271Y-56025000D01*
X114595000Y-55966835D01*
X114595000Y-55966828D01*
X114598627Y-55930000D01*
X114595000Y-55893172D01*
X114595000Y-53275052D01*
X114693911Y-53222183D01*
X114789080Y-53144080D01*
X114867183Y-53048911D01*
X114925219Y-52940334D01*
X114960957Y-52822521D01*
X114973024Y-52700000D01*
X114973024Y-50190000D01*
X114960957Y-50067479D01*
X114925219Y-49949666D01*
X114867183Y-49841089D01*
X114789080Y-49745920D01*
X114693911Y-49667817D01*
X114585334Y-49609781D01*
X114467521Y-49574043D01*
X114345000Y-49561976D01*
X113345000Y-49561976D01*
X113222479Y-49574043D01*
X113104666Y-49609781D01*
X112996089Y-49667817D01*
X112900920Y-49745920D01*
X112822817Y-49841089D01*
X112764781Y-49949666D01*
X112729043Y-50067479D01*
X112716976Y-50190000D01*
X112716976Y-52700000D01*
X112729043Y-52822521D01*
X112764781Y-52940334D01*
X112822817Y-53048911D01*
X112900920Y-53144080D01*
X112996089Y-53222183D01*
X113095000Y-53275053D01*
X113095001Y-55619339D01*
X112542365Y-56171976D01*
X112000000Y-56171976D01*
X111877479Y-56184043D01*
X111759666Y-56219781D01*
X111651089Y-56277817D01*
X111555920Y-56355920D01*
X111477817Y-56451089D01*
X111419781Y-56559666D01*
X111384043Y-56677479D01*
X111371976Y-56800000D01*
X106950000Y-56800000D01*
X106950000Y-56061827D01*
X106953627Y-56025000D01*
X106950000Y-55988172D01*
X106950000Y-55988165D01*
X106939147Y-55877974D01*
X106896261Y-55736599D01*
X106826619Y-55606307D01*
X106774529Y-55542835D01*
X106756376Y-55520716D01*
X106756374Y-55520714D01*
X106732895Y-55492105D01*
X106704286Y-55468626D01*
X103935660Y-52700000D01*
X110176976Y-52700000D01*
X110189043Y-52822521D01*
X110224781Y-52940334D01*
X110282817Y-53048911D01*
X110360920Y-53144080D01*
X110456089Y-53222183D01*
X110564666Y-53280219D01*
X110682479Y-53315957D01*
X110805000Y-53328024D01*
X111023750Y-53325000D01*
X111180000Y-53168750D01*
X111180000Y-51570000D01*
X111430000Y-51570000D01*
X111430000Y-53168750D01*
X111586250Y-53325000D01*
X111805000Y-53328024D01*
X111927521Y-53315957D01*
X112045334Y-53280219D01*
X112153911Y-53222183D01*
X112249080Y-53144080D01*
X112327183Y-53048911D01*
X112385219Y-52940334D01*
X112420957Y-52822521D01*
X112433024Y-52700000D01*
X112430000Y-51726250D01*
X112273750Y-51570000D01*
X111430000Y-51570000D01*
X111180000Y-51570000D01*
X110336250Y-51570000D01*
X110180000Y-51726250D01*
X110176976Y-52700000D01*
X103935660Y-52700000D01*
X101425660Y-50190000D01*
X110176976Y-50190000D01*
X110180000Y-51163750D01*
X110336250Y-51320000D01*
X111180000Y-51320000D01*
X111180000Y-49721250D01*
X111430000Y-49721250D01*
X111430000Y-51320000D01*
X112273750Y-51320000D01*
X112430000Y-51163750D01*
X112433024Y-50190000D01*
X112420957Y-50067479D01*
X112385219Y-49949666D01*
X112327183Y-49841089D01*
X112249080Y-49745920D01*
X112153911Y-49667817D01*
X112045334Y-49609781D01*
X111927521Y-49574043D01*
X111805000Y-49561976D01*
X111586250Y-49565000D01*
X111430000Y-49721250D01*
X111180000Y-49721250D01*
X111023750Y-49565000D01*
X110805000Y-49561976D01*
X110682479Y-49574043D01*
X110564666Y-49609781D01*
X110456089Y-49667817D01*
X110360920Y-49745920D01*
X110282817Y-49841089D01*
X110224781Y-49949666D01*
X110189043Y-50067479D01*
X110176976Y-50190000D01*
X101425660Y-50190000D01*
X97160659Y-45925000D01*
X98185660Y-44900000D01*
X101017379Y-44900000D01*
X101044781Y-44990334D01*
X101102817Y-45098911D01*
X101180920Y-45194080D01*
X101276089Y-45272183D01*
X101384666Y-45330219D01*
X101502479Y-45365957D01*
X101625000Y-45378024D01*
X102325000Y-45378024D01*
X102447521Y-45365957D01*
X102565334Y-45330219D01*
X102673911Y-45272183D01*
X102769080Y-45194080D01*
X102847183Y-45098911D01*
X102905219Y-44990334D01*
X102940957Y-44872521D01*
X102953024Y-44750000D01*
X104396976Y-44750000D01*
X104409043Y-44872521D01*
X104444781Y-44990334D01*
X104502817Y-45098911D01*
X104580920Y-45194080D01*
X104676089Y-45272183D01*
X104784666Y-45330219D01*
X104902479Y-45365957D01*
X105025000Y-45378024D01*
X105093750Y-45375000D01*
X105250000Y-45218750D01*
X105250000Y-44275000D01*
X105500000Y-44275000D01*
X105500000Y-45218750D01*
X105656250Y-45375000D01*
X105725000Y-45378024D01*
X105847521Y-45365957D01*
X105965334Y-45330219D01*
X106073911Y-45272183D01*
X106169080Y-45194080D01*
X106247183Y-45098911D01*
X106305219Y-44990334D01*
X106340957Y-44872521D01*
X106353024Y-44750000D01*
X106350000Y-44431250D01*
X106193750Y-44275000D01*
X105500000Y-44275000D01*
X105250000Y-44275000D01*
X104556250Y-44275000D01*
X104400000Y-44431250D01*
X104396976Y-44750000D01*
X102953024Y-44750000D01*
X102953024Y-43818636D01*
X103109397Y-43787532D01*
X103286836Y-43714034D01*
X103446527Y-43607332D01*
X103582332Y-43471527D01*
X103675000Y-43332839D01*
X103767668Y-43471527D01*
X103903473Y-43607332D01*
X104063164Y-43714034D01*
X104240603Y-43787532D01*
X104399529Y-43819144D01*
X104400000Y-43868750D01*
X104556250Y-44025000D01*
X105250000Y-44025000D01*
X105250000Y-44005000D01*
X105500000Y-44005000D01*
X105500000Y-44025000D01*
X106193750Y-44025000D01*
X106350000Y-43868750D01*
X106353024Y-43550000D01*
X106345734Y-43475982D01*
X106447521Y-43465957D01*
X106565334Y-43430219D01*
X106673911Y-43372183D01*
X106769080Y-43294080D01*
X106847183Y-43198911D01*
X106905219Y-43090334D01*
X106940957Y-42972521D01*
X106953024Y-42850000D01*
X106953024Y-42799650D01*
X109880000Y-42799650D01*
X109880000Y-43080350D01*
X109934762Y-43355657D01*
X110042181Y-43614991D01*
X110198130Y-43848385D01*
X110396615Y-44046870D01*
X110630009Y-44202819D01*
X110647346Y-44210000D01*
X110630009Y-44217181D01*
X110396615Y-44373130D01*
X110198130Y-44571615D01*
X110042181Y-44805009D01*
X109934762Y-45064343D01*
X109880000Y-45339650D01*
X109880000Y-45620350D01*
X109934762Y-45895657D01*
X110042181Y-46154991D01*
X110198130Y-46388385D01*
X110396615Y-46586870D01*
X110630009Y-46742819D01*
X110889343Y-46850238D01*
X111164650Y-46905000D01*
X111445350Y-46905000D01*
X111720657Y-46850238D01*
X111979991Y-46742819D01*
X112213385Y-46586870D01*
X112411870Y-46388385D01*
X112567819Y-46154991D01*
X112675238Y-45895657D01*
X112730000Y-45620350D01*
X112730000Y-45339650D01*
X112675238Y-45064343D01*
X112567819Y-44805009D01*
X112411870Y-44571615D01*
X112213385Y-44373130D01*
X111979991Y-44217181D01*
X111962654Y-44210000D01*
X111979991Y-44202819D01*
X112213385Y-44046870D01*
X112411870Y-43848385D01*
X112567819Y-43614991D01*
X112675238Y-43355657D01*
X112730000Y-43080350D01*
X112730000Y-42799650D01*
X112675238Y-42524343D01*
X112567819Y-42265009D01*
X112411870Y-42031615D01*
X112213385Y-41833130D01*
X111979991Y-41677181D01*
X111720657Y-41569762D01*
X111445350Y-41515000D01*
X111164650Y-41515000D01*
X110889343Y-41569762D01*
X110630009Y-41677181D01*
X110396615Y-41833130D01*
X110198130Y-42031615D01*
X110042181Y-42265009D01*
X109934762Y-42524343D01*
X109880000Y-42799650D01*
X106953024Y-42799650D01*
X106953024Y-41550000D01*
X106940957Y-41427479D01*
X106905219Y-41309666D01*
X106847183Y-41201089D01*
X106784739Y-41125000D01*
X113725001Y-41125000D01*
X113725000Y-47115610D01*
X113721613Y-47150000D01*
X113735128Y-47287224D01*
X113775155Y-47419175D01*
X113840155Y-47540781D01*
X113927630Y-47647370D01*
X114034219Y-47734845D01*
X114155825Y-47799845D01*
X114287776Y-47839872D01*
X114383818Y-47849331D01*
X114425000Y-47853387D01*
X114459390Y-47850000D01*
X123390610Y-47850000D01*
X123425000Y-47853387D01*
X123459390Y-47850000D01*
X123562224Y-47839872D01*
X123694175Y-47799845D01*
X123815781Y-47734845D01*
X123922370Y-47647370D01*
X124009845Y-47540781D01*
X124074845Y-47419175D01*
X124114872Y-47287224D01*
X124128387Y-47150000D01*
X124125000Y-47115610D01*
X124125000Y-42799650D01*
X125120000Y-42799650D01*
X125120000Y-43080350D01*
X125174762Y-43355657D01*
X125282181Y-43614991D01*
X125438130Y-43848385D01*
X125636615Y-44046870D01*
X125870009Y-44202819D01*
X125887346Y-44210000D01*
X125870009Y-44217181D01*
X125636615Y-44373130D01*
X125438130Y-44571615D01*
X125282181Y-44805009D01*
X125174762Y-45064343D01*
X125120000Y-45339650D01*
X125120000Y-45620350D01*
X125174762Y-45895657D01*
X125282181Y-46154991D01*
X125438130Y-46388385D01*
X125636615Y-46586870D01*
X125870009Y-46742819D01*
X126129343Y-46850238D01*
X126404650Y-46905000D01*
X126685350Y-46905000D01*
X126960657Y-46850238D01*
X127219991Y-46742819D01*
X127453385Y-46586870D01*
X127651870Y-46388385D01*
X127807819Y-46154991D01*
X127915238Y-45895657D01*
X127970000Y-45620350D01*
X127970000Y-45339650D01*
X127915238Y-45064343D01*
X127807819Y-44805009D01*
X127651870Y-44571615D01*
X127453385Y-44373130D01*
X127219991Y-44217181D01*
X127202654Y-44210000D01*
X127219991Y-44202819D01*
X127453385Y-44046870D01*
X127651870Y-43848385D01*
X127807819Y-43614991D01*
X127915238Y-43355657D01*
X127970000Y-43080350D01*
X127970000Y-42799650D01*
X127940044Y-42649048D01*
X135175000Y-42649048D01*
X135175000Y-42850956D01*
X135214390Y-43048984D01*
X135291656Y-43235522D01*
X135403830Y-43403402D01*
X135450001Y-43449573D01*
X135450000Y-50163173D01*
X135446373Y-50200000D01*
X135450000Y-50236827D01*
X135450000Y-50236834D01*
X135460853Y-50347025D01*
X135503739Y-50488400D01*
X135573381Y-50618692D01*
X135667105Y-50732895D01*
X135695719Y-50756378D01*
X136825001Y-51885661D01*
X136825000Y-55900430D01*
X136778830Y-55946600D01*
X136666656Y-56114480D01*
X136589390Y-56301018D01*
X136550000Y-56499046D01*
X136550000Y-56700954D01*
X136589390Y-56898982D01*
X136666656Y-57085520D01*
X136778830Y-57253400D01*
X136921600Y-57396170D01*
X137089480Y-57508344D01*
X137276018Y-57585610D01*
X137474046Y-57625000D01*
X137675954Y-57625000D01*
X137873982Y-57585610D01*
X138060520Y-57508344D01*
X138228400Y-57396170D01*
X138371170Y-57253400D01*
X138483344Y-57085520D01*
X138560610Y-56898982D01*
X138600000Y-56700954D01*
X138600000Y-56499046D01*
X138560610Y-56301018D01*
X138483344Y-56114480D01*
X138371170Y-55946600D01*
X138325000Y-55900430D01*
X138325000Y-51611828D01*
X138328627Y-51575000D01*
X138325000Y-51538172D01*
X138325000Y-51538165D01*
X138314147Y-51427974D01*
X138271261Y-51286599D01*
X138201619Y-51156307D01*
X138107895Y-51042105D01*
X138079286Y-51018626D01*
X136950000Y-49889341D01*
X136950000Y-43449572D01*
X136996170Y-43403402D01*
X137108344Y-43235522D01*
X137185610Y-43048984D01*
X137225000Y-42850956D01*
X137225000Y-42649048D01*
X137185610Y-42451020D01*
X137108344Y-42264482D01*
X136996170Y-42096602D01*
X136853400Y-41953832D01*
X136685520Y-41841658D01*
X136498982Y-41764392D01*
X136300954Y-41725002D01*
X136099046Y-41725002D01*
X135901018Y-41764392D01*
X135714480Y-41841658D01*
X135546600Y-41953832D01*
X135403830Y-42096602D01*
X135291656Y-42264482D01*
X135214390Y-42451020D01*
X135175000Y-42649048D01*
X127940044Y-42649048D01*
X127915238Y-42524343D01*
X127807819Y-42265009D01*
X127651870Y-42031615D01*
X127453385Y-41833130D01*
X127219991Y-41677181D01*
X126960657Y-41569762D01*
X126685350Y-41515000D01*
X126404650Y-41515000D01*
X126129343Y-41569762D01*
X125870009Y-41677181D01*
X125636615Y-41833130D01*
X125438130Y-42031615D01*
X125282181Y-42265009D01*
X125174762Y-42524343D01*
X125120000Y-42799650D01*
X124125000Y-42799650D01*
X124125000Y-41125000D01*
X138925000Y-41125000D01*
X138925001Y-46233846D01*
X138857278Y-46255329D01*
X138798978Y-46280317D01*
X138740310Y-46304497D01*
X138731713Y-46309146D01*
X138620546Y-46370260D01*
X138568210Y-46406095D01*
X138515347Y-46441217D01*
X138507816Y-46447448D01*
X138410639Y-46528991D01*
X138366270Y-46574299D01*
X138321235Y-46619020D01*
X138315058Y-46626594D01*
X138315054Y-46626599D01*
X138315051Y-46626604D01*
X138235568Y-46725460D01*
X138200824Y-46778553D01*
X138165349Y-46831146D01*
X138160764Y-46839771D01*
X138160761Y-46839775D01*
X138160761Y-46839776D01*
X138101988Y-46952198D01*
X138078210Y-47011050D01*
X138053635Y-47069511D01*
X138050812Y-47078860D01*
X138050810Y-47078866D01*
X138050810Y-47078868D01*
X138014993Y-47200563D01*
X138003103Y-47262892D01*
X137990347Y-47325034D01*
X137989394Y-47334762D01*
X137977897Y-47461098D01*
X137978340Y-47524538D01*
X137977897Y-47587979D01*
X137978851Y-47597706D01*
X137992111Y-47723870D01*
X138004865Y-47786007D01*
X138016756Y-47848341D01*
X138019578Y-47857684D01*
X138019580Y-47857695D01*
X138019584Y-47857705D01*
X138057094Y-47978882D01*
X138081691Y-48037396D01*
X138105447Y-48096194D01*
X138110036Y-48104824D01*
X138170373Y-48216414D01*
X138205869Y-48269038D01*
X138240588Y-48322096D01*
X138246765Y-48329670D01*
X138327627Y-48427416D01*
X138372676Y-48472152D01*
X138417034Y-48517450D01*
X138424559Y-48523675D01*
X138424565Y-48523681D01*
X138424570Y-48523684D01*
X138522872Y-48603858D01*
X138575737Y-48638982D01*
X138628068Y-48674814D01*
X138636655Y-48679457D01*
X138636661Y-48679461D01*
X138636666Y-48679463D01*
X138748675Y-48739019D01*
X138807313Y-48763188D01*
X138865645Y-48788189D01*
X138874982Y-48791079D01*
X138925000Y-48806180D01*
X138925001Y-52534390D01*
X138928389Y-52568790D01*
X138928389Y-52575285D01*
X138929411Y-52585006D01*
X138934128Y-52627064D01*
X138935129Y-52637224D01*
X138935349Y-52637951D01*
X138940288Y-52681981D01*
X138953485Y-52744071D01*
X138965802Y-52806277D01*
X138968692Y-52815614D01*
X138998198Y-52908630D01*
X139023199Y-52966962D01*
X139047368Y-53025600D01*
X139052017Y-53034198D01*
X139099028Y-53119710D01*
X139134874Y-53172062D01*
X139169984Y-53224907D01*
X139176214Y-53232438D01*
X139238939Y-53307190D01*
X139284287Y-53351597D01*
X139328970Y-53396594D01*
X139336544Y-53402772D01*
X139412594Y-53463918D01*
X139465701Y-53498670D01*
X139518281Y-53534136D01*
X139526904Y-53538721D01*
X139526909Y-53538724D01*
X139526914Y-53538726D01*
X139613391Y-53583935D01*
X139672239Y-53607712D01*
X139730698Y-53632286D01*
X139740051Y-53635110D01*
X139740059Y-53635113D01*
X139740067Y-53635115D01*
X139833666Y-53662663D01*
X139896001Y-53674554D01*
X139958140Y-53687310D01*
X139967856Y-53688262D01*
X139967862Y-53688263D01*
X139967868Y-53688263D01*
X140065050Y-53697107D01*
X140128524Y-53696664D01*
X140191932Y-53697107D01*
X140201649Y-53696154D01*
X140201663Y-53696154D01*
X140201676Y-53696151D01*
X140298708Y-53685953D01*
X140360878Y-53673192D01*
X140423177Y-53661308D01*
X140432524Y-53658486D01*
X140432534Y-53658484D01*
X140432543Y-53658480D01*
X140525753Y-53629627D01*
X140584283Y-53605024D01*
X140643068Y-53581273D01*
X140651686Y-53576690D01*
X140651694Y-53576687D01*
X140651700Y-53576683D01*
X140737536Y-53530272D01*
X140790156Y-53494779D01*
X140843220Y-53460055D01*
X140850792Y-53453879D01*
X140850795Y-53453877D01*
X140850800Y-53453872D01*
X140925983Y-53391675D01*
X140970698Y-53346647D01*
X141016012Y-53302273D01*
X141022243Y-53294742D01*
X141083918Y-53219121D01*
X141096622Y-53200000D01*
X144753436Y-53200000D01*
X144769984Y-53224907D01*
X144776214Y-53232438D01*
X144838939Y-53307190D01*
X144884287Y-53351597D01*
X144928970Y-53396594D01*
X144936544Y-53402772D01*
X145012594Y-53463918D01*
X145065701Y-53498670D01*
X145118281Y-53534136D01*
X145126904Y-53538721D01*
X145126909Y-53538724D01*
X145126914Y-53538726D01*
X145213391Y-53583935D01*
X145272239Y-53607712D01*
X145330698Y-53632286D01*
X145340051Y-53635110D01*
X145340059Y-53635113D01*
X145340067Y-53635115D01*
X145433666Y-53662663D01*
X145496001Y-53674554D01*
X145558140Y-53687310D01*
X145567856Y-53688262D01*
X145567862Y-53688263D01*
X145567868Y-53688263D01*
X145665050Y-53697107D01*
X145728524Y-53696664D01*
X145791932Y-53697107D01*
X145801649Y-53696154D01*
X145801663Y-53696154D01*
X145801676Y-53696151D01*
X145898708Y-53685953D01*
X145960878Y-53673192D01*
X146023177Y-53661308D01*
X146032524Y-53658486D01*
X146032534Y-53658484D01*
X146032543Y-53658480D01*
X146125753Y-53629627D01*
X146184283Y-53605024D01*
X146243068Y-53581273D01*
X146251686Y-53576690D01*
X146251694Y-53576687D01*
X146251700Y-53576683D01*
X146337536Y-53530272D01*
X146390156Y-53494779D01*
X146443220Y-53460055D01*
X146450792Y-53453879D01*
X146450795Y-53453877D01*
X146450800Y-53453872D01*
X146525983Y-53391675D01*
X146570698Y-53346647D01*
X146616012Y-53302273D01*
X146622243Y-53294742D01*
X146683918Y-53219121D01*
X146719022Y-53166287D01*
X146754878Y-53113921D01*
X146759526Y-53105323D01*
X146805338Y-53019162D01*
X146829515Y-52960504D01*
X146854506Y-52902197D01*
X146857396Y-52892860D01*
X146885601Y-52799442D01*
X146897927Y-52737190D01*
X146911116Y-52675143D01*
X146912136Y-52665435D01*
X146912137Y-52665428D01*
X146912137Y-52665422D01*
X146921492Y-52570005D01*
X146925000Y-52534390D01*
X146925000Y-48806154D01*
X146992722Y-48784671D01*
X147051064Y-48759666D01*
X147109689Y-48735503D01*
X147118281Y-48730857D01*
X147118291Y-48730853D01*
X147118300Y-48730847D01*
X147229454Y-48669740D01*
X147281807Y-48633893D01*
X147334652Y-48598783D01*
X147342172Y-48592561D01*
X147342178Y-48592557D01*
X147342182Y-48592552D01*
X147439361Y-48511010D01*
X147483749Y-48465682D01*
X147528765Y-48420980D01*
X147534942Y-48413405D01*
X147534946Y-48413401D01*
X147534949Y-48413396D01*
X147614432Y-48314540D01*
X147649176Y-48261447D01*
X147684651Y-48208854D01*
X147689236Y-48200229D01*
X147689239Y-48200225D01*
X147689241Y-48200221D01*
X147748012Y-48087802D01*
X147771784Y-48028964D01*
X147796365Y-47970490D01*
X147799190Y-47961133D01*
X147835007Y-47839437D01*
X147846897Y-47777108D01*
X147859653Y-47714966D01*
X147860606Y-47705238D01*
X147872103Y-47578902D01*
X147871660Y-47515500D01*
X147872104Y-47452021D01*
X147871149Y-47442294D01*
X147857889Y-47316131D01*
X147845131Y-47253975D01*
X147833244Y-47191659D01*
X147830422Y-47182316D01*
X147830420Y-47182305D01*
X147830416Y-47182295D01*
X147792905Y-47061118D01*
X147768322Y-47002636D01*
X147744553Y-46943806D01*
X147739964Y-46935176D01*
X147679627Y-46823586D01*
X147644131Y-46770962D01*
X147609412Y-46717904D01*
X147603235Y-46710330D01*
X147522373Y-46612584D01*
X147477324Y-46567848D01*
X147432966Y-46522550D01*
X147425441Y-46516325D01*
X147425435Y-46516319D01*
X147425428Y-46516315D01*
X147327128Y-46436142D01*
X147274278Y-46401028D01*
X147221932Y-46365186D01*
X147213334Y-46360537D01*
X147101325Y-46300981D01*
X147042674Y-46276807D01*
X146984355Y-46251811D01*
X146975017Y-46248921D01*
X146925000Y-46233820D01*
X146925000Y-41125000D01*
X155125000Y-41125000D01*
X155125000Y-108875000D01*
X72375000Y-108875000D01*
X72375000Y-97520102D01*
X81325000Y-97520102D01*
X81325000Y-97859898D01*
X81391290Y-98193164D01*
X81521324Y-98507094D01*
X81710105Y-98789624D01*
X81950376Y-99029895D01*
X82232906Y-99218676D01*
X82546836Y-99348710D01*
X82880102Y-99415000D01*
X83219898Y-99415000D01*
X83553164Y-99348710D01*
X83867094Y-99218676D01*
X84149624Y-99029895D01*
X84389895Y-98789624D01*
X84578676Y-98507094D01*
X84592364Y-98474046D01*
X101875000Y-98474046D01*
X101875000Y-98675954D01*
X101914390Y-98873982D01*
X101991656Y-99060520D01*
X102093207Y-99212501D01*
X101991658Y-99364480D01*
X101914392Y-99551018D01*
X101875002Y-99749046D01*
X101875002Y-99950954D01*
X101914392Y-100148982D01*
X101991658Y-100335520D01*
X102103832Y-100503400D01*
X102246602Y-100646170D01*
X102414482Y-100758344D01*
X102601020Y-100835610D01*
X102799048Y-100875000D01*
X102864343Y-100875000D01*
X104693628Y-102704286D01*
X104717107Y-102732895D01*
X104831309Y-102826619D01*
X104961601Y-102896261D01*
X105102976Y-102939147D01*
X105213167Y-102950000D01*
X105213174Y-102950000D01*
X105250002Y-102953627D01*
X105286829Y-102950000D01*
X125275430Y-102950000D01*
X125321600Y-102996170D01*
X125489480Y-103108344D01*
X125676018Y-103185610D01*
X125874046Y-103225000D01*
X126075954Y-103225000D01*
X126273982Y-103185610D01*
X126460520Y-103108344D01*
X126628400Y-102996170D01*
X126771170Y-102853400D01*
X126883344Y-102685520D01*
X126960610Y-102498982D01*
X127000000Y-102300954D01*
X127000000Y-102099046D01*
X126960610Y-101901018D01*
X126883344Y-101714480D01*
X126771170Y-101546600D01*
X126628400Y-101403830D01*
X126460520Y-101291656D01*
X126273982Y-101214390D01*
X126075954Y-101175000D01*
X125874046Y-101175000D01*
X125676018Y-101214390D01*
X125489480Y-101291656D01*
X125321600Y-101403830D01*
X125275430Y-101450000D01*
X123720353Y-101450000D01*
X123750000Y-101300954D01*
X123750000Y-101099046D01*
X123710610Y-100901018D01*
X123633344Y-100714480D01*
X123521170Y-100546600D01*
X123378400Y-100403830D01*
X123210520Y-100291656D01*
X123023982Y-100214390D01*
X122825954Y-100175000D01*
X122624046Y-100175000D01*
X122426018Y-100214390D01*
X122239480Y-100291656D01*
X122071600Y-100403830D01*
X122025430Y-100450000D01*
X105835660Y-100450000D01*
X103925000Y-98539341D01*
X103925000Y-98474046D01*
X103885610Y-98276018D01*
X103808344Y-98089480D01*
X103696170Y-97921600D01*
X103553400Y-97778830D01*
X103385520Y-97666656D01*
X103198982Y-97589390D01*
X103000954Y-97550000D01*
X102799046Y-97550000D01*
X102601018Y-97589390D01*
X102414480Y-97666656D01*
X102246600Y-97778830D01*
X102103830Y-97921600D01*
X101991656Y-98089480D01*
X101914390Y-98276018D01*
X101875000Y-98474046D01*
X84592364Y-98474046D01*
X84708710Y-98193164D01*
X84775000Y-97859898D01*
X84775000Y-97520102D01*
X84708710Y-97186836D01*
X84578676Y-96872906D01*
X84389895Y-96590376D01*
X84149624Y-96350105D01*
X83867094Y-96161324D01*
X83553164Y-96031290D01*
X83219898Y-95965000D01*
X82880102Y-95965000D01*
X82546836Y-96031290D01*
X82232906Y-96161324D01*
X81950376Y-96350105D01*
X81710105Y-96590376D01*
X81521324Y-96872906D01*
X81391290Y-97186836D01*
X81325000Y-97520102D01*
X72375000Y-97520102D01*
X72375000Y-73874046D01*
X72825082Y-73874046D01*
X72825082Y-74075954D01*
X72864472Y-74273982D01*
X72941738Y-74460520D01*
X73053912Y-74628400D01*
X73196682Y-74771170D01*
X73364562Y-74883344D01*
X73551100Y-74960610D01*
X73749128Y-75000000D01*
X73814423Y-75000000D01*
X77350000Y-78535578D01*
X77350001Y-88216110D01*
X77294511Y-88271600D01*
X77182337Y-88439480D01*
X77105071Y-88626018D01*
X77065681Y-88824046D01*
X77065681Y-89025954D01*
X77105071Y-89223982D01*
X77182337Y-89410520D01*
X77294511Y-89578400D01*
X77437281Y-89721170D01*
X77605161Y-89833344D01*
X77791699Y-89910610D01*
X77989727Y-89950000D01*
X78191635Y-89950000D01*
X78389663Y-89910610D01*
X78576201Y-89833344D01*
X78744081Y-89721170D01*
X78886851Y-89578400D01*
X78999025Y-89410520D01*
X79076291Y-89223982D01*
X79115681Y-89025954D01*
X79115681Y-88824046D01*
X79076291Y-88626018D01*
X78999025Y-88439480D01*
X78886851Y-88271600D01*
X78850000Y-88234749D01*
X78850000Y-79385660D01*
X79418626Y-79954286D01*
X79442105Y-79982895D01*
X79556307Y-80076619D01*
X79686599Y-80146261D01*
X79827974Y-80189147D01*
X79938165Y-80200000D01*
X79938172Y-80200000D01*
X79975000Y-80203627D01*
X80011828Y-80200000D01*
X81489341Y-80200000D01*
X83625000Y-82335660D01*
X83625000Y-82400954D01*
X83664390Y-82598982D01*
X83741656Y-82785520D01*
X83853830Y-82953400D01*
X83996600Y-83096170D01*
X84164480Y-83208344D01*
X84351018Y-83285610D01*
X84549046Y-83325000D01*
X84750954Y-83325000D01*
X84948982Y-83285610D01*
X85135520Y-83208344D01*
X85303400Y-83096170D01*
X85446170Y-82953400D01*
X85558344Y-82785520D01*
X85635610Y-82598982D01*
X85675000Y-82400954D01*
X85675000Y-82199046D01*
X85640380Y-82025000D01*
X86064341Y-82025000D01*
X86375000Y-82335660D01*
X86375000Y-82400954D01*
X86414390Y-82598982D01*
X86491656Y-82785520D01*
X86603830Y-82953400D01*
X86746600Y-83096170D01*
X86914480Y-83208344D01*
X87101018Y-83285610D01*
X87299046Y-83325000D01*
X87500954Y-83325000D01*
X87698982Y-83285610D01*
X87885520Y-83208344D01*
X88053400Y-83096170D01*
X88196170Y-82953400D01*
X88308344Y-82785520D01*
X88385610Y-82598982D01*
X88425000Y-82400954D01*
X88425000Y-82199046D01*
X88385610Y-82001018D01*
X88308344Y-81814480D01*
X88196170Y-81646600D01*
X88053400Y-81503830D01*
X87885520Y-81391656D01*
X87698982Y-81314390D01*
X87500954Y-81275000D01*
X87435660Y-81275000D01*
X86931378Y-80770719D01*
X86907895Y-80742105D01*
X86793693Y-80648381D01*
X86663401Y-80578739D01*
X86522026Y-80535853D01*
X86411835Y-80525000D01*
X86411827Y-80525000D01*
X86375000Y-80521373D01*
X86338173Y-80525000D01*
X84885660Y-80525000D01*
X84660660Y-80300000D01*
X84846029Y-80300000D01*
X85034397Y-80262532D01*
X85211836Y-80189034D01*
X85371527Y-80082332D01*
X85507332Y-79946527D01*
X85614034Y-79786836D01*
X85687532Y-79609397D01*
X85725000Y-79421029D01*
X85725000Y-79228971D01*
X85687532Y-79040603D01*
X85614034Y-78863164D01*
X85507332Y-78703473D01*
X85371527Y-78567668D01*
X85211836Y-78460966D01*
X85034397Y-78387468D01*
X84846029Y-78350000D01*
X84653971Y-78350000D01*
X84465603Y-78387468D01*
X84288164Y-78460966D01*
X84128473Y-78567668D01*
X83992668Y-78703473D01*
X83885966Y-78863164D01*
X83812468Y-79040603D01*
X83775000Y-79228971D01*
X83775000Y-79414341D01*
X82831379Y-78470720D01*
X82807895Y-78442105D01*
X82693693Y-78348381D01*
X82563401Y-78278739D01*
X82422026Y-78235853D01*
X82311835Y-78225000D01*
X82311827Y-78225000D01*
X82275000Y-78221373D01*
X82238173Y-78225000D01*
X80510660Y-78225000D01*
X76955115Y-74669455D01*
X76971170Y-74653400D01*
X77083344Y-74485520D01*
X77160610Y-74298982D01*
X77200000Y-74100954D01*
X77200000Y-73899046D01*
X77160610Y-73701018D01*
X77083344Y-73514480D01*
X76971170Y-73346600D01*
X76828400Y-73203830D01*
X76660520Y-73091656D01*
X76473982Y-73014390D01*
X76275954Y-72975000D01*
X76110279Y-72975000D01*
X76125006Y-72900964D01*
X76125006Y-72699056D01*
X76085616Y-72501028D01*
X76008350Y-72314490D01*
X75896176Y-72146610D01*
X75753406Y-72003840D01*
X75596571Y-71899046D01*
X89100000Y-71899046D01*
X89100000Y-72100954D01*
X89139390Y-72298982D01*
X89216656Y-72485520D01*
X89328830Y-72653400D01*
X89375000Y-72699570D01*
X89375001Y-80100431D01*
X89328832Y-80146600D01*
X89216658Y-80314480D01*
X89139392Y-80501018D01*
X89100002Y-80699046D01*
X89100002Y-80900954D01*
X89139392Y-81098982D01*
X89216658Y-81285520D01*
X89328832Y-81453400D01*
X89471602Y-81596170D01*
X89639482Y-81708344D01*
X89826020Y-81785610D01*
X90009026Y-81822012D01*
X90014390Y-81848978D01*
X90091656Y-82035516D01*
X90203830Y-82203396D01*
X90346600Y-82346166D01*
X90514480Y-82458340D01*
X90701018Y-82535606D01*
X90899046Y-82574996D01*
X91100954Y-82574996D01*
X91298982Y-82535606D01*
X91485520Y-82458340D01*
X91653400Y-82346166D01*
X91796170Y-82203396D01*
X91908344Y-82035516D01*
X91985610Y-81848978D01*
X92025000Y-81650950D01*
X92025000Y-81449042D01*
X91985610Y-81251014D01*
X91908344Y-81064476D01*
X91796170Y-80896596D01*
X91750000Y-80850426D01*
X91750000Y-74699568D01*
X91796170Y-74653398D01*
X91908344Y-74485518D01*
X91985610Y-74298980D01*
X92025000Y-74100952D01*
X92025000Y-73899044D01*
X91985610Y-73701016D01*
X91908344Y-73514478D01*
X91796170Y-73346598D01*
X91653400Y-73203828D01*
X91485520Y-73091654D01*
X91298982Y-73014388D01*
X91100954Y-72974998D01*
X90899046Y-72974998D01*
X90875000Y-72979781D01*
X90875000Y-72699570D01*
X90921170Y-72653400D01*
X91033344Y-72485520D01*
X91110610Y-72298982D01*
X91150000Y-72100954D01*
X91150000Y-71899046D01*
X91110610Y-71701018D01*
X91033344Y-71514480D01*
X90921170Y-71346600D01*
X90778400Y-71203830D01*
X90610520Y-71091656D01*
X90423982Y-71014390D01*
X90225954Y-70975000D01*
X90024046Y-70975000D01*
X89826018Y-71014390D01*
X89639480Y-71091656D01*
X89471600Y-71203830D01*
X89328830Y-71346600D01*
X89216656Y-71514480D01*
X89139390Y-71701018D01*
X89100000Y-71899046D01*
X75596571Y-71899046D01*
X75585526Y-71891666D01*
X75398988Y-71814400D01*
X75200960Y-71775010D01*
X74999052Y-71775010D01*
X74801024Y-71814400D01*
X74614486Y-71891666D01*
X74446606Y-72003840D01*
X74303836Y-72146610D01*
X74191662Y-72314490D01*
X74114396Y-72501028D01*
X74075006Y-72699056D01*
X74075006Y-72900964D01*
X74090269Y-72977695D01*
X73951036Y-72950000D01*
X73749128Y-72950000D01*
X73551100Y-72989390D01*
X73364562Y-73066656D01*
X73196682Y-73178830D01*
X73053912Y-73321600D01*
X72941738Y-73489480D01*
X72864472Y-73676018D01*
X72825082Y-73874046D01*
X72375000Y-73874046D01*
X72375000Y-70578971D01*
X83775000Y-70578971D01*
X83775000Y-70771029D01*
X83812468Y-70959397D01*
X83885966Y-71136836D01*
X83992668Y-71296527D01*
X84128473Y-71432332D01*
X84288164Y-71539034D01*
X84465603Y-71612532D01*
X84653971Y-71650000D01*
X84846029Y-71650000D01*
X85034397Y-71612532D01*
X85211836Y-71539034D01*
X85371527Y-71432332D01*
X85507332Y-71296527D01*
X85614034Y-71136836D01*
X85687532Y-70959397D01*
X85725000Y-70771029D01*
X85725000Y-70578971D01*
X85687532Y-70390603D01*
X85614034Y-70213164D01*
X85507332Y-70053473D01*
X85371527Y-69917668D01*
X85211836Y-69810966D01*
X85034397Y-69737468D01*
X84846029Y-69700000D01*
X84653971Y-69700000D01*
X84465603Y-69737468D01*
X84288164Y-69810966D01*
X84128473Y-69917668D01*
X83992668Y-70053473D01*
X83885966Y-70213164D01*
X83812468Y-70390603D01*
X83775000Y-70578971D01*
X72375000Y-70578971D01*
X72375000Y-52140102D01*
X81325000Y-52140102D01*
X81325000Y-52479898D01*
X81391290Y-52813164D01*
X81521324Y-53127094D01*
X81710105Y-53409624D01*
X81950376Y-53649895D01*
X82232906Y-53838676D01*
X82546836Y-53968710D01*
X82880102Y-54035000D01*
X83219898Y-54035000D01*
X83553164Y-53968710D01*
X83867094Y-53838676D01*
X84149624Y-53649895D01*
X84389895Y-53409624D01*
X84578676Y-53127094D01*
X84708710Y-52813164D01*
X84775000Y-52479898D01*
X84775000Y-52140102D01*
X84708710Y-51806836D01*
X84578676Y-51492906D01*
X84389895Y-51210376D01*
X84149624Y-50970105D01*
X83867094Y-50781324D01*
X83553164Y-50651290D01*
X83219898Y-50585000D01*
X82880102Y-50585000D01*
X82546836Y-50651290D01*
X82232906Y-50781324D01*
X81950376Y-50970105D01*
X81710105Y-51210376D01*
X81521324Y-51492906D01*
X81391290Y-51806836D01*
X81325000Y-52140102D01*
X72375000Y-52140102D01*
X72375000Y-41125000D01*
X100565261Y-41125000D01*
X100502817Y-41201089D01*
M02*
