M48
; DRILL file {KiCad (5.1.0-0)} date 2019年05月11日 土曜日 16:41:32
; FORMAT={-:-/ absolute / inch / decimal}
; #@! TF.CreationDate,2019-05-11T16:41:32+09:00
; #@! TF.GenerationSoftware,Kicad,Pcbnew,(5.1.0-0)
; #@! TF.FileFunction,Plated,1,2,PTH
FMAT,2
INCH
T1C0.0157
T2C0.0315
T3C0.0394
%
G90
G05
T1
X2.8622Y-1.6339
X2.8622Y-1.8366
X2.8622Y-2.0394
X2.8622Y-2.2421
X2.8622Y-2.4449
X2.8622Y-2.6476
X2.8622Y-2.8504
X2.8622Y-3.0531
X2.8622Y-3.2559
X2.8622Y-3.4587
X2.8622Y-3.6614
X2.8622Y-3.8642
X2.8622Y-4.0669
X2.8622Y-4.2697
X3.0069Y-1.8996
X3.0069Y-2.1811
X3.0642Y-2.4449
X3.0642Y-2.6476
X3.0642Y-2.8504
X3.0642Y-3.0531
X3.0642Y-3.2559
X3.0642Y-3.4587
X3.0642Y-3.6614
X3.0642Y-3.8642
X3.0642Y-4.0669
X3.0642Y-4.2697
X3.0797Y-1.6339
X3.0797Y-1.6978
X3.1358Y-2.5906
X3.1427Y-1.7894
X3.1742Y-2.124
X3.2657Y-2.8514
X3.2661Y-3.0531
X3.2661Y-3.2559
X3.2661Y-3.4587
X3.2661Y-3.6614
X3.2661Y-3.8642
X3.2661Y-4.0669
X3.2661Y-4.2697
X3.3346Y-2.125
X3.3366Y-2.2421
X3.3967Y-2.6703
X3.4026Y-2.5906
X3.4085Y-2.9488
X3.4094Y-3.1476
X3.4094Y-3.3494
X3.4681Y-3.4587
X3.4681Y-3.6614
X3.4681Y-3.8642
X3.4681Y-4.0669
X3.4681Y-4.2697
X3.4882Y-2.5906
X3.4951Y-2.124
X3.5226Y-2.625
X3.5443Y-2.5285
X3.5571Y-2.4419
X3.564Y-1.8858
X3.5689Y-2.9862
X3.5709Y-2.8002
X3.5728Y-2.3593
X3.5738Y-2.2028
X3.5797Y-1.6358
X3.5827Y-1.7333
X3.5896Y-3.6191
X3.5945Y-3.874
X3.6161Y-1.7904
X3.6604Y-1.9754
X3.6614Y-2.2785
X3.6701Y-4.0669
X3.6701Y-4.2697
X3.7726Y-1.8642
X3.8012Y-1.6339
X3.8091Y-3.8839
X3.815Y-1.9596
X3.8228Y-2.9311
X3.8248Y-2.7648
X3.8258Y-2.565
X3.8484Y-2.1033
X3.872Y-4.0669
X3.872Y-4.2697
X3.9577Y-2.2913
X4.0138Y-3.997
X4.0256Y-2.1122
X4.0522Y-1.6339
X4.0541Y-1.8593
X4.0699Y-2.2411
X4.074Y-4.0669
X4.074Y-4.2697
X4.1801Y-2.2431
X4.2244Y-2.1122
X4.2244Y-4.0315
X4.276Y-4.2697
X4.374Y-2.2146
X4.4104Y-2.3091
X4.4242Y-2.5246
X4.4242Y-2.7274
X4.4242Y-2.9301
X4.4744Y-2.2146
X4.4774Y-4.0748
X4.478Y-4.2697
X4.4961Y-1.6368
X4.497Y-1.8583
X4.5256Y-2.1102
X4.6417Y-1.9587
X4.6604Y-3.8455
X4.6673Y-3.626
X4.6693Y-2.9783
X4.6799Y-4.2697
X4.6801Y-4.0738
X4.685Y-2.1978
X4.687Y-2.7274
X4.688Y-2.5236
X4.69Y-1.8661
X4.6959Y-3.9026
X4.7283Y-1.6339
X4.7402Y-1.7283
X4.7726Y-3.2569
X4.7726Y-3.3563
X4.7785Y-2.0945
X4.7785Y-2.2943
X4.7785Y-2.5226
X4.7785Y-2.7815
X4.7805Y-1.9429
X4.7884Y-3.7441
X4.7884Y-3.8878
X4.8012Y-3.1565
X4.8061Y-1.81
X4.8071Y-3.5069
X4.8091Y-3.3051
X4.8209Y-3.2185
X4.8297Y-3.0561
X4.8819Y-4.0669
X4.8819Y-4.2697
X4.8829Y-3.1161
X4.8829Y-3.8888
X4.9104Y-2.0778
X4.9272Y-3.6053
X4.9469Y-3.3681
X4.9577Y-2.9774
X4.9685Y-2.8061
X4.9793Y-2.5778
X4.9803Y-2.2953
X4.9843Y-3.7431
X5.0217Y-3.5079
X5.0246Y-1.6348
X5.0246Y-1.7559
X5.0285Y-2.2047
X5.0463Y-1.9774
X5.06Y-3.6024
X5.0758Y-1.8425
X5.0787Y-2.2943
X5.0787Y-2.4833
X5.0797Y-2.6998
X5.0797Y-3.1024
X5.0797Y-3.2411
X5.0817Y-2.9094
X5.0839Y-4.0669
X5.0839Y-4.2697
X5.0856Y-3.8878
X5.1476Y-3.1722
X5.1821Y-3.3455
X5.2037Y-2.0236
X5.2156Y-1.6348
X5.2156Y-1.7559
X5.2293Y-3.7421
X5.2392Y-2.3209
X5.2431Y-2.5404
X5.2431Y-2.7982
X5.2539Y-3.4154
X5.2608Y-3.2776
X5.2726Y-2.1024
X5.2858Y-4.0669
X5.2858Y-4.2697
X5.3209Y-3.6033
X5.3474Y-3.8868
X5.3573Y-2.9557
X5.3868Y-2.3907
X5.3888Y-1.8455
X5.4026Y-3.1339
X5.4134Y-3.0108
X5.4134Y-2.9055
X5.4144Y-3.0541
X5.4144Y-2.9656
X5.4193Y-2.1368
X5.4281Y-3.2372
X5.4291Y-1.6358
X5.4291Y-1.7549
X5.4311Y-2.6683
X5.435Y-1.938
X5.4587Y-3.1526
X5.4636Y-3.7657
X5.4754Y-2.1467
X5.4872Y-2.7215
X5.4878Y-4.0669
X5.4878Y-4.2697
X5.4961Y-2.2126
X5.5128Y-3.8996
X5.5167Y-2.687
X5.5217Y-2.4557
X5.5236Y-2.2677
X5.5335Y-2.1388
X5.5378Y-3.167
X5.5472Y-2.6417
X5.5807Y-1.937
X5.5827Y-3.2195
X5.5856Y-3.6476
X5.5906Y-2.6909
X5.6132Y-1.8386
X5.6437Y-3.7707
X5.6614Y-2.7372
X5.689Y-2.2283
X5.6898Y-4.0669
X5.6898Y-4.2697
X5.7008Y-1.9419
X5.7037Y-1.8317
X5.7461Y-2.6535
X5.7815Y-3.122
X5.7815Y-3.2264
X5.7933Y-2.2264
X5.8002Y-1.873
X5.8406Y-3.6427
X5.8455Y-2.7165
X5.8868Y-2.3593
X5.8898Y-3.4242
X5.8917Y-3.1161
X5.8917Y-4.0669
X5.8917Y-4.2697
X5.8927Y-3.2293
X5.8927Y-3.7677
X5.8947Y-3.5886
X5.9124Y-1.8583
X5.9163Y-2.0994
X5.939Y-3.0866
X5.94Y-3.0404
X5.9405Y-3.0005
X5.9429Y-2.7628
X5.9449Y-2.4409
X5.9449Y-2.6033
X5.9567Y-2.8937
X5.9571Y-2.9648
X5.9872Y-2.4026
X6.0187Y-3.6368
X6.0197Y-3.3612
X6.0207Y-3.1447
X6.0935Y-1.6329
X6.0935Y-1.8356
X6.0935Y-2.0384
X6.0935Y-2.2411
X6.0935Y-2.4439
X6.0935Y-2.6467
X6.0935Y-2.8494
X6.0935Y-3.0522
X6.0935Y-3.2549
X6.0935Y-3.4577
X6.0935Y-3.6604
X6.0935Y-3.8632
X6.0935Y-4.0659
X6.0935Y-4.2687
T2
X3.974Y-2.4035
X4.074Y-2.4035
X4.174Y-2.4035
X4.274Y-2.4035
X3.9746Y-1.6906
X3.9746Y-1.6906
X3.9746Y-1.7906
X3.9746Y-1.7906
X4.5746Y-1.6906
X4.5746Y-1.6906
X4.5746Y-1.7906
X4.5746Y-1.7906
T3
X5.5098Y-1.6969
X5.6098Y-1.6969
X5.7098Y-1.6969
X5.8098Y-1.6969
X5.9098Y-1.6969
X6.0098Y-1.6969
T0
M30
