G04 #@! TF.GenerationSoftware,KiCad,Pcbnew,(5.1.0-0)*
G04 #@! TF.CreationDate,2019-05-12T16:12:14+09:00*
G04 #@! TF.ProjectId,split_EC_left,73706c69-745f-4454-935f-6c6566742e6b,rev?*
G04 #@! TF.SameCoordinates,Original*
G04 #@! TF.FileFunction,Copper,L1,Top*
G04 #@! TF.FilePolarity,Positive*
%FSLAX46Y46*%
G04 Gerber Fmt 4.6, Leading zero omitted, Abs format (unit mm)*
G04 Created by KiCad (PCBNEW (5.1.0-0)) date 2019-05-12 16:12:14*
%MOMM*%
%LPD*%
G04 APERTURE LIST*
%ADD10C,0.100000*%
%ADD11R,0.500000X0.950000*%
%ADD12R,1.000000X1.400000*%
%ADD13R,0.250000X2.000000*%
%ADD14R,0.500000X0.700000*%
%ADD15R,2.600000X2.000000*%
%ADD16R,1.425000X1.750000*%
%ADD17R,1.150000X1.400000*%
%ADD18R,1.050000X0.950000*%
%ADD19R,1.000000X1.000000*%
%ADD20R,3.000000X0.400000*%
%ADD21C,0.500000*%
%ADD22R,1.000000X2.100000*%
%ADD23C,1.780000*%
%ADD24R,0.950000X1.050000*%
%ADD25R,0.600000X1.500000*%
%ADD26C,1.600000*%
%ADD27O,1.700000X1.700000*%
%ADD28R,1.700000X1.700000*%
%ADD29R,2.300000X1.000000*%
%ADD30R,1.000000X2.300000*%
%ADD31C,0.800000*%
%ADD32C,1.000000*%
%ADD33C,0.500000*%
%ADD34C,0.250000*%
%ADD35C,0.400000*%
%ADD36C,0.300000*%
G04 APERTURE END LIST*
D10*
G36*
X145900000Y-57000000D02*
G01*
X145900000Y-57500000D01*
X146500000Y-57500000D01*
X146500000Y-57000000D01*
X145900000Y-57000000D01*
G37*
D11*
X91450000Y-64200000D03*
X91450000Y-65850000D03*
D12*
X90250000Y-65025000D03*
X92650000Y-65025000D03*
D13*
X91450000Y-65025000D03*
D14*
X91450000Y-65025000D03*
D15*
X138925000Y-42750000D03*
X138925000Y-49100000D03*
X138925000Y-51700000D03*
X146925000Y-42750000D03*
X146925000Y-45500000D03*
X146925000Y-50550000D03*
D16*
X93037500Y-61225000D03*
X90062500Y-61225000D03*
D17*
X79725000Y-65025000D03*
X81775000Y-65025000D03*
D18*
X81625000Y-61225000D03*
X79875000Y-61225000D03*
X78150000Y-82325000D03*
X79900000Y-82325000D03*
D19*
X84350000Y-61225000D03*
X86850000Y-61225000D03*
D20*
X80150000Y-72075000D03*
X85950000Y-72075000D03*
X80150000Y-72725000D03*
X85950000Y-72725000D03*
X80150000Y-73375000D03*
X85950000Y-73375000D03*
X80150000Y-74025000D03*
X85950000Y-74025000D03*
X80150000Y-74675000D03*
X85950000Y-74675000D03*
X80150000Y-75325000D03*
X85950000Y-75325000D03*
X80150000Y-75975000D03*
X85950000Y-75975000D03*
X80150000Y-76625000D03*
X85950000Y-76625000D03*
X80150000Y-77275000D03*
X85950000Y-77275000D03*
X80150000Y-77925000D03*
X85950000Y-77925000D03*
D21*
X139900000Y-57900000D03*
D10*
G36*
X140650000Y-57400000D02*
G01*
X140650000Y-57900000D01*
X140649398Y-57900000D01*
X140649398Y-57924534D01*
X140644588Y-57973365D01*
X140635016Y-58021490D01*
X140620772Y-58068445D01*
X140601995Y-58113778D01*
X140578864Y-58157051D01*
X140551604Y-58197850D01*
X140520476Y-58235779D01*
X140485779Y-58270476D01*
X140447850Y-58301604D01*
X140407051Y-58328864D01*
X140363778Y-58351995D01*
X140318445Y-58370772D01*
X140271490Y-58385016D01*
X140223365Y-58394588D01*
X140174534Y-58399398D01*
X140150000Y-58399398D01*
X140150000Y-58400000D01*
X139650000Y-58400000D01*
X139650000Y-58399398D01*
X139625466Y-58399398D01*
X139576635Y-58394588D01*
X139528510Y-58385016D01*
X139481555Y-58370772D01*
X139436222Y-58351995D01*
X139392949Y-58328864D01*
X139352150Y-58301604D01*
X139314221Y-58270476D01*
X139279524Y-58235779D01*
X139248396Y-58197850D01*
X139221136Y-58157051D01*
X139198005Y-58113778D01*
X139179228Y-58068445D01*
X139164984Y-58021490D01*
X139155412Y-57973365D01*
X139150602Y-57924534D01*
X139150602Y-57900000D01*
X139150000Y-57900000D01*
X139150000Y-57400000D01*
X140650000Y-57400000D01*
X140650000Y-57400000D01*
G37*
D21*
X139900000Y-56600000D03*
D10*
G36*
X139150602Y-56600000D02*
G01*
X139150602Y-56575466D01*
X139155412Y-56526635D01*
X139164984Y-56478510D01*
X139179228Y-56431555D01*
X139198005Y-56386222D01*
X139221136Y-56342949D01*
X139248396Y-56302150D01*
X139279524Y-56264221D01*
X139314221Y-56229524D01*
X139352150Y-56198396D01*
X139392949Y-56171136D01*
X139436222Y-56148005D01*
X139481555Y-56129228D01*
X139528510Y-56114984D01*
X139576635Y-56105412D01*
X139625466Y-56100602D01*
X139650000Y-56100602D01*
X139650000Y-56100000D01*
X140150000Y-56100000D01*
X140150000Y-56100602D01*
X140174534Y-56100602D01*
X140223365Y-56105412D01*
X140271490Y-56114984D01*
X140318445Y-56129228D01*
X140363778Y-56148005D01*
X140407051Y-56171136D01*
X140447850Y-56198396D01*
X140485779Y-56229524D01*
X140520476Y-56264221D01*
X140551604Y-56302150D01*
X140578864Y-56342949D01*
X140601995Y-56386222D01*
X140620772Y-56431555D01*
X140635016Y-56478510D01*
X140644588Y-56526635D01*
X140649398Y-56575466D01*
X140649398Y-56600000D01*
X140650000Y-56600000D01*
X140650000Y-57100000D01*
X139150000Y-57100000D01*
X139150000Y-56600000D01*
X139150602Y-56600000D01*
X139150602Y-56600000D01*
G37*
D21*
X143025000Y-56600000D03*
D10*
G36*
X142275602Y-56600000D02*
G01*
X142275602Y-56575466D01*
X142280412Y-56526635D01*
X142289984Y-56478510D01*
X142304228Y-56431555D01*
X142323005Y-56386222D01*
X142346136Y-56342949D01*
X142373396Y-56302150D01*
X142404524Y-56264221D01*
X142439221Y-56229524D01*
X142477150Y-56198396D01*
X142517949Y-56171136D01*
X142561222Y-56148005D01*
X142606555Y-56129228D01*
X142653510Y-56114984D01*
X142701635Y-56105412D01*
X142750466Y-56100602D01*
X142775000Y-56100602D01*
X142775000Y-56100000D01*
X143275000Y-56100000D01*
X143275000Y-56100602D01*
X143299534Y-56100602D01*
X143348365Y-56105412D01*
X143396490Y-56114984D01*
X143443445Y-56129228D01*
X143488778Y-56148005D01*
X143532051Y-56171136D01*
X143572850Y-56198396D01*
X143610779Y-56229524D01*
X143645476Y-56264221D01*
X143676604Y-56302150D01*
X143703864Y-56342949D01*
X143726995Y-56386222D01*
X143745772Y-56431555D01*
X143760016Y-56478510D01*
X143769588Y-56526635D01*
X143774398Y-56575466D01*
X143774398Y-56600000D01*
X143775000Y-56600000D01*
X143775000Y-57100000D01*
X142275000Y-57100000D01*
X142275000Y-56600000D01*
X142275602Y-56600000D01*
X142275602Y-56600000D01*
G37*
D21*
X143025000Y-57900000D03*
D10*
G36*
X143775000Y-57400000D02*
G01*
X143775000Y-57900000D01*
X143774398Y-57900000D01*
X143774398Y-57924534D01*
X143769588Y-57973365D01*
X143760016Y-58021490D01*
X143745772Y-58068445D01*
X143726995Y-58113778D01*
X143703864Y-58157051D01*
X143676604Y-58197850D01*
X143645476Y-58235779D01*
X143610779Y-58270476D01*
X143572850Y-58301604D01*
X143532051Y-58328864D01*
X143488778Y-58351995D01*
X143443445Y-58370772D01*
X143396490Y-58385016D01*
X143348365Y-58394588D01*
X143299534Y-58399398D01*
X143275000Y-58399398D01*
X143275000Y-58400000D01*
X142775000Y-58400000D01*
X142775000Y-58399398D01*
X142750466Y-58399398D01*
X142701635Y-58394588D01*
X142653510Y-58385016D01*
X142606555Y-58370772D01*
X142561222Y-58351995D01*
X142517949Y-58328864D01*
X142477150Y-58301604D01*
X142439221Y-58270476D01*
X142404524Y-58235779D01*
X142373396Y-58197850D01*
X142346136Y-58157051D01*
X142323005Y-58113778D01*
X142304228Y-58068445D01*
X142289984Y-58021490D01*
X142280412Y-57973365D01*
X142275602Y-57924534D01*
X142275602Y-57900000D01*
X142275000Y-57900000D01*
X142275000Y-57400000D01*
X143775000Y-57400000D01*
X143775000Y-57400000D01*
G37*
D21*
X146200000Y-56600000D03*
D10*
G36*
X145450602Y-56600000D02*
G01*
X145450602Y-56575466D01*
X145455412Y-56526635D01*
X145464984Y-56478510D01*
X145479228Y-56431555D01*
X145498005Y-56386222D01*
X145521136Y-56342949D01*
X145548396Y-56302150D01*
X145579524Y-56264221D01*
X145614221Y-56229524D01*
X145652150Y-56198396D01*
X145692949Y-56171136D01*
X145736222Y-56148005D01*
X145781555Y-56129228D01*
X145828510Y-56114984D01*
X145876635Y-56105412D01*
X145925466Y-56100602D01*
X145950000Y-56100602D01*
X145950000Y-56100000D01*
X146450000Y-56100000D01*
X146450000Y-56100602D01*
X146474534Y-56100602D01*
X146523365Y-56105412D01*
X146571490Y-56114984D01*
X146618445Y-56129228D01*
X146663778Y-56148005D01*
X146707051Y-56171136D01*
X146747850Y-56198396D01*
X146785779Y-56229524D01*
X146820476Y-56264221D01*
X146851604Y-56302150D01*
X146878864Y-56342949D01*
X146901995Y-56386222D01*
X146920772Y-56431555D01*
X146935016Y-56478510D01*
X146944588Y-56526635D01*
X146949398Y-56575466D01*
X146949398Y-56600000D01*
X146950000Y-56600000D01*
X146950000Y-57100000D01*
X145450000Y-57100000D01*
X145450000Y-56600000D01*
X145450602Y-56600000D01*
X145450602Y-56600000D01*
G37*
D21*
X146200000Y-57900000D03*
D10*
G36*
X146950000Y-57400000D02*
G01*
X146950000Y-57900000D01*
X146949398Y-57900000D01*
X146949398Y-57924534D01*
X146944588Y-57973365D01*
X146935016Y-58021490D01*
X146920772Y-58068445D01*
X146901995Y-58113778D01*
X146878864Y-58157051D01*
X146851604Y-58197850D01*
X146820476Y-58235779D01*
X146785779Y-58270476D01*
X146747850Y-58301604D01*
X146707051Y-58328864D01*
X146663778Y-58351995D01*
X146618445Y-58370772D01*
X146571490Y-58385016D01*
X146523365Y-58394588D01*
X146474534Y-58399398D01*
X146450000Y-58399398D01*
X146450000Y-58400000D01*
X145950000Y-58400000D01*
X145950000Y-58399398D01*
X145925466Y-58399398D01*
X145876635Y-58394588D01*
X145828510Y-58385016D01*
X145781555Y-58370772D01*
X145736222Y-58351995D01*
X145692949Y-58328864D01*
X145652150Y-58301604D01*
X145614221Y-58270476D01*
X145579524Y-58235779D01*
X145548396Y-58197850D01*
X145521136Y-58157051D01*
X145498005Y-58113778D01*
X145479228Y-58068445D01*
X145464984Y-58021490D01*
X145455412Y-57973365D01*
X145450602Y-57924534D01*
X145450602Y-57900000D01*
X145450000Y-57900000D01*
X145450000Y-57400000D01*
X146950000Y-57400000D01*
X146950000Y-57400000D01*
G37*
D22*
X86850000Y-65025000D03*
X84350000Y-65025000D03*
D10*
G36*
X134591738Y-49426646D02*
G01*
X134624914Y-49431567D01*
X134657448Y-49439716D01*
X134689026Y-49451015D01*
X134719345Y-49465355D01*
X134748112Y-49482597D01*
X134775050Y-49502576D01*
X134799901Y-49525099D01*
X134822424Y-49549950D01*
X134842403Y-49576888D01*
X134859645Y-49605655D01*
X134873985Y-49635974D01*
X134885284Y-49667552D01*
X134893433Y-49700086D01*
X134898354Y-49733262D01*
X134900000Y-49766760D01*
X134900000Y-50863240D01*
X134898354Y-50896738D01*
X134893433Y-50929914D01*
X134885284Y-50962448D01*
X134873985Y-50994026D01*
X134859645Y-51024345D01*
X134842403Y-51053112D01*
X134822424Y-51080050D01*
X134799901Y-51104901D01*
X134775050Y-51127424D01*
X134748112Y-51147403D01*
X134719345Y-51164645D01*
X134689026Y-51178985D01*
X134657448Y-51190284D01*
X134624914Y-51198433D01*
X134591738Y-51203354D01*
X134558240Y-51205000D01*
X131741760Y-51205000D01*
X131708262Y-51203354D01*
X131675086Y-51198433D01*
X131642552Y-51190284D01*
X131610974Y-51178985D01*
X131580655Y-51164645D01*
X131551888Y-51147403D01*
X131524950Y-51127424D01*
X131500099Y-51104901D01*
X131477576Y-51080050D01*
X131457597Y-51053112D01*
X131440355Y-51024345D01*
X131426015Y-50994026D01*
X131414716Y-50962448D01*
X131406567Y-50929914D01*
X131401646Y-50896738D01*
X131400000Y-50863240D01*
X131400000Y-49766760D01*
X131401646Y-49733262D01*
X131406567Y-49700086D01*
X131414716Y-49667552D01*
X131426015Y-49635974D01*
X131440355Y-49605655D01*
X131457597Y-49576888D01*
X131477576Y-49549950D01*
X131500099Y-49525099D01*
X131524950Y-49502576D01*
X131551888Y-49482597D01*
X131580655Y-49465355D01*
X131610974Y-49451015D01*
X131642552Y-49439716D01*
X131675086Y-49431567D01*
X131708262Y-49426646D01*
X131741760Y-49425000D01*
X134558240Y-49425000D01*
X134591738Y-49426646D01*
X134591738Y-49426646D01*
G37*
D23*
X133150000Y-50315000D03*
D10*
G36*
X134591738Y-44196646D02*
G01*
X134624914Y-44201567D01*
X134657448Y-44209716D01*
X134689026Y-44221015D01*
X134719345Y-44235355D01*
X134748112Y-44252597D01*
X134775050Y-44272576D01*
X134799901Y-44295099D01*
X134822424Y-44319950D01*
X134842403Y-44346888D01*
X134859645Y-44375655D01*
X134873985Y-44405974D01*
X134885284Y-44437552D01*
X134893433Y-44470086D01*
X134898354Y-44503262D01*
X134900000Y-44536760D01*
X134900000Y-45633240D01*
X134898354Y-45666738D01*
X134893433Y-45699914D01*
X134885284Y-45732448D01*
X134873985Y-45764026D01*
X134859645Y-45794345D01*
X134842403Y-45823112D01*
X134822424Y-45850050D01*
X134799901Y-45874901D01*
X134775050Y-45897424D01*
X134748112Y-45917403D01*
X134719345Y-45934645D01*
X134689026Y-45948985D01*
X134657448Y-45960284D01*
X134624914Y-45968433D01*
X134591738Y-45973354D01*
X134558240Y-45975000D01*
X131741760Y-45975000D01*
X131708262Y-45973354D01*
X131675086Y-45968433D01*
X131642552Y-45960284D01*
X131610974Y-45948985D01*
X131580655Y-45934645D01*
X131551888Y-45917403D01*
X131524950Y-45897424D01*
X131500099Y-45874901D01*
X131477576Y-45850050D01*
X131457597Y-45823112D01*
X131440355Y-45794345D01*
X131426015Y-45764026D01*
X131414716Y-45732448D01*
X131406567Y-45699914D01*
X131401646Y-45666738D01*
X131400000Y-45633240D01*
X131400000Y-44536760D01*
X131401646Y-44503262D01*
X131406567Y-44470086D01*
X131414716Y-44437552D01*
X131426015Y-44405974D01*
X131440355Y-44375655D01*
X131457597Y-44346888D01*
X131477576Y-44319950D01*
X131500099Y-44295099D01*
X131524950Y-44272576D01*
X131551888Y-44252597D01*
X131580655Y-44235355D01*
X131610974Y-44221015D01*
X131642552Y-44209716D01*
X131675086Y-44201567D01*
X131708262Y-44196646D01*
X131741760Y-44195000D01*
X134558240Y-44195000D01*
X134591738Y-44196646D01*
X134591738Y-44196646D01*
G37*
D23*
X133150000Y-45085000D03*
D24*
X139900000Y-60525000D03*
X139900000Y-62275000D03*
X143025000Y-62275000D03*
X143025000Y-60525000D03*
D25*
X79930000Y-90350000D03*
X81200000Y-90350000D03*
X82470000Y-90350000D03*
X83740000Y-90350000D03*
X85010000Y-90350000D03*
X86280000Y-90350000D03*
X87550000Y-90350000D03*
X88820000Y-90350000D03*
X88820000Y-84950000D03*
X87550000Y-84950000D03*
X86280000Y-84950000D03*
X85010000Y-84950000D03*
X83740000Y-84950000D03*
X82470000Y-84950000D03*
X81200000Y-84950000D03*
X79930000Y-84950000D03*
D26*
X126545000Y-45480000D03*
X126545000Y-42940000D03*
X111305000Y-45480000D03*
X111305000Y-42940000D03*
X126545000Y-45480000D03*
X126545000Y-42940000D03*
X111305000Y-45480000D03*
X111305000Y-42940000D03*
D27*
X87800000Y-43975000D03*
X85260000Y-43975000D03*
X82720000Y-43975000D03*
X80180000Y-43975000D03*
X77640000Y-43975000D03*
D28*
X75100000Y-43975000D03*
D29*
X109400000Y-77630000D03*
X109400000Y-80170000D03*
X136100000Y-77630000D03*
X136100000Y-80170000D03*
X136100000Y-82710000D03*
X136100000Y-85250000D03*
X136100000Y-87790000D03*
X136100000Y-90330000D03*
D30*
X116400000Y-98400000D03*
X118940000Y-98400000D03*
X121480000Y-98400000D03*
X124020000Y-98400000D03*
X126560000Y-98400000D03*
D29*
X109400000Y-90330000D03*
X109400000Y-87790000D03*
X109400000Y-85250000D03*
D26*
X126560000Y-61050000D03*
X124020000Y-61050000D03*
X121480000Y-61050000D03*
X118940000Y-61050000D03*
D29*
X109400000Y-82710000D03*
D30*
X129100000Y-98400000D03*
D31*
X78475000Y-93075000D03*
X88750000Y-76150000D03*
X86275000Y-87700000D03*
X94425000Y-81800000D03*
X72675000Y-41450000D03*
X72675000Y-46613461D03*
X72675000Y-51776922D03*
X72675000Y-56940383D03*
X72675000Y-62103844D03*
X72675000Y-67267305D03*
X72675000Y-72430766D03*
X72675000Y-77594227D03*
X72675000Y-82757688D03*
X72675000Y-87921149D03*
X72675000Y-93084610D03*
X72675000Y-98248071D03*
X72675000Y-103411532D03*
X72675000Y-108575000D03*
X154725000Y-46625000D03*
X154725000Y-51775000D03*
X154725000Y-56925000D03*
X154725000Y-62075000D03*
X154725000Y-67225000D03*
X154725000Y-72375000D03*
X154725000Y-77525000D03*
X154725000Y-82675000D03*
X154725000Y-87825000D03*
X154725000Y-92975000D03*
X154725000Y-98125000D03*
X154725000Y-103275000D03*
X77785000Y-108575000D03*
X82895000Y-108575000D03*
X88005000Y-108575000D03*
X93115000Y-108575000D03*
X98225000Y-108575000D03*
X103335000Y-108575000D03*
X108445000Y-108575000D03*
X113555000Y-108575000D03*
X118665000Y-108575000D03*
X123775000Y-108575000D03*
X128885000Y-108575000D03*
X133995000Y-108575000D03*
X139105000Y-108575000D03*
X144215000Y-108575000D03*
X149325000Y-108575000D03*
X154775000Y-108500000D03*
X77785000Y-41450000D03*
X84225000Y-41450000D03*
X88005000Y-41450000D03*
X93115000Y-41450000D03*
X98225000Y-41450000D03*
X108445000Y-41450000D03*
X121300000Y-58450000D03*
X121300000Y-53825000D03*
X112475000Y-54850000D03*
X115225000Y-74500000D03*
X115200000Y-70700000D03*
X115200000Y-66975000D03*
X115200000Y-63100000D03*
X117775000Y-53800000D03*
X116300000Y-57550000D03*
X124225000Y-53800000D03*
X124225000Y-58400000D03*
X126300000Y-53800000D03*
X127225000Y-58400000D03*
X98775000Y-99250000D03*
X91925000Y-99225000D03*
X80600000Y-70850000D03*
X94900000Y-60725000D03*
X97575000Y-59000000D03*
X99775000Y-57250000D03*
X94875000Y-52350000D03*
X104400000Y-52625000D03*
X105950000Y-89025000D03*
X107250000Y-86500000D03*
X97550000Y-87650000D03*
X94325000Y-87200000D03*
X90525000Y-91175000D03*
X97600000Y-93300000D03*
X113900000Y-98600000D03*
X109350000Y-98225000D03*
X109200000Y-91850000D03*
X109175000Y-94925000D03*
X86150000Y-70800000D03*
X88325000Y-70825000D03*
X85675000Y-67675000D03*
X93700000Y-54850000D03*
X77785000Y-51776922D03*
X77785000Y-56940383D03*
X77675000Y-63000000D03*
X77785000Y-67267305D03*
X92275000Y-74850000D03*
X97475000Y-80250000D03*
X87875000Y-95050000D03*
X94575000Y-94825000D03*
X104875000Y-91550000D03*
X100950000Y-96500000D03*
X154765000Y-41450000D03*
X149300000Y-45875000D03*
X149225000Y-41475000D03*
X130375000Y-74450000D03*
X77785000Y-103411532D03*
X82895000Y-103411532D03*
X88005000Y-103411532D03*
X93115000Y-103411532D03*
X98225000Y-103411532D03*
X103335000Y-103411532D03*
X108445000Y-103411532D03*
X113555000Y-103411532D03*
X118665000Y-103411532D03*
X123775000Y-103411532D03*
X128885000Y-103411532D03*
X133995000Y-103411532D03*
X139105000Y-103411532D03*
X144215000Y-103411532D03*
X149325000Y-103411532D03*
X102875000Y-62000000D03*
X129550000Y-60900000D03*
X147700000Y-53075000D03*
X150550000Y-53750000D03*
X149325000Y-98251532D03*
X149325000Y-93091532D03*
X149325000Y-87931532D03*
X149325000Y-82771532D03*
X144215000Y-98251532D03*
X144215000Y-93091532D03*
X144215000Y-87931532D03*
X139105000Y-98251532D03*
X139105000Y-93091532D03*
X130650000Y-98650000D03*
X135975000Y-98425000D03*
X136300000Y-91875000D03*
X136425000Y-75775000D03*
X130400000Y-70650000D03*
X130475000Y-66125000D03*
X136275000Y-70650000D03*
X136275000Y-66175000D03*
X129750000Y-56550000D03*
X77825000Y-98250000D03*
X91225000Y-94925000D03*
X80875000Y-41450000D03*
X78750000Y-47000000D03*
X81400000Y-49475000D03*
X88500000Y-49675000D03*
X90975000Y-48350000D03*
X95600000Y-44775000D03*
X90875000Y-44800000D03*
X97750000Y-45900000D03*
X95075000Y-48450000D03*
X101775000Y-55275000D03*
X98350000Y-51700000D03*
X85600000Y-58550000D03*
X91875000Y-59100000D03*
X88400000Y-54900000D03*
X79775000Y-58950000D03*
X81775000Y-82025000D03*
X128575000Y-48000000D03*
X134550000Y-41525000D03*
X103700000Y-45950000D03*
X113350000Y-41475000D03*
X124525000Y-41450000D03*
X128885000Y-41450000D03*
X109100000Y-48150000D03*
X113400000Y-47975000D03*
X124450000Y-48000000D03*
X133050000Y-47875000D03*
X129925000Y-50875000D03*
X76550000Y-88975000D03*
X102900000Y-82325000D03*
X105700000Y-96700000D03*
X144625000Y-59350000D03*
X140075000Y-81575000D03*
X144125000Y-77450000D03*
X144100000Y-65025000D03*
X144100000Y-70750000D03*
X147375000Y-78775000D03*
X143350000Y-82875000D03*
X139350000Y-86850000D03*
X107125000Y-55400000D03*
X107350000Y-76100000D03*
X107350000Y-70700000D03*
X107350000Y-66950000D03*
X107350000Y-63075000D03*
X107325000Y-59175000D03*
X99075000Y-72075000D03*
X101650000Y-83625000D03*
X99100000Y-77850000D03*
X89175000Y-79650000D03*
X76550000Y-84600000D03*
X76550000Y-80325000D03*
X147425000Y-65000000D03*
X147350010Y-59400000D03*
X147450000Y-72325000D03*
X135736452Y-61463548D03*
D32*
X137550000Y-59175000D03*
D31*
X137700000Y-45700000D03*
X99025000Y-61575000D03*
X109400000Y-51325000D03*
X95775000Y-65050000D03*
X102850000Y-75150000D03*
X101600000Y-71050000D03*
X102875000Y-57750000D03*
X102875000Y-66125000D03*
X99300000Y-85975000D03*
X94175000Y-91000000D03*
X73850082Y-73975000D03*
X78090681Y-88925000D03*
X122725000Y-101200000D03*
X102900000Y-98575000D03*
X102900002Y-99850000D03*
X125975000Y-102200000D03*
X104750000Y-80175000D03*
X81200000Y-92975000D03*
X82450000Y-92250000D03*
X104025000Y-77625000D03*
X105475000Y-82671154D03*
X79925000Y-93700000D03*
X90125000Y-72000000D03*
X90125002Y-80800000D03*
X84650000Y-82300000D03*
X75100006Y-72800010D03*
X91000000Y-73999998D03*
X91000000Y-81549996D03*
X87400000Y-82300000D03*
X76175000Y-74000000D03*
X106200000Y-85250000D03*
X137575000Y-56600000D03*
X136200000Y-42750002D03*
D33*
X90250000Y-65025000D02*
X86875000Y-65025000D01*
X86850000Y-61225000D02*
X90050000Y-61225000D01*
X86850000Y-61225000D02*
X86850000Y-65050000D01*
D34*
X85950000Y-76625000D02*
X85950000Y-78750000D01*
X85950000Y-76625000D02*
X88000000Y-76625000D01*
X85950000Y-77275000D02*
X88000000Y-77275000D01*
X85950000Y-77925000D02*
X88000000Y-77925000D01*
X80150000Y-77275000D02*
X80150000Y-77925000D01*
X80150000Y-77925000D02*
X80150000Y-78750000D01*
X80150000Y-77275000D02*
X78800000Y-77275000D01*
X78800000Y-77275000D02*
X78250000Y-77275000D01*
X80150000Y-77925000D02*
X78400000Y-77925000D01*
X78400000Y-77925000D02*
X78250000Y-77925000D01*
D33*
X84350000Y-61225000D02*
X81625000Y-61225000D01*
X84350000Y-65025000D02*
X81775000Y-65025000D01*
X81625000Y-61225000D02*
X81625000Y-64875000D01*
X81625000Y-64875000D02*
X81775000Y-65025000D01*
X84350000Y-65575000D02*
X84350000Y-65050000D01*
X83000000Y-74375000D02*
X83000000Y-66925000D01*
D35*
X85950000Y-75975000D02*
X83950000Y-75975000D01*
X83950000Y-75975000D02*
X80150000Y-75975000D01*
D33*
X83000000Y-75775000D02*
X83000000Y-74375000D01*
X86280000Y-90350000D02*
X86280000Y-89900000D01*
X86275000Y-89700000D02*
X86275000Y-90375000D01*
X84600000Y-88025000D02*
X86275000Y-89700000D01*
X81025000Y-88025000D02*
X84600000Y-88025000D01*
X79930000Y-86930000D02*
X81025000Y-88025000D01*
X79930000Y-84950000D02*
X79930000Y-86930000D01*
X79900000Y-82325000D02*
X79900000Y-84925000D01*
X79900000Y-84925000D02*
X79925000Y-84950000D01*
X79900000Y-81350000D02*
X79900000Y-82325000D01*
X79900000Y-81225000D02*
X79900000Y-81350000D01*
X83000000Y-78125000D02*
X83000000Y-75775000D01*
X79930000Y-81195000D02*
X79900000Y-81225000D01*
X79930000Y-81195000D02*
X83000000Y-78125000D01*
X83000000Y-66925000D02*
X84350000Y-65575000D01*
D35*
X85950000Y-75325000D02*
X83000000Y-75325000D01*
X80150000Y-76625000D02*
X83000000Y-76625000D01*
X80150000Y-76625000D02*
X80150000Y-75975000D01*
X85950000Y-75325000D02*
X85950000Y-75975000D01*
D34*
X88900000Y-74675000D02*
X87700000Y-74675000D01*
X95549978Y-81324978D02*
X88900000Y-74675000D01*
X87700000Y-74675000D02*
X85950000Y-74675000D01*
X101925000Y-100625000D02*
X95549978Y-94249978D01*
X116400000Y-98400000D02*
X116400000Y-99050000D01*
X114825000Y-100625000D02*
X101925000Y-100625000D01*
X116400000Y-99050000D02*
X114825000Y-100625000D01*
X95549978Y-94249978D02*
X95549978Y-81324978D01*
X74650000Y-72075000D02*
X73850082Y-72874918D01*
X73850082Y-72874918D02*
X73850082Y-73409315D01*
X80150000Y-72075000D02*
X74650000Y-72075000D01*
X73850082Y-73409315D02*
X73850082Y-73975000D01*
X78656366Y-88925000D02*
X78090681Y-88925000D01*
X83740000Y-89590000D02*
X83075000Y-88925000D01*
X83075000Y-88925000D02*
X78656366Y-88925000D01*
X83740000Y-90350000D02*
X83740000Y-89590000D01*
X83725000Y-92725000D02*
X83725000Y-90350000D01*
X92075000Y-101075000D02*
X83725000Y-92725000D01*
X116915000Y-101075000D02*
X92075000Y-101075000D01*
X118940000Y-99050000D02*
X116915000Y-101075000D01*
X118940000Y-98400000D02*
X118940000Y-99050000D01*
X121480000Y-99050000D02*
X121480000Y-98400000D01*
X119005000Y-101525000D02*
X121480000Y-99050000D01*
X85088591Y-94725000D02*
X91888591Y-101525000D01*
X74675011Y-78299989D02*
X74675011Y-91025011D01*
X91888591Y-101525000D02*
X119005000Y-101525000D01*
X78375000Y-94725000D02*
X85088591Y-94725000D01*
X74675011Y-91025011D02*
X78375000Y-94725000D01*
X77650000Y-75325000D02*
X74675011Y-78299989D01*
X80150000Y-75325000D02*
X77650000Y-75325000D01*
X122950000Y-101200000D02*
X122725000Y-101200000D01*
X124050000Y-100100000D02*
X122950000Y-101200000D01*
X124050000Y-98300000D02*
X124050000Y-100100000D01*
X102334315Y-98575000D02*
X102900000Y-98575000D01*
X101150000Y-98575000D02*
X102334315Y-98575000D01*
X96450000Y-93875000D02*
X101150000Y-98575000D01*
X96450000Y-80913188D02*
X96450000Y-93875000D01*
X88911812Y-73375000D02*
X96450000Y-80913188D01*
X85950000Y-73375000D02*
X88911812Y-73375000D01*
X78300000Y-74025000D02*
X80150000Y-74025000D01*
X74225000Y-78100000D02*
X78300000Y-74025000D01*
X126560000Y-98400000D02*
X126560000Y-100155622D01*
X84902191Y-95175011D02*
X78188600Y-95175011D01*
X124740622Y-101975000D02*
X91702180Y-101975000D01*
X74225000Y-91211411D02*
X74225000Y-78100000D01*
X78188600Y-95175011D02*
X74225000Y-91211411D01*
X126560000Y-100155622D02*
X124740622Y-101975000D01*
X91702180Y-101975000D02*
X84902191Y-95175011D01*
X129100000Y-98400000D02*
X129100000Y-98500000D01*
X85950000Y-74025000D02*
X88925401Y-74025000D01*
X88925401Y-74025000D02*
X95999989Y-81099588D01*
X102334317Y-99850000D02*
X102900002Y-99850000D01*
X95999989Y-81099588D02*
X95999989Y-94061400D01*
X95999989Y-94061400D02*
X101788589Y-99850000D01*
X101788589Y-99850000D02*
X102334317Y-99850000D01*
X125975000Y-102175000D02*
X125975000Y-102200000D01*
X129100000Y-99050000D02*
X125975000Y-102175000D01*
X129100000Y-98400000D02*
X129100000Y-99050000D01*
X104755000Y-80170000D02*
X104750000Y-80175000D01*
X109400000Y-80170000D02*
X104755000Y-80170000D01*
X81200000Y-90350000D02*
X81200000Y-92975000D01*
X82470000Y-92230000D02*
X82450000Y-92250000D01*
X82470000Y-90350000D02*
X82470000Y-92230000D01*
X104025000Y-77625000D02*
X104025000Y-77625000D01*
X104025000Y-77625000D02*
X109400000Y-77625000D01*
X105513846Y-82710000D02*
X105475000Y-82671154D01*
X109400000Y-82710000D02*
X105513846Y-82710000D01*
X79930000Y-93695000D02*
X79925000Y-93700000D01*
X79930000Y-90350000D02*
X79930000Y-93695000D01*
D33*
X137775000Y-62300000D02*
X143025000Y-62300000D01*
X133175000Y-57700000D02*
X137775000Y-62300000D01*
X133175000Y-50325000D02*
X133175000Y-57700000D01*
X131275000Y-49300000D02*
X132300000Y-50325000D01*
X93850000Y-65025000D02*
X109575000Y-49300000D01*
X132300000Y-50325000D02*
X133150000Y-50325000D01*
X92650000Y-65025000D02*
X93850000Y-65025000D01*
X109575000Y-49300000D02*
X131275000Y-49300000D01*
X99000000Y-58325000D02*
X99000000Y-59875000D01*
X89075000Y-48400000D02*
X99000000Y-58325000D01*
X82065000Y-48400000D02*
X89075000Y-48400000D01*
X77640000Y-43975000D02*
X82065000Y-48400000D01*
X93875000Y-65025000D02*
X93850000Y-65025000D01*
X100350000Y-71500000D02*
X93875000Y-65025000D01*
X100350000Y-85275000D02*
X100350000Y-71500000D01*
X105405000Y-90330000D02*
X100350000Y-85275000D01*
X109400000Y-90330000D02*
X105405000Y-90330000D01*
D34*
X90050000Y-72075000D02*
X90125000Y-72000000D01*
X85950000Y-72075000D02*
X90050000Y-72075000D01*
X81200000Y-84500000D02*
X84900000Y-80800000D01*
X89559317Y-80800000D02*
X90125002Y-80800000D01*
X81200000Y-84950000D02*
X81200000Y-84500000D01*
X84900000Y-80800000D02*
X89559317Y-80800000D01*
X84650000Y-82320000D02*
X84650000Y-82300000D01*
X82470000Y-84500000D02*
X84650000Y-82320000D01*
X82470000Y-84950000D02*
X82470000Y-84500000D01*
X80150000Y-72725000D02*
X75175016Y-72725000D01*
X75175016Y-72725000D02*
X75100006Y-72800010D01*
X83740000Y-84950000D02*
X83740000Y-84990000D01*
X90600001Y-73599999D02*
X91000000Y-73999998D01*
X85950000Y-72725000D02*
X89725002Y-72725000D01*
X89725002Y-72725000D02*
X90600001Y-73599999D01*
X83740000Y-84500000D02*
X86690004Y-81549996D01*
X83740000Y-84950000D02*
X83740000Y-84500000D01*
X86690004Y-81549996D02*
X90434315Y-81549996D01*
X90434315Y-81549996D02*
X91000000Y-81549996D01*
X87210000Y-82300000D02*
X87400000Y-82300000D01*
X85010000Y-84500000D02*
X87210000Y-82300000D01*
X85010000Y-84950000D02*
X85010000Y-84500000D01*
X77450000Y-73375000D02*
X80150000Y-73375000D01*
X76800000Y-73375000D02*
X77450000Y-73375000D01*
X76175000Y-74000000D02*
X76800000Y-73375000D01*
X109400000Y-85250000D02*
X106200000Y-85250000D01*
X136100000Y-90330000D02*
X136100000Y-90125000D01*
X139900000Y-60525000D02*
X139900000Y-57900000D01*
X143850000Y-61400000D02*
X141500000Y-61400000D01*
X145275000Y-62825000D02*
X143850000Y-61400000D01*
X145275000Y-77975000D02*
X145275000Y-62825000D01*
X140540000Y-82710000D02*
X145275000Y-77975000D01*
X136100000Y-82710000D02*
X140540000Y-82710000D01*
X140625000Y-60525000D02*
X139900000Y-60525000D01*
X141500000Y-61400000D02*
X140625000Y-60525000D01*
X136100000Y-85250000D02*
X136175000Y-85250000D01*
X136175000Y-85250000D02*
X136525000Y-85250000D01*
X143025000Y-57900000D02*
X143250000Y-57900000D01*
X143025000Y-60525000D02*
X143025000Y-57900000D01*
X138636411Y-85250000D02*
X145725011Y-78161400D01*
X143750000Y-60525000D02*
X143025000Y-60525000D01*
X136100000Y-85250000D02*
X138636411Y-85250000D01*
X145725011Y-78161400D02*
X145725011Y-62500011D01*
X145725011Y-62500011D02*
X143750000Y-60525000D01*
X136100000Y-87790000D02*
X136750000Y-87790000D01*
X146200000Y-78325000D02*
X146200000Y-57900000D01*
X136735000Y-87790000D02*
X146200000Y-78325000D01*
X136100000Y-87790000D02*
X136735000Y-87790000D01*
X146200000Y-56600000D02*
X146225000Y-56600000D01*
X143025000Y-56600000D02*
X143872592Y-56600000D01*
X143872592Y-56600000D02*
X146200000Y-56600000D01*
X146200000Y-56600000D02*
X146724774Y-56075226D01*
X146724774Y-56075226D02*
X149375000Y-53425000D01*
X149375000Y-47650000D02*
X147225000Y-45500000D01*
X149375000Y-53425000D02*
X149375000Y-47650000D01*
X147225000Y-45500000D02*
X146925000Y-45500000D01*
D33*
X138275000Y-49100000D02*
X138925000Y-49100000D01*
X134260000Y-45085000D02*
X138275000Y-49100000D01*
X133150000Y-45085000D02*
X134260000Y-45085000D01*
D34*
X139900000Y-56600000D02*
X139775000Y-56600000D01*
X137575000Y-56600000D02*
X138140685Y-56600000D01*
X138140685Y-56600000D02*
X139775000Y-56600000D01*
X138925000Y-42750000D02*
X136200002Y-42750000D01*
X136200002Y-42750000D02*
X136200000Y-42750002D01*
D36*
G36*
X90552807Y-59698408D02*
G01*
X90325000Y-59700000D01*
X90162500Y-59862500D01*
X90162500Y-61125000D01*
X90182500Y-61125000D01*
X90182500Y-61325000D01*
X90162500Y-61325000D01*
X90162500Y-62587500D01*
X90325000Y-62750000D01*
X90550211Y-62751574D01*
X90549426Y-63674511D01*
X90512500Y-63675000D01*
X90350000Y-63837500D01*
X90350000Y-64925000D01*
X90370000Y-64925000D01*
X90370000Y-65125000D01*
X90350000Y-65125000D01*
X90350000Y-66212500D01*
X90512500Y-66375000D01*
X90547129Y-66375459D01*
X90547002Y-66525000D01*
X87821562Y-66525000D01*
X87893070Y-66437868D01*
X87953427Y-66324948D01*
X87990595Y-66202422D01*
X88003145Y-66075000D01*
X88001748Y-65725000D01*
X89096855Y-65725000D01*
X89109405Y-65852422D01*
X89146573Y-65974948D01*
X89206930Y-66087868D01*
X89288157Y-66186843D01*
X89387132Y-66268070D01*
X89500052Y-66328427D01*
X89622578Y-66365595D01*
X89750000Y-66378145D01*
X89987500Y-66375000D01*
X90150000Y-66212500D01*
X90150000Y-65125000D01*
X89262500Y-65125000D01*
X89100000Y-65287500D01*
X89096855Y-65725000D01*
X88001748Y-65725000D01*
X88000000Y-65287500D01*
X87837500Y-65125000D01*
X86950000Y-65125000D01*
X86950000Y-65145000D01*
X86750000Y-65145000D01*
X86750000Y-65125000D01*
X86730000Y-65125000D01*
X86730000Y-64925000D01*
X86750000Y-64925000D01*
X86750000Y-63487500D01*
X86950000Y-63487500D01*
X86950000Y-64925000D01*
X87837500Y-64925000D01*
X88000000Y-64762500D01*
X88001747Y-64325000D01*
X89096855Y-64325000D01*
X89100000Y-64762500D01*
X89262500Y-64925000D01*
X90150000Y-64925000D01*
X90150000Y-63837500D01*
X89987500Y-63675000D01*
X89750000Y-63671855D01*
X89622578Y-63684405D01*
X89500052Y-63721573D01*
X89387132Y-63781930D01*
X89288157Y-63863157D01*
X89206930Y-63962132D01*
X89146573Y-64075052D01*
X89109405Y-64197578D01*
X89096855Y-64325000D01*
X88001747Y-64325000D01*
X88003145Y-63975000D01*
X87990595Y-63847578D01*
X87953427Y-63725052D01*
X87893070Y-63612132D01*
X87811843Y-63513157D01*
X87712868Y-63431930D01*
X87599948Y-63371573D01*
X87477422Y-63334405D01*
X87350000Y-63321855D01*
X87112500Y-63325000D01*
X86950000Y-63487500D01*
X86750000Y-63487500D01*
X86587500Y-63325000D01*
X86499725Y-63323838D01*
X86500531Y-62376152D01*
X86587500Y-62375000D01*
X86750000Y-62212500D01*
X86750000Y-61325000D01*
X86950000Y-61325000D01*
X86950000Y-62212500D01*
X87112500Y-62375000D01*
X87350000Y-62378145D01*
X87477422Y-62365595D01*
X87599948Y-62328427D01*
X87712868Y-62268070D01*
X87811843Y-62186843D01*
X87883113Y-62100000D01*
X88696855Y-62100000D01*
X88709405Y-62227422D01*
X88746573Y-62349948D01*
X88806930Y-62462868D01*
X88888157Y-62561843D01*
X88987132Y-62643070D01*
X89100052Y-62703427D01*
X89222578Y-62740595D01*
X89350000Y-62753145D01*
X89800000Y-62750000D01*
X89962500Y-62587500D01*
X89962500Y-61325000D01*
X88862500Y-61325000D01*
X88700000Y-61487500D01*
X88696855Y-62100000D01*
X87883113Y-62100000D01*
X87893070Y-62087868D01*
X87953427Y-61974948D01*
X87990595Y-61852422D01*
X88003145Y-61725000D01*
X88000000Y-61487500D01*
X87837500Y-61325000D01*
X86950000Y-61325000D01*
X86750000Y-61325000D01*
X86730000Y-61325000D01*
X86730000Y-61125000D01*
X86750000Y-61125000D01*
X86750000Y-60237500D01*
X86950000Y-60237500D01*
X86950000Y-61125000D01*
X87837500Y-61125000D01*
X88000000Y-60962500D01*
X88003145Y-60725000D01*
X87990595Y-60597578D01*
X87953427Y-60475052D01*
X87893070Y-60362132D01*
X87883114Y-60350000D01*
X88696855Y-60350000D01*
X88700000Y-60962500D01*
X88862500Y-61125000D01*
X89962500Y-61125000D01*
X89962500Y-59862500D01*
X89800000Y-59700000D01*
X89350000Y-59696855D01*
X89222578Y-59709405D01*
X89100052Y-59746573D01*
X88987132Y-59806930D01*
X88888157Y-59888157D01*
X88806930Y-59987132D01*
X88746573Y-60100052D01*
X88709405Y-60222578D01*
X88696855Y-60350000D01*
X87883114Y-60350000D01*
X87811843Y-60263157D01*
X87712868Y-60181930D01*
X87599948Y-60121573D01*
X87477422Y-60084405D01*
X87350000Y-60071855D01*
X87112500Y-60075000D01*
X86950000Y-60237500D01*
X86750000Y-60237500D01*
X86587500Y-60075000D01*
X86502489Y-60073874D01*
X86502998Y-59475000D01*
X90552997Y-59475000D01*
X90552807Y-59698408D01*
X90552807Y-59698408D01*
G37*
X90552807Y-59698408D02*
X90325000Y-59700000D01*
X90162500Y-59862500D01*
X90162500Y-61125000D01*
X90182500Y-61125000D01*
X90182500Y-61325000D01*
X90162500Y-61325000D01*
X90162500Y-62587500D01*
X90325000Y-62750000D01*
X90550211Y-62751574D01*
X90549426Y-63674511D01*
X90512500Y-63675000D01*
X90350000Y-63837500D01*
X90350000Y-64925000D01*
X90370000Y-64925000D01*
X90370000Y-65125000D01*
X90350000Y-65125000D01*
X90350000Y-66212500D01*
X90512500Y-66375000D01*
X90547129Y-66375459D01*
X90547002Y-66525000D01*
X87821562Y-66525000D01*
X87893070Y-66437868D01*
X87953427Y-66324948D01*
X87990595Y-66202422D01*
X88003145Y-66075000D01*
X88001748Y-65725000D01*
X89096855Y-65725000D01*
X89109405Y-65852422D01*
X89146573Y-65974948D01*
X89206930Y-66087868D01*
X89288157Y-66186843D01*
X89387132Y-66268070D01*
X89500052Y-66328427D01*
X89622578Y-66365595D01*
X89750000Y-66378145D01*
X89987500Y-66375000D01*
X90150000Y-66212500D01*
X90150000Y-65125000D01*
X89262500Y-65125000D01*
X89100000Y-65287500D01*
X89096855Y-65725000D01*
X88001748Y-65725000D01*
X88000000Y-65287500D01*
X87837500Y-65125000D01*
X86950000Y-65125000D01*
X86950000Y-65145000D01*
X86750000Y-65145000D01*
X86750000Y-65125000D01*
X86730000Y-65125000D01*
X86730000Y-64925000D01*
X86750000Y-64925000D01*
X86750000Y-63487500D01*
X86950000Y-63487500D01*
X86950000Y-64925000D01*
X87837500Y-64925000D01*
X88000000Y-64762500D01*
X88001747Y-64325000D01*
X89096855Y-64325000D01*
X89100000Y-64762500D01*
X89262500Y-64925000D01*
X90150000Y-64925000D01*
X90150000Y-63837500D01*
X89987500Y-63675000D01*
X89750000Y-63671855D01*
X89622578Y-63684405D01*
X89500052Y-63721573D01*
X89387132Y-63781930D01*
X89288157Y-63863157D01*
X89206930Y-63962132D01*
X89146573Y-64075052D01*
X89109405Y-64197578D01*
X89096855Y-64325000D01*
X88001747Y-64325000D01*
X88003145Y-63975000D01*
X87990595Y-63847578D01*
X87953427Y-63725052D01*
X87893070Y-63612132D01*
X87811843Y-63513157D01*
X87712868Y-63431930D01*
X87599948Y-63371573D01*
X87477422Y-63334405D01*
X87350000Y-63321855D01*
X87112500Y-63325000D01*
X86950000Y-63487500D01*
X86750000Y-63487500D01*
X86587500Y-63325000D01*
X86499725Y-63323838D01*
X86500531Y-62376152D01*
X86587500Y-62375000D01*
X86750000Y-62212500D01*
X86750000Y-61325000D01*
X86950000Y-61325000D01*
X86950000Y-62212500D01*
X87112500Y-62375000D01*
X87350000Y-62378145D01*
X87477422Y-62365595D01*
X87599948Y-62328427D01*
X87712868Y-62268070D01*
X87811843Y-62186843D01*
X87883113Y-62100000D01*
X88696855Y-62100000D01*
X88709405Y-62227422D01*
X88746573Y-62349948D01*
X88806930Y-62462868D01*
X88888157Y-62561843D01*
X88987132Y-62643070D01*
X89100052Y-62703427D01*
X89222578Y-62740595D01*
X89350000Y-62753145D01*
X89800000Y-62750000D01*
X89962500Y-62587500D01*
X89962500Y-61325000D01*
X88862500Y-61325000D01*
X88700000Y-61487500D01*
X88696855Y-62100000D01*
X87883113Y-62100000D01*
X87893070Y-62087868D01*
X87953427Y-61974948D01*
X87990595Y-61852422D01*
X88003145Y-61725000D01*
X88000000Y-61487500D01*
X87837500Y-61325000D01*
X86950000Y-61325000D01*
X86750000Y-61325000D01*
X86730000Y-61325000D01*
X86730000Y-61125000D01*
X86750000Y-61125000D01*
X86750000Y-60237500D01*
X86950000Y-60237500D01*
X86950000Y-61125000D01*
X87837500Y-61125000D01*
X88000000Y-60962500D01*
X88003145Y-60725000D01*
X87990595Y-60597578D01*
X87953427Y-60475052D01*
X87893070Y-60362132D01*
X87883114Y-60350000D01*
X88696855Y-60350000D01*
X88700000Y-60962500D01*
X88862500Y-61125000D01*
X89962500Y-61125000D01*
X89962500Y-59862500D01*
X89800000Y-59700000D01*
X89350000Y-59696855D01*
X89222578Y-59709405D01*
X89100052Y-59746573D01*
X88987132Y-59806930D01*
X88888157Y-59888157D01*
X88806930Y-59987132D01*
X88746573Y-60100052D01*
X88709405Y-60222578D01*
X88696855Y-60350000D01*
X87883114Y-60350000D01*
X87811843Y-60263157D01*
X87712868Y-60181930D01*
X87599948Y-60121573D01*
X87477422Y-60084405D01*
X87350000Y-60071855D01*
X87112500Y-60075000D01*
X86950000Y-60237500D01*
X86750000Y-60237500D01*
X86587500Y-60075000D01*
X86502489Y-60073874D01*
X86502998Y-59475000D01*
X90552997Y-59475000D01*
X90552807Y-59698408D01*
D34*
G36*
X113725000Y-47115610D02*
G01*
X113721613Y-47150000D01*
X113735128Y-47287224D01*
X113775155Y-47419175D01*
X113840155Y-47540781D01*
X113927630Y-47647370D01*
X114034219Y-47734845D01*
X114155825Y-47799845D01*
X114287776Y-47839872D01*
X114383818Y-47849331D01*
X114425000Y-47853387D01*
X114459390Y-47850000D01*
X123390610Y-47850000D01*
X123425000Y-47853387D01*
X123459390Y-47850000D01*
X123562224Y-47839872D01*
X123694175Y-47799845D01*
X123815781Y-47734845D01*
X123922370Y-47647370D01*
X124009845Y-47540781D01*
X124074845Y-47419175D01*
X124114872Y-47287224D01*
X124128387Y-47150000D01*
X124125000Y-47115610D01*
X124125000Y-42799650D01*
X125120000Y-42799650D01*
X125120000Y-43080350D01*
X125174762Y-43355657D01*
X125282181Y-43614991D01*
X125438130Y-43848385D01*
X125636615Y-44046870D01*
X125870009Y-44202819D01*
X125887346Y-44210000D01*
X125870009Y-44217181D01*
X125636615Y-44373130D01*
X125438130Y-44571615D01*
X125282181Y-44805009D01*
X125174762Y-45064343D01*
X125120000Y-45339650D01*
X125120000Y-45620350D01*
X125174762Y-45895657D01*
X125282181Y-46154991D01*
X125438130Y-46388385D01*
X125636615Y-46586870D01*
X125870009Y-46742819D01*
X126129343Y-46850238D01*
X126404650Y-46905000D01*
X126685350Y-46905000D01*
X126960657Y-46850238D01*
X127219991Y-46742819D01*
X127453385Y-46586870D01*
X127651870Y-46388385D01*
X127807819Y-46154991D01*
X127915238Y-45895657D01*
X127970000Y-45620350D01*
X127970000Y-45339650D01*
X127915238Y-45064343D01*
X127807819Y-44805009D01*
X127651870Y-44571615D01*
X127453385Y-44373130D01*
X127219991Y-44217181D01*
X127202654Y-44210000D01*
X127219991Y-44202819D01*
X127453385Y-44046870D01*
X127651870Y-43848385D01*
X127807819Y-43614991D01*
X127915238Y-43355657D01*
X127970000Y-43080350D01*
X127970000Y-42799650D01*
X127915238Y-42524343D01*
X127807819Y-42265009D01*
X127651870Y-42031615D01*
X127453385Y-41833130D01*
X127219991Y-41677181D01*
X126960657Y-41569762D01*
X126685350Y-41515000D01*
X126404650Y-41515000D01*
X126129343Y-41569762D01*
X125870009Y-41677181D01*
X125636615Y-41833130D01*
X125438130Y-42031615D01*
X125282181Y-42265009D01*
X125174762Y-42524343D01*
X125120000Y-42799650D01*
X124125000Y-42799650D01*
X124125000Y-41125000D01*
X137594296Y-41125000D01*
X137502479Y-41134043D01*
X137384666Y-41169781D01*
X137276089Y-41227817D01*
X137180920Y-41305920D01*
X137102817Y-41401089D01*
X137044781Y-41509666D01*
X137009043Y-41627479D01*
X136996976Y-41750000D01*
X136996976Y-42000000D01*
X136899568Y-42000000D01*
X136853400Y-41953832D01*
X136685520Y-41841658D01*
X136498982Y-41764392D01*
X136300954Y-41725002D01*
X136099046Y-41725002D01*
X135901018Y-41764392D01*
X135714480Y-41841658D01*
X135546600Y-41953832D01*
X135403830Y-42096602D01*
X135291656Y-42264482D01*
X135214390Y-42451020D01*
X135175000Y-42649048D01*
X135175000Y-42850956D01*
X135214390Y-43048984D01*
X135291656Y-43235522D01*
X135403830Y-43403402D01*
X135546600Y-43546172D01*
X135714480Y-43658346D01*
X135901018Y-43735612D01*
X136099046Y-43775002D01*
X136300954Y-43775002D01*
X136498982Y-43735612D01*
X136685520Y-43658346D01*
X136853400Y-43546172D01*
X136899572Y-43500000D01*
X136996976Y-43500000D01*
X136996976Y-43750000D01*
X137009043Y-43872521D01*
X137044781Y-43990334D01*
X137102817Y-44098911D01*
X137180920Y-44194080D01*
X137276089Y-44272183D01*
X137384666Y-44330219D01*
X137502479Y-44365957D01*
X137625000Y-44378024D01*
X138925001Y-44378024D01*
X138925001Y-46233846D01*
X138857278Y-46255329D01*
X138798978Y-46280317D01*
X138740310Y-46304497D01*
X138731713Y-46309146D01*
X138620546Y-46370260D01*
X138568210Y-46406095D01*
X138515347Y-46441217D01*
X138507816Y-46447448D01*
X138410639Y-46528991D01*
X138366270Y-46574299D01*
X138321235Y-46619020D01*
X138315058Y-46626594D01*
X138315054Y-46626599D01*
X138315051Y-46626604D01*
X138235568Y-46725460D01*
X138200824Y-46778553D01*
X138165349Y-46831146D01*
X138160764Y-46839771D01*
X138160761Y-46839775D01*
X138160761Y-46839776D01*
X138101988Y-46952198D01*
X138078210Y-47011050D01*
X138053635Y-47069511D01*
X138050812Y-47078860D01*
X138050810Y-47078866D01*
X138050810Y-47078868D01*
X138014993Y-47200563D01*
X138003103Y-47262892D01*
X137990347Y-47325034D01*
X137989394Y-47334762D01*
X137977897Y-47461098D01*
X137977973Y-47471976D01*
X137884413Y-47471976D01*
X135528024Y-45115588D01*
X135528024Y-44536760D01*
X135509390Y-44347565D01*
X135454204Y-44165640D01*
X135364586Y-43997977D01*
X135243981Y-43851019D01*
X135097023Y-43730414D01*
X134929360Y-43640796D01*
X134747435Y-43585610D01*
X134558240Y-43566976D01*
X131741760Y-43566976D01*
X131552565Y-43585610D01*
X131370640Y-43640796D01*
X131202977Y-43730414D01*
X131056019Y-43851019D01*
X130935414Y-43997977D01*
X130845796Y-44165640D01*
X130790610Y-44347565D01*
X130771976Y-44536760D01*
X130771976Y-45633240D01*
X130790610Y-45822435D01*
X130845796Y-46004360D01*
X130935414Y-46172023D01*
X131056019Y-46318981D01*
X131202977Y-46439586D01*
X131370640Y-46529204D01*
X131552565Y-46584390D01*
X131741760Y-46603024D01*
X134540588Y-46603024D01*
X136996976Y-49059413D01*
X136996976Y-50100000D01*
X137009043Y-50222521D01*
X137044781Y-50340334D01*
X137076673Y-50400000D01*
X137044781Y-50459666D01*
X137009043Y-50577479D01*
X136996976Y-50700000D01*
X136996976Y-52700000D01*
X137009043Y-52822521D01*
X137044781Y-52940334D01*
X137102817Y-53048911D01*
X137180920Y-53144080D01*
X137276089Y-53222183D01*
X137384666Y-53280219D01*
X137502479Y-53315957D01*
X137625000Y-53328024D01*
X139260214Y-53328024D01*
X139284287Y-53351597D01*
X139328970Y-53396594D01*
X139336544Y-53402772D01*
X139412594Y-53463918D01*
X139465701Y-53498670D01*
X139518281Y-53534136D01*
X139526904Y-53538721D01*
X139526909Y-53538724D01*
X139526914Y-53538726D01*
X139613391Y-53583935D01*
X139672239Y-53607712D01*
X139730698Y-53632286D01*
X139740051Y-53635110D01*
X139740059Y-53635113D01*
X139740067Y-53635115D01*
X139833666Y-53662663D01*
X139896001Y-53674554D01*
X139958140Y-53687310D01*
X139967856Y-53688262D01*
X139967862Y-53688263D01*
X139967868Y-53688263D01*
X140065050Y-53697107D01*
X140128524Y-53696664D01*
X140191932Y-53697107D01*
X140201649Y-53696154D01*
X140201663Y-53696154D01*
X140201676Y-53696151D01*
X140298708Y-53685953D01*
X140360878Y-53673192D01*
X140423177Y-53661308D01*
X140432524Y-53658486D01*
X140432534Y-53658484D01*
X140432543Y-53658480D01*
X140525753Y-53629627D01*
X140584283Y-53605024D01*
X140643068Y-53581273D01*
X140651686Y-53576690D01*
X140651694Y-53576687D01*
X140651700Y-53576683D01*
X140737536Y-53530272D01*
X140790156Y-53494779D01*
X140843220Y-53460055D01*
X140850792Y-53453879D01*
X140850795Y-53453877D01*
X140850800Y-53453872D01*
X140925983Y-53391675D01*
X140970698Y-53346647D01*
X141016012Y-53302273D01*
X141022243Y-53294742D01*
X141083918Y-53219121D01*
X141096622Y-53200000D01*
X144753436Y-53200000D01*
X144769984Y-53224907D01*
X144776214Y-53232438D01*
X144838939Y-53307190D01*
X144884287Y-53351597D01*
X144928970Y-53396594D01*
X144936544Y-53402772D01*
X145012594Y-53463918D01*
X145065701Y-53498670D01*
X145118281Y-53534136D01*
X145126904Y-53538721D01*
X145126909Y-53538724D01*
X145126914Y-53538726D01*
X145213391Y-53583935D01*
X145272239Y-53607712D01*
X145330698Y-53632286D01*
X145340051Y-53635110D01*
X145340059Y-53635113D01*
X145340067Y-53635115D01*
X145433666Y-53662663D01*
X145496001Y-53674554D01*
X145558140Y-53687310D01*
X145567856Y-53688262D01*
X145567862Y-53688263D01*
X145567868Y-53688263D01*
X145665050Y-53697107D01*
X145728524Y-53696664D01*
X145791932Y-53697107D01*
X145801649Y-53696154D01*
X145801663Y-53696154D01*
X145801676Y-53696151D01*
X145898708Y-53685953D01*
X145960878Y-53673192D01*
X146023177Y-53661308D01*
X146032524Y-53658486D01*
X146032534Y-53658484D01*
X146032543Y-53658480D01*
X146125753Y-53629627D01*
X146184283Y-53605024D01*
X146243068Y-53581273D01*
X146251686Y-53576690D01*
X146251694Y-53576687D01*
X146251700Y-53576683D01*
X146337536Y-53530272D01*
X146390156Y-53494779D01*
X146443220Y-53460055D01*
X146450792Y-53453879D01*
X146450795Y-53453877D01*
X146450800Y-53453872D01*
X146525983Y-53391675D01*
X146570698Y-53346647D01*
X146616012Y-53302273D01*
X146622243Y-53294742D01*
X146683918Y-53219121D01*
X146719022Y-53166287D01*
X146754878Y-53113921D01*
X146759526Y-53105323D01*
X146805338Y-53019162D01*
X146829515Y-52960504D01*
X146854506Y-52902197D01*
X146857396Y-52892860D01*
X146885601Y-52799442D01*
X146897927Y-52737190D01*
X146911116Y-52675143D01*
X146912136Y-52665435D01*
X146912137Y-52665428D01*
X146912137Y-52665422D01*
X146921492Y-52570005D01*
X146925000Y-52534390D01*
X146925000Y-52178024D01*
X148225000Y-52178024D01*
X148347521Y-52165957D01*
X148465334Y-52130219D01*
X148573911Y-52072183D01*
X148625000Y-52030255D01*
X148625000Y-53114340D01*
X146267365Y-55471976D01*
X145950000Y-55471976D01*
X145925551Y-55474384D01*
X145900991Y-55474384D01*
X145778470Y-55486451D01*
X145682337Y-55505573D01*
X145564526Y-55541310D01*
X145473970Y-55578819D01*
X145365390Y-55636856D01*
X145283891Y-55691312D01*
X145188723Y-55769415D01*
X145119415Y-55838723D01*
X145110160Y-55850000D01*
X144114840Y-55850000D01*
X144105585Y-55838723D01*
X144036277Y-55769415D01*
X143941109Y-55691312D01*
X143859610Y-55636856D01*
X143751030Y-55578819D01*
X143660474Y-55541310D01*
X143542663Y-55505573D01*
X143446530Y-55486451D01*
X143324009Y-55474384D01*
X143299449Y-55474384D01*
X143275000Y-55471976D01*
X142775000Y-55471976D01*
X142750551Y-55474384D01*
X142725991Y-55474384D01*
X142603470Y-55486451D01*
X142507337Y-55505573D01*
X142389526Y-55541310D01*
X142298970Y-55578819D01*
X142190390Y-55636856D01*
X142108891Y-55691312D01*
X142013723Y-55769415D01*
X141944415Y-55838723D01*
X141866312Y-55933891D01*
X141811856Y-56015390D01*
X141753819Y-56123970D01*
X141716310Y-56214526D01*
X141680573Y-56332337D01*
X141661451Y-56428470D01*
X141649384Y-56550991D01*
X141649384Y-56575551D01*
X141646976Y-56600000D01*
X141646976Y-57100000D01*
X141659043Y-57222521D01*
X141667379Y-57250000D01*
X141659043Y-57277479D01*
X141646976Y-57400000D01*
X141646976Y-57900000D01*
X141649384Y-57924449D01*
X141649384Y-57949009D01*
X141661451Y-58071530D01*
X141680573Y-58167663D01*
X141716310Y-58285474D01*
X141753819Y-58376030D01*
X141811856Y-58484610D01*
X141866312Y-58566109D01*
X141944415Y-58661277D01*
X142013723Y-58730585D01*
X142108891Y-58808688D01*
X142190390Y-58863144D01*
X142275001Y-58908369D01*
X142275000Y-59438310D01*
X142201089Y-59477817D01*
X142105920Y-59555920D01*
X142027817Y-59651089D01*
X141969781Y-59759666D01*
X141934043Y-59877479D01*
X141921976Y-60000000D01*
X141921976Y-60650000D01*
X141810660Y-60650000D01*
X141181378Y-60020719D01*
X141157895Y-59992105D01*
X141043693Y-59898381D01*
X140988319Y-59868783D01*
X140955219Y-59759666D01*
X140897183Y-59651089D01*
X140819080Y-59555920D01*
X140723911Y-59477817D01*
X140650000Y-59438310D01*
X140650000Y-58908369D01*
X140734610Y-58863144D01*
X140816109Y-58808688D01*
X140911277Y-58730585D01*
X140980585Y-58661277D01*
X141058688Y-58566109D01*
X141113144Y-58484610D01*
X141171181Y-58376030D01*
X141208690Y-58285474D01*
X141244427Y-58167663D01*
X141263549Y-58071530D01*
X141275616Y-57949009D01*
X141275616Y-57924449D01*
X141278024Y-57900000D01*
X141278024Y-57400000D01*
X141265957Y-57277479D01*
X141257621Y-57250000D01*
X141265957Y-57222521D01*
X141278024Y-57100000D01*
X141278024Y-56600000D01*
X141275616Y-56575551D01*
X141275616Y-56550991D01*
X141263549Y-56428470D01*
X141244427Y-56332337D01*
X141208690Y-56214526D01*
X141171181Y-56123970D01*
X141113144Y-56015390D01*
X141058688Y-55933891D01*
X140980585Y-55838723D01*
X140911277Y-55769415D01*
X140816109Y-55691312D01*
X140734610Y-55636856D01*
X140626030Y-55578819D01*
X140535474Y-55541310D01*
X140417663Y-55505573D01*
X140321530Y-55486451D01*
X140199009Y-55474384D01*
X140174449Y-55474384D01*
X140150000Y-55471976D01*
X139650000Y-55471976D01*
X139625551Y-55474384D01*
X139600991Y-55474384D01*
X139478470Y-55486451D01*
X139382337Y-55505573D01*
X139264526Y-55541310D01*
X139173970Y-55578819D01*
X139065390Y-55636856D01*
X138983891Y-55691312D01*
X138888723Y-55769415D01*
X138819415Y-55838723D01*
X138810160Y-55850000D01*
X138274570Y-55850000D01*
X138228400Y-55803830D01*
X138060520Y-55691656D01*
X137873982Y-55614390D01*
X137675954Y-55575000D01*
X137474046Y-55575000D01*
X137276018Y-55614390D01*
X137089480Y-55691656D01*
X136921600Y-55803830D01*
X136778830Y-55946600D01*
X136666656Y-56114480D01*
X136589390Y-56301018D01*
X136550000Y-56499046D01*
X136550000Y-56700954D01*
X136589390Y-56898982D01*
X136666656Y-57085520D01*
X136778830Y-57253400D01*
X136921600Y-57396170D01*
X137089480Y-57508344D01*
X137276018Y-57585610D01*
X137474046Y-57625000D01*
X137675954Y-57625000D01*
X137873982Y-57585610D01*
X138060520Y-57508344D01*
X138228400Y-57396170D01*
X138274570Y-57350000D01*
X138526900Y-57350000D01*
X138521976Y-57400000D01*
X138521976Y-57900000D01*
X138524384Y-57924449D01*
X138524384Y-57949009D01*
X138536451Y-58071530D01*
X138555573Y-58167663D01*
X138591310Y-58285474D01*
X138628819Y-58376030D01*
X138686856Y-58484610D01*
X138741312Y-58566109D01*
X138819415Y-58661277D01*
X138888723Y-58730585D01*
X138983891Y-58808688D01*
X139065390Y-58863144D01*
X139150001Y-58908369D01*
X139150000Y-59438310D01*
X139076089Y-59477817D01*
X138980920Y-59555920D01*
X138902817Y-59651089D01*
X138844781Y-59759666D01*
X138809043Y-59877479D01*
X138796976Y-60000000D01*
X138796976Y-61050000D01*
X138809043Y-61172521D01*
X138844781Y-61290334D01*
X138902817Y-61398911D01*
X138903711Y-61400000D01*
X138902817Y-61401089D01*
X138890036Y-61425000D01*
X138137436Y-61425000D01*
X134050000Y-57337564D01*
X134050000Y-51833024D01*
X134558240Y-51833024D01*
X134747435Y-51814390D01*
X134929360Y-51759204D01*
X135097023Y-51669586D01*
X135243981Y-51548981D01*
X135364586Y-51402023D01*
X135454204Y-51234360D01*
X135509390Y-51052435D01*
X135528024Y-50863240D01*
X135528024Y-49766760D01*
X135509390Y-49577565D01*
X135454204Y-49395640D01*
X135364586Y-49227977D01*
X135243981Y-49081019D01*
X135097023Y-48960414D01*
X134929360Y-48870796D01*
X134747435Y-48815610D01*
X134558240Y-48796976D01*
X132009412Y-48796976D01*
X131924116Y-48711680D01*
X131896712Y-48678288D01*
X131763476Y-48568944D01*
X131611468Y-48487695D01*
X131446530Y-48437661D01*
X131317979Y-48425000D01*
X131275000Y-48420767D01*
X131232021Y-48425000D01*
X109617978Y-48425000D01*
X109574999Y-48420767D01*
X109403469Y-48437661D01*
X109378413Y-48445262D01*
X109238532Y-48487695D01*
X109086524Y-48568944D01*
X108953288Y-48678288D01*
X108925883Y-48711681D01*
X99755433Y-57882131D01*
X99731056Y-57836524D01*
X99656940Y-57746214D01*
X99621712Y-57703288D01*
X99588326Y-57675889D01*
X89724117Y-47811681D01*
X89696712Y-47778288D01*
X89563476Y-47668944D01*
X89411468Y-47587695D01*
X89246530Y-47537661D01*
X89117979Y-47525000D01*
X89075000Y-47520767D01*
X89032021Y-47525000D01*
X82427437Y-47525000D01*
X80343472Y-45441035D01*
X80469150Y-45428657D01*
X80747189Y-45344315D01*
X81003431Y-45207351D01*
X81228028Y-45023028D01*
X81412351Y-44798431D01*
X81450000Y-44727995D01*
X81487649Y-44798431D01*
X81671972Y-45023028D01*
X81896569Y-45207351D01*
X82152811Y-45344315D01*
X82430850Y-45428657D01*
X82647548Y-45450000D01*
X82792452Y-45450000D01*
X83009150Y-45428657D01*
X83287189Y-45344315D01*
X83543431Y-45207351D01*
X83768028Y-45023028D01*
X83952351Y-44798431D01*
X83990000Y-44727995D01*
X84027649Y-44798431D01*
X84211972Y-45023028D01*
X84436569Y-45207351D01*
X84692811Y-45344315D01*
X84970850Y-45428657D01*
X85187548Y-45450000D01*
X85332452Y-45450000D01*
X85549150Y-45428657D01*
X85827189Y-45344315D01*
X86083431Y-45207351D01*
X86308028Y-45023028D01*
X86492351Y-44798431D01*
X86534706Y-44719190D01*
X86612188Y-44849496D01*
X86805617Y-45064423D01*
X87037260Y-45237485D01*
X87298214Y-45362030D01*
X87446628Y-45407045D01*
X87675000Y-45287812D01*
X87675000Y-44100000D01*
X87925000Y-44100000D01*
X87925000Y-45287812D01*
X88153372Y-45407045D01*
X88301786Y-45362030D01*
X88562740Y-45237485D01*
X88794383Y-45064423D01*
X88987812Y-44849496D01*
X89135594Y-44600962D01*
X89232050Y-44328373D01*
X89113449Y-44100000D01*
X87925000Y-44100000D01*
X87675000Y-44100000D01*
X87655000Y-44100000D01*
X87655000Y-43850000D01*
X87675000Y-43850000D01*
X87675000Y-42662188D01*
X87925000Y-42662188D01*
X87925000Y-43850000D01*
X89113449Y-43850000D01*
X89232050Y-43621627D01*
X89135594Y-43349038D01*
X88987812Y-43100504D01*
X88794383Y-42885577D01*
X88618229Y-42753971D01*
X101850000Y-42753971D01*
X101850000Y-42946029D01*
X101887468Y-43134397D01*
X101960966Y-43311836D01*
X102067668Y-43471527D01*
X102203473Y-43607332D01*
X102363164Y-43714034D01*
X102540603Y-43787532D01*
X102728971Y-43825000D01*
X102921029Y-43825000D01*
X103109397Y-43787532D01*
X103286836Y-43714034D01*
X103446527Y-43607332D01*
X103582332Y-43471527D01*
X103675000Y-43332839D01*
X103767668Y-43471527D01*
X103903473Y-43607332D01*
X104063164Y-43714034D01*
X104240603Y-43787532D01*
X104428971Y-43825000D01*
X104621029Y-43825000D01*
X104809397Y-43787532D01*
X104986836Y-43714034D01*
X105146527Y-43607332D01*
X105282332Y-43471527D01*
X105389034Y-43311836D01*
X105462532Y-43134397D01*
X105500000Y-42946029D01*
X105500000Y-42799650D01*
X109880000Y-42799650D01*
X109880000Y-43080350D01*
X109934762Y-43355657D01*
X110042181Y-43614991D01*
X110198130Y-43848385D01*
X110396615Y-44046870D01*
X110630009Y-44202819D01*
X110647346Y-44210000D01*
X110630009Y-44217181D01*
X110396615Y-44373130D01*
X110198130Y-44571615D01*
X110042181Y-44805009D01*
X109934762Y-45064343D01*
X109880000Y-45339650D01*
X109880000Y-45620350D01*
X109934762Y-45895657D01*
X110042181Y-46154991D01*
X110198130Y-46388385D01*
X110396615Y-46586870D01*
X110630009Y-46742819D01*
X110889343Y-46850238D01*
X111164650Y-46905000D01*
X111445350Y-46905000D01*
X111720657Y-46850238D01*
X111979991Y-46742819D01*
X112213385Y-46586870D01*
X112411870Y-46388385D01*
X112567819Y-46154991D01*
X112675238Y-45895657D01*
X112730000Y-45620350D01*
X112730000Y-45339650D01*
X112675238Y-45064343D01*
X112567819Y-44805009D01*
X112411870Y-44571615D01*
X112213385Y-44373130D01*
X111979991Y-44217181D01*
X111962654Y-44210000D01*
X111979991Y-44202819D01*
X112213385Y-44046870D01*
X112411870Y-43848385D01*
X112567819Y-43614991D01*
X112675238Y-43355657D01*
X112730000Y-43080350D01*
X112730000Y-42799650D01*
X112675238Y-42524343D01*
X112567819Y-42265009D01*
X112411870Y-42031615D01*
X112213385Y-41833130D01*
X111979991Y-41677181D01*
X111720657Y-41569762D01*
X111445350Y-41515000D01*
X111164650Y-41515000D01*
X110889343Y-41569762D01*
X110630009Y-41677181D01*
X110396615Y-41833130D01*
X110198130Y-42031615D01*
X110042181Y-42265009D01*
X109934762Y-42524343D01*
X109880000Y-42799650D01*
X105500000Y-42799650D01*
X105500000Y-42753971D01*
X105462532Y-42565603D01*
X105389034Y-42388164D01*
X105282332Y-42228473D01*
X105146527Y-42092668D01*
X104986836Y-41985966D01*
X104809397Y-41912468D01*
X104621029Y-41875000D01*
X104428971Y-41875000D01*
X104240603Y-41912468D01*
X104063164Y-41985966D01*
X103903473Y-42092668D01*
X103767668Y-42228473D01*
X103675000Y-42367161D01*
X103582332Y-42228473D01*
X103446527Y-42092668D01*
X103286836Y-41985966D01*
X103109397Y-41912468D01*
X102921029Y-41875000D01*
X102728971Y-41875000D01*
X102540603Y-41912468D01*
X102363164Y-41985966D01*
X102203473Y-42092668D01*
X102067668Y-42228473D01*
X101960966Y-42388164D01*
X101887468Y-42565603D01*
X101850000Y-42753971D01*
X88618229Y-42753971D01*
X88562740Y-42712515D01*
X88301786Y-42587970D01*
X88153372Y-42542955D01*
X87925000Y-42662188D01*
X87675000Y-42662188D01*
X87446628Y-42542955D01*
X87298214Y-42587970D01*
X87037260Y-42712515D01*
X86805617Y-42885577D01*
X86612188Y-43100504D01*
X86534706Y-43230810D01*
X86492351Y-43151569D01*
X86308028Y-42926972D01*
X86083431Y-42742649D01*
X85827189Y-42605685D01*
X85549150Y-42521343D01*
X85332452Y-42500000D01*
X85187548Y-42500000D01*
X84970850Y-42521343D01*
X84692811Y-42605685D01*
X84436569Y-42742649D01*
X84211972Y-42926972D01*
X84027649Y-43151569D01*
X83990000Y-43222005D01*
X83952351Y-43151569D01*
X83768028Y-42926972D01*
X83543431Y-42742649D01*
X83287189Y-42605685D01*
X83009150Y-42521343D01*
X82792452Y-42500000D01*
X82647548Y-42500000D01*
X82430850Y-42521343D01*
X82152811Y-42605685D01*
X81896569Y-42742649D01*
X81671972Y-42926972D01*
X81487649Y-43151569D01*
X81450000Y-43222005D01*
X81412351Y-43151569D01*
X81228028Y-42926972D01*
X81003431Y-42742649D01*
X80747189Y-42605685D01*
X80469150Y-42521343D01*
X80252452Y-42500000D01*
X80107548Y-42500000D01*
X79890850Y-42521343D01*
X79612811Y-42605685D01*
X79356569Y-42742649D01*
X79131972Y-42926972D01*
X78947649Y-43151569D01*
X78910000Y-43222005D01*
X78872351Y-43151569D01*
X78688028Y-42926972D01*
X78463431Y-42742649D01*
X78207189Y-42605685D01*
X77929150Y-42521343D01*
X77712452Y-42500000D01*
X77567548Y-42500000D01*
X77350850Y-42521343D01*
X77072811Y-42605685D01*
X76816569Y-42742649D01*
X76591972Y-42926972D01*
X76556254Y-42970494D01*
X76530219Y-42884666D01*
X76472183Y-42776089D01*
X76394080Y-42680920D01*
X76298911Y-42602817D01*
X76190334Y-42544781D01*
X76072521Y-42509043D01*
X75950000Y-42496976D01*
X74250000Y-42496976D01*
X74127479Y-42509043D01*
X74009666Y-42544781D01*
X73901089Y-42602817D01*
X73805920Y-42680920D01*
X73727817Y-42776089D01*
X73669781Y-42884666D01*
X73634043Y-43002479D01*
X73621976Y-43125000D01*
X73621976Y-44825000D01*
X73634043Y-44947521D01*
X73669781Y-45065334D01*
X73727817Y-45173911D01*
X73805920Y-45269080D01*
X73901089Y-45347183D01*
X74009666Y-45405219D01*
X74127479Y-45440957D01*
X74250000Y-45453024D01*
X75950000Y-45453024D01*
X76072521Y-45440957D01*
X76190334Y-45405219D01*
X76298911Y-45347183D01*
X76394080Y-45269080D01*
X76472183Y-45173911D01*
X76530219Y-45065334D01*
X76556254Y-44979506D01*
X76591972Y-45023028D01*
X76816569Y-45207351D01*
X77072811Y-45344315D01*
X77350850Y-45428657D01*
X77567548Y-45450000D01*
X77712452Y-45450000D01*
X77862760Y-45435196D01*
X81415888Y-48988325D01*
X81443288Y-49021712D01*
X81576524Y-49131056D01*
X81707548Y-49201089D01*
X81728532Y-49212305D01*
X81893470Y-49262339D01*
X82064999Y-49279233D01*
X82107978Y-49275000D01*
X88712564Y-49275000D01*
X98125000Y-58687437D01*
X98125001Y-59512563D01*
X93667356Y-63970208D01*
X93594080Y-63880920D01*
X93498911Y-63802817D01*
X93390334Y-63744781D01*
X93272521Y-63709043D01*
X93150000Y-63696976D01*
X92325264Y-63696976D01*
X92315957Y-63602479D01*
X92280219Y-63484666D01*
X92222183Y-63376089D01*
X92144080Y-63280920D01*
X92048911Y-63202817D01*
X91940334Y-63144781D01*
X91822521Y-63109043D01*
X91700000Y-63096976D01*
X91631250Y-63100000D01*
X91475000Y-63256250D01*
X91475000Y-64046976D01*
X91425000Y-64046976D01*
X91425000Y-63256250D01*
X91324868Y-63156118D01*
X91325514Y-62395908D01*
X91355219Y-62340334D01*
X91390957Y-62222521D01*
X91403024Y-62100000D01*
X91696976Y-62100000D01*
X91709043Y-62222521D01*
X91744781Y-62340334D01*
X91802817Y-62448911D01*
X91880920Y-62544080D01*
X91976089Y-62622183D01*
X92084666Y-62680219D01*
X92202479Y-62715957D01*
X92325000Y-62728024D01*
X92756250Y-62725000D01*
X92912500Y-62568750D01*
X92912500Y-61350000D01*
X93162500Y-61350000D01*
X93162500Y-62568750D01*
X93318750Y-62725000D01*
X93750000Y-62728024D01*
X93872521Y-62715957D01*
X93990334Y-62680219D01*
X94098911Y-62622183D01*
X94194080Y-62544080D01*
X94272183Y-62448911D01*
X94330219Y-62340334D01*
X94365957Y-62222521D01*
X94378024Y-62100000D01*
X94375000Y-61506250D01*
X94218750Y-61350000D01*
X93162500Y-61350000D01*
X92912500Y-61350000D01*
X91856250Y-61350000D01*
X91700000Y-61506250D01*
X91696976Y-62100000D01*
X91403024Y-62100000D01*
X91403024Y-60350000D01*
X91696976Y-60350000D01*
X91700000Y-60943750D01*
X91856250Y-61100000D01*
X92912500Y-61100000D01*
X92912500Y-59881250D01*
X93162500Y-59881250D01*
X93162500Y-61100000D01*
X94218750Y-61100000D01*
X94375000Y-60943750D01*
X94378024Y-60350000D01*
X94365957Y-60227479D01*
X94330219Y-60109666D01*
X94272183Y-60001089D01*
X94194080Y-59905920D01*
X94098911Y-59827817D01*
X93990334Y-59769781D01*
X93872521Y-59734043D01*
X93750000Y-59721976D01*
X93318750Y-59725000D01*
X93162500Y-59881250D01*
X92912500Y-59881250D01*
X92756250Y-59725000D01*
X92325000Y-59721976D01*
X92202479Y-59734043D01*
X92084666Y-59769781D01*
X91976089Y-59827817D01*
X91880920Y-59905920D01*
X91802817Y-60001089D01*
X91744781Y-60109666D01*
X91709043Y-60227479D01*
X91696976Y-60350000D01*
X91403024Y-60350000D01*
X91390957Y-60227479D01*
X91355219Y-60109666D01*
X91327502Y-60057812D01*
X91328125Y-59325531D01*
X91316116Y-59203069D01*
X91280550Y-59085823D01*
X91222794Y-58977769D01*
X91145067Y-58883058D01*
X91050356Y-58805331D01*
X90942302Y-58747575D01*
X90825056Y-58712009D01*
X90703125Y-58700000D01*
X86353125Y-58700000D01*
X86231715Y-58711906D01*
X86114439Y-58747372D01*
X86006336Y-58805036D01*
X85911559Y-58882683D01*
X85833752Y-58977327D01*
X85775904Y-59085332D01*
X85740238Y-59202547D01*
X85728125Y-59324469D01*
X85726977Y-60674220D01*
X85721976Y-60725000D01*
X85721976Y-61725000D01*
X85726049Y-61766350D01*
X85724190Y-63952525D01*
X85721976Y-63975000D01*
X85721976Y-66075000D01*
X85722381Y-66079115D01*
X85721875Y-66674469D01*
X85733884Y-66796931D01*
X85769450Y-66914177D01*
X85827206Y-67022231D01*
X85904933Y-67116942D01*
X85999644Y-67194669D01*
X86107698Y-67252425D01*
X86224944Y-67287991D01*
X86346875Y-67300000D01*
X90696875Y-67300000D01*
X90818285Y-67288094D01*
X90935561Y-67252628D01*
X91043664Y-67194964D01*
X91138441Y-67117317D01*
X91216248Y-67022673D01*
X91254844Y-66950612D01*
X91268750Y-66950000D01*
X91425000Y-66793750D01*
X91425000Y-66003024D01*
X91475000Y-66003024D01*
X91475000Y-66793750D01*
X91631250Y-66950000D01*
X91700000Y-66953024D01*
X91822521Y-66940957D01*
X91940334Y-66905219D01*
X92048911Y-66847183D01*
X92144080Y-66769080D01*
X92222183Y-66673911D01*
X92280219Y-66565334D01*
X92315957Y-66447521D01*
X92325264Y-66353024D01*
X93150000Y-66353024D01*
X93272521Y-66340957D01*
X93390334Y-66305219D01*
X93498911Y-66247183D01*
X93594080Y-66169080D01*
X93672183Y-66073911D01*
X93677161Y-66064597D01*
X99475001Y-71862438D01*
X99475000Y-85232021D01*
X99470767Y-85275000D01*
X99484406Y-85413476D01*
X99487661Y-85446529D01*
X99537695Y-85611467D01*
X99618944Y-85763475D01*
X99728288Y-85896712D01*
X99761681Y-85924117D01*
X104755888Y-90918325D01*
X104783288Y-90951712D01*
X104838121Y-90996712D01*
X104916524Y-91061056D01*
X105068532Y-91142305D01*
X105233470Y-91192339D01*
X105405000Y-91209233D01*
X105447979Y-91205000D01*
X107749228Y-91205000D01*
X107805920Y-91274080D01*
X107901089Y-91352183D01*
X108009666Y-91410219D01*
X108127479Y-91445957D01*
X108250000Y-91458024D01*
X109550000Y-91458024D01*
X109550000Y-97515610D01*
X109546613Y-97550000D01*
X109560128Y-97687224D01*
X109600155Y-97819175D01*
X109665155Y-97940781D01*
X109752630Y-98047370D01*
X109830894Y-98111599D01*
X109859219Y-98134845D01*
X109980825Y-98199845D01*
X110112776Y-98239872D01*
X110250000Y-98253387D01*
X110284390Y-98250000D01*
X115271976Y-98250000D01*
X115271976Y-99117364D01*
X114514341Y-99875000D01*
X103925002Y-99875000D01*
X103925002Y-99749046D01*
X103885612Y-99551018D01*
X103808346Y-99364480D01*
X103706795Y-99212499D01*
X103808344Y-99060520D01*
X103885610Y-98873982D01*
X103925000Y-98675954D01*
X103925000Y-98474046D01*
X103885610Y-98276018D01*
X103808344Y-98089480D01*
X103696170Y-97921600D01*
X103553400Y-97778830D01*
X103385520Y-97666656D01*
X103198982Y-97589390D01*
X103000954Y-97550000D01*
X102799046Y-97550000D01*
X102601018Y-97589390D01*
X102414480Y-97666656D01*
X102246600Y-97778830D01*
X102200430Y-97825000D01*
X101460660Y-97825000D01*
X97200000Y-93564341D01*
X97200000Y-80950016D01*
X97203627Y-80913188D01*
X97200000Y-80876360D01*
X97200000Y-80876353D01*
X97189147Y-80766162D01*
X97146261Y-80624787D01*
X97076619Y-80494495D01*
X96982895Y-80380293D01*
X96954287Y-80356815D01*
X91497685Y-74900214D01*
X91653400Y-74796168D01*
X91796170Y-74653398D01*
X91908344Y-74485518D01*
X91985610Y-74298980D01*
X92025000Y-74100952D01*
X92025000Y-73899044D01*
X91985610Y-73701016D01*
X91908344Y-73514478D01*
X91796170Y-73346598D01*
X91653400Y-73203828D01*
X91485520Y-73091654D01*
X91298982Y-73014388D01*
X91100954Y-72974998D01*
X91035661Y-72974998D01*
X90817616Y-72756954D01*
X90921170Y-72653400D01*
X91033344Y-72485520D01*
X91110610Y-72298982D01*
X91150000Y-72100954D01*
X91150000Y-71899046D01*
X91110610Y-71701018D01*
X91033344Y-71514480D01*
X90921170Y-71346600D01*
X90778400Y-71203830D01*
X90610520Y-71091656D01*
X90423982Y-71014390D01*
X90225954Y-70975000D01*
X90024046Y-70975000D01*
X89826018Y-71014390D01*
X89639480Y-71091656D01*
X89471600Y-71203830D01*
X89350430Y-71325000D01*
X87746869Y-71325000D01*
X87690334Y-71294781D01*
X87572521Y-71259043D01*
X87450000Y-71246976D01*
X85540441Y-71246976D01*
X85614034Y-71136836D01*
X85687532Y-70959397D01*
X85725000Y-70771029D01*
X85725000Y-70578971D01*
X85687532Y-70390603D01*
X85614034Y-70213164D01*
X85507332Y-70053473D01*
X85371527Y-69917668D01*
X85211836Y-69810966D01*
X85075000Y-69754286D01*
X85075000Y-67306726D01*
X85089177Y-67302425D01*
X85197231Y-67244669D01*
X85291942Y-67166942D01*
X85369669Y-67072231D01*
X85427425Y-66964177D01*
X85462991Y-66846931D01*
X85475000Y-66725000D01*
X85475000Y-66105704D01*
X85478024Y-66075000D01*
X85478024Y-63975000D01*
X85475000Y-63944296D01*
X85475000Y-61755704D01*
X85478024Y-61725000D01*
X85478024Y-60725000D01*
X85475000Y-60694296D01*
X85475000Y-59325000D01*
X85462991Y-59203069D01*
X85427425Y-59085823D01*
X85369669Y-58977769D01*
X85291942Y-58883058D01*
X85197231Y-58805331D01*
X85089177Y-58747575D01*
X84971931Y-58712009D01*
X84850000Y-58700000D01*
X81075000Y-58700000D01*
X80953069Y-58712009D01*
X80835823Y-58747575D01*
X80727769Y-58805331D01*
X80633058Y-58883058D01*
X80555331Y-58977769D01*
X80497575Y-59085823D01*
X80462009Y-59203069D01*
X80450000Y-59325000D01*
X80450000Y-60126900D01*
X80400000Y-60121976D01*
X80156250Y-60125000D01*
X80000000Y-60281250D01*
X80000000Y-61100000D01*
X80020000Y-61100000D01*
X80020000Y-61350000D01*
X80000000Y-61350000D01*
X80000000Y-62168750D01*
X80156250Y-62325000D01*
X80400000Y-62328024D01*
X80450000Y-62323100D01*
X80450000Y-63717379D01*
X80422521Y-63709043D01*
X80300000Y-63696976D01*
X80006250Y-63700000D01*
X79850000Y-63856250D01*
X79850000Y-64900000D01*
X79870000Y-64900000D01*
X79870000Y-65150000D01*
X79850000Y-65150000D01*
X79850000Y-66193750D01*
X80006250Y-66350000D01*
X80300000Y-66353024D01*
X80422521Y-66340957D01*
X80450000Y-66332621D01*
X80450000Y-66725000D01*
X80462009Y-66846931D01*
X80497575Y-66964177D01*
X80555331Y-67072231D01*
X80633058Y-67166942D01*
X80727769Y-67244669D01*
X80835823Y-67302425D01*
X80953069Y-67337991D01*
X81025000Y-67345075D01*
X81025000Y-71246976D01*
X78650000Y-71246976D01*
X78527479Y-71259043D01*
X78409666Y-71294781D01*
X78353131Y-71325000D01*
X74686827Y-71325000D01*
X74650000Y-71321373D01*
X74613172Y-71325000D01*
X74613165Y-71325000D01*
X74502974Y-71335853D01*
X74361599Y-71378739D01*
X74231307Y-71448381D01*
X74150766Y-71514480D01*
X74117105Y-71542105D01*
X74093626Y-71570714D01*
X73345801Y-72318540D01*
X73317187Y-72342023D01*
X73223463Y-72456226D01*
X73153821Y-72586518D01*
X73110935Y-72727893D01*
X73100082Y-72838084D01*
X73100082Y-72838091D01*
X73096455Y-72874918D01*
X73100082Y-72911745D01*
X73100082Y-73275430D01*
X73053912Y-73321600D01*
X72941738Y-73489480D01*
X72864472Y-73676018D01*
X72825082Y-73874046D01*
X72825082Y-74075954D01*
X72864472Y-74273982D01*
X72941738Y-74460520D01*
X73053912Y-74628400D01*
X73196682Y-74771170D01*
X73364562Y-74883344D01*
X73551100Y-74960610D01*
X73749128Y-75000000D01*
X73951036Y-75000000D01*
X74149064Y-74960610D01*
X74335602Y-74883344D01*
X74503482Y-74771170D01*
X74646252Y-74628400D01*
X74758426Y-74460520D01*
X74835692Y-74273982D01*
X74875082Y-74075954D01*
X74875082Y-73874046D01*
X74859819Y-73797315D01*
X74999052Y-73825010D01*
X75164727Y-73825010D01*
X75150000Y-73899046D01*
X75150000Y-74100954D01*
X75189390Y-74298982D01*
X75266656Y-74485520D01*
X75378830Y-74653400D01*
X75521600Y-74796170D01*
X75689480Y-74908344D01*
X75876018Y-74985610D01*
X76074046Y-75025000D01*
X76239340Y-75025000D01*
X73720715Y-77543626D01*
X73692106Y-77567105D01*
X73668627Y-77595714D01*
X73668624Y-77595717D01*
X73667144Y-77597521D01*
X73598382Y-77681307D01*
X73575028Y-77725000D01*
X73528739Y-77811600D01*
X73485853Y-77952975D01*
X73471373Y-78100000D01*
X73475001Y-78136837D01*
X73475000Y-91174584D01*
X73471373Y-91211411D01*
X73475000Y-91248238D01*
X73475000Y-91248245D01*
X73485853Y-91358436D01*
X73528739Y-91499811D01*
X73598381Y-91630103D01*
X73692105Y-91744306D01*
X73720720Y-91767790D01*
X77632226Y-95679297D01*
X77655705Y-95707906D01*
X77769907Y-95801630D01*
X77900199Y-95871272D01*
X78041574Y-95914158D01*
X78151765Y-95925011D01*
X78151772Y-95925011D01*
X78188600Y-95928638D01*
X78225427Y-95925011D01*
X84591532Y-95925011D01*
X91145806Y-102479286D01*
X91169285Y-102507895D01*
X91283487Y-102601619D01*
X91413779Y-102671261D01*
X91555154Y-102714147D01*
X91665345Y-102725000D01*
X91665352Y-102725000D01*
X91702180Y-102728627D01*
X91739008Y-102725000D01*
X124703795Y-102725000D01*
X124740622Y-102728627D01*
X124777449Y-102725000D01*
X124777457Y-102725000D01*
X124887648Y-102714147D01*
X125029023Y-102671261D01*
X125054999Y-102657377D01*
X125066656Y-102685520D01*
X125178830Y-102853400D01*
X125321600Y-102996170D01*
X125489480Y-103108344D01*
X125676018Y-103185610D01*
X125874046Y-103225000D01*
X126075954Y-103225000D01*
X126273982Y-103185610D01*
X126460520Y-103108344D01*
X126628400Y-102996170D01*
X126771170Y-102853400D01*
X126883344Y-102685520D01*
X126960610Y-102498982D01*
X127000000Y-102300954D01*
X127000000Y-102210659D01*
X129032637Y-100178024D01*
X129600000Y-100178024D01*
X129722521Y-100165957D01*
X129840334Y-100130219D01*
X129948911Y-100072183D01*
X130044080Y-99994080D01*
X130122183Y-99898911D01*
X130180219Y-99790334D01*
X130215957Y-99672521D01*
X130228024Y-99550000D01*
X130228024Y-98250000D01*
X135215610Y-98250000D01*
X135250000Y-98253387D01*
X135284390Y-98250000D01*
X135387224Y-98239872D01*
X135519175Y-98199845D01*
X135640781Y-98134845D01*
X135747370Y-98047370D01*
X135834845Y-97940781D01*
X135899845Y-97819175D01*
X135939872Y-97687224D01*
X135953387Y-97550000D01*
X135950000Y-97515610D01*
X135950000Y-91458024D01*
X137250000Y-91458024D01*
X137372521Y-91445957D01*
X137490334Y-91410219D01*
X137598911Y-91352183D01*
X137694080Y-91274080D01*
X137772183Y-91178911D01*
X137830219Y-91070334D01*
X137865957Y-90952521D01*
X137878024Y-90830000D01*
X137878024Y-89830000D01*
X137865957Y-89707479D01*
X137830219Y-89589666D01*
X137772183Y-89481089D01*
X137694080Y-89385920D01*
X137598911Y-89307817D01*
X137490334Y-89249781D01*
X137372521Y-89214043D01*
X137250000Y-89201976D01*
X135950000Y-89201976D01*
X135950000Y-88918024D01*
X137250000Y-88918024D01*
X137372521Y-88905957D01*
X137490334Y-88870219D01*
X137598911Y-88812183D01*
X137694080Y-88734080D01*
X137772183Y-88638911D01*
X137830219Y-88530334D01*
X137865957Y-88412521D01*
X137878024Y-88290000D01*
X137878024Y-87707635D01*
X146704293Y-78881368D01*
X146732895Y-78857895D01*
X146756369Y-78829292D01*
X146756376Y-78829285D01*
X146826618Y-78743694D01*
X146826619Y-78743693D01*
X146896261Y-78613401D01*
X146939147Y-78472026D01*
X146950000Y-78361835D01*
X146950000Y-78361826D01*
X146953627Y-78325001D01*
X146950000Y-78288176D01*
X146950000Y-58908369D01*
X147034610Y-58863144D01*
X147116109Y-58808688D01*
X147211277Y-58730585D01*
X147280585Y-58661277D01*
X147358688Y-58566109D01*
X147413144Y-58484610D01*
X147471181Y-58376030D01*
X147508690Y-58285474D01*
X147544427Y-58167663D01*
X147563549Y-58071530D01*
X147575616Y-57949009D01*
X147575616Y-57924449D01*
X147578024Y-57900000D01*
X147578024Y-57400000D01*
X147565957Y-57277479D01*
X147557621Y-57250000D01*
X147565957Y-57222521D01*
X147578024Y-57100000D01*
X147578024Y-56600000D01*
X147575616Y-56575551D01*
X147575616Y-56550991D01*
X147563549Y-56428470D01*
X147544427Y-56332337D01*
X147540679Y-56319980D01*
X149879287Y-53981373D01*
X149907895Y-53957895D01*
X150001619Y-53843693D01*
X150071261Y-53713401D01*
X150114147Y-53572026D01*
X150125000Y-53461835D01*
X150125000Y-53461828D01*
X150128627Y-53425000D01*
X150125000Y-53388172D01*
X150125000Y-47686827D01*
X150128627Y-47649999D01*
X150125000Y-47613172D01*
X150125000Y-47613165D01*
X150114147Y-47502974D01*
X150071261Y-47361599D01*
X150001619Y-47231307D01*
X149938029Y-47153823D01*
X149931376Y-47145716D01*
X149931374Y-47145714D01*
X149907895Y-47117105D01*
X149879286Y-47093626D01*
X148853024Y-46067364D01*
X148853024Y-44500000D01*
X148840957Y-44377479D01*
X148805219Y-44259666D01*
X148747183Y-44151089D01*
X148725772Y-44125000D01*
X148747183Y-44098911D01*
X148805219Y-43990334D01*
X148840957Y-43872521D01*
X148853024Y-43750000D01*
X148850000Y-43031250D01*
X148693750Y-42875000D01*
X147050000Y-42875000D01*
X147050000Y-42895000D01*
X146925000Y-42895000D01*
X146925000Y-42605000D01*
X147050000Y-42605000D01*
X147050000Y-42625000D01*
X148693750Y-42625000D01*
X148850000Y-42468750D01*
X148853024Y-41750000D01*
X148840957Y-41627479D01*
X148805219Y-41509666D01*
X148747183Y-41401089D01*
X148669080Y-41305920D01*
X148573911Y-41227817D01*
X148465334Y-41169781D01*
X148347521Y-41134043D01*
X148255704Y-41125000D01*
X155125000Y-41125000D01*
X155125000Y-108875000D01*
X72375000Y-108875000D01*
X72375000Y-97520102D01*
X81325000Y-97520102D01*
X81325000Y-97859898D01*
X81391290Y-98193164D01*
X81521324Y-98507094D01*
X81710105Y-98789624D01*
X81950376Y-99029895D01*
X82232906Y-99218676D01*
X82546836Y-99348710D01*
X82880102Y-99415000D01*
X83219898Y-99415000D01*
X83553164Y-99348710D01*
X83867094Y-99218676D01*
X84149624Y-99029895D01*
X84389895Y-98789624D01*
X84578676Y-98507094D01*
X84708710Y-98193164D01*
X84775000Y-97859898D01*
X84775000Y-97520102D01*
X84708710Y-97186836D01*
X84578676Y-96872906D01*
X84389895Y-96590376D01*
X84149624Y-96350105D01*
X83867094Y-96161324D01*
X83553164Y-96031290D01*
X83219898Y-95965000D01*
X82880102Y-95965000D01*
X82546836Y-96031290D01*
X82232906Y-96161324D01*
X81950376Y-96350105D01*
X81710105Y-96590376D01*
X81521324Y-96872906D01*
X81391290Y-97186836D01*
X81325000Y-97520102D01*
X72375000Y-97520102D01*
X72375000Y-65725000D01*
X78521976Y-65725000D01*
X78534043Y-65847521D01*
X78569781Y-65965334D01*
X78627817Y-66073911D01*
X78705920Y-66169080D01*
X78801089Y-66247183D01*
X78909666Y-66305219D01*
X79027479Y-66340957D01*
X79150000Y-66353024D01*
X79443750Y-66350000D01*
X79600000Y-66193750D01*
X79600000Y-65150000D01*
X78681250Y-65150000D01*
X78525000Y-65306250D01*
X78521976Y-65725000D01*
X72375000Y-65725000D01*
X72375000Y-64325000D01*
X78521976Y-64325000D01*
X78525000Y-64743750D01*
X78681250Y-64900000D01*
X79600000Y-64900000D01*
X79600000Y-63856250D01*
X79443750Y-63700000D01*
X79150000Y-63696976D01*
X79027479Y-63709043D01*
X78909666Y-63744781D01*
X78801089Y-63802817D01*
X78705920Y-63880920D01*
X78627817Y-63976089D01*
X78569781Y-64084666D01*
X78534043Y-64202479D01*
X78521976Y-64325000D01*
X72375000Y-64325000D01*
X72375000Y-61700000D01*
X78721976Y-61700000D01*
X78734043Y-61822521D01*
X78769781Y-61940334D01*
X78827817Y-62048911D01*
X78905920Y-62144080D01*
X79001089Y-62222183D01*
X79109666Y-62280219D01*
X79227479Y-62315957D01*
X79350000Y-62328024D01*
X79593750Y-62325000D01*
X79750000Y-62168750D01*
X79750000Y-61350000D01*
X78881250Y-61350000D01*
X78725000Y-61506250D01*
X78721976Y-61700000D01*
X72375000Y-61700000D01*
X72375000Y-60750000D01*
X78721976Y-60750000D01*
X78725000Y-60943750D01*
X78881250Y-61100000D01*
X79750000Y-61100000D01*
X79750000Y-60281250D01*
X79593750Y-60125000D01*
X79350000Y-60121976D01*
X79227479Y-60134043D01*
X79109666Y-60169781D01*
X79001089Y-60227817D01*
X78905920Y-60305920D01*
X78827817Y-60401089D01*
X78769781Y-60509666D01*
X78734043Y-60627479D01*
X78721976Y-60750000D01*
X72375000Y-60750000D01*
X72375000Y-52140102D01*
X81325000Y-52140102D01*
X81325000Y-52479898D01*
X81391290Y-52813164D01*
X81521324Y-53127094D01*
X81710105Y-53409624D01*
X81950376Y-53649895D01*
X82232906Y-53838676D01*
X82546836Y-53968710D01*
X82880102Y-54035000D01*
X83219898Y-54035000D01*
X83553164Y-53968710D01*
X83867094Y-53838676D01*
X84149624Y-53649895D01*
X84389895Y-53409624D01*
X84578676Y-53127094D01*
X84708710Y-52813164D01*
X84775000Y-52479898D01*
X84775000Y-52140102D01*
X84708710Y-51806836D01*
X84578676Y-51492906D01*
X84389895Y-51210376D01*
X84149624Y-50970105D01*
X83867094Y-50781324D01*
X83553164Y-50651290D01*
X83219898Y-50585000D01*
X82880102Y-50585000D01*
X82546836Y-50651290D01*
X82232906Y-50781324D01*
X81950376Y-50970105D01*
X81710105Y-51210376D01*
X81521324Y-51492906D01*
X81391290Y-51806836D01*
X81325000Y-52140102D01*
X72375000Y-52140102D01*
X72375000Y-41125000D01*
X113725001Y-41125000D01*
X113725000Y-47115610D01*
X113725000Y-47115610D01*
G37*
X113725000Y-47115610D02*
X113721613Y-47150000D01*
X113735128Y-47287224D01*
X113775155Y-47419175D01*
X113840155Y-47540781D01*
X113927630Y-47647370D01*
X114034219Y-47734845D01*
X114155825Y-47799845D01*
X114287776Y-47839872D01*
X114383818Y-47849331D01*
X114425000Y-47853387D01*
X114459390Y-47850000D01*
X123390610Y-47850000D01*
X123425000Y-47853387D01*
X123459390Y-47850000D01*
X123562224Y-47839872D01*
X123694175Y-47799845D01*
X123815781Y-47734845D01*
X123922370Y-47647370D01*
X124009845Y-47540781D01*
X124074845Y-47419175D01*
X124114872Y-47287224D01*
X124128387Y-47150000D01*
X124125000Y-47115610D01*
X124125000Y-42799650D01*
X125120000Y-42799650D01*
X125120000Y-43080350D01*
X125174762Y-43355657D01*
X125282181Y-43614991D01*
X125438130Y-43848385D01*
X125636615Y-44046870D01*
X125870009Y-44202819D01*
X125887346Y-44210000D01*
X125870009Y-44217181D01*
X125636615Y-44373130D01*
X125438130Y-44571615D01*
X125282181Y-44805009D01*
X125174762Y-45064343D01*
X125120000Y-45339650D01*
X125120000Y-45620350D01*
X125174762Y-45895657D01*
X125282181Y-46154991D01*
X125438130Y-46388385D01*
X125636615Y-46586870D01*
X125870009Y-46742819D01*
X126129343Y-46850238D01*
X126404650Y-46905000D01*
X126685350Y-46905000D01*
X126960657Y-46850238D01*
X127219991Y-46742819D01*
X127453385Y-46586870D01*
X127651870Y-46388385D01*
X127807819Y-46154991D01*
X127915238Y-45895657D01*
X127970000Y-45620350D01*
X127970000Y-45339650D01*
X127915238Y-45064343D01*
X127807819Y-44805009D01*
X127651870Y-44571615D01*
X127453385Y-44373130D01*
X127219991Y-44217181D01*
X127202654Y-44210000D01*
X127219991Y-44202819D01*
X127453385Y-44046870D01*
X127651870Y-43848385D01*
X127807819Y-43614991D01*
X127915238Y-43355657D01*
X127970000Y-43080350D01*
X127970000Y-42799650D01*
X127915238Y-42524343D01*
X127807819Y-42265009D01*
X127651870Y-42031615D01*
X127453385Y-41833130D01*
X127219991Y-41677181D01*
X126960657Y-41569762D01*
X126685350Y-41515000D01*
X126404650Y-41515000D01*
X126129343Y-41569762D01*
X125870009Y-41677181D01*
X125636615Y-41833130D01*
X125438130Y-42031615D01*
X125282181Y-42265009D01*
X125174762Y-42524343D01*
X125120000Y-42799650D01*
X124125000Y-42799650D01*
X124125000Y-41125000D01*
X137594296Y-41125000D01*
X137502479Y-41134043D01*
X137384666Y-41169781D01*
X137276089Y-41227817D01*
X137180920Y-41305920D01*
X137102817Y-41401089D01*
X137044781Y-41509666D01*
X137009043Y-41627479D01*
X136996976Y-41750000D01*
X136996976Y-42000000D01*
X136899568Y-42000000D01*
X136853400Y-41953832D01*
X136685520Y-41841658D01*
X136498982Y-41764392D01*
X136300954Y-41725002D01*
X136099046Y-41725002D01*
X135901018Y-41764392D01*
X135714480Y-41841658D01*
X135546600Y-41953832D01*
X135403830Y-42096602D01*
X135291656Y-42264482D01*
X135214390Y-42451020D01*
X135175000Y-42649048D01*
X135175000Y-42850956D01*
X135214390Y-43048984D01*
X135291656Y-43235522D01*
X135403830Y-43403402D01*
X135546600Y-43546172D01*
X135714480Y-43658346D01*
X135901018Y-43735612D01*
X136099046Y-43775002D01*
X136300954Y-43775002D01*
X136498982Y-43735612D01*
X136685520Y-43658346D01*
X136853400Y-43546172D01*
X136899572Y-43500000D01*
X136996976Y-43500000D01*
X136996976Y-43750000D01*
X137009043Y-43872521D01*
X137044781Y-43990334D01*
X137102817Y-44098911D01*
X137180920Y-44194080D01*
X137276089Y-44272183D01*
X137384666Y-44330219D01*
X137502479Y-44365957D01*
X137625000Y-44378024D01*
X138925001Y-44378024D01*
X138925001Y-46233846D01*
X138857278Y-46255329D01*
X138798978Y-46280317D01*
X138740310Y-46304497D01*
X138731713Y-46309146D01*
X138620546Y-46370260D01*
X138568210Y-46406095D01*
X138515347Y-46441217D01*
X138507816Y-46447448D01*
X138410639Y-46528991D01*
X138366270Y-46574299D01*
X138321235Y-46619020D01*
X138315058Y-46626594D01*
X138315054Y-46626599D01*
X138315051Y-46626604D01*
X138235568Y-46725460D01*
X138200824Y-46778553D01*
X138165349Y-46831146D01*
X138160764Y-46839771D01*
X138160761Y-46839775D01*
X138160761Y-46839776D01*
X138101988Y-46952198D01*
X138078210Y-47011050D01*
X138053635Y-47069511D01*
X138050812Y-47078860D01*
X138050810Y-47078866D01*
X138050810Y-47078868D01*
X138014993Y-47200563D01*
X138003103Y-47262892D01*
X137990347Y-47325034D01*
X137989394Y-47334762D01*
X137977897Y-47461098D01*
X137977973Y-47471976D01*
X137884413Y-47471976D01*
X135528024Y-45115588D01*
X135528024Y-44536760D01*
X135509390Y-44347565D01*
X135454204Y-44165640D01*
X135364586Y-43997977D01*
X135243981Y-43851019D01*
X135097023Y-43730414D01*
X134929360Y-43640796D01*
X134747435Y-43585610D01*
X134558240Y-43566976D01*
X131741760Y-43566976D01*
X131552565Y-43585610D01*
X131370640Y-43640796D01*
X131202977Y-43730414D01*
X131056019Y-43851019D01*
X130935414Y-43997977D01*
X130845796Y-44165640D01*
X130790610Y-44347565D01*
X130771976Y-44536760D01*
X130771976Y-45633240D01*
X130790610Y-45822435D01*
X130845796Y-46004360D01*
X130935414Y-46172023D01*
X131056019Y-46318981D01*
X131202977Y-46439586D01*
X131370640Y-46529204D01*
X131552565Y-46584390D01*
X131741760Y-46603024D01*
X134540588Y-46603024D01*
X136996976Y-49059413D01*
X136996976Y-50100000D01*
X137009043Y-50222521D01*
X137044781Y-50340334D01*
X137076673Y-50400000D01*
X137044781Y-50459666D01*
X137009043Y-50577479D01*
X136996976Y-50700000D01*
X136996976Y-52700000D01*
X137009043Y-52822521D01*
X137044781Y-52940334D01*
X137102817Y-53048911D01*
X137180920Y-53144080D01*
X137276089Y-53222183D01*
X137384666Y-53280219D01*
X137502479Y-53315957D01*
X137625000Y-53328024D01*
X139260214Y-53328024D01*
X139284287Y-53351597D01*
X139328970Y-53396594D01*
X139336544Y-53402772D01*
X139412594Y-53463918D01*
X139465701Y-53498670D01*
X139518281Y-53534136D01*
X139526904Y-53538721D01*
X139526909Y-53538724D01*
X139526914Y-53538726D01*
X139613391Y-53583935D01*
X139672239Y-53607712D01*
X139730698Y-53632286D01*
X139740051Y-53635110D01*
X139740059Y-53635113D01*
X139740067Y-53635115D01*
X139833666Y-53662663D01*
X139896001Y-53674554D01*
X139958140Y-53687310D01*
X139967856Y-53688262D01*
X139967862Y-53688263D01*
X139967868Y-53688263D01*
X140065050Y-53697107D01*
X140128524Y-53696664D01*
X140191932Y-53697107D01*
X140201649Y-53696154D01*
X140201663Y-53696154D01*
X140201676Y-53696151D01*
X140298708Y-53685953D01*
X140360878Y-53673192D01*
X140423177Y-53661308D01*
X140432524Y-53658486D01*
X140432534Y-53658484D01*
X140432543Y-53658480D01*
X140525753Y-53629627D01*
X140584283Y-53605024D01*
X140643068Y-53581273D01*
X140651686Y-53576690D01*
X140651694Y-53576687D01*
X140651700Y-53576683D01*
X140737536Y-53530272D01*
X140790156Y-53494779D01*
X140843220Y-53460055D01*
X140850792Y-53453879D01*
X140850795Y-53453877D01*
X140850800Y-53453872D01*
X140925983Y-53391675D01*
X140970698Y-53346647D01*
X141016012Y-53302273D01*
X141022243Y-53294742D01*
X141083918Y-53219121D01*
X141096622Y-53200000D01*
X144753436Y-53200000D01*
X144769984Y-53224907D01*
X144776214Y-53232438D01*
X144838939Y-53307190D01*
X144884287Y-53351597D01*
X144928970Y-53396594D01*
X144936544Y-53402772D01*
X145012594Y-53463918D01*
X145065701Y-53498670D01*
X145118281Y-53534136D01*
X145126904Y-53538721D01*
X145126909Y-53538724D01*
X145126914Y-53538726D01*
X145213391Y-53583935D01*
X145272239Y-53607712D01*
X145330698Y-53632286D01*
X145340051Y-53635110D01*
X145340059Y-53635113D01*
X145340067Y-53635115D01*
X145433666Y-53662663D01*
X145496001Y-53674554D01*
X145558140Y-53687310D01*
X145567856Y-53688262D01*
X145567862Y-53688263D01*
X145567868Y-53688263D01*
X145665050Y-53697107D01*
X145728524Y-53696664D01*
X145791932Y-53697107D01*
X145801649Y-53696154D01*
X145801663Y-53696154D01*
X145801676Y-53696151D01*
X145898708Y-53685953D01*
X145960878Y-53673192D01*
X146023177Y-53661308D01*
X146032524Y-53658486D01*
X146032534Y-53658484D01*
X146032543Y-53658480D01*
X146125753Y-53629627D01*
X146184283Y-53605024D01*
X146243068Y-53581273D01*
X146251686Y-53576690D01*
X146251694Y-53576687D01*
X146251700Y-53576683D01*
X146337536Y-53530272D01*
X146390156Y-53494779D01*
X146443220Y-53460055D01*
X146450792Y-53453879D01*
X146450795Y-53453877D01*
X146450800Y-53453872D01*
X146525983Y-53391675D01*
X146570698Y-53346647D01*
X146616012Y-53302273D01*
X146622243Y-53294742D01*
X146683918Y-53219121D01*
X146719022Y-53166287D01*
X146754878Y-53113921D01*
X146759526Y-53105323D01*
X146805338Y-53019162D01*
X146829515Y-52960504D01*
X146854506Y-52902197D01*
X146857396Y-52892860D01*
X146885601Y-52799442D01*
X146897927Y-52737190D01*
X146911116Y-52675143D01*
X146912136Y-52665435D01*
X146912137Y-52665428D01*
X146912137Y-52665422D01*
X146921492Y-52570005D01*
X146925000Y-52534390D01*
X146925000Y-52178024D01*
X148225000Y-52178024D01*
X148347521Y-52165957D01*
X148465334Y-52130219D01*
X148573911Y-52072183D01*
X148625000Y-52030255D01*
X148625000Y-53114340D01*
X146267365Y-55471976D01*
X145950000Y-55471976D01*
X145925551Y-55474384D01*
X145900991Y-55474384D01*
X145778470Y-55486451D01*
X145682337Y-55505573D01*
X145564526Y-55541310D01*
X145473970Y-55578819D01*
X145365390Y-55636856D01*
X145283891Y-55691312D01*
X145188723Y-55769415D01*
X145119415Y-55838723D01*
X145110160Y-55850000D01*
X144114840Y-55850000D01*
X144105585Y-55838723D01*
X144036277Y-55769415D01*
X143941109Y-55691312D01*
X143859610Y-55636856D01*
X143751030Y-55578819D01*
X143660474Y-55541310D01*
X143542663Y-55505573D01*
X143446530Y-55486451D01*
X143324009Y-55474384D01*
X143299449Y-55474384D01*
X143275000Y-55471976D01*
X142775000Y-55471976D01*
X142750551Y-55474384D01*
X142725991Y-55474384D01*
X142603470Y-55486451D01*
X142507337Y-55505573D01*
X142389526Y-55541310D01*
X142298970Y-55578819D01*
X142190390Y-55636856D01*
X142108891Y-55691312D01*
X142013723Y-55769415D01*
X141944415Y-55838723D01*
X141866312Y-55933891D01*
X141811856Y-56015390D01*
X141753819Y-56123970D01*
X141716310Y-56214526D01*
X141680573Y-56332337D01*
X141661451Y-56428470D01*
X141649384Y-56550991D01*
X141649384Y-56575551D01*
X141646976Y-56600000D01*
X141646976Y-57100000D01*
X141659043Y-57222521D01*
X141667379Y-57250000D01*
X141659043Y-57277479D01*
X141646976Y-57400000D01*
X141646976Y-57900000D01*
X141649384Y-57924449D01*
X141649384Y-57949009D01*
X141661451Y-58071530D01*
X141680573Y-58167663D01*
X141716310Y-58285474D01*
X141753819Y-58376030D01*
X141811856Y-58484610D01*
X141866312Y-58566109D01*
X141944415Y-58661277D01*
X142013723Y-58730585D01*
X142108891Y-58808688D01*
X142190390Y-58863144D01*
X142275001Y-58908369D01*
X142275000Y-59438310D01*
X142201089Y-59477817D01*
X142105920Y-59555920D01*
X142027817Y-59651089D01*
X141969781Y-59759666D01*
X141934043Y-59877479D01*
X141921976Y-60000000D01*
X141921976Y-60650000D01*
X141810660Y-60650000D01*
X141181378Y-60020719D01*
X141157895Y-59992105D01*
X141043693Y-59898381D01*
X140988319Y-59868783D01*
X140955219Y-59759666D01*
X140897183Y-59651089D01*
X140819080Y-59555920D01*
X140723911Y-59477817D01*
X140650000Y-59438310D01*
X140650000Y-58908369D01*
X140734610Y-58863144D01*
X140816109Y-58808688D01*
X140911277Y-58730585D01*
X140980585Y-58661277D01*
X141058688Y-58566109D01*
X141113144Y-58484610D01*
X141171181Y-58376030D01*
X141208690Y-58285474D01*
X141244427Y-58167663D01*
X141263549Y-58071530D01*
X141275616Y-57949009D01*
X141275616Y-57924449D01*
X141278024Y-57900000D01*
X141278024Y-57400000D01*
X141265957Y-57277479D01*
X141257621Y-57250000D01*
X141265957Y-57222521D01*
X141278024Y-57100000D01*
X141278024Y-56600000D01*
X141275616Y-56575551D01*
X141275616Y-56550991D01*
X141263549Y-56428470D01*
X141244427Y-56332337D01*
X141208690Y-56214526D01*
X141171181Y-56123970D01*
X141113144Y-56015390D01*
X141058688Y-55933891D01*
X140980585Y-55838723D01*
X140911277Y-55769415D01*
X140816109Y-55691312D01*
X140734610Y-55636856D01*
X140626030Y-55578819D01*
X140535474Y-55541310D01*
X140417663Y-55505573D01*
X140321530Y-55486451D01*
X140199009Y-55474384D01*
X140174449Y-55474384D01*
X140150000Y-55471976D01*
X139650000Y-55471976D01*
X139625551Y-55474384D01*
X139600991Y-55474384D01*
X139478470Y-55486451D01*
X139382337Y-55505573D01*
X139264526Y-55541310D01*
X139173970Y-55578819D01*
X139065390Y-55636856D01*
X138983891Y-55691312D01*
X138888723Y-55769415D01*
X138819415Y-55838723D01*
X138810160Y-55850000D01*
X138274570Y-55850000D01*
X138228400Y-55803830D01*
X138060520Y-55691656D01*
X137873982Y-55614390D01*
X137675954Y-55575000D01*
X137474046Y-55575000D01*
X137276018Y-55614390D01*
X137089480Y-55691656D01*
X136921600Y-55803830D01*
X136778830Y-55946600D01*
X136666656Y-56114480D01*
X136589390Y-56301018D01*
X136550000Y-56499046D01*
X136550000Y-56700954D01*
X136589390Y-56898982D01*
X136666656Y-57085520D01*
X136778830Y-57253400D01*
X136921600Y-57396170D01*
X137089480Y-57508344D01*
X137276018Y-57585610D01*
X137474046Y-57625000D01*
X137675954Y-57625000D01*
X137873982Y-57585610D01*
X138060520Y-57508344D01*
X138228400Y-57396170D01*
X138274570Y-57350000D01*
X138526900Y-57350000D01*
X138521976Y-57400000D01*
X138521976Y-57900000D01*
X138524384Y-57924449D01*
X138524384Y-57949009D01*
X138536451Y-58071530D01*
X138555573Y-58167663D01*
X138591310Y-58285474D01*
X138628819Y-58376030D01*
X138686856Y-58484610D01*
X138741312Y-58566109D01*
X138819415Y-58661277D01*
X138888723Y-58730585D01*
X138983891Y-58808688D01*
X139065390Y-58863144D01*
X139150001Y-58908369D01*
X139150000Y-59438310D01*
X139076089Y-59477817D01*
X138980920Y-59555920D01*
X138902817Y-59651089D01*
X138844781Y-59759666D01*
X138809043Y-59877479D01*
X138796976Y-60000000D01*
X138796976Y-61050000D01*
X138809043Y-61172521D01*
X138844781Y-61290334D01*
X138902817Y-61398911D01*
X138903711Y-61400000D01*
X138902817Y-61401089D01*
X138890036Y-61425000D01*
X138137436Y-61425000D01*
X134050000Y-57337564D01*
X134050000Y-51833024D01*
X134558240Y-51833024D01*
X134747435Y-51814390D01*
X134929360Y-51759204D01*
X135097023Y-51669586D01*
X135243981Y-51548981D01*
X135364586Y-51402023D01*
X135454204Y-51234360D01*
X135509390Y-51052435D01*
X135528024Y-50863240D01*
X135528024Y-49766760D01*
X135509390Y-49577565D01*
X135454204Y-49395640D01*
X135364586Y-49227977D01*
X135243981Y-49081019D01*
X135097023Y-48960414D01*
X134929360Y-48870796D01*
X134747435Y-48815610D01*
X134558240Y-48796976D01*
X132009412Y-48796976D01*
X131924116Y-48711680D01*
X131896712Y-48678288D01*
X131763476Y-48568944D01*
X131611468Y-48487695D01*
X131446530Y-48437661D01*
X131317979Y-48425000D01*
X131275000Y-48420767D01*
X131232021Y-48425000D01*
X109617978Y-48425000D01*
X109574999Y-48420767D01*
X109403469Y-48437661D01*
X109378413Y-48445262D01*
X109238532Y-48487695D01*
X109086524Y-48568944D01*
X108953288Y-48678288D01*
X108925883Y-48711681D01*
X99755433Y-57882131D01*
X99731056Y-57836524D01*
X99656940Y-57746214D01*
X99621712Y-57703288D01*
X99588326Y-57675889D01*
X89724117Y-47811681D01*
X89696712Y-47778288D01*
X89563476Y-47668944D01*
X89411468Y-47587695D01*
X89246530Y-47537661D01*
X89117979Y-47525000D01*
X89075000Y-47520767D01*
X89032021Y-47525000D01*
X82427437Y-47525000D01*
X80343472Y-45441035D01*
X80469150Y-45428657D01*
X80747189Y-45344315D01*
X81003431Y-45207351D01*
X81228028Y-45023028D01*
X81412351Y-44798431D01*
X81450000Y-44727995D01*
X81487649Y-44798431D01*
X81671972Y-45023028D01*
X81896569Y-45207351D01*
X82152811Y-45344315D01*
X82430850Y-45428657D01*
X82647548Y-45450000D01*
X82792452Y-45450000D01*
X83009150Y-45428657D01*
X83287189Y-45344315D01*
X83543431Y-45207351D01*
X83768028Y-45023028D01*
X83952351Y-44798431D01*
X83990000Y-44727995D01*
X84027649Y-44798431D01*
X84211972Y-45023028D01*
X84436569Y-45207351D01*
X84692811Y-45344315D01*
X84970850Y-45428657D01*
X85187548Y-45450000D01*
X85332452Y-45450000D01*
X85549150Y-45428657D01*
X85827189Y-45344315D01*
X86083431Y-45207351D01*
X86308028Y-45023028D01*
X86492351Y-44798431D01*
X86534706Y-44719190D01*
X86612188Y-44849496D01*
X86805617Y-45064423D01*
X87037260Y-45237485D01*
X87298214Y-45362030D01*
X87446628Y-45407045D01*
X87675000Y-45287812D01*
X87675000Y-44100000D01*
X87925000Y-44100000D01*
X87925000Y-45287812D01*
X88153372Y-45407045D01*
X88301786Y-45362030D01*
X88562740Y-45237485D01*
X88794383Y-45064423D01*
X88987812Y-44849496D01*
X89135594Y-44600962D01*
X89232050Y-44328373D01*
X89113449Y-44100000D01*
X87925000Y-44100000D01*
X87675000Y-44100000D01*
X87655000Y-44100000D01*
X87655000Y-43850000D01*
X87675000Y-43850000D01*
X87675000Y-42662188D01*
X87925000Y-42662188D01*
X87925000Y-43850000D01*
X89113449Y-43850000D01*
X89232050Y-43621627D01*
X89135594Y-43349038D01*
X88987812Y-43100504D01*
X88794383Y-42885577D01*
X88618229Y-42753971D01*
X101850000Y-42753971D01*
X101850000Y-42946029D01*
X101887468Y-43134397D01*
X101960966Y-43311836D01*
X102067668Y-43471527D01*
X102203473Y-43607332D01*
X102363164Y-43714034D01*
X102540603Y-43787532D01*
X102728971Y-43825000D01*
X102921029Y-43825000D01*
X103109397Y-43787532D01*
X103286836Y-43714034D01*
X103446527Y-43607332D01*
X103582332Y-43471527D01*
X103675000Y-43332839D01*
X103767668Y-43471527D01*
X103903473Y-43607332D01*
X104063164Y-43714034D01*
X104240603Y-43787532D01*
X104428971Y-43825000D01*
X104621029Y-43825000D01*
X104809397Y-43787532D01*
X104986836Y-43714034D01*
X105146527Y-43607332D01*
X105282332Y-43471527D01*
X105389034Y-43311836D01*
X105462532Y-43134397D01*
X105500000Y-42946029D01*
X105500000Y-42799650D01*
X109880000Y-42799650D01*
X109880000Y-43080350D01*
X109934762Y-43355657D01*
X110042181Y-43614991D01*
X110198130Y-43848385D01*
X110396615Y-44046870D01*
X110630009Y-44202819D01*
X110647346Y-44210000D01*
X110630009Y-44217181D01*
X110396615Y-44373130D01*
X110198130Y-44571615D01*
X110042181Y-44805009D01*
X109934762Y-45064343D01*
X109880000Y-45339650D01*
X109880000Y-45620350D01*
X109934762Y-45895657D01*
X110042181Y-46154991D01*
X110198130Y-46388385D01*
X110396615Y-46586870D01*
X110630009Y-46742819D01*
X110889343Y-46850238D01*
X111164650Y-46905000D01*
X111445350Y-46905000D01*
X111720657Y-46850238D01*
X111979991Y-46742819D01*
X112213385Y-46586870D01*
X112411870Y-46388385D01*
X112567819Y-46154991D01*
X112675238Y-45895657D01*
X112730000Y-45620350D01*
X112730000Y-45339650D01*
X112675238Y-45064343D01*
X112567819Y-44805009D01*
X112411870Y-44571615D01*
X112213385Y-44373130D01*
X111979991Y-44217181D01*
X111962654Y-44210000D01*
X111979991Y-44202819D01*
X112213385Y-44046870D01*
X112411870Y-43848385D01*
X112567819Y-43614991D01*
X112675238Y-43355657D01*
X112730000Y-43080350D01*
X112730000Y-42799650D01*
X112675238Y-42524343D01*
X112567819Y-42265009D01*
X112411870Y-42031615D01*
X112213385Y-41833130D01*
X111979991Y-41677181D01*
X111720657Y-41569762D01*
X111445350Y-41515000D01*
X111164650Y-41515000D01*
X110889343Y-41569762D01*
X110630009Y-41677181D01*
X110396615Y-41833130D01*
X110198130Y-42031615D01*
X110042181Y-42265009D01*
X109934762Y-42524343D01*
X109880000Y-42799650D01*
X105500000Y-42799650D01*
X105500000Y-42753971D01*
X105462532Y-42565603D01*
X105389034Y-42388164D01*
X105282332Y-42228473D01*
X105146527Y-42092668D01*
X104986836Y-41985966D01*
X104809397Y-41912468D01*
X104621029Y-41875000D01*
X104428971Y-41875000D01*
X104240603Y-41912468D01*
X104063164Y-41985966D01*
X103903473Y-42092668D01*
X103767668Y-42228473D01*
X103675000Y-42367161D01*
X103582332Y-42228473D01*
X103446527Y-42092668D01*
X103286836Y-41985966D01*
X103109397Y-41912468D01*
X102921029Y-41875000D01*
X102728971Y-41875000D01*
X102540603Y-41912468D01*
X102363164Y-41985966D01*
X102203473Y-42092668D01*
X102067668Y-42228473D01*
X101960966Y-42388164D01*
X101887468Y-42565603D01*
X101850000Y-42753971D01*
X88618229Y-42753971D01*
X88562740Y-42712515D01*
X88301786Y-42587970D01*
X88153372Y-42542955D01*
X87925000Y-42662188D01*
X87675000Y-42662188D01*
X87446628Y-42542955D01*
X87298214Y-42587970D01*
X87037260Y-42712515D01*
X86805617Y-42885577D01*
X86612188Y-43100504D01*
X86534706Y-43230810D01*
X86492351Y-43151569D01*
X86308028Y-42926972D01*
X86083431Y-42742649D01*
X85827189Y-42605685D01*
X85549150Y-42521343D01*
X85332452Y-42500000D01*
X85187548Y-42500000D01*
X84970850Y-42521343D01*
X84692811Y-42605685D01*
X84436569Y-42742649D01*
X84211972Y-42926972D01*
X84027649Y-43151569D01*
X83990000Y-43222005D01*
X83952351Y-43151569D01*
X83768028Y-42926972D01*
X83543431Y-42742649D01*
X83287189Y-42605685D01*
X83009150Y-42521343D01*
X82792452Y-42500000D01*
X82647548Y-42500000D01*
X82430850Y-42521343D01*
X82152811Y-42605685D01*
X81896569Y-42742649D01*
X81671972Y-42926972D01*
X81487649Y-43151569D01*
X81450000Y-43222005D01*
X81412351Y-43151569D01*
X81228028Y-42926972D01*
X81003431Y-42742649D01*
X80747189Y-42605685D01*
X80469150Y-42521343D01*
X80252452Y-42500000D01*
X80107548Y-42500000D01*
X79890850Y-42521343D01*
X79612811Y-42605685D01*
X79356569Y-42742649D01*
X79131972Y-42926972D01*
X78947649Y-43151569D01*
X78910000Y-43222005D01*
X78872351Y-43151569D01*
X78688028Y-42926972D01*
X78463431Y-42742649D01*
X78207189Y-42605685D01*
X77929150Y-42521343D01*
X77712452Y-42500000D01*
X77567548Y-42500000D01*
X77350850Y-42521343D01*
X77072811Y-42605685D01*
X76816569Y-42742649D01*
X76591972Y-42926972D01*
X76556254Y-42970494D01*
X76530219Y-42884666D01*
X76472183Y-42776089D01*
X76394080Y-42680920D01*
X76298911Y-42602817D01*
X76190334Y-42544781D01*
X76072521Y-42509043D01*
X75950000Y-42496976D01*
X74250000Y-42496976D01*
X74127479Y-42509043D01*
X74009666Y-42544781D01*
X73901089Y-42602817D01*
X73805920Y-42680920D01*
X73727817Y-42776089D01*
X73669781Y-42884666D01*
X73634043Y-43002479D01*
X73621976Y-43125000D01*
X73621976Y-44825000D01*
X73634043Y-44947521D01*
X73669781Y-45065334D01*
X73727817Y-45173911D01*
X73805920Y-45269080D01*
X73901089Y-45347183D01*
X74009666Y-45405219D01*
X74127479Y-45440957D01*
X74250000Y-45453024D01*
X75950000Y-45453024D01*
X76072521Y-45440957D01*
X76190334Y-45405219D01*
X76298911Y-45347183D01*
X76394080Y-45269080D01*
X76472183Y-45173911D01*
X76530219Y-45065334D01*
X76556254Y-44979506D01*
X76591972Y-45023028D01*
X76816569Y-45207351D01*
X77072811Y-45344315D01*
X77350850Y-45428657D01*
X77567548Y-45450000D01*
X77712452Y-45450000D01*
X77862760Y-45435196D01*
X81415888Y-48988325D01*
X81443288Y-49021712D01*
X81576524Y-49131056D01*
X81707548Y-49201089D01*
X81728532Y-49212305D01*
X81893470Y-49262339D01*
X82064999Y-49279233D01*
X82107978Y-49275000D01*
X88712564Y-49275000D01*
X98125000Y-58687437D01*
X98125001Y-59512563D01*
X93667356Y-63970208D01*
X93594080Y-63880920D01*
X93498911Y-63802817D01*
X93390334Y-63744781D01*
X93272521Y-63709043D01*
X93150000Y-63696976D01*
X92325264Y-63696976D01*
X92315957Y-63602479D01*
X92280219Y-63484666D01*
X92222183Y-63376089D01*
X92144080Y-63280920D01*
X92048911Y-63202817D01*
X91940334Y-63144781D01*
X91822521Y-63109043D01*
X91700000Y-63096976D01*
X91631250Y-63100000D01*
X91475000Y-63256250D01*
X91475000Y-64046976D01*
X91425000Y-64046976D01*
X91425000Y-63256250D01*
X91324868Y-63156118D01*
X91325514Y-62395908D01*
X91355219Y-62340334D01*
X91390957Y-62222521D01*
X91403024Y-62100000D01*
X91696976Y-62100000D01*
X91709043Y-62222521D01*
X91744781Y-62340334D01*
X91802817Y-62448911D01*
X91880920Y-62544080D01*
X91976089Y-62622183D01*
X92084666Y-62680219D01*
X92202479Y-62715957D01*
X92325000Y-62728024D01*
X92756250Y-62725000D01*
X92912500Y-62568750D01*
X92912500Y-61350000D01*
X93162500Y-61350000D01*
X93162500Y-62568750D01*
X93318750Y-62725000D01*
X93750000Y-62728024D01*
X93872521Y-62715957D01*
X93990334Y-62680219D01*
X94098911Y-62622183D01*
X94194080Y-62544080D01*
X94272183Y-62448911D01*
X94330219Y-62340334D01*
X94365957Y-62222521D01*
X94378024Y-62100000D01*
X94375000Y-61506250D01*
X94218750Y-61350000D01*
X93162500Y-61350000D01*
X92912500Y-61350000D01*
X91856250Y-61350000D01*
X91700000Y-61506250D01*
X91696976Y-62100000D01*
X91403024Y-62100000D01*
X91403024Y-60350000D01*
X91696976Y-60350000D01*
X91700000Y-60943750D01*
X91856250Y-61100000D01*
X92912500Y-61100000D01*
X92912500Y-59881250D01*
X93162500Y-59881250D01*
X93162500Y-61100000D01*
X94218750Y-61100000D01*
X94375000Y-60943750D01*
X94378024Y-60350000D01*
X94365957Y-60227479D01*
X94330219Y-60109666D01*
X94272183Y-60001089D01*
X94194080Y-59905920D01*
X94098911Y-59827817D01*
X93990334Y-59769781D01*
X93872521Y-59734043D01*
X93750000Y-59721976D01*
X93318750Y-59725000D01*
X93162500Y-59881250D01*
X92912500Y-59881250D01*
X92756250Y-59725000D01*
X92325000Y-59721976D01*
X92202479Y-59734043D01*
X92084666Y-59769781D01*
X91976089Y-59827817D01*
X91880920Y-59905920D01*
X91802817Y-60001089D01*
X91744781Y-60109666D01*
X91709043Y-60227479D01*
X91696976Y-60350000D01*
X91403024Y-60350000D01*
X91390957Y-60227479D01*
X91355219Y-60109666D01*
X91327502Y-60057812D01*
X91328125Y-59325531D01*
X91316116Y-59203069D01*
X91280550Y-59085823D01*
X91222794Y-58977769D01*
X91145067Y-58883058D01*
X91050356Y-58805331D01*
X90942302Y-58747575D01*
X90825056Y-58712009D01*
X90703125Y-58700000D01*
X86353125Y-58700000D01*
X86231715Y-58711906D01*
X86114439Y-58747372D01*
X86006336Y-58805036D01*
X85911559Y-58882683D01*
X85833752Y-58977327D01*
X85775904Y-59085332D01*
X85740238Y-59202547D01*
X85728125Y-59324469D01*
X85726977Y-60674220D01*
X85721976Y-60725000D01*
X85721976Y-61725000D01*
X85726049Y-61766350D01*
X85724190Y-63952525D01*
X85721976Y-63975000D01*
X85721976Y-66075000D01*
X85722381Y-66079115D01*
X85721875Y-66674469D01*
X85733884Y-66796931D01*
X85769450Y-66914177D01*
X85827206Y-67022231D01*
X85904933Y-67116942D01*
X85999644Y-67194669D01*
X86107698Y-67252425D01*
X86224944Y-67287991D01*
X86346875Y-67300000D01*
X90696875Y-67300000D01*
X90818285Y-67288094D01*
X90935561Y-67252628D01*
X91043664Y-67194964D01*
X91138441Y-67117317D01*
X91216248Y-67022673D01*
X91254844Y-66950612D01*
X91268750Y-66950000D01*
X91425000Y-66793750D01*
X91425000Y-66003024D01*
X91475000Y-66003024D01*
X91475000Y-66793750D01*
X91631250Y-66950000D01*
X91700000Y-66953024D01*
X91822521Y-66940957D01*
X91940334Y-66905219D01*
X92048911Y-66847183D01*
X92144080Y-66769080D01*
X92222183Y-66673911D01*
X92280219Y-66565334D01*
X92315957Y-66447521D01*
X92325264Y-66353024D01*
X93150000Y-66353024D01*
X93272521Y-66340957D01*
X93390334Y-66305219D01*
X93498911Y-66247183D01*
X93594080Y-66169080D01*
X93672183Y-66073911D01*
X93677161Y-66064597D01*
X99475001Y-71862438D01*
X99475000Y-85232021D01*
X99470767Y-85275000D01*
X99484406Y-85413476D01*
X99487661Y-85446529D01*
X99537695Y-85611467D01*
X99618944Y-85763475D01*
X99728288Y-85896712D01*
X99761681Y-85924117D01*
X104755888Y-90918325D01*
X104783288Y-90951712D01*
X104838121Y-90996712D01*
X104916524Y-91061056D01*
X105068532Y-91142305D01*
X105233470Y-91192339D01*
X105405000Y-91209233D01*
X105447979Y-91205000D01*
X107749228Y-91205000D01*
X107805920Y-91274080D01*
X107901089Y-91352183D01*
X108009666Y-91410219D01*
X108127479Y-91445957D01*
X108250000Y-91458024D01*
X109550000Y-91458024D01*
X109550000Y-97515610D01*
X109546613Y-97550000D01*
X109560128Y-97687224D01*
X109600155Y-97819175D01*
X109665155Y-97940781D01*
X109752630Y-98047370D01*
X109830894Y-98111599D01*
X109859219Y-98134845D01*
X109980825Y-98199845D01*
X110112776Y-98239872D01*
X110250000Y-98253387D01*
X110284390Y-98250000D01*
X115271976Y-98250000D01*
X115271976Y-99117364D01*
X114514341Y-99875000D01*
X103925002Y-99875000D01*
X103925002Y-99749046D01*
X103885612Y-99551018D01*
X103808346Y-99364480D01*
X103706795Y-99212499D01*
X103808344Y-99060520D01*
X103885610Y-98873982D01*
X103925000Y-98675954D01*
X103925000Y-98474046D01*
X103885610Y-98276018D01*
X103808344Y-98089480D01*
X103696170Y-97921600D01*
X103553400Y-97778830D01*
X103385520Y-97666656D01*
X103198982Y-97589390D01*
X103000954Y-97550000D01*
X102799046Y-97550000D01*
X102601018Y-97589390D01*
X102414480Y-97666656D01*
X102246600Y-97778830D01*
X102200430Y-97825000D01*
X101460660Y-97825000D01*
X97200000Y-93564341D01*
X97200000Y-80950016D01*
X97203627Y-80913188D01*
X97200000Y-80876360D01*
X97200000Y-80876353D01*
X97189147Y-80766162D01*
X97146261Y-80624787D01*
X97076619Y-80494495D01*
X96982895Y-80380293D01*
X96954287Y-80356815D01*
X91497685Y-74900214D01*
X91653400Y-74796168D01*
X91796170Y-74653398D01*
X91908344Y-74485518D01*
X91985610Y-74298980D01*
X92025000Y-74100952D01*
X92025000Y-73899044D01*
X91985610Y-73701016D01*
X91908344Y-73514478D01*
X91796170Y-73346598D01*
X91653400Y-73203828D01*
X91485520Y-73091654D01*
X91298982Y-73014388D01*
X91100954Y-72974998D01*
X91035661Y-72974998D01*
X90817616Y-72756954D01*
X90921170Y-72653400D01*
X91033344Y-72485520D01*
X91110610Y-72298982D01*
X91150000Y-72100954D01*
X91150000Y-71899046D01*
X91110610Y-71701018D01*
X91033344Y-71514480D01*
X90921170Y-71346600D01*
X90778400Y-71203830D01*
X90610520Y-71091656D01*
X90423982Y-71014390D01*
X90225954Y-70975000D01*
X90024046Y-70975000D01*
X89826018Y-71014390D01*
X89639480Y-71091656D01*
X89471600Y-71203830D01*
X89350430Y-71325000D01*
X87746869Y-71325000D01*
X87690334Y-71294781D01*
X87572521Y-71259043D01*
X87450000Y-71246976D01*
X85540441Y-71246976D01*
X85614034Y-71136836D01*
X85687532Y-70959397D01*
X85725000Y-70771029D01*
X85725000Y-70578971D01*
X85687532Y-70390603D01*
X85614034Y-70213164D01*
X85507332Y-70053473D01*
X85371527Y-69917668D01*
X85211836Y-69810966D01*
X85075000Y-69754286D01*
X85075000Y-67306726D01*
X85089177Y-67302425D01*
X85197231Y-67244669D01*
X85291942Y-67166942D01*
X85369669Y-67072231D01*
X85427425Y-66964177D01*
X85462991Y-66846931D01*
X85475000Y-66725000D01*
X85475000Y-66105704D01*
X85478024Y-66075000D01*
X85478024Y-63975000D01*
X85475000Y-63944296D01*
X85475000Y-61755704D01*
X85478024Y-61725000D01*
X85478024Y-60725000D01*
X85475000Y-60694296D01*
X85475000Y-59325000D01*
X85462991Y-59203069D01*
X85427425Y-59085823D01*
X85369669Y-58977769D01*
X85291942Y-58883058D01*
X85197231Y-58805331D01*
X85089177Y-58747575D01*
X84971931Y-58712009D01*
X84850000Y-58700000D01*
X81075000Y-58700000D01*
X80953069Y-58712009D01*
X80835823Y-58747575D01*
X80727769Y-58805331D01*
X80633058Y-58883058D01*
X80555331Y-58977769D01*
X80497575Y-59085823D01*
X80462009Y-59203069D01*
X80450000Y-59325000D01*
X80450000Y-60126900D01*
X80400000Y-60121976D01*
X80156250Y-60125000D01*
X80000000Y-60281250D01*
X80000000Y-61100000D01*
X80020000Y-61100000D01*
X80020000Y-61350000D01*
X80000000Y-61350000D01*
X80000000Y-62168750D01*
X80156250Y-62325000D01*
X80400000Y-62328024D01*
X80450000Y-62323100D01*
X80450000Y-63717379D01*
X80422521Y-63709043D01*
X80300000Y-63696976D01*
X80006250Y-63700000D01*
X79850000Y-63856250D01*
X79850000Y-64900000D01*
X79870000Y-64900000D01*
X79870000Y-65150000D01*
X79850000Y-65150000D01*
X79850000Y-66193750D01*
X80006250Y-66350000D01*
X80300000Y-66353024D01*
X80422521Y-66340957D01*
X80450000Y-66332621D01*
X80450000Y-66725000D01*
X80462009Y-66846931D01*
X80497575Y-66964177D01*
X80555331Y-67072231D01*
X80633058Y-67166942D01*
X80727769Y-67244669D01*
X80835823Y-67302425D01*
X80953069Y-67337991D01*
X81025000Y-67345075D01*
X81025000Y-71246976D01*
X78650000Y-71246976D01*
X78527479Y-71259043D01*
X78409666Y-71294781D01*
X78353131Y-71325000D01*
X74686827Y-71325000D01*
X74650000Y-71321373D01*
X74613172Y-71325000D01*
X74613165Y-71325000D01*
X74502974Y-71335853D01*
X74361599Y-71378739D01*
X74231307Y-71448381D01*
X74150766Y-71514480D01*
X74117105Y-71542105D01*
X74093626Y-71570714D01*
X73345801Y-72318540D01*
X73317187Y-72342023D01*
X73223463Y-72456226D01*
X73153821Y-72586518D01*
X73110935Y-72727893D01*
X73100082Y-72838084D01*
X73100082Y-72838091D01*
X73096455Y-72874918D01*
X73100082Y-72911745D01*
X73100082Y-73275430D01*
X73053912Y-73321600D01*
X72941738Y-73489480D01*
X72864472Y-73676018D01*
X72825082Y-73874046D01*
X72825082Y-74075954D01*
X72864472Y-74273982D01*
X72941738Y-74460520D01*
X73053912Y-74628400D01*
X73196682Y-74771170D01*
X73364562Y-74883344D01*
X73551100Y-74960610D01*
X73749128Y-75000000D01*
X73951036Y-75000000D01*
X74149064Y-74960610D01*
X74335602Y-74883344D01*
X74503482Y-74771170D01*
X74646252Y-74628400D01*
X74758426Y-74460520D01*
X74835692Y-74273982D01*
X74875082Y-74075954D01*
X74875082Y-73874046D01*
X74859819Y-73797315D01*
X74999052Y-73825010D01*
X75164727Y-73825010D01*
X75150000Y-73899046D01*
X75150000Y-74100954D01*
X75189390Y-74298982D01*
X75266656Y-74485520D01*
X75378830Y-74653400D01*
X75521600Y-74796170D01*
X75689480Y-74908344D01*
X75876018Y-74985610D01*
X76074046Y-75025000D01*
X76239340Y-75025000D01*
X73720715Y-77543626D01*
X73692106Y-77567105D01*
X73668627Y-77595714D01*
X73668624Y-77595717D01*
X73667144Y-77597521D01*
X73598382Y-77681307D01*
X73575028Y-77725000D01*
X73528739Y-77811600D01*
X73485853Y-77952975D01*
X73471373Y-78100000D01*
X73475001Y-78136837D01*
X73475000Y-91174584D01*
X73471373Y-91211411D01*
X73475000Y-91248238D01*
X73475000Y-91248245D01*
X73485853Y-91358436D01*
X73528739Y-91499811D01*
X73598381Y-91630103D01*
X73692105Y-91744306D01*
X73720720Y-91767790D01*
X77632226Y-95679297D01*
X77655705Y-95707906D01*
X77769907Y-95801630D01*
X77900199Y-95871272D01*
X78041574Y-95914158D01*
X78151765Y-95925011D01*
X78151772Y-95925011D01*
X78188600Y-95928638D01*
X78225427Y-95925011D01*
X84591532Y-95925011D01*
X91145806Y-102479286D01*
X91169285Y-102507895D01*
X91283487Y-102601619D01*
X91413779Y-102671261D01*
X91555154Y-102714147D01*
X91665345Y-102725000D01*
X91665352Y-102725000D01*
X91702180Y-102728627D01*
X91739008Y-102725000D01*
X124703795Y-102725000D01*
X124740622Y-102728627D01*
X124777449Y-102725000D01*
X124777457Y-102725000D01*
X124887648Y-102714147D01*
X125029023Y-102671261D01*
X125054999Y-102657377D01*
X125066656Y-102685520D01*
X125178830Y-102853400D01*
X125321600Y-102996170D01*
X125489480Y-103108344D01*
X125676018Y-103185610D01*
X125874046Y-103225000D01*
X126075954Y-103225000D01*
X126273982Y-103185610D01*
X126460520Y-103108344D01*
X126628400Y-102996170D01*
X126771170Y-102853400D01*
X126883344Y-102685520D01*
X126960610Y-102498982D01*
X127000000Y-102300954D01*
X127000000Y-102210659D01*
X129032637Y-100178024D01*
X129600000Y-100178024D01*
X129722521Y-100165957D01*
X129840334Y-100130219D01*
X129948911Y-100072183D01*
X130044080Y-99994080D01*
X130122183Y-99898911D01*
X130180219Y-99790334D01*
X130215957Y-99672521D01*
X130228024Y-99550000D01*
X130228024Y-98250000D01*
X135215610Y-98250000D01*
X135250000Y-98253387D01*
X135284390Y-98250000D01*
X135387224Y-98239872D01*
X135519175Y-98199845D01*
X135640781Y-98134845D01*
X135747370Y-98047370D01*
X135834845Y-97940781D01*
X135899845Y-97819175D01*
X135939872Y-97687224D01*
X135953387Y-97550000D01*
X135950000Y-97515610D01*
X135950000Y-91458024D01*
X137250000Y-91458024D01*
X137372521Y-91445957D01*
X137490334Y-91410219D01*
X137598911Y-91352183D01*
X137694080Y-91274080D01*
X137772183Y-91178911D01*
X137830219Y-91070334D01*
X137865957Y-90952521D01*
X137878024Y-90830000D01*
X137878024Y-89830000D01*
X137865957Y-89707479D01*
X137830219Y-89589666D01*
X137772183Y-89481089D01*
X137694080Y-89385920D01*
X137598911Y-89307817D01*
X137490334Y-89249781D01*
X137372521Y-89214043D01*
X137250000Y-89201976D01*
X135950000Y-89201976D01*
X135950000Y-88918024D01*
X137250000Y-88918024D01*
X137372521Y-88905957D01*
X137490334Y-88870219D01*
X137598911Y-88812183D01*
X137694080Y-88734080D01*
X137772183Y-88638911D01*
X137830219Y-88530334D01*
X137865957Y-88412521D01*
X137878024Y-88290000D01*
X137878024Y-87707635D01*
X146704293Y-78881368D01*
X146732895Y-78857895D01*
X146756369Y-78829292D01*
X146756376Y-78829285D01*
X146826618Y-78743694D01*
X146826619Y-78743693D01*
X146896261Y-78613401D01*
X146939147Y-78472026D01*
X146950000Y-78361835D01*
X146950000Y-78361826D01*
X146953627Y-78325001D01*
X146950000Y-78288176D01*
X146950000Y-58908369D01*
X147034610Y-58863144D01*
X147116109Y-58808688D01*
X147211277Y-58730585D01*
X147280585Y-58661277D01*
X147358688Y-58566109D01*
X147413144Y-58484610D01*
X147471181Y-58376030D01*
X147508690Y-58285474D01*
X147544427Y-58167663D01*
X147563549Y-58071530D01*
X147575616Y-57949009D01*
X147575616Y-57924449D01*
X147578024Y-57900000D01*
X147578024Y-57400000D01*
X147565957Y-57277479D01*
X147557621Y-57250000D01*
X147565957Y-57222521D01*
X147578024Y-57100000D01*
X147578024Y-56600000D01*
X147575616Y-56575551D01*
X147575616Y-56550991D01*
X147563549Y-56428470D01*
X147544427Y-56332337D01*
X147540679Y-56319980D01*
X149879287Y-53981373D01*
X149907895Y-53957895D01*
X150001619Y-53843693D01*
X150071261Y-53713401D01*
X150114147Y-53572026D01*
X150125000Y-53461835D01*
X150125000Y-53461828D01*
X150128627Y-53425000D01*
X150125000Y-53388172D01*
X150125000Y-47686827D01*
X150128627Y-47649999D01*
X150125000Y-47613172D01*
X150125000Y-47613165D01*
X150114147Y-47502974D01*
X150071261Y-47361599D01*
X150001619Y-47231307D01*
X149938029Y-47153823D01*
X149931376Y-47145716D01*
X149931374Y-47145714D01*
X149907895Y-47117105D01*
X149879286Y-47093626D01*
X148853024Y-46067364D01*
X148853024Y-44500000D01*
X148840957Y-44377479D01*
X148805219Y-44259666D01*
X148747183Y-44151089D01*
X148725772Y-44125000D01*
X148747183Y-44098911D01*
X148805219Y-43990334D01*
X148840957Y-43872521D01*
X148853024Y-43750000D01*
X148850000Y-43031250D01*
X148693750Y-42875000D01*
X147050000Y-42875000D01*
X147050000Y-42895000D01*
X146925000Y-42895000D01*
X146925000Y-42605000D01*
X147050000Y-42605000D01*
X147050000Y-42625000D01*
X148693750Y-42625000D01*
X148850000Y-42468750D01*
X148853024Y-41750000D01*
X148840957Y-41627479D01*
X148805219Y-41509666D01*
X148747183Y-41401089D01*
X148669080Y-41305920D01*
X148573911Y-41227817D01*
X148465334Y-41169781D01*
X148347521Y-41134043D01*
X148255704Y-41125000D01*
X155125000Y-41125000D01*
X155125000Y-108875000D01*
X72375000Y-108875000D01*
X72375000Y-97520102D01*
X81325000Y-97520102D01*
X81325000Y-97859898D01*
X81391290Y-98193164D01*
X81521324Y-98507094D01*
X81710105Y-98789624D01*
X81950376Y-99029895D01*
X82232906Y-99218676D01*
X82546836Y-99348710D01*
X82880102Y-99415000D01*
X83219898Y-99415000D01*
X83553164Y-99348710D01*
X83867094Y-99218676D01*
X84149624Y-99029895D01*
X84389895Y-98789624D01*
X84578676Y-98507094D01*
X84708710Y-98193164D01*
X84775000Y-97859898D01*
X84775000Y-97520102D01*
X84708710Y-97186836D01*
X84578676Y-96872906D01*
X84389895Y-96590376D01*
X84149624Y-96350105D01*
X83867094Y-96161324D01*
X83553164Y-96031290D01*
X83219898Y-95965000D01*
X82880102Y-95965000D01*
X82546836Y-96031290D01*
X82232906Y-96161324D01*
X81950376Y-96350105D01*
X81710105Y-96590376D01*
X81521324Y-96872906D01*
X81391290Y-97186836D01*
X81325000Y-97520102D01*
X72375000Y-97520102D01*
X72375000Y-65725000D01*
X78521976Y-65725000D01*
X78534043Y-65847521D01*
X78569781Y-65965334D01*
X78627817Y-66073911D01*
X78705920Y-66169080D01*
X78801089Y-66247183D01*
X78909666Y-66305219D01*
X79027479Y-66340957D01*
X79150000Y-66353024D01*
X79443750Y-66350000D01*
X79600000Y-66193750D01*
X79600000Y-65150000D01*
X78681250Y-65150000D01*
X78525000Y-65306250D01*
X78521976Y-65725000D01*
X72375000Y-65725000D01*
X72375000Y-64325000D01*
X78521976Y-64325000D01*
X78525000Y-64743750D01*
X78681250Y-64900000D01*
X79600000Y-64900000D01*
X79600000Y-63856250D01*
X79443750Y-63700000D01*
X79150000Y-63696976D01*
X79027479Y-63709043D01*
X78909666Y-63744781D01*
X78801089Y-63802817D01*
X78705920Y-63880920D01*
X78627817Y-63976089D01*
X78569781Y-64084666D01*
X78534043Y-64202479D01*
X78521976Y-64325000D01*
X72375000Y-64325000D01*
X72375000Y-61700000D01*
X78721976Y-61700000D01*
X78734043Y-61822521D01*
X78769781Y-61940334D01*
X78827817Y-62048911D01*
X78905920Y-62144080D01*
X79001089Y-62222183D01*
X79109666Y-62280219D01*
X79227479Y-62315957D01*
X79350000Y-62328024D01*
X79593750Y-62325000D01*
X79750000Y-62168750D01*
X79750000Y-61350000D01*
X78881250Y-61350000D01*
X78725000Y-61506250D01*
X78721976Y-61700000D01*
X72375000Y-61700000D01*
X72375000Y-60750000D01*
X78721976Y-60750000D01*
X78725000Y-60943750D01*
X78881250Y-61100000D01*
X79750000Y-61100000D01*
X79750000Y-60281250D01*
X79593750Y-60125000D01*
X79350000Y-60121976D01*
X79227479Y-60134043D01*
X79109666Y-60169781D01*
X79001089Y-60227817D01*
X78905920Y-60305920D01*
X78827817Y-60401089D01*
X78769781Y-60509666D01*
X78734043Y-60627479D01*
X78721976Y-60750000D01*
X72375000Y-60750000D01*
X72375000Y-52140102D01*
X81325000Y-52140102D01*
X81325000Y-52479898D01*
X81391290Y-52813164D01*
X81521324Y-53127094D01*
X81710105Y-53409624D01*
X81950376Y-53649895D01*
X82232906Y-53838676D01*
X82546836Y-53968710D01*
X82880102Y-54035000D01*
X83219898Y-54035000D01*
X83553164Y-53968710D01*
X83867094Y-53838676D01*
X84149624Y-53649895D01*
X84389895Y-53409624D01*
X84578676Y-53127094D01*
X84708710Y-52813164D01*
X84775000Y-52479898D01*
X84775000Y-52140102D01*
X84708710Y-51806836D01*
X84578676Y-51492906D01*
X84389895Y-51210376D01*
X84149624Y-50970105D01*
X83867094Y-50781324D01*
X83553164Y-50651290D01*
X83219898Y-50585000D01*
X82880102Y-50585000D01*
X82546836Y-50651290D01*
X82232906Y-50781324D01*
X81950376Y-50970105D01*
X81710105Y-51210376D01*
X81521324Y-51492906D01*
X81391290Y-51806836D01*
X81325000Y-52140102D01*
X72375000Y-52140102D01*
X72375000Y-41125000D01*
X113725001Y-41125000D01*
X113725000Y-47115610D01*
G36*
X94799979Y-81635639D02*
G01*
X94799978Y-94213151D01*
X94796351Y-94249978D01*
X94799978Y-94286805D01*
X94799978Y-94286812D01*
X94810831Y-94397003D01*
X94853717Y-94538378D01*
X94923359Y-94668670D01*
X95017083Y-94782873D01*
X95045698Y-94806357D01*
X100564340Y-100325000D01*
X92385660Y-100325000D01*
X84475000Y-92414341D01*
X84475000Y-91681837D01*
X84587479Y-91715957D01*
X84710000Y-91728024D01*
X84728750Y-91725000D01*
X84885000Y-91568750D01*
X84885000Y-90475000D01*
X84865000Y-90475000D01*
X84865000Y-90225000D01*
X84885000Y-90225000D01*
X84885000Y-90205000D01*
X85135000Y-90205000D01*
X85135000Y-90225000D01*
X85155000Y-90225000D01*
X85155000Y-90475000D01*
X85135000Y-90475000D01*
X85135000Y-91568750D01*
X85291250Y-91725000D01*
X85310000Y-91728024D01*
X85432521Y-91715957D01*
X85550334Y-91680219D01*
X85645000Y-91629619D01*
X85739666Y-91680219D01*
X85857479Y-91715957D01*
X85980000Y-91728024D01*
X86580000Y-91728024D01*
X86702521Y-91715957D01*
X86820334Y-91680219D01*
X86915000Y-91629619D01*
X87009666Y-91680219D01*
X87127479Y-91715957D01*
X87250000Y-91728024D01*
X87850000Y-91728024D01*
X87972521Y-91715957D01*
X88090334Y-91680219D01*
X88185000Y-91629619D01*
X88279666Y-91680219D01*
X88397479Y-91715957D01*
X88520000Y-91728024D01*
X88538750Y-91725000D01*
X88695000Y-91568750D01*
X88695000Y-90475000D01*
X88945000Y-90475000D01*
X88945000Y-91568750D01*
X89101250Y-91725000D01*
X89120000Y-91728024D01*
X89242521Y-91715957D01*
X89360334Y-91680219D01*
X89468911Y-91622183D01*
X89564080Y-91544080D01*
X89642183Y-91448911D01*
X89700219Y-91340334D01*
X89735957Y-91222521D01*
X89748024Y-91100000D01*
X89745000Y-90631250D01*
X89588750Y-90475000D01*
X88945000Y-90475000D01*
X88695000Y-90475000D01*
X88675000Y-90475000D01*
X88675000Y-90225000D01*
X88695000Y-90225000D01*
X88695000Y-89131250D01*
X88945000Y-89131250D01*
X88945000Y-90225000D01*
X89588750Y-90225000D01*
X89745000Y-90068750D01*
X89748024Y-89600000D01*
X89735957Y-89477479D01*
X89700219Y-89359666D01*
X89642183Y-89251089D01*
X89564080Y-89155920D01*
X89468911Y-89077817D01*
X89360334Y-89019781D01*
X89242521Y-88984043D01*
X89120000Y-88971976D01*
X89101250Y-88975000D01*
X88945000Y-89131250D01*
X88695000Y-89131250D01*
X88538750Y-88975000D01*
X88520000Y-88971976D01*
X88397479Y-88984043D01*
X88279666Y-89019781D01*
X88185000Y-89070381D01*
X88090334Y-89019781D01*
X87972521Y-88984043D01*
X87850000Y-88971976D01*
X87250000Y-88971976D01*
X87127479Y-88984043D01*
X87009666Y-89019781D01*
X86915000Y-89070381D01*
X86845864Y-89033427D01*
X85249116Y-87436680D01*
X85221712Y-87403288D01*
X85088476Y-87293944D01*
X84936468Y-87212695D01*
X84771530Y-87162661D01*
X84642979Y-87150000D01*
X84600000Y-87145767D01*
X84557021Y-87150000D01*
X81387437Y-87150000D01*
X80805000Y-86567564D01*
X80805000Y-86318668D01*
X80900000Y-86328024D01*
X81500000Y-86328024D01*
X81622521Y-86315957D01*
X81740334Y-86280219D01*
X81835000Y-86229619D01*
X81929666Y-86280219D01*
X82047479Y-86315957D01*
X82170000Y-86328024D01*
X82770000Y-86328024D01*
X82892521Y-86315957D01*
X83010334Y-86280219D01*
X83105000Y-86229619D01*
X83199666Y-86280219D01*
X83317479Y-86315957D01*
X83440000Y-86328024D01*
X84040000Y-86328024D01*
X84162521Y-86315957D01*
X84280334Y-86280219D01*
X84375000Y-86229619D01*
X84469666Y-86280219D01*
X84587479Y-86315957D01*
X84710000Y-86328024D01*
X85310000Y-86328024D01*
X85432521Y-86315957D01*
X85550334Y-86280219D01*
X85645000Y-86229619D01*
X85739666Y-86280219D01*
X85857479Y-86315957D01*
X85980000Y-86328024D01*
X86580000Y-86328024D01*
X86702521Y-86315957D01*
X86820334Y-86280219D01*
X86915000Y-86229619D01*
X87009666Y-86280219D01*
X87127479Y-86315957D01*
X87250000Y-86328024D01*
X87850000Y-86328024D01*
X87972521Y-86315957D01*
X88090334Y-86280219D01*
X88185000Y-86229619D01*
X88279666Y-86280219D01*
X88397479Y-86315957D01*
X88520000Y-86328024D01*
X89120000Y-86328024D01*
X89242521Y-86315957D01*
X89360334Y-86280219D01*
X89468911Y-86222183D01*
X89564080Y-86144080D01*
X89642183Y-86048911D01*
X89700219Y-85940334D01*
X89735957Y-85822521D01*
X89748024Y-85700000D01*
X89748024Y-84200000D01*
X89735957Y-84077479D01*
X89700219Y-83959666D01*
X89642183Y-83851089D01*
X89564080Y-83755920D01*
X89468911Y-83677817D01*
X89360334Y-83619781D01*
X89242521Y-83584043D01*
X89120000Y-83571976D01*
X88520000Y-83571976D01*
X88397479Y-83584043D01*
X88279666Y-83619781D01*
X88185000Y-83670381D01*
X88090334Y-83619781D01*
X87972521Y-83584043D01*
X87850000Y-83571976D01*
X87250000Y-83571976D01*
X87127479Y-83584043D01*
X87009666Y-83619781D01*
X86915000Y-83670381D01*
X86905406Y-83665253D01*
X87254517Y-83316143D01*
X87299046Y-83325000D01*
X87500954Y-83325000D01*
X87698982Y-83285610D01*
X87885520Y-83208344D01*
X88053400Y-83096170D01*
X88196170Y-82953400D01*
X88308344Y-82785520D01*
X88385610Y-82598982D01*
X88425000Y-82400954D01*
X88425000Y-82299996D01*
X90300430Y-82299996D01*
X90346600Y-82346166D01*
X90514480Y-82458340D01*
X90701018Y-82535606D01*
X90899046Y-82574996D01*
X91100954Y-82574996D01*
X91298982Y-82535606D01*
X91485520Y-82458340D01*
X91653400Y-82346166D01*
X91796170Y-82203396D01*
X91908344Y-82035516D01*
X91985610Y-81848978D01*
X92025000Y-81650950D01*
X92025000Y-81449042D01*
X91985610Y-81251014D01*
X91908344Y-81064476D01*
X91796170Y-80896596D01*
X91653400Y-80753826D01*
X91485520Y-80641652D01*
X91298982Y-80564386D01*
X91115976Y-80527984D01*
X91110612Y-80501018D01*
X91033346Y-80314480D01*
X90921172Y-80146600D01*
X90778402Y-80003830D01*
X90610522Y-79891656D01*
X90423984Y-79814390D01*
X90225956Y-79775000D01*
X90024048Y-79775000D01*
X89826020Y-79814390D01*
X89639482Y-79891656D01*
X89471602Y-80003830D01*
X89425432Y-80050000D01*
X85403859Y-80050000D01*
X85507332Y-79946527D01*
X85614034Y-79786836D01*
X85687532Y-79609397D01*
X85725000Y-79421029D01*
X85725000Y-79228971D01*
X85687532Y-79040603D01*
X85614034Y-78863164D01*
X85538804Y-78750574D01*
X85793750Y-78750000D01*
X85950000Y-78593750D01*
X86106250Y-78750000D01*
X87450000Y-78753024D01*
X87572521Y-78740957D01*
X87690334Y-78705219D01*
X87798911Y-78647183D01*
X87894080Y-78569080D01*
X87972183Y-78473911D01*
X88030219Y-78365334D01*
X88065957Y-78247521D01*
X88078024Y-78125000D01*
X88075000Y-78081250D01*
X87918750Y-77925000D01*
X88075000Y-77768750D01*
X88078024Y-77725000D01*
X88065957Y-77602479D01*
X88065205Y-77600000D01*
X88065957Y-77597521D01*
X88078024Y-77475000D01*
X88075000Y-77431250D01*
X87918750Y-77275000D01*
X88075000Y-77118750D01*
X88078024Y-77075000D01*
X88065957Y-76952479D01*
X88065205Y-76950000D01*
X88065957Y-76947521D01*
X88078024Y-76825000D01*
X88075000Y-76781250D01*
X87918750Y-76625000D01*
X88075000Y-76468750D01*
X88078024Y-76425000D01*
X88065957Y-76302479D01*
X88065205Y-76300000D01*
X88065957Y-76297521D01*
X88078024Y-76175000D01*
X88078024Y-75775000D01*
X88065957Y-75652479D01*
X88065205Y-75650000D01*
X88065957Y-75647521D01*
X88078024Y-75525000D01*
X88078024Y-75425000D01*
X88589341Y-75425000D01*
X94799979Y-81635639D01*
X94799979Y-81635639D01*
G37*
X94799979Y-81635639D02*
X94799978Y-94213151D01*
X94796351Y-94249978D01*
X94799978Y-94286805D01*
X94799978Y-94286812D01*
X94810831Y-94397003D01*
X94853717Y-94538378D01*
X94923359Y-94668670D01*
X95017083Y-94782873D01*
X95045698Y-94806357D01*
X100564340Y-100325000D01*
X92385660Y-100325000D01*
X84475000Y-92414341D01*
X84475000Y-91681837D01*
X84587479Y-91715957D01*
X84710000Y-91728024D01*
X84728750Y-91725000D01*
X84885000Y-91568750D01*
X84885000Y-90475000D01*
X84865000Y-90475000D01*
X84865000Y-90225000D01*
X84885000Y-90225000D01*
X84885000Y-90205000D01*
X85135000Y-90205000D01*
X85135000Y-90225000D01*
X85155000Y-90225000D01*
X85155000Y-90475000D01*
X85135000Y-90475000D01*
X85135000Y-91568750D01*
X85291250Y-91725000D01*
X85310000Y-91728024D01*
X85432521Y-91715957D01*
X85550334Y-91680219D01*
X85645000Y-91629619D01*
X85739666Y-91680219D01*
X85857479Y-91715957D01*
X85980000Y-91728024D01*
X86580000Y-91728024D01*
X86702521Y-91715957D01*
X86820334Y-91680219D01*
X86915000Y-91629619D01*
X87009666Y-91680219D01*
X87127479Y-91715957D01*
X87250000Y-91728024D01*
X87850000Y-91728024D01*
X87972521Y-91715957D01*
X88090334Y-91680219D01*
X88185000Y-91629619D01*
X88279666Y-91680219D01*
X88397479Y-91715957D01*
X88520000Y-91728024D01*
X88538750Y-91725000D01*
X88695000Y-91568750D01*
X88695000Y-90475000D01*
X88945000Y-90475000D01*
X88945000Y-91568750D01*
X89101250Y-91725000D01*
X89120000Y-91728024D01*
X89242521Y-91715957D01*
X89360334Y-91680219D01*
X89468911Y-91622183D01*
X89564080Y-91544080D01*
X89642183Y-91448911D01*
X89700219Y-91340334D01*
X89735957Y-91222521D01*
X89748024Y-91100000D01*
X89745000Y-90631250D01*
X89588750Y-90475000D01*
X88945000Y-90475000D01*
X88695000Y-90475000D01*
X88675000Y-90475000D01*
X88675000Y-90225000D01*
X88695000Y-90225000D01*
X88695000Y-89131250D01*
X88945000Y-89131250D01*
X88945000Y-90225000D01*
X89588750Y-90225000D01*
X89745000Y-90068750D01*
X89748024Y-89600000D01*
X89735957Y-89477479D01*
X89700219Y-89359666D01*
X89642183Y-89251089D01*
X89564080Y-89155920D01*
X89468911Y-89077817D01*
X89360334Y-89019781D01*
X89242521Y-88984043D01*
X89120000Y-88971976D01*
X89101250Y-88975000D01*
X88945000Y-89131250D01*
X88695000Y-89131250D01*
X88538750Y-88975000D01*
X88520000Y-88971976D01*
X88397479Y-88984043D01*
X88279666Y-89019781D01*
X88185000Y-89070381D01*
X88090334Y-89019781D01*
X87972521Y-88984043D01*
X87850000Y-88971976D01*
X87250000Y-88971976D01*
X87127479Y-88984043D01*
X87009666Y-89019781D01*
X86915000Y-89070381D01*
X86845864Y-89033427D01*
X85249116Y-87436680D01*
X85221712Y-87403288D01*
X85088476Y-87293944D01*
X84936468Y-87212695D01*
X84771530Y-87162661D01*
X84642979Y-87150000D01*
X84600000Y-87145767D01*
X84557021Y-87150000D01*
X81387437Y-87150000D01*
X80805000Y-86567564D01*
X80805000Y-86318668D01*
X80900000Y-86328024D01*
X81500000Y-86328024D01*
X81622521Y-86315957D01*
X81740334Y-86280219D01*
X81835000Y-86229619D01*
X81929666Y-86280219D01*
X82047479Y-86315957D01*
X82170000Y-86328024D01*
X82770000Y-86328024D01*
X82892521Y-86315957D01*
X83010334Y-86280219D01*
X83105000Y-86229619D01*
X83199666Y-86280219D01*
X83317479Y-86315957D01*
X83440000Y-86328024D01*
X84040000Y-86328024D01*
X84162521Y-86315957D01*
X84280334Y-86280219D01*
X84375000Y-86229619D01*
X84469666Y-86280219D01*
X84587479Y-86315957D01*
X84710000Y-86328024D01*
X85310000Y-86328024D01*
X85432521Y-86315957D01*
X85550334Y-86280219D01*
X85645000Y-86229619D01*
X85739666Y-86280219D01*
X85857479Y-86315957D01*
X85980000Y-86328024D01*
X86580000Y-86328024D01*
X86702521Y-86315957D01*
X86820334Y-86280219D01*
X86915000Y-86229619D01*
X87009666Y-86280219D01*
X87127479Y-86315957D01*
X87250000Y-86328024D01*
X87850000Y-86328024D01*
X87972521Y-86315957D01*
X88090334Y-86280219D01*
X88185000Y-86229619D01*
X88279666Y-86280219D01*
X88397479Y-86315957D01*
X88520000Y-86328024D01*
X89120000Y-86328024D01*
X89242521Y-86315957D01*
X89360334Y-86280219D01*
X89468911Y-86222183D01*
X89564080Y-86144080D01*
X89642183Y-86048911D01*
X89700219Y-85940334D01*
X89735957Y-85822521D01*
X89748024Y-85700000D01*
X89748024Y-84200000D01*
X89735957Y-84077479D01*
X89700219Y-83959666D01*
X89642183Y-83851089D01*
X89564080Y-83755920D01*
X89468911Y-83677817D01*
X89360334Y-83619781D01*
X89242521Y-83584043D01*
X89120000Y-83571976D01*
X88520000Y-83571976D01*
X88397479Y-83584043D01*
X88279666Y-83619781D01*
X88185000Y-83670381D01*
X88090334Y-83619781D01*
X87972521Y-83584043D01*
X87850000Y-83571976D01*
X87250000Y-83571976D01*
X87127479Y-83584043D01*
X87009666Y-83619781D01*
X86915000Y-83670381D01*
X86905406Y-83665253D01*
X87254517Y-83316143D01*
X87299046Y-83325000D01*
X87500954Y-83325000D01*
X87698982Y-83285610D01*
X87885520Y-83208344D01*
X88053400Y-83096170D01*
X88196170Y-82953400D01*
X88308344Y-82785520D01*
X88385610Y-82598982D01*
X88425000Y-82400954D01*
X88425000Y-82299996D01*
X90300430Y-82299996D01*
X90346600Y-82346166D01*
X90514480Y-82458340D01*
X90701018Y-82535606D01*
X90899046Y-82574996D01*
X91100954Y-82574996D01*
X91298982Y-82535606D01*
X91485520Y-82458340D01*
X91653400Y-82346166D01*
X91796170Y-82203396D01*
X91908344Y-82035516D01*
X91985610Y-81848978D01*
X92025000Y-81650950D01*
X92025000Y-81449042D01*
X91985610Y-81251014D01*
X91908344Y-81064476D01*
X91796170Y-80896596D01*
X91653400Y-80753826D01*
X91485520Y-80641652D01*
X91298982Y-80564386D01*
X91115976Y-80527984D01*
X91110612Y-80501018D01*
X91033346Y-80314480D01*
X90921172Y-80146600D01*
X90778402Y-80003830D01*
X90610522Y-79891656D01*
X90423984Y-79814390D01*
X90225956Y-79775000D01*
X90024048Y-79775000D01*
X89826020Y-79814390D01*
X89639482Y-79891656D01*
X89471602Y-80003830D01*
X89425432Y-80050000D01*
X85403859Y-80050000D01*
X85507332Y-79946527D01*
X85614034Y-79786836D01*
X85687532Y-79609397D01*
X85725000Y-79421029D01*
X85725000Y-79228971D01*
X85687532Y-79040603D01*
X85614034Y-78863164D01*
X85538804Y-78750574D01*
X85793750Y-78750000D01*
X85950000Y-78593750D01*
X86106250Y-78750000D01*
X87450000Y-78753024D01*
X87572521Y-78740957D01*
X87690334Y-78705219D01*
X87798911Y-78647183D01*
X87894080Y-78569080D01*
X87972183Y-78473911D01*
X88030219Y-78365334D01*
X88065957Y-78247521D01*
X88078024Y-78125000D01*
X88075000Y-78081250D01*
X87918750Y-77925000D01*
X88075000Y-77768750D01*
X88078024Y-77725000D01*
X88065957Y-77602479D01*
X88065205Y-77600000D01*
X88065957Y-77597521D01*
X88078024Y-77475000D01*
X88075000Y-77431250D01*
X87918750Y-77275000D01*
X88075000Y-77118750D01*
X88078024Y-77075000D01*
X88065957Y-76952479D01*
X88065205Y-76950000D01*
X88065957Y-76947521D01*
X88078024Y-76825000D01*
X88075000Y-76781250D01*
X87918750Y-76625000D01*
X88075000Y-76468750D01*
X88078024Y-76425000D01*
X88065957Y-76302479D01*
X88065205Y-76300000D01*
X88065957Y-76297521D01*
X88078024Y-76175000D01*
X88078024Y-75775000D01*
X88065957Y-75652479D01*
X88065205Y-75650000D01*
X88065957Y-75647521D01*
X88078024Y-75525000D01*
X88078024Y-75425000D01*
X88589341Y-75425000D01*
X94799979Y-81635639D01*
G36*
X78021976Y-76175000D02*
G01*
X78034043Y-76297521D01*
X78034795Y-76300000D01*
X78034043Y-76302479D01*
X78021976Y-76425000D01*
X78021976Y-76825000D01*
X78034043Y-76947521D01*
X78034795Y-76950000D01*
X78034043Y-76952479D01*
X78021976Y-77075000D01*
X78025000Y-77118750D01*
X78181250Y-77275000D01*
X78025000Y-77431250D01*
X78021976Y-77475000D01*
X78034043Y-77597521D01*
X78034795Y-77600000D01*
X78034043Y-77602479D01*
X78021976Y-77725000D01*
X78025000Y-77768750D01*
X78181250Y-77925000D01*
X78025000Y-78081250D01*
X78021976Y-78125000D01*
X78034043Y-78247521D01*
X78069781Y-78365334D01*
X78127817Y-78473911D01*
X78205920Y-78569080D01*
X78301089Y-78647183D01*
X78409666Y-78705219D01*
X78527479Y-78740957D01*
X78650000Y-78753024D01*
X79993750Y-78750000D01*
X80150000Y-78593750D01*
X80306250Y-78750000D01*
X81135697Y-78751867D01*
X79311681Y-80575883D01*
X79278288Y-80603288D01*
X79168944Y-80736525D01*
X79096927Y-80871261D01*
X79087695Y-80888533D01*
X79037661Y-81053471D01*
X79020767Y-81225000D01*
X79025000Y-81267979D01*
X79025000Y-81328711D01*
X79023911Y-81327817D01*
X78915334Y-81269781D01*
X78797521Y-81234043D01*
X78675000Y-81221976D01*
X78431250Y-81225000D01*
X78275000Y-81381250D01*
X78275000Y-82200000D01*
X78295000Y-82200000D01*
X78295000Y-82450000D01*
X78275000Y-82450000D01*
X78275000Y-83268750D01*
X78431250Y-83425000D01*
X78675000Y-83428024D01*
X78797521Y-83415957D01*
X78915334Y-83380219D01*
X79023911Y-83322183D01*
X79025000Y-83321289D01*
X79025000Y-83321290D01*
X79025001Y-84041356D01*
X79014043Y-84077479D01*
X79001976Y-84200000D01*
X79001976Y-85700000D01*
X79014043Y-85822521D01*
X79049781Y-85940334D01*
X79055001Y-85950099D01*
X79055001Y-86887012D01*
X79050767Y-86930000D01*
X79067661Y-87101529D01*
X79117695Y-87266467D01*
X79155516Y-87337226D01*
X79198945Y-87418476D01*
X79308289Y-87551712D01*
X79341676Y-87579112D01*
X79937563Y-88175000D01*
X78790251Y-88175000D01*
X78744081Y-88128830D01*
X78576201Y-88016656D01*
X78389663Y-87939390D01*
X78191635Y-87900000D01*
X77989727Y-87900000D01*
X77791699Y-87939390D01*
X77605161Y-88016656D01*
X77437281Y-88128830D01*
X77294511Y-88271600D01*
X77182337Y-88439480D01*
X77105071Y-88626018D01*
X77065681Y-88824046D01*
X77065681Y-89025954D01*
X77105071Y-89223982D01*
X77182337Y-89410520D01*
X77294511Y-89578400D01*
X77437281Y-89721170D01*
X77605161Y-89833344D01*
X77791699Y-89910610D01*
X77989727Y-89950000D01*
X78191635Y-89950000D01*
X78389663Y-89910610D01*
X78576201Y-89833344D01*
X78744081Y-89721170D01*
X78790251Y-89675000D01*
X79001976Y-89675000D01*
X79001976Y-91100000D01*
X79014043Y-91222521D01*
X79049781Y-91340334D01*
X79107817Y-91448911D01*
X79180000Y-91536867D01*
X79180001Y-92995429D01*
X79128830Y-93046600D01*
X79016656Y-93214480D01*
X78939390Y-93401018D01*
X78900000Y-93599046D01*
X78900000Y-93800954D01*
X78934620Y-93975000D01*
X78685660Y-93975000D01*
X75425011Y-90714352D01*
X75425011Y-82800000D01*
X76996976Y-82800000D01*
X77009043Y-82922521D01*
X77044781Y-83040334D01*
X77102817Y-83148911D01*
X77180920Y-83244080D01*
X77276089Y-83322183D01*
X77384666Y-83380219D01*
X77502479Y-83415957D01*
X77625000Y-83428024D01*
X77868750Y-83425000D01*
X78025000Y-83268750D01*
X78025000Y-82450000D01*
X77156250Y-82450000D01*
X77000000Y-82606250D01*
X76996976Y-82800000D01*
X75425011Y-82800000D01*
X75425011Y-81850000D01*
X76996976Y-81850000D01*
X77000000Y-82043750D01*
X77156250Y-82200000D01*
X78025000Y-82200000D01*
X78025000Y-81381250D01*
X77868750Y-81225000D01*
X77625000Y-81221976D01*
X77502479Y-81234043D01*
X77384666Y-81269781D01*
X77276089Y-81327817D01*
X77180920Y-81405920D01*
X77102817Y-81501089D01*
X77044781Y-81609666D01*
X77009043Y-81727479D01*
X76996976Y-81850000D01*
X75425011Y-81850000D01*
X75425011Y-78610648D01*
X77960660Y-76075000D01*
X78021976Y-76075000D01*
X78021976Y-76175000D01*
X78021976Y-76175000D01*
G37*
X78021976Y-76175000D02*
X78034043Y-76297521D01*
X78034795Y-76300000D01*
X78034043Y-76302479D01*
X78021976Y-76425000D01*
X78021976Y-76825000D01*
X78034043Y-76947521D01*
X78034795Y-76950000D01*
X78034043Y-76952479D01*
X78021976Y-77075000D01*
X78025000Y-77118750D01*
X78181250Y-77275000D01*
X78025000Y-77431250D01*
X78021976Y-77475000D01*
X78034043Y-77597521D01*
X78034795Y-77600000D01*
X78034043Y-77602479D01*
X78021976Y-77725000D01*
X78025000Y-77768750D01*
X78181250Y-77925000D01*
X78025000Y-78081250D01*
X78021976Y-78125000D01*
X78034043Y-78247521D01*
X78069781Y-78365334D01*
X78127817Y-78473911D01*
X78205920Y-78569080D01*
X78301089Y-78647183D01*
X78409666Y-78705219D01*
X78527479Y-78740957D01*
X78650000Y-78753024D01*
X79993750Y-78750000D01*
X80150000Y-78593750D01*
X80306250Y-78750000D01*
X81135697Y-78751867D01*
X79311681Y-80575883D01*
X79278288Y-80603288D01*
X79168944Y-80736525D01*
X79096927Y-80871261D01*
X79087695Y-80888533D01*
X79037661Y-81053471D01*
X79020767Y-81225000D01*
X79025000Y-81267979D01*
X79025000Y-81328711D01*
X79023911Y-81327817D01*
X78915334Y-81269781D01*
X78797521Y-81234043D01*
X78675000Y-81221976D01*
X78431250Y-81225000D01*
X78275000Y-81381250D01*
X78275000Y-82200000D01*
X78295000Y-82200000D01*
X78295000Y-82450000D01*
X78275000Y-82450000D01*
X78275000Y-83268750D01*
X78431250Y-83425000D01*
X78675000Y-83428024D01*
X78797521Y-83415957D01*
X78915334Y-83380219D01*
X79023911Y-83322183D01*
X79025000Y-83321289D01*
X79025000Y-83321290D01*
X79025001Y-84041356D01*
X79014043Y-84077479D01*
X79001976Y-84200000D01*
X79001976Y-85700000D01*
X79014043Y-85822521D01*
X79049781Y-85940334D01*
X79055001Y-85950099D01*
X79055001Y-86887012D01*
X79050767Y-86930000D01*
X79067661Y-87101529D01*
X79117695Y-87266467D01*
X79155516Y-87337226D01*
X79198945Y-87418476D01*
X79308289Y-87551712D01*
X79341676Y-87579112D01*
X79937563Y-88175000D01*
X78790251Y-88175000D01*
X78744081Y-88128830D01*
X78576201Y-88016656D01*
X78389663Y-87939390D01*
X78191635Y-87900000D01*
X77989727Y-87900000D01*
X77791699Y-87939390D01*
X77605161Y-88016656D01*
X77437281Y-88128830D01*
X77294511Y-88271600D01*
X77182337Y-88439480D01*
X77105071Y-88626018D01*
X77065681Y-88824046D01*
X77065681Y-89025954D01*
X77105071Y-89223982D01*
X77182337Y-89410520D01*
X77294511Y-89578400D01*
X77437281Y-89721170D01*
X77605161Y-89833344D01*
X77791699Y-89910610D01*
X77989727Y-89950000D01*
X78191635Y-89950000D01*
X78389663Y-89910610D01*
X78576201Y-89833344D01*
X78744081Y-89721170D01*
X78790251Y-89675000D01*
X79001976Y-89675000D01*
X79001976Y-91100000D01*
X79014043Y-91222521D01*
X79049781Y-91340334D01*
X79107817Y-91448911D01*
X79180000Y-91536867D01*
X79180001Y-92995429D01*
X79128830Y-93046600D01*
X79016656Y-93214480D01*
X78939390Y-93401018D01*
X78900000Y-93599046D01*
X78900000Y-93800954D01*
X78934620Y-93975000D01*
X78685660Y-93975000D01*
X75425011Y-90714352D01*
X75425011Y-82800000D01*
X76996976Y-82800000D01*
X77009043Y-82922521D01*
X77044781Y-83040334D01*
X77102817Y-83148911D01*
X77180920Y-83244080D01*
X77276089Y-83322183D01*
X77384666Y-83380219D01*
X77502479Y-83415957D01*
X77625000Y-83428024D01*
X77868750Y-83425000D01*
X78025000Y-83268750D01*
X78025000Y-82450000D01*
X77156250Y-82450000D01*
X77000000Y-82606250D01*
X76996976Y-82800000D01*
X75425011Y-82800000D01*
X75425011Y-81850000D01*
X76996976Y-81850000D01*
X77000000Y-82043750D01*
X77156250Y-82200000D01*
X78025000Y-82200000D01*
X78025000Y-81381250D01*
X77868750Y-81225000D01*
X77625000Y-81221976D01*
X77502479Y-81234043D01*
X77384666Y-81269781D01*
X77276089Y-81327817D01*
X77180920Y-81405920D01*
X77102817Y-81501089D01*
X77044781Y-81609666D01*
X77009043Y-81727479D01*
X76996976Y-81850000D01*
X75425011Y-81850000D01*
X75425011Y-78610648D01*
X77960660Y-76075000D01*
X78021976Y-76075000D01*
X78021976Y-76175000D01*
G36*
X130771976Y-50863240D02*
G01*
X130790610Y-51052435D01*
X130845796Y-51234360D01*
X130935414Y-51402023D01*
X131056019Y-51548981D01*
X131202977Y-51669586D01*
X131370640Y-51759204D01*
X131552565Y-51814390D01*
X131741760Y-51833024D01*
X132300000Y-51833024D01*
X132300001Y-57657011D01*
X132295767Y-57700000D01*
X132312661Y-57871529D01*
X132362695Y-58036467D01*
X132384810Y-58077841D01*
X132443945Y-58188476D01*
X132553289Y-58321712D01*
X132586676Y-58349112D01*
X137125883Y-62888319D01*
X137153288Y-62921712D01*
X137286524Y-63031056D01*
X137438532Y-63112305D01*
X137565080Y-63150694D01*
X137603469Y-63162339D01*
X137774999Y-63179233D01*
X137817978Y-63175000D01*
X138924228Y-63175000D01*
X138980920Y-63244080D01*
X139076089Y-63322183D01*
X139184666Y-63380219D01*
X139302479Y-63415957D01*
X139425000Y-63428024D01*
X140375000Y-63428024D01*
X140497521Y-63415957D01*
X140615334Y-63380219D01*
X140723911Y-63322183D01*
X140819080Y-63244080D01*
X140875772Y-63175000D01*
X142049228Y-63175000D01*
X142105920Y-63244080D01*
X142201089Y-63322183D01*
X142309666Y-63380219D01*
X142427479Y-63415957D01*
X142550000Y-63428024D01*
X143500000Y-63428024D01*
X143622521Y-63415957D01*
X143740334Y-63380219D01*
X143848911Y-63322183D01*
X143944080Y-63244080D01*
X144022183Y-63148911D01*
X144080219Y-63040334D01*
X144115957Y-62922521D01*
X144128024Y-62800000D01*
X144128024Y-62738684D01*
X144525001Y-63135662D01*
X144525000Y-77664340D01*
X140229341Y-81960000D01*
X137825052Y-81960000D01*
X137772183Y-81861089D01*
X137694080Y-81765920D01*
X137598911Y-81687817D01*
X137490334Y-81629781D01*
X137372521Y-81594043D01*
X137250000Y-81581976D01*
X135950000Y-81581976D01*
X135950000Y-81298024D01*
X137250000Y-81298024D01*
X137372521Y-81285957D01*
X137490334Y-81250219D01*
X137598911Y-81192183D01*
X137694080Y-81114080D01*
X137772183Y-81018911D01*
X137830219Y-80910334D01*
X137865957Y-80792521D01*
X137878024Y-80670000D01*
X137878024Y-79670000D01*
X137865957Y-79547479D01*
X137830219Y-79429666D01*
X137772183Y-79321089D01*
X137694080Y-79225920D01*
X137598911Y-79147817D01*
X137490334Y-79089781D01*
X137372521Y-79054043D01*
X137250000Y-79041976D01*
X135950000Y-79041976D01*
X135950000Y-78758024D01*
X137250000Y-78758024D01*
X137372521Y-78745957D01*
X137490334Y-78710219D01*
X137598911Y-78652183D01*
X137694080Y-78574080D01*
X137772183Y-78478911D01*
X137830219Y-78370334D01*
X137865957Y-78252521D01*
X137878024Y-78130000D01*
X137878024Y-77130000D01*
X137865957Y-77007479D01*
X137830219Y-76889666D01*
X137772183Y-76781089D01*
X137694080Y-76685920D01*
X137598911Y-76607817D01*
X137490334Y-76549781D01*
X137372521Y-76514043D01*
X137250000Y-76501976D01*
X135950000Y-76501976D01*
X135950000Y-75584389D01*
X135953387Y-75550000D01*
X135939872Y-75412776D01*
X135899845Y-75280825D01*
X135834845Y-75159219D01*
X135747370Y-75052630D01*
X135640781Y-74965155D01*
X135519175Y-74900155D01*
X135387224Y-74860128D01*
X135284390Y-74850000D01*
X135250000Y-74846613D01*
X135215610Y-74850000D01*
X129950000Y-74850000D01*
X129950000Y-62584390D01*
X129953387Y-62550000D01*
X129939872Y-62412776D01*
X129899845Y-62280825D01*
X129834845Y-62159219D01*
X129747370Y-62052630D01*
X129640781Y-61965155D01*
X129519175Y-61900155D01*
X129387224Y-61860128D01*
X129284390Y-61850000D01*
X129250000Y-61846613D01*
X129215610Y-61850000D01*
X127739291Y-61850000D01*
X127822819Y-61724991D01*
X127930238Y-61465657D01*
X127985000Y-61190350D01*
X127985000Y-60909650D01*
X127930238Y-60634343D01*
X127822819Y-60375009D01*
X127666870Y-60141615D01*
X127468385Y-59943130D01*
X127234991Y-59787181D01*
X126975657Y-59679762D01*
X126700350Y-59625000D01*
X126419650Y-59625000D01*
X126144343Y-59679762D01*
X125885009Y-59787181D01*
X125651615Y-59943130D01*
X125453130Y-60141615D01*
X125297181Y-60375009D01*
X125290000Y-60392346D01*
X125282819Y-60375009D01*
X125126870Y-60141615D01*
X124928385Y-59943130D01*
X124694991Y-59787181D01*
X124435657Y-59679762D01*
X124160350Y-59625000D01*
X123879650Y-59625000D01*
X123604343Y-59679762D01*
X123345009Y-59787181D01*
X123111615Y-59943130D01*
X122913130Y-60141615D01*
X122757181Y-60375009D01*
X122750000Y-60392346D01*
X122742819Y-60375009D01*
X122586870Y-60141615D01*
X122388385Y-59943130D01*
X122154991Y-59787181D01*
X121895657Y-59679762D01*
X121620350Y-59625000D01*
X121339650Y-59625000D01*
X121064343Y-59679762D01*
X120805009Y-59787181D01*
X120571615Y-59943130D01*
X120373130Y-60141615D01*
X120217181Y-60375009D01*
X120210024Y-60392288D01*
X120167479Y-60312693D01*
X119926065Y-60240712D01*
X119116777Y-61050000D01*
X119130919Y-61064142D01*
X118954142Y-61240919D01*
X118940000Y-61226777D01*
X118925858Y-61240919D01*
X118749081Y-61064142D01*
X118763223Y-61050000D01*
X117953935Y-60240712D01*
X117712521Y-60312693D01*
X117592265Y-60566330D01*
X117523802Y-60838553D01*
X117509763Y-61118903D01*
X117550686Y-61396604D01*
X117645000Y-61660986D01*
X117712521Y-61787307D01*
X117922784Y-61850000D01*
X116284390Y-61850000D01*
X116250000Y-61846613D01*
X116215610Y-61850000D01*
X116112776Y-61860128D01*
X115980825Y-61900155D01*
X115859219Y-61965155D01*
X115752630Y-62052630D01*
X115665155Y-62159219D01*
X115600155Y-62280825D01*
X115560128Y-62412776D01*
X115546613Y-62550000D01*
X115550001Y-62584400D01*
X115550000Y-74850000D01*
X110284390Y-74850000D01*
X110250000Y-74846613D01*
X110215610Y-74850000D01*
X110112776Y-74860128D01*
X109980825Y-74900155D01*
X109859219Y-74965155D01*
X109752630Y-75052630D01*
X109665155Y-75159219D01*
X109600155Y-75280825D01*
X109560128Y-75412776D01*
X109546613Y-75550000D01*
X109550001Y-75584400D01*
X109550001Y-76501976D01*
X108250000Y-76501976D01*
X108127479Y-76514043D01*
X108009666Y-76549781D01*
X107901089Y-76607817D01*
X107805920Y-76685920D01*
X107727817Y-76781089D01*
X107677620Y-76875000D01*
X104724570Y-76875000D01*
X104678400Y-76828830D01*
X104510520Y-76716656D01*
X104323982Y-76639390D01*
X104125954Y-76600000D01*
X103924046Y-76600000D01*
X103726018Y-76639390D01*
X103539480Y-76716656D01*
X103371600Y-76828830D01*
X103228830Y-76971600D01*
X103116656Y-77139480D01*
X103039390Y-77326018D01*
X103000000Y-77524046D01*
X103000000Y-77725954D01*
X103039390Y-77923982D01*
X103116656Y-78110520D01*
X103228830Y-78278400D01*
X103371600Y-78421170D01*
X103539480Y-78533344D01*
X103726018Y-78610610D01*
X103924046Y-78650000D01*
X104125954Y-78650000D01*
X104323982Y-78610610D01*
X104510520Y-78533344D01*
X104678400Y-78421170D01*
X104724570Y-78375000D01*
X107672275Y-78375000D01*
X107727817Y-78478911D01*
X107805920Y-78574080D01*
X107901089Y-78652183D01*
X108009666Y-78710219D01*
X108127479Y-78745957D01*
X108250000Y-78758024D01*
X109550001Y-78758024D01*
X109550001Y-79041976D01*
X108250000Y-79041976D01*
X108127479Y-79054043D01*
X108009666Y-79089781D01*
X107901089Y-79147817D01*
X107805920Y-79225920D01*
X107727817Y-79321089D01*
X107674948Y-79420000D01*
X105444570Y-79420000D01*
X105403400Y-79378830D01*
X105235520Y-79266656D01*
X105048982Y-79189390D01*
X104850954Y-79150000D01*
X104649046Y-79150000D01*
X104451018Y-79189390D01*
X104264480Y-79266656D01*
X104096600Y-79378830D01*
X103953830Y-79521600D01*
X103841656Y-79689480D01*
X103764390Y-79876018D01*
X103725000Y-80074046D01*
X103725000Y-80275954D01*
X103764390Y-80473982D01*
X103841656Y-80660520D01*
X103953830Y-80828400D01*
X104096600Y-80971170D01*
X104264480Y-81083344D01*
X104451018Y-81160610D01*
X104649046Y-81200000D01*
X104850954Y-81200000D01*
X105048982Y-81160610D01*
X105235520Y-81083344D01*
X105403400Y-80971170D01*
X105454570Y-80920000D01*
X107674948Y-80920000D01*
X107727817Y-81018911D01*
X107805920Y-81114080D01*
X107901089Y-81192183D01*
X108009666Y-81250219D01*
X108127479Y-81285957D01*
X108250000Y-81298024D01*
X109550001Y-81298024D01*
X109550001Y-81581976D01*
X108250000Y-81581976D01*
X108127479Y-81594043D01*
X108009666Y-81629781D01*
X107901089Y-81687817D01*
X107805920Y-81765920D01*
X107727817Y-81861089D01*
X107674948Y-81960000D01*
X106213416Y-81960000D01*
X106128400Y-81874984D01*
X105960520Y-81762810D01*
X105773982Y-81685544D01*
X105575954Y-81646154D01*
X105374046Y-81646154D01*
X105176018Y-81685544D01*
X104989480Y-81762810D01*
X104821600Y-81874984D01*
X104678830Y-82017754D01*
X104566656Y-82185634D01*
X104489390Y-82372172D01*
X104450000Y-82570200D01*
X104450000Y-82772108D01*
X104489390Y-82970136D01*
X104566656Y-83156674D01*
X104678830Y-83324554D01*
X104821600Y-83467324D01*
X104989480Y-83579498D01*
X105176018Y-83656764D01*
X105374046Y-83696154D01*
X105575954Y-83696154D01*
X105773982Y-83656764D01*
X105960520Y-83579498D01*
X106128400Y-83467324D01*
X106135724Y-83460000D01*
X107674948Y-83460000D01*
X107727817Y-83558911D01*
X107805920Y-83654080D01*
X107901089Y-83732183D01*
X108009666Y-83790219D01*
X108127479Y-83825957D01*
X108250000Y-83838024D01*
X109550001Y-83838024D01*
X109550001Y-84121976D01*
X108250000Y-84121976D01*
X108127479Y-84134043D01*
X108009666Y-84169781D01*
X107901089Y-84227817D01*
X107805920Y-84305920D01*
X107727817Y-84401089D01*
X107674948Y-84500000D01*
X106899570Y-84500000D01*
X106853400Y-84453830D01*
X106685520Y-84341656D01*
X106498982Y-84264390D01*
X106300954Y-84225000D01*
X106099046Y-84225000D01*
X105901018Y-84264390D01*
X105714480Y-84341656D01*
X105546600Y-84453830D01*
X105403830Y-84596600D01*
X105291656Y-84764480D01*
X105214390Y-84951018D01*
X105175000Y-85149046D01*
X105175000Y-85350954D01*
X105214390Y-85548982D01*
X105291656Y-85735520D01*
X105403830Y-85903400D01*
X105546600Y-86046170D01*
X105714480Y-86158344D01*
X105901018Y-86235610D01*
X106099046Y-86275000D01*
X106300954Y-86275000D01*
X106498982Y-86235610D01*
X106685520Y-86158344D01*
X106853400Y-86046170D01*
X106899570Y-86000000D01*
X107674948Y-86000000D01*
X107727817Y-86098911D01*
X107805920Y-86194080D01*
X107901089Y-86272183D01*
X108009666Y-86330219D01*
X108127479Y-86365957D01*
X108250000Y-86378024D01*
X109550001Y-86378024D01*
X109550000Y-86796250D01*
X109525000Y-86821250D01*
X109525000Y-87665000D01*
X109550000Y-87665000D01*
X109550000Y-87915000D01*
X109525000Y-87915000D01*
X109525000Y-88758750D01*
X109550000Y-88783750D01*
X109550000Y-89201976D01*
X108250000Y-89201976D01*
X108127479Y-89214043D01*
X108009666Y-89249781D01*
X107901089Y-89307817D01*
X107805920Y-89385920D01*
X107749228Y-89455000D01*
X105767437Y-89455000D01*
X104602437Y-88290000D01*
X107621976Y-88290000D01*
X107634043Y-88412521D01*
X107669781Y-88530334D01*
X107727817Y-88638911D01*
X107805920Y-88734080D01*
X107901089Y-88812183D01*
X108009666Y-88870219D01*
X108127479Y-88905957D01*
X108250000Y-88918024D01*
X109118750Y-88915000D01*
X109275000Y-88758750D01*
X109275000Y-87915000D01*
X107781250Y-87915000D01*
X107625000Y-88071250D01*
X107621976Y-88290000D01*
X104602437Y-88290000D01*
X103602437Y-87290000D01*
X107621976Y-87290000D01*
X107625000Y-87508750D01*
X107781250Y-87665000D01*
X109275000Y-87665000D01*
X109275000Y-86821250D01*
X109118750Y-86665000D01*
X108250000Y-86661976D01*
X108127479Y-86674043D01*
X108009666Y-86709781D01*
X107901089Y-86767817D01*
X107805920Y-86845920D01*
X107727817Y-86941089D01*
X107669781Y-87049666D01*
X107634043Y-87167479D01*
X107621976Y-87290000D01*
X103602437Y-87290000D01*
X101225000Y-84912564D01*
X101225000Y-71542979D01*
X101229233Y-71500000D01*
X101212339Y-71328470D01*
X101162305Y-71163532D01*
X101148036Y-71136836D01*
X101081056Y-71011524D01*
X100971712Y-70878288D01*
X100938325Y-70850888D01*
X95099936Y-65012500D01*
X99588319Y-60524117D01*
X99621712Y-60496712D01*
X99649117Y-60463319D01*
X100048501Y-60063935D01*
X118130712Y-60063935D01*
X118940000Y-60873223D01*
X119749288Y-60063935D01*
X119677307Y-59822521D01*
X119423670Y-59702265D01*
X119151447Y-59633802D01*
X118871097Y-59619763D01*
X118593396Y-59660686D01*
X118329014Y-59755000D01*
X118202693Y-59822521D01*
X118130712Y-60063935D01*
X100048501Y-60063935D01*
X109937436Y-50175000D01*
X130771976Y-50175000D01*
X130771976Y-50863240D01*
X130771976Y-50863240D01*
G37*
X130771976Y-50863240D02*
X130790610Y-51052435D01*
X130845796Y-51234360D01*
X130935414Y-51402023D01*
X131056019Y-51548981D01*
X131202977Y-51669586D01*
X131370640Y-51759204D01*
X131552565Y-51814390D01*
X131741760Y-51833024D01*
X132300000Y-51833024D01*
X132300001Y-57657011D01*
X132295767Y-57700000D01*
X132312661Y-57871529D01*
X132362695Y-58036467D01*
X132384810Y-58077841D01*
X132443945Y-58188476D01*
X132553289Y-58321712D01*
X132586676Y-58349112D01*
X137125883Y-62888319D01*
X137153288Y-62921712D01*
X137286524Y-63031056D01*
X137438532Y-63112305D01*
X137565080Y-63150694D01*
X137603469Y-63162339D01*
X137774999Y-63179233D01*
X137817978Y-63175000D01*
X138924228Y-63175000D01*
X138980920Y-63244080D01*
X139076089Y-63322183D01*
X139184666Y-63380219D01*
X139302479Y-63415957D01*
X139425000Y-63428024D01*
X140375000Y-63428024D01*
X140497521Y-63415957D01*
X140615334Y-63380219D01*
X140723911Y-63322183D01*
X140819080Y-63244080D01*
X140875772Y-63175000D01*
X142049228Y-63175000D01*
X142105920Y-63244080D01*
X142201089Y-63322183D01*
X142309666Y-63380219D01*
X142427479Y-63415957D01*
X142550000Y-63428024D01*
X143500000Y-63428024D01*
X143622521Y-63415957D01*
X143740334Y-63380219D01*
X143848911Y-63322183D01*
X143944080Y-63244080D01*
X144022183Y-63148911D01*
X144080219Y-63040334D01*
X144115957Y-62922521D01*
X144128024Y-62800000D01*
X144128024Y-62738684D01*
X144525001Y-63135662D01*
X144525000Y-77664340D01*
X140229341Y-81960000D01*
X137825052Y-81960000D01*
X137772183Y-81861089D01*
X137694080Y-81765920D01*
X137598911Y-81687817D01*
X137490334Y-81629781D01*
X137372521Y-81594043D01*
X137250000Y-81581976D01*
X135950000Y-81581976D01*
X135950000Y-81298024D01*
X137250000Y-81298024D01*
X137372521Y-81285957D01*
X137490334Y-81250219D01*
X137598911Y-81192183D01*
X137694080Y-81114080D01*
X137772183Y-81018911D01*
X137830219Y-80910334D01*
X137865957Y-80792521D01*
X137878024Y-80670000D01*
X137878024Y-79670000D01*
X137865957Y-79547479D01*
X137830219Y-79429666D01*
X137772183Y-79321089D01*
X137694080Y-79225920D01*
X137598911Y-79147817D01*
X137490334Y-79089781D01*
X137372521Y-79054043D01*
X137250000Y-79041976D01*
X135950000Y-79041976D01*
X135950000Y-78758024D01*
X137250000Y-78758024D01*
X137372521Y-78745957D01*
X137490334Y-78710219D01*
X137598911Y-78652183D01*
X137694080Y-78574080D01*
X137772183Y-78478911D01*
X137830219Y-78370334D01*
X137865957Y-78252521D01*
X137878024Y-78130000D01*
X137878024Y-77130000D01*
X137865957Y-77007479D01*
X137830219Y-76889666D01*
X137772183Y-76781089D01*
X137694080Y-76685920D01*
X137598911Y-76607817D01*
X137490334Y-76549781D01*
X137372521Y-76514043D01*
X137250000Y-76501976D01*
X135950000Y-76501976D01*
X135950000Y-75584389D01*
X135953387Y-75550000D01*
X135939872Y-75412776D01*
X135899845Y-75280825D01*
X135834845Y-75159219D01*
X135747370Y-75052630D01*
X135640781Y-74965155D01*
X135519175Y-74900155D01*
X135387224Y-74860128D01*
X135284390Y-74850000D01*
X135250000Y-74846613D01*
X135215610Y-74850000D01*
X129950000Y-74850000D01*
X129950000Y-62584390D01*
X129953387Y-62550000D01*
X129939872Y-62412776D01*
X129899845Y-62280825D01*
X129834845Y-62159219D01*
X129747370Y-62052630D01*
X129640781Y-61965155D01*
X129519175Y-61900155D01*
X129387224Y-61860128D01*
X129284390Y-61850000D01*
X129250000Y-61846613D01*
X129215610Y-61850000D01*
X127739291Y-61850000D01*
X127822819Y-61724991D01*
X127930238Y-61465657D01*
X127985000Y-61190350D01*
X127985000Y-60909650D01*
X127930238Y-60634343D01*
X127822819Y-60375009D01*
X127666870Y-60141615D01*
X127468385Y-59943130D01*
X127234991Y-59787181D01*
X126975657Y-59679762D01*
X126700350Y-59625000D01*
X126419650Y-59625000D01*
X126144343Y-59679762D01*
X125885009Y-59787181D01*
X125651615Y-59943130D01*
X125453130Y-60141615D01*
X125297181Y-60375009D01*
X125290000Y-60392346D01*
X125282819Y-60375009D01*
X125126870Y-60141615D01*
X124928385Y-59943130D01*
X124694991Y-59787181D01*
X124435657Y-59679762D01*
X124160350Y-59625000D01*
X123879650Y-59625000D01*
X123604343Y-59679762D01*
X123345009Y-59787181D01*
X123111615Y-59943130D01*
X122913130Y-60141615D01*
X122757181Y-60375009D01*
X122750000Y-60392346D01*
X122742819Y-60375009D01*
X122586870Y-60141615D01*
X122388385Y-59943130D01*
X122154991Y-59787181D01*
X121895657Y-59679762D01*
X121620350Y-59625000D01*
X121339650Y-59625000D01*
X121064343Y-59679762D01*
X120805009Y-59787181D01*
X120571615Y-59943130D01*
X120373130Y-60141615D01*
X120217181Y-60375009D01*
X120210024Y-60392288D01*
X120167479Y-60312693D01*
X119926065Y-60240712D01*
X119116777Y-61050000D01*
X119130919Y-61064142D01*
X118954142Y-61240919D01*
X118940000Y-61226777D01*
X118925858Y-61240919D01*
X118749081Y-61064142D01*
X118763223Y-61050000D01*
X117953935Y-60240712D01*
X117712521Y-60312693D01*
X117592265Y-60566330D01*
X117523802Y-60838553D01*
X117509763Y-61118903D01*
X117550686Y-61396604D01*
X117645000Y-61660986D01*
X117712521Y-61787307D01*
X117922784Y-61850000D01*
X116284390Y-61850000D01*
X116250000Y-61846613D01*
X116215610Y-61850000D01*
X116112776Y-61860128D01*
X115980825Y-61900155D01*
X115859219Y-61965155D01*
X115752630Y-62052630D01*
X115665155Y-62159219D01*
X115600155Y-62280825D01*
X115560128Y-62412776D01*
X115546613Y-62550000D01*
X115550001Y-62584400D01*
X115550000Y-74850000D01*
X110284390Y-74850000D01*
X110250000Y-74846613D01*
X110215610Y-74850000D01*
X110112776Y-74860128D01*
X109980825Y-74900155D01*
X109859219Y-74965155D01*
X109752630Y-75052630D01*
X109665155Y-75159219D01*
X109600155Y-75280825D01*
X109560128Y-75412776D01*
X109546613Y-75550000D01*
X109550001Y-75584400D01*
X109550001Y-76501976D01*
X108250000Y-76501976D01*
X108127479Y-76514043D01*
X108009666Y-76549781D01*
X107901089Y-76607817D01*
X107805920Y-76685920D01*
X107727817Y-76781089D01*
X107677620Y-76875000D01*
X104724570Y-76875000D01*
X104678400Y-76828830D01*
X104510520Y-76716656D01*
X104323982Y-76639390D01*
X104125954Y-76600000D01*
X103924046Y-76600000D01*
X103726018Y-76639390D01*
X103539480Y-76716656D01*
X103371600Y-76828830D01*
X103228830Y-76971600D01*
X103116656Y-77139480D01*
X103039390Y-77326018D01*
X103000000Y-77524046D01*
X103000000Y-77725954D01*
X103039390Y-77923982D01*
X103116656Y-78110520D01*
X103228830Y-78278400D01*
X103371600Y-78421170D01*
X103539480Y-78533344D01*
X103726018Y-78610610D01*
X103924046Y-78650000D01*
X104125954Y-78650000D01*
X104323982Y-78610610D01*
X104510520Y-78533344D01*
X104678400Y-78421170D01*
X104724570Y-78375000D01*
X107672275Y-78375000D01*
X107727817Y-78478911D01*
X107805920Y-78574080D01*
X107901089Y-78652183D01*
X108009666Y-78710219D01*
X108127479Y-78745957D01*
X108250000Y-78758024D01*
X109550001Y-78758024D01*
X109550001Y-79041976D01*
X108250000Y-79041976D01*
X108127479Y-79054043D01*
X108009666Y-79089781D01*
X107901089Y-79147817D01*
X107805920Y-79225920D01*
X107727817Y-79321089D01*
X107674948Y-79420000D01*
X105444570Y-79420000D01*
X105403400Y-79378830D01*
X105235520Y-79266656D01*
X105048982Y-79189390D01*
X104850954Y-79150000D01*
X104649046Y-79150000D01*
X104451018Y-79189390D01*
X104264480Y-79266656D01*
X104096600Y-79378830D01*
X103953830Y-79521600D01*
X103841656Y-79689480D01*
X103764390Y-79876018D01*
X103725000Y-80074046D01*
X103725000Y-80275954D01*
X103764390Y-80473982D01*
X103841656Y-80660520D01*
X103953830Y-80828400D01*
X104096600Y-80971170D01*
X104264480Y-81083344D01*
X104451018Y-81160610D01*
X104649046Y-81200000D01*
X104850954Y-81200000D01*
X105048982Y-81160610D01*
X105235520Y-81083344D01*
X105403400Y-80971170D01*
X105454570Y-80920000D01*
X107674948Y-80920000D01*
X107727817Y-81018911D01*
X107805920Y-81114080D01*
X107901089Y-81192183D01*
X108009666Y-81250219D01*
X108127479Y-81285957D01*
X108250000Y-81298024D01*
X109550001Y-81298024D01*
X109550001Y-81581976D01*
X108250000Y-81581976D01*
X108127479Y-81594043D01*
X108009666Y-81629781D01*
X107901089Y-81687817D01*
X107805920Y-81765920D01*
X107727817Y-81861089D01*
X107674948Y-81960000D01*
X106213416Y-81960000D01*
X106128400Y-81874984D01*
X105960520Y-81762810D01*
X105773982Y-81685544D01*
X105575954Y-81646154D01*
X105374046Y-81646154D01*
X105176018Y-81685544D01*
X104989480Y-81762810D01*
X104821600Y-81874984D01*
X104678830Y-82017754D01*
X104566656Y-82185634D01*
X104489390Y-82372172D01*
X104450000Y-82570200D01*
X104450000Y-82772108D01*
X104489390Y-82970136D01*
X104566656Y-83156674D01*
X104678830Y-83324554D01*
X104821600Y-83467324D01*
X104989480Y-83579498D01*
X105176018Y-83656764D01*
X105374046Y-83696154D01*
X105575954Y-83696154D01*
X105773982Y-83656764D01*
X105960520Y-83579498D01*
X106128400Y-83467324D01*
X106135724Y-83460000D01*
X107674948Y-83460000D01*
X107727817Y-83558911D01*
X107805920Y-83654080D01*
X107901089Y-83732183D01*
X108009666Y-83790219D01*
X108127479Y-83825957D01*
X108250000Y-83838024D01*
X109550001Y-83838024D01*
X109550001Y-84121976D01*
X108250000Y-84121976D01*
X108127479Y-84134043D01*
X108009666Y-84169781D01*
X107901089Y-84227817D01*
X107805920Y-84305920D01*
X107727817Y-84401089D01*
X107674948Y-84500000D01*
X106899570Y-84500000D01*
X106853400Y-84453830D01*
X106685520Y-84341656D01*
X106498982Y-84264390D01*
X106300954Y-84225000D01*
X106099046Y-84225000D01*
X105901018Y-84264390D01*
X105714480Y-84341656D01*
X105546600Y-84453830D01*
X105403830Y-84596600D01*
X105291656Y-84764480D01*
X105214390Y-84951018D01*
X105175000Y-85149046D01*
X105175000Y-85350954D01*
X105214390Y-85548982D01*
X105291656Y-85735520D01*
X105403830Y-85903400D01*
X105546600Y-86046170D01*
X105714480Y-86158344D01*
X105901018Y-86235610D01*
X106099046Y-86275000D01*
X106300954Y-86275000D01*
X106498982Y-86235610D01*
X106685520Y-86158344D01*
X106853400Y-86046170D01*
X106899570Y-86000000D01*
X107674948Y-86000000D01*
X107727817Y-86098911D01*
X107805920Y-86194080D01*
X107901089Y-86272183D01*
X108009666Y-86330219D01*
X108127479Y-86365957D01*
X108250000Y-86378024D01*
X109550001Y-86378024D01*
X109550000Y-86796250D01*
X109525000Y-86821250D01*
X109525000Y-87665000D01*
X109550000Y-87665000D01*
X109550000Y-87915000D01*
X109525000Y-87915000D01*
X109525000Y-88758750D01*
X109550000Y-88783750D01*
X109550000Y-89201976D01*
X108250000Y-89201976D01*
X108127479Y-89214043D01*
X108009666Y-89249781D01*
X107901089Y-89307817D01*
X107805920Y-89385920D01*
X107749228Y-89455000D01*
X105767437Y-89455000D01*
X104602437Y-88290000D01*
X107621976Y-88290000D01*
X107634043Y-88412521D01*
X107669781Y-88530334D01*
X107727817Y-88638911D01*
X107805920Y-88734080D01*
X107901089Y-88812183D01*
X108009666Y-88870219D01*
X108127479Y-88905957D01*
X108250000Y-88918024D01*
X109118750Y-88915000D01*
X109275000Y-88758750D01*
X109275000Y-87915000D01*
X107781250Y-87915000D01*
X107625000Y-88071250D01*
X107621976Y-88290000D01*
X104602437Y-88290000D01*
X103602437Y-87290000D01*
X107621976Y-87290000D01*
X107625000Y-87508750D01*
X107781250Y-87665000D01*
X109275000Y-87665000D01*
X109275000Y-86821250D01*
X109118750Y-86665000D01*
X108250000Y-86661976D01*
X108127479Y-86674043D01*
X108009666Y-86709781D01*
X107901089Y-86767817D01*
X107805920Y-86845920D01*
X107727817Y-86941089D01*
X107669781Y-87049666D01*
X107634043Y-87167479D01*
X107621976Y-87290000D01*
X103602437Y-87290000D01*
X101225000Y-84912564D01*
X101225000Y-71542979D01*
X101229233Y-71500000D01*
X101212339Y-71328470D01*
X101162305Y-71163532D01*
X101148036Y-71136836D01*
X101081056Y-71011524D01*
X100971712Y-70878288D01*
X100938325Y-70850888D01*
X95099936Y-65012500D01*
X99588319Y-60524117D01*
X99621712Y-60496712D01*
X99649117Y-60463319D01*
X100048501Y-60063935D01*
X118130712Y-60063935D01*
X118940000Y-60873223D01*
X119749288Y-60063935D01*
X119677307Y-59822521D01*
X119423670Y-59702265D01*
X119151447Y-59633802D01*
X118871097Y-59619763D01*
X118593396Y-59660686D01*
X118329014Y-59755000D01*
X118202693Y-59822521D01*
X118130712Y-60063935D01*
X100048501Y-60063935D01*
X109937436Y-50175000D01*
X130771976Y-50175000D01*
X130771976Y-50863240D01*
G36*
X83885966Y-78863164D02*
G01*
X83812468Y-79040603D01*
X83775000Y-79228971D01*
X83775000Y-79421029D01*
X83812468Y-79609397D01*
X83885966Y-79786836D01*
X83992668Y-79946527D01*
X84128473Y-80082332D01*
X84288164Y-80189034D01*
X84403847Y-80236952D01*
X84367105Y-80267105D01*
X84343626Y-80295714D01*
X81067365Y-83571976D01*
X80900000Y-83571976D01*
X80777479Y-83584043D01*
X80775000Y-83584795D01*
X80775000Y-83321289D01*
X80869080Y-83244080D01*
X80947183Y-83148911D01*
X81005219Y-83040334D01*
X81040957Y-82922521D01*
X81053024Y-82800000D01*
X81053024Y-81850000D01*
X81040957Y-81727479D01*
X81005219Y-81609666D01*
X80947183Y-81501089D01*
X80908492Y-81453944D01*
X83588326Y-78774111D01*
X83617686Y-78750016D01*
X83961574Y-78750009D01*
X83885966Y-78863164D01*
X83885966Y-78863164D01*
G37*
X83885966Y-78863164D02*
X83812468Y-79040603D01*
X83775000Y-79228971D01*
X83775000Y-79421029D01*
X83812468Y-79609397D01*
X83885966Y-79786836D01*
X83992668Y-79946527D01*
X84128473Y-80082332D01*
X84288164Y-80189034D01*
X84403847Y-80236952D01*
X84367105Y-80267105D01*
X84343626Y-80295714D01*
X81067365Y-83571976D01*
X80900000Y-83571976D01*
X80777479Y-83584043D01*
X80775000Y-83584795D01*
X80775000Y-83321289D01*
X80869080Y-83244080D01*
X80947183Y-83148911D01*
X81005219Y-83040334D01*
X81040957Y-82922521D01*
X81053024Y-82800000D01*
X81053024Y-81850000D01*
X81040957Y-81727479D01*
X81005219Y-81609666D01*
X80947183Y-81501089D01*
X80908492Y-81453944D01*
X83588326Y-78774111D01*
X83617686Y-78750016D01*
X83961574Y-78750009D01*
X83885966Y-78863164D01*
G36*
X144821976Y-57400000D02*
G01*
X144821976Y-57900000D01*
X144824384Y-57924449D01*
X144824384Y-57949009D01*
X144836451Y-58071530D01*
X144855573Y-58167663D01*
X144891310Y-58285474D01*
X144928819Y-58376030D01*
X144986856Y-58484610D01*
X145041312Y-58566109D01*
X145119415Y-58661277D01*
X145188723Y-58730585D01*
X145283891Y-58808688D01*
X145365390Y-58863144D01*
X145450001Y-58908369D01*
X145450001Y-61164341D01*
X144306378Y-60020719D01*
X144282895Y-59992105D01*
X144168693Y-59898381D01*
X144113319Y-59868783D01*
X144080219Y-59759666D01*
X144022183Y-59651089D01*
X143944080Y-59555920D01*
X143848911Y-59477817D01*
X143775000Y-59438310D01*
X143775000Y-58908369D01*
X143859610Y-58863144D01*
X143941109Y-58808688D01*
X144036277Y-58730585D01*
X144105585Y-58661277D01*
X144183688Y-58566109D01*
X144238144Y-58484610D01*
X144296181Y-58376030D01*
X144333690Y-58285474D01*
X144369427Y-58167663D01*
X144388549Y-58071530D01*
X144400616Y-57949009D01*
X144400616Y-57924449D01*
X144403024Y-57900000D01*
X144403024Y-57400000D01*
X144398100Y-57350000D01*
X144826900Y-57350000D01*
X144821976Y-57400000D01*
X144821976Y-57400000D01*
G37*
X144821976Y-57400000D02*
X144821976Y-57900000D01*
X144824384Y-57924449D01*
X144824384Y-57949009D01*
X144836451Y-58071530D01*
X144855573Y-58167663D01*
X144891310Y-58285474D01*
X144928819Y-58376030D01*
X144986856Y-58484610D01*
X145041312Y-58566109D01*
X145119415Y-58661277D01*
X145188723Y-58730585D01*
X145283891Y-58808688D01*
X145365390Y-58863144D01*
X145450001Y-58908369D01*
X145450001Y-61164341D01*
X144306378Y-60020719D01*
X144282895Y-59992105D01*
X144168693Y-59898381D01*
X144113319Y-59868783D01*
X144080219Y-59759666D01*
X144022183Y-59651089D01*
X143944080Y-59555920D01*
X143848911Y-59477817D01*
X143775000Y-59438310D01*
X143775000Y-58908369D01*
X143859610Y-58863144D01*
X143941109Y-58808688D01*
X144036277Y-58730585D01*
X144105585Y-58661277D01*
X144183688Y-58566109D01*
X144238144Y-58484610D01*
X144296181Y-58376030D01*
X144333690Y-58285474D01*
X144369427Y-58167663D01*
X144388549Y-58071530D01*
X144400616Y-57949009D01*
X144400616Y-57924449D01*
X144403024Y-57900000D01*
X144403024Y-57400000D01*
X144398100Y-57350000D01*
X144826900Y-57350000D01*
X144821976Y-57400000D01*
D36*
G36*
X84700000Y-60073841D02*
G01*
X84612500Y-60075000D01*
X84450000Y-60237500D01*
X84450000Y-61125000D01*
X84470000Y-61125000D01*
X84470000Y-61325000D01*
X84450000Y-61325000D01*
X84450000Y-62212500D01*
X84612500Y-62375000D01*
X84700000Y-62376159D01*
X84700000Y-63323841D01*
X84612500Y-63325000D01*
X84450000Y-63487500D01*
X84450000Y-64925000D01*
X84470000Y-64925000D01*
X84470000Y-65125000D01*
X84450000Y-65125000D01*
X84450000Y-65145000D01*
X84250000Y-65145000D01*
X84250000Y-65125000D01*
X83362500Y-65125000D01*
X83200000Y-65287500D01*
X83196855Y-66075000D01*
X83209405Y-66202422D01*
X83246573Y-66324948D01*
X83306930Y-66437868D01*
X83388157Y-66536843D01*
X83487132Y-66618070D01*
X83600052Y-66678427D01*
X83722578Y-66715595D01*
X83850000Y-66728145D01*
X84087500Y-66725000D01*
X84249998Y-66562502D01*
X84249998Y-66725000D01*
X84300000Y-66725000D01*
X84300000Y-69779003D01*
X84276322Y-69788811D01*
X84112537Y-69898249D01*
X83973249Y-70037537D01*
X83863811Y-70201322D01*
X83788429Y-70383311D01*
X83750000Y-70576509D01*
X83750000Y-70773491D01*
X83788429Y-70966689D01*
X83863811Y-71148678D01*
X83973249Y-71312463D01*
X84035275Y-71374489D01*
X83988157Y-71413157D01*
X83906930Y-71512132D01*
X83846573Y-71625052D01*
X83809405Y-71747578D01*
X83796855Y-71875000D01*
X83796855Y-72275000D01*
X83809166Y-72400000D01*
X83796855Y-72525000D01*
X83796855Y-72925000D01*
X83809166Y-73050000D01*
X83796855Y-73175000D01*
X83796855Y-73575000D01*
X83809166Y-73700000D01*
X83796855Y-73825000D01*
X83796855Y-74225000D01*
X83809166Y-74350000D01*
X83796855Y-74475000D01*
X83796855Y-74875000D01*
X83809323Y-75001592D01*
X83800000Y-75112500D01*
X83885758Y-75198258D01*
X83906930Y-75237868D01*
X83978543Y-75325128D01*
X83908176Y-75410274D01*
X83885909Y-75451591D01*
X83800000Y-75537500D01*
X83809457Y-75650000D01*
X83800000Y-75762500D01*
X83885909Y-75848409D01*
X83908176Y-75889726D01*
X83978543Y-75974872D01*
X83906930Y-76062132D01*
X83885758Y-76101742D01*
X83800000Y-76187500D01*
X83809323Y-76298408D01*
X83796855Y-76425000D01*
X83796855Y-76825000D01*
X83809166Y-76950000D01*
X83796855Y-77075000D01*
X83796855Y-77475000D01*
X83809166Y-77600000D01*
X83796855Y-77725000D01*
X83796855Y-77975012D01*
X82303145Y-77975041D01*
X82303145Y-77725000D01*
X82290834Y-77600000D01*
X82303145Y-77475000D01*
X82303145Y-77075000D01*
X82290677Y-76948408D01*
X82300000Y-76837500D01*
X82214242Y-76751742D01*
X82193070Y-76712132D01*
X82121457Y-76624872D01*
X82191824Y-76539726D01*
X82214091Y-76498409D01*
X82300000Y-76412500D01*
X82290543Y-76300000D01*
X82300000Y-76187500D01*
X82214091Y-76101591D01*
X82191824Y-76060274D01*
X82121457Y-75975128D01*
X82193070Y-75887868D01*
X82214242Y-75848258D01*
X82300000Y-75762500D01*
X82290677Y-75651592D01*
X82303145Y-75525000D01*
X82303145Y-75125000D01*
X82290834Y-75000000D01*
X82303145Y-74875000D01*
X82303145Y-74475000D01*
X82290834Y-74350000D01*
X82303145Y-74225000D01*
X82303145Y-73825000D01*
X82290834Y-73700000D01*
X82303145Y-73575000D01*
X82303145Y-73175000D01*
X82290834Y-73050000D01*
X82303145Y-72925000D01*
X82303145Y-72525000D01*
X82290834Y-72400000D01*
X82303145Y-72275000D01*
X82303145Y-71875000D01*
X82290595Y-71747578D01*
X82253427Y-71625052D01*
X82193070Y-71512132D01*
X82111843Y-71413157D01*
X82012868Y-71331930D01*
X81899948Y-71271573D01*
X81800000Y-71241254D01*
X81800000Y-66725000D01*
X81797118Y-66695736D01*
X81788582Y-66667597D01*
X81774720Y-66641664D01*
X81756066Y-66618934D01*
X81733336Y-66600280D01*
X81707403Y-66586418D01*
X81679264Y-66577882D01*
X81650000Y-66575000D01*
X81225000Y-66575000D01*
X81225000Y-66377893D01*
X81512500Y-66375000D01*
X81675000Y-66212500D01*
X81675000Y-65125000D01*
X81875000Y-65125000D01*
X81875000Y-66212500D01*
X82037500Y-66375000D01*
X82350000Y-66378145D01*
X82477422Y-66365595D01*
X82599948Y-66328427D01*
X82712868Y-66268070D01*
X82811843Y-66186843D01*
X82893070Y-66087868D01*
X82953427Y-65974948D01*
X82990595Y-65852422D01*
X83003145Y-65725000D01*
X83000000Y-65287500D01*
X82837500Y-65125000D01*
X81875000Y-65125000D01*
X81675000Y-65125000D01*
X81655000Y-65125000D01*
X81655000Y-64925000D01*
X81675000Y-64925000D01*
X81675000Y-63837500D01*
X81875000Y-63837500D01*
X81875000Y-64925000D01*
X82837500Y-64925000D01*
X83000000Y-64762500D01*
X83003145Y-64325000D01*
X82990595Y-64197578D01*
X82953427Y-64075052D01*
X82899949Y-63975000D01*
X83196855Y-63975000D01*
X83200000Y-64762500D01*
X83362500Y-64925000D01*
X84250000Y-64925000D01*
X84250000Y-63487500D01*
X84087500Y-63325000D01*
X83850000Y-63321855D01*
X83722578Y-63334405D01*
X83600052Y-63371573D01*
X83487132Y-63431930D01*
X83388157Y-63513157D01*
X83306930Y-63612132D01*
X83246573Y-63725052D01*
X83209405Y-63847578D01*
X83196855Y-63975000D01*
X82899949Y-63975000D01*
X82893070Y-63962132D01*
X82811843Y-63863157D01*
X82712868Y-63781930D01*
X82599948Y-63721573D01*
X82477422Y-63684405D01*
X82350000Y-63671855D01*
X82037500Y-63675000D01*
X81875000Y-63837500D01*
X81675000Y-63837500D01*
X81512500Y-63675000D01*
X81225000Y-63672107D01*
X81225000Y-62351647D01*
X81362500Y-62350000D01*
X81525000Y-62187500D01*
X81525000Y-61325000D01*
X81725000Y-61325000D01*
X81725000Y-62187500D01*
X81887500Y-62350000D01*
X82150000Y-62353145D01*
X82277422Y-62340595D01*
X82399948Y-62303427D01*
X82512868Y-62243070D01*
X82611843Y-62161843D01*
X82693070Y-62062868D01*
X82753427Y-61949948D01*
X82790595Y-61827422D01*
X82800682Y-61725000D01*
X83196855Y-61725000D01*
X83209405Y-61852422D01*
X83246573Y-61974948D01*
X83306930Y-62087868D01*
X83388157Y-62186843D01*
X83487132Y-62268070D01*
X83600052Y-62328427D01*
X83722578Y-62365595D01*
X83850000Y-62378145D01*
X84087500Y-62375000D01*
X84250000Y-62212500D01*
X84250000Y-61325000D01*
X83362500Y-61325000D01*
X83200000Y-61487500D01*
X83196855Y-61725000D01*
X82800682Y-61725000D01*
X82803145Y-61700000D01*
X82800000Y-61487500D01*
X82637500Y-61325000D01*
X81725000Y-61325000D01*
X81525000Y-61325000D01*
X81505000Y-61325000D01*
X81505000Y-61125000D01*
X81525000Y-61125000D01*
X81525000Y-60262500D01*
X81725000Y-60262500D01*
X81725000Y-61125000D01*
X82637500Y-61125000D01*
X82800000Y-60962500D01*
X82803145Y-60750000D01*
X82800683Y-60725000D01*
X83196855Y-60725000D01*
X83200000Y-60962500D01*
X83362500Y-61125000D01*
X84250000Y-61125000D01*
X84250000Y-60237500D01*
X84087500Y-60075000D01*
X83850000Y-60071855D01*
X83722578Y-60084405D01*
X83600052Y-60121573D01*
X83487132Y-60181930D01*
X83388157Y-60263157D01*
X83306930Y-60362132D01*
X83246573Y-60475052D01*
X83209405Y-60597578D01*
X83196855Y-60725000D01*
X82800683Y-60725000D01*
X82790595Y-60622578D01*
X82753427Y-60500052D01*
X82693070Y-60387132D01*
X82611843Y-60288157D01*
X82512868Y-60206930D01*
X82399948Y-60146573D01*
X82277422Y-60109405D01*
X82150000Y-60096855D01*
X81887500Y-60100000D01*
X81725000Y-60262500D01*
X81525000Y-60262500D01*
X81362500Y-60100000D01*
X81225000Y-60098353D01*
X81225000Y-59475000D01*
X84700000Y-59475000D01*
X84700000Y-60073841D01*
X84700000Y-60073841D01*
G37*
X84700000Y-60073841D02*
X84612500Y-60075000D01*
X84450000Y-60237500D01*
X84450000Y-61125000D01*
X84470000Y-61125000D01*
X84470000Y-61325000D01*
X84450000Y-61325000D01*
X84450000Y-62212500D01*
X84612500Y-62375000D01*
X84700000Y-62376159D01*
X84700000Y-63323841D01*
X84612500Y-63325000D01*
X84450000Y-63487500D01*
X84450000Y-64925000D01*
X84470000Y-64925000D01*
X84470000Y-65125000D01*
X84450000Y-65125000D01*
X84450000Y-65145000D01*
X84250000Y-65145000D01*
X84250000Y-65125000D01*
X83362500Y-65125000D01*
X83200000Y-65287500D01*
X83196855Y-66075000D01*
X83209405Y-66202422D01*
X83246573Y-66324948D01*
X83306930Y-66437868D01*
X83388157Y-66536843D01*
X83487132Y-66618070D01*
X83600052Y-66678427D01*
X83722578Y-66715595D01*
X83850000Y-66728145D01*
X84087500Y-66725000D01*
X84249998Y-66562502D01*
X84249998Y-66725000D01*
X84300000Y-66725000D01*
X84300000Y-69779003D01*
X84276322Y-69788811D01*
X84112537Y-69898249D01*
X83973249Y-70037537D01*
X83863811Y-70201322D01*
X83788429Y-70383311D01*
X83750000Y-70576509D01*
X83750000Y-70773491D01*
X83788429Y-70966689D01*
X83863811Y-71148678D01*
X83973249Y-71312463D01*
X84035275Y-71374489D01*
X83988157Y-71413157D01*
X83906930Y-71512132D01*
X83846573Y-71625052D01*
X83809405Y-71747578D01*
X83796855Y-71875000D01*
X83796855Y-72275000D01*
X83809166Y-72400000D01*
X83796855Y-72525000D01*
X83796855Y-72925000D01*
X83809166Y-73050000D01*
X83796855Y-73175000D01*
X83796855Y-73575000D01*
X83809166Y-73700000D01*
X83796855Y-73825000D01*
X83796855Y-74225000D01*
X83809166Y-74350000D01*
X83796855Y-74475000D01*
X83796855Y-74875000D01*
X83809323Y-75001592D01*
X83800000Y-75112500D01*
X83885758Y-75198258D01*
X83906930Y-75237868D01*
X83978543Y-75325128D01*
X83908176Y-75410274D01*
X83885909Y-75451591D01*
X83800000Y-75537500D01*
X83809457Y-75650000D01*
X83800000Y-75762500D01*
X83885909Y-75848409D01*
X83908176Y-75889726D01*
X83978543Y-75974872D01*
X83906930Y-76062132D01*
X83885758Y-76101742D01*
X83800000Y-76187500D01*
X83809323Y-76298408D01*
X83796855Y-76425000D01*
X83796855Y-76825000D01*
X83809166Y-76950000D01*
X83796855Y-77075000D01*
X83796855Y-77475000D01*
X83809166Y-77600000D01*
X83796855Y-77725000D01*
X83796855Y-77975012D01*
X82303145Y-77975041D01*
X82303145Y-77725000D01*
X82290834Y-77600000D01*
X82303145Y-77475000D01*
X82303145Y-77075000D01*
X82290677Y-76948408D01*
X82300000Y-76837500D01*
X82214242Y-76751742D01*
X82193070Y-76712132D01*
X82121457Y-76624872D01*
X82191824Y-76539726D01*
X82214091Y-76498409D01*
X82300000Y-76412500D01*
X82290543Y-76300000D01*
X82300000Y-76187500D01*
X82214091Y-76101591D01*
X82191824Y-76060274D01*
X82121457Y-75975128D01*
X82193070Y-75887868D01*
X82214242Y-75848258D01*
X82300000Y-75762500D01*
X82290677Y-75651592D01*
X82303145Y-75525000D01*
X82303145Y-75125000D01*
X82290834Y-75000000D01*
X82303145Y-74875000D01*
X82303145Y-74475000D01*
X82290834Y-74350000D01*
X82303145Y-74225000D01*
X82303145Y-73825000D01*
X82290834Y-73700000D01*
X82303145Y-73575000D01*
X82303145Y-73175000D01*
X82290834Y-73050000D01*
X82303145Y-72925000D01*
X82303145Y-72525000D01*
X82290834Y-72400000D01*
X82303145Y-72275000D01*
X82303145Y-71875000D01*
X82290595Y-71747578D01*
X82253427Y-71625052D01*
X82193070Y-71512132D01*
X82111843Y-71413157D01*
X82012868Y-71331930D01*
X81899948Y-71271573D01*
X81800000Y-71241254D01*
X81800000Y-66725000D01*
X81797118Y-66695736D01*
X81788582Y-66667597D01*
X81774720Y-66641664D01*
X81756066Y-66618934D01*
X81733336Y-66600280D01*
X81707403Y-66586418D01*
X81679264Y-66577882D01*
X81650000Y-66575000D01*
X81225000Y-66575000D01*
X81225000Y-66377893D01*
X81512500Y-66375000D01*
X81675000Y-66212500D01*
X81675000Y-65125000D01*
X81875000Y-65125000D01*
X81875000Y-66212500D01*
X82037500Y-66375000D01*
X82350000Y-66378145D01*
X82477422Y-66365595D01*
X82599948Y-66328427D01*
X82712868Y-66268070D01*
X82811843Y-66186843D01*
X82893070Y-66087868D01*
X82953427Y-65974948D01*
X82990595Y-65852422D01*
X83003145Y-65725000D01*
X83000000Y-65287500D01*
X82837500Y-65125000D01*
X81875000Y-65125000D01*
X81675000Y-65125000D01*
X81655000Y-65125000D01*
X81655000Y-64925000D01*
X81675000Y-64925000D01*
X81675000Y-63837500D01*
X81875000Y-63837500D01*
X81875000Y-64925000D01*
X82837500Y-64925000D01*
X83000000Y-64762500D01*
X83003145Y-64325000D01*
X82990595Y-64197578D01*
X82953427Y-64075052D01*
X82899949Y-63975000D01*
X83196855Y-63975000D01*
X83200000Y-64762500D01*
X83362500Y-64925000D01*
X84250000Y-64925000D01*
X84250000Y-63487500D01*
X84087500Y-63325000D01*
X83850000Y-63321855D01*
X83722578Y-63334405D01*
X83600052Y-63371573D01*
X83487132Y-63431930D01*
X83388157Y-63513157D01*
X83306930Y-63612132D01*
X83246573Y-63725052D01*
X83209405Y-63847578D01*
X83196855Y-63975000D01*
X82899949Y-63975000D01*
X82893070Y-63962132D01*
X82811843Y-63863157D01*
X82712868Y-63781930D01*
X82599948Y-63721573D01*
X82477422Y-63684405D01*
X82350000Y-63671855D01*
X82037500Y-63675000D01*
X81875000Y-63837500D01*
X81675000Y-63837500D01*
X81512500Y-63675000D01*
X81225000Y-63672107D01*
X81225000Y-62351647D01*
X81362500Y-62350000D01*
X81525000Y-62187500D01*
X81525000Y-61325000D01*
X81725000Y-61325000D01*
X81725000Y-62187500D01*
X81887500Y-62350000D01*
X82150000Y-62353145D01*
X82277422Y-62340595D01*
X82399948Y-62303427D01*
X82512868Y-62243070D01*
X82611843Y-62161843D01*
X82693070Y-62062868D01*
X82753427Y-61949948D01*
X82790595Y-61827422D01*
X82800682Y-61725000D01*
X83196855Y-61725000D01*
X83209405Y-61852422D01*
X83246573Y-61974948D01*
X83306930Y-62087868D01*
X83388157Y-62186843D01*
X83487132Y-62268070D01*
X83600052Y-62328427D01*
X83722578Y-62365595D01*
X83850000Y-62378145D01*
X84087500Y-62375000D01*
X84250000Y-62212500D01*
X84250000Y-61325000D01*
X83362500Y-61325000D01*
X83200000Y-61487500D01*
X83196855Y-61725000D01*
X82800682Y-61725000D01*
X82803145Y-61700000D01*
X82800000Y-61487500D01*
X82637500Y-61325000D01*
X81725000Y-61325000D01*
X81525000Y-61325000D01*
X81505000Y-61325000D01*
X81505000Y-61125000D01*
X81525000Y-61125000D01*
X81525000Y-60262500D01*
X81725000Y-60262500D01*
X81725000Y-61125000D01*
X82637500Y-61125000D01*
X82800000Y-60962500D01*
X82803145Y-60750000D01*
X82800683Y-60725000D01*
X83196855Y-60725000D01*
X83200000Y-60962500D01*
X83362500Y-61125000D01*
X84250000Y-61125000D01*
X84250000Y-60237500D01*
X84087500Y-60075000D01*
X83850000Y-60071855D01*
X83722578Y-60084405D01*
X83600052Y-60121573D01*
X83487132Y-60181930D01*
X83388157Y-60263157D01*
X83306930Y-60362132D01*
X83246573Y-60475052D01*
X83209405Y-60597578D01*
X83196855Y-60725000D01*
X82800683Y-60725000D01*
X82790595Y-60622578D01*
X82753427Y-60500052D01*
X82693070Y-60387132D01*
X82611843Y-60288157D01*
X82512868Y-60206930D01*
X82399948Y-60146573D01*
X82277422Y-60109405D01*
X82150000Y-60096855D01*
X81887500Y-60100000D01*
X81725000Y-60262500D01*
X81525000Y-60262500D01*
X81362500Y-60100000D01*
X81225000Y-60098353D01*
X81225000Y-59475000D01*
X84700000Y-59475000D01*
X84700000Y-60073841D01*
M02*
